<svg xmlns="http://www.w3.org/2000/svg" xmlns:xlink="http://www.w3.org/1999/xlink" version="1.1" x="0px" y="0px" viewBox="0 0 100 125" style="enable-background:new 0 0 100 100;" xml:space="preserve"><style type="text/css">
</style><g><path class="st0" d="M52.3,45.9v29.8L37,88.6V46L16.1,22.3h32.4c0-1.1,0.1-2.2,0.2-3.2H9.1l24.7,28.1v48.2l21.8-18.2V47.1l4.2-4.8   c-0.9-0.6-1.8-1.2-2.6-1.9L52.3,45.9z"/><path class="st0" d="M71.8,3.5C61.5,3.5,53,12,53,22.3s8.4,18.8,18.8,18.8s18.8-8.4,18.8-18.8S82.2,3.5,71.8,3.5z M71.8,37.9   c-8.6,0-15.6-7-15.6-15.6s7-15.6,15.6-15.6s15.6,7,15.6,15.6S80.4,37.9,71.8,37.9z"/><path class="st0" d="M71.7,24.1l4.1,4.1c0.2,0.2,0.5,0.4,0.9,0.4c0.3,0,0.6-0.1,0.9-0.4c0.2-0.2,0.4-0.5,0.4-0.9   c0-0.3-0.1-0.6-0.4-0.9l-4.1-4.1l4.1-4.1c0.2-0.2,0.4-0.5,0.4-0.9c0-0.3-0.1-0.6-0.4-0.9c-0.2-0.2-0.5-0.4-0.9-0.4   c-0.3,0-0.6,0.1-0.9,0.4l-4.1,4.1l-4-4c-0.2-0.2-0.5-0.4-0.9-0.4c0,0,0,0,0,0c-0.3,0-0.6,0.1-0.9,0.4c-0.2,0.2-0.4,0.5-0.4,0.9   c0,0.3,0.1,0.6,0.4,0.9l4,4l-4,4c-0.2,0.2-0.4,0.5-0.4,0.9s0.1,0.6,0.4,0.9c0.4,0.4,1.3,0.5,1.7,0L71.7,24.1"/></g><text x="0" y="115" fill="#000000" font-size="5px" font-weight="bold" font-family="'Helvetica Neue', Helvetica, Arial-Unicode, Arial, Sans-serif">Created by Rohit Kumar</text><text x="0" y="120" fill="#000000" font-size="5px" font-weight="bold" font-family="'Helvetica Neue', Helvetica, Arial-Unicode, Arial, Sans-serif">from the Noun Project</text></svg>