<svg width="52" height="52" viewBox="0 0 52 52" fill="none" xmlns="http://www.w3.org/2000/svg">
<rect width="52" height="52" fill="#C4C4C4"/>
<path d="M23.5312 49.5V45.7188C23.5312 42.7396 22.8854 37.4271 21.5938 29.7812C21.0104 26.1771 20.0521 22.4271 18.7188 18.5312C17.3646 14.573 15.9479 11.4688 14.4688 9.21875C13.3229 7.51046 11.9583 6.65629 10.375 6.65625C8.58332 6.65629 7.33333 7.34379 6.625 8.71875C5.97916 9.98962 5.65624 11.375 5.65625 12.875C5.65624 16.0417 6.79166 18.9063 9.0625 21.4688H3.75C1.91666 18.6563 0.999998 15.6875 1 12.5625C0.999998 9.29171 1.875 6.72921 3.625 4.875C5.43749 2.95838 7.63541 2.00005 10.2188 2C13.5521 2.00005 16.1562 3.37505 18.0312 6.125C20.1562 9.22921 21.9271 13 23.3438 17.4375C24.3437 20.6667 25.1875 24.2396 25.875 28.1562C26.5625 24.2396 27.4062 20.6667 28.4062 17.4375C29.7396 13.1042 31.5104 9.33337 33.7188 6.125C35.5937 3.37505 38.1979 2.00005 41.5312 2C44.1145 2.00005 46.3125 2.95838 48.125 4.875C49.8749 6.72921 50.7499 9.29171 50.75 12.5625C50.7499 15.6875 49.8333 18.6563 48 21.4688H42.6875C44.9583 18.9063 46.0937 16.0417 46.0938 12.875C46.0937 11.375 45.7708 9.98962 45.125 8.71875C44.4166 7.34379 43.1666 6.65629 41.375 6.65625C39.7916 6.65629 38.427 7.51046 37.2812 9.21875C35.802 11.4688 34.3854 14.573 33.0312 18.5312C31.6979 22.4271 30.7396 26.1771 30.1562 29.7812C28.8646 37.4271 28.2187 42.7396 28.2188 45.7188V49.5H23.5312Z" fill="black"/>
</svg>
