<svg width="52" height="52" viewBox="0 0 52 52" fill="none" xmlns="http://www.w3.org/2000/svg">
<rect width="52" height="52" fill="#C4C4C4"/>
<path d="M20.8438 33.3438H3V28.6562H13.75C13 27.6979 12.375 26.6563 11.875 25.5312C11.1042 23.7604 10.7187 21.8854 10.7188 19.9062C10.7187 17.8646 11.1042 15.9584 11.875 14.1875C12.6875 12.3542 13.8333 10.7396 15.3125 9.34375C16.7917 7.94795 18.4792 6.86462 20.375 6.09375C22.1875 5.36462 24.1666 5.00004 26.3125 5C28.5625 5.00004 30.5416 5.36462 32.25 6.09375C34.2291 6.94796 35.9166 8.03129 37.3125 9.34375C38.7916 10.7396 39.9375 12.3542 40.75 14.1875C41.5208 15.9584 41.9062 17.8646 41.9062 19.9062C41.9062 21.8854 41.5208 23.7604 40.75 25.5312C40.25 26.6563 39.625 27.6979 38.875 28.6562H49.625V33.3438H31.75V28.6562C32.5416 28.2188 33.2916 27.6875 34 27.0625C35.0208 26.1667 35.8229 25.0625 36.4062 23.75C36.9479 22.5209 37.2187 21.2292 37.2188 19.875C37.2187 18.5 36.9479 17.198 36.4062 15.9688C35.8437 14.7396 35.0416 13.6355 34 12.6562C33.0208 11.7605 31.8437 11.0209 30.4688 10.4375C29.2812 9.93754 27.8958 9.68754 26.3125 9.6875C24.8125 9.68754 23.4271 9.93754 22.1562 10.4375C20.8437 10.9584 19.6667 11.698 18.625 12.6562C17.5833 13.6355 16.7812 14.7396 16.2188 15.9688C15.6771 17.198 15.4062 18.5 15.4062 19.875C15.4062 21.2292 15.6771 22.5209 16.2188 23.75C16.7812 24.9792 17.5833 26.0834 18.625 27.0625C19.2708 27.6667 20.0104 28.1979 20.8438 28.6562V33.3438ZM3 47.4062V42.7188H49.625V47.4062H3Z" fill="black"/>
</svg>
