<svg width="52" height="52" viewBox="0 0 52 52" fill="none" xmlns="http://www.w3.org/2000/svg">
<rect width="52" height="52" fill="#C4C4C4"/>
<path d="M30.75 28.6875H20.9375C20.6875 32.8125 19.8229 36.6563 18.3438 40.2188C16.9896 43.4896 15.0312 46.6354 12.4688 49.6562H6C9.81249 45.9479 12.4792 42.1979 14 38.4062C15.25 35.3229 15.9896 32.0833 16.2188 28.6875H6.9375V24H16.2188C15.9896 20.6042 15.25 17.3646 14 14.2812C12.4583 10.4896 9.79166 6.72921 6 3H12.4688C15.0104 6.02088 16.9687 9.17712 18.3438 12.4688C19.8437 16.0313 20.7083 19.875 20.9375 24H30.75C30.9791 19.875 31.8437 16.0313 33.3438 12.4688C34.7187 9.17712 36.6771 6.02088 39.2188 3H45.6875C41.8958 6.72921 39.2291 10.4896 37.6875 14.2812C36.4375 17.3646 35.6979 20.6042 35.4688 24H44.4375V28.6875H35.4688C35.6979 32.0833 36.4375 35.3229 37.6875 38.4062C39.2083 42.1979 41.875 45.9479 45.6875 49.6562H39.2188C36.6562 46.6354 34.6979 43.4896 33.3438 40.2188C31.8645 36.5938 31 32.75 30.75 28.6875Z" fill="black"/>
</svg>
