<svg width="52" height="52" viewBox="0 0 52 52" fill="none" xmlns="http://www.w3.org/2000/svg">
<rect width="52" height="52" fill="#C4C4C4"/>
<path d="M11.0938 13.4375C10.5312 12.1042 9.72916 10.9167 8.6875 9.875C7.72916 8.91671 6.55208 8.12504 5.15625 7.5C3.94791 6.95837 2.5625 6.68754 1 6.6875V2C3.14583 2.00005 5.12499 2.38546 6.9375 3.15625C8.83332 3.9688 10.5208 5.10421 12 6.5625C13.5 8.04171 14.6458 9.73962 15.4375 11.6562C16 12.9896 16.8021 14.1771 17.8438 15.2188C18.8021 16.1771 19.9792 16.9688 21.375 17.5938C22.5833 18.1354 23.9687 18.4063 25.5312 18.4062C27.0312 18.4063 28.4166 18.1354 29.6875 17.5938C31.0208 17.0313 32.1979 16.2396 33.2188 15.2188C34.2604 14.1771 35.0625 12.9896 35.625 11.6562C36.4166 9.73962 37.5625 8.04171 39.0625 6.5625C40.5416 5.10421 42.2291 3.9688 44.125 3.15625C45.9375 2.38546 47.9166 2.00005 50.0625 2V6.6875C48.5 6.68754 47.1145 6.95837 45.9062 7.5C44.5104 8.12504 43.3333 8.91671 42.375 9.875C41.3333 10.9167 40.5312 12.1042 39.9688 13.4375C39.177 15.3334 38.0312 17.0313 36.5312 18.5312C35.802 19.2604 34.8541 20 33.6875 20.75C34.8541 21.5 35.802 22.2396 36.5312 22.9688C38.0312 24.4688 39.177 26.1667 39.9688 28.0625C40.7395 29.9375 41.125 31.9479 41.125 34.0938C41.125 36.1771 40.7395 38.1563 39.9688 40.0312C39.1562 41.9479 38.0104 43.6458 36.5312 45.125C35.052 46.5833 33.3645 47.7188 31.4688 48.5312C29.6562 49.3021 27.6771 49.6875 25.5312 49.6875C23.2812 49.6875 21.3021 49.3021 19.5938 48.5312C17.6146 47.6354 15.9271 46.5 14.5312 45.125C13.0521 43.6458 11.9062 41.9479 11.0938 40.0312C10.3229 38.1563 9.93749 36.1771 9.9375 34.0938C9.93749 31.9479 10.3229 29.9375 11.0938 28.0625C11.9271 26.0417 13.0729 24.3438 14.5312 22.9688C15.4271 22.1146 16.3854 21.375 17.4062 20.75C16.3646 20.125 15.4062 19.3854 14.5312 18.5312C13.0729 17.1146 11.9271 15.4167 11.0938 13.4375ZM29.6875 23.9062C28.4166 23.3646 27.0312 23.0938 25.5312 23.0938C24.0312 23.0938 22.6458 23.3646 21.375 23.9062C20.0833 24.4896 18.9062 25.2813 17.8438 26.2812C16.7604 27.4063 15.9583 28.5938 15.4375 29.8438C14.8958 31.1563 14.625 32.5729 14.625 34.0938C14.625 35.5521 14.8958 36.9375 15.4375 38.25C15.9583 39.5 16.7604 40.6875 17.8438 41.8125C18.9062 42.8125 20.0833 43.6042 21.375 44.1875C22.6458 44.7292 24.0312 45 25.5312 45C27.0312 45 28.4166 44.7292 29.6875 44.1875C30.9791 43.6042 32.1562 42.8125 33.2188 41.8125C34.302 40.6875 35.1041 39.5 35.625 38.25C36.1666 36.9375 36.4375 35.5521 36.4375 34.0938C36.4375 32.5729 36.1666 31.1563 35.625 29.8438C35.1041 28.5938 34.302 27.4063 33.2188 26.2812C32.1562 25.2813 30.9791 24.4896 29.6875 23.9062Z" fill="black"/>
</svg>
