<?xml version="1.0" standalone="no"?>
<!DOCTYPE svg PUBLIC "-//W3C//DTD SVG 20010904//EN"
 "http://www.w3.org/TR/2001/REC-SVG-20010904/DTD/svg10.dtd">
<svg version="1.0" xmlns="http://www.w3.org/2000/svg"
 width="1280.000000pt" height="962.000000pt" viewBox="0 0 1280.000000 962.000000"
 preserveAspectRatio="xMidYMid meet">
<metadata>
Created by potrace 1.15, written by Peter Selinger 2001-2017
</metadata>
<g transform="translate(0.000000,962.000000) scale(0.100000,-0.100000)"
fill="#000000" stroke="none">
<path d="M261 9598 c-84 -29 -151 -93 -176 -168 -28 -85 -25 -238 8 -367 47
-182 106 -296 191 -369 40 -35 287 -164 313 -164 10 0 13 30 13 130 l0 129
-72 38 c-49 26 -83 52 -105 81 -39 52 -102 240 -110 329 -5 56 -4 63 20 87 52
52 154 31 344 -70 70 -37 179 -94 240 -126 l113 -59 2 -817 3 -817 135 0 135
0 5 818 5 818 45 23 c25 12 131 68 237 125 194 104 264 131 341 131 58 0 92
-33 92 -89 0 -46 -61 -264 -89 -318 -26 -51 -65 -86 -134 -120 l-58 -29 -2
-132 c-1 -87 2 -132 9 -132 28 0 280 136 319 171 83 76 135 180 182 362 33
130 37 283 9 366 -24 71 -93 141 -161 165 -116 40 -285 27 -465 -36 -111 -39
-145 -57 -268 -139 l-103 -69 -99 0 -99 0 -98 67 c-183 124 -367 190 -558 199
-85 4 -109 1 -164 -18z"/>
<path d="M4040 9588 c0 -56 27 -162 61 -243 56 -136 146 -250 298 -382 l33
-29 -66 -54 c-194 -157 -325 -408 -326 -623 -1 -330 284 -686 635 -793 93 -29
288 -26 379 4 294 98 535 355 602 639 23 96 15 265 -16 353 -63 180 -177 336
-329 451 l-34 25 62 48 c183 141 331 405 331 591 l0 45 -134 0 -133 0 -7 -55
c-20 -174 -167 -371 -333 -447 -188 -85 -391 -49 -550 96 -106 97 -171 213
-195 349 l-10 57 -134 0 -134 0 0 -32z m911 -798 c234 -43 449 -302 449 -540
-1 -265 -278 -541 -545 -540 -244 1 -507 242 -540 497 -10 71 11 167 57 263
76 158 243 294 389 319 76 12 128 13 190 1z"/>
<path d="M7160 9480 l0 -140 175 0 175 0 0 -815 0 -815 -175 0 -175 0 0 -135
0 -135 980 0 980 0 0 135 0 135 -175 0 -175 0 0 815 0 815 175 0 175 0 0 140
0 140 -980 0 -980 0 0 -140z m1330 -955 l0 -815 -350 0 -350 0 0 818 0 817
350 -3 350 -3 0 -814z"/>
<path d="M11460 9484 c-127 -11 -244 -27 -328 -44 -322 -67 -510 -251 -529
-515 -9 -128 31 -248 119 -360 179 -226 461 -281 689 -134 130 85 229 218 265
360 30 116 3 252 -70 361 l-35 53 57 7 c78 11 325 0 452 -18 244 -37 435 -120
623 -271 l77 -63 0 134 0 134 -51 46 c-164 147 -396 248 -672 291 -98 16 -491
28 -597 19z m-224 -343 c143 -65 216 -230 155 -350 -99 -193 -304 -226 -443
-72 -105 117 -100 247 14 358 82 79 186 104 274 64z"/>
<path d="M12133 8696 c-100 -25 -182 -74 -268 -160 -185 -186 -223 -388 -114
-596 16 -30 37 -66 46 -79 l17 -24 -239 6 c-191 4 -260 9 -336 26 -234 51
-422 140 -586 278 l-53 45 0 -135 0 -135 48 -43 c262 -233 674 -338 1219 -308
494 26 786 157 875 391 29 78 41 188 29 271 -45 299 -363 529 -638 463z m202
-286 c51 -22 118 -89 145 -145 70 -144 -35 -332 -205 -368 -82 -17 -152 8
-225 82 -91 91 -112 190 -61 290 73 142 212 199 346 141z"/>
<path d="M1061 6089 c-262 -34 -432 -177 -523 -439 -28 -83 -32 -108 -32 -195
0 -117 12 -154 130 -409 41 -88 74 -161 74 -162 0 -1 -35 0 -77 3 -147 10
-285 -41 -392 -146 -240 -238 -173 -623 136 -773 139 -67 278 -64 422 8 130
65 237 210 260 354 33 201 -1 354 -159 725 -139 326 -154 386 -126 508 39 166
127 248 300 278 53 9 104 9 220 0 309 -24 389 -46 479 -131 85 -82 102 -133
101 -320 0 -132 -2 -152 -27 -223 -36 -103 -82 -193 -247 -482 -160 -281 -190
-345 -225 -481 -68 -270 -54 -470 44 -592 66 -83 243 -150 366 -139 128 12
264 84 405 215 86 80 88 66 -22 185 l-63 67 -86 -84 c-116 -112 -166 -141
-244 -141 -71 1 -147 31 -166 67 -34 62 -29 188 16 362 30 119 81 222 227 456
131 210 156 257 205 384 92 238 100 567 19 750 -35 77 -108 168 -173 213 -131
91 -276 128 -548 143 -192 11 -205 11 -294 -1z m-372 -1438 c96 -49 161 -150
161 -248 -1 -101 -65 -200 -164 -250 -122 -62 -278 -6 -349 125 -60 111 -43
218 51 312 35 35 75 63 102 73 58 21 143 16 199 -12z"/>
<path d="M4159 6082 c-145 -48 -253 -178 -300 -360 -18 -71 -19 -118 -19 -939
l0 -863 135 0 134 0 3 883 3 882 25 49 c31 61 64 87 121 93 52 6 101 -22 132
-74 32 -55 36 -186 37 -1025 l0 -808 135 0 134 0 3 893 c3 869 4 893 23 931
27 53 63 78 122 83 39 4 55 0 82 -19 63 -42 72 -70 87 -266 49 -638 115 -1007
243 -1355 l48 -132 -35 -70 c-50 -102 -126 -208 -195 -271 l-60 -56 94 -94
c51 -52 97 -93 100 -92 16 7 126 142 176 218 68 101 65 98 70 83 11 -31 127
-195 174 -246 l54 -58 94 95 95 95 -66 64 c-70 69 -146 175 -196 274 l-31 61
34 88 c141 360 256 985 258 1404 0 113 -4 146 -22 205 -49 151 -135 260 -249
313 -50 24 -69 27 -152 26 -80 0 -104 -4 -152 -26 -31 -15 -76 -45 -101 -67
l-44 -40 -37 38 c-21 21 -63 51 -94 67 -52 26 -67 29 -157 28 -86 0 -108 -4
-155 -26 -30 -14 -76 -44 -101 -66 l-46 -41 -37 38 c-87 89 -243 124 -367 83z
m1360 -270 c90 -45 104 -186 60 -607 -24 -233 -59 -448 -106 -650 -29 -123
-29 -123 -62 26 -54 252 -93 543 -112 835 -18 274 1 363 85 400 43 18 95 17
135 -4z"/>
<path d="M10897 6081 c-110 -36 -207 -132 -262 -256 -55 -124 -55 -110 -55
-1042 l0 -863 135 0 134 0 3 883 3 882 25 49 c31 61 64 87 121 93 35 4 51 0
78 -19 49 -33 70 -74 81 -159 5 -42 10 -433 10 -901 l0 -828 135 0 134 0 3
888 c3 885 3 887 25 934 26 56 59 80 121 85 62 6 108 -24 142 -92 l25 -50 5
-905 c5 -898 6 -906 27 -970 48 -140 138 -252 250 -307 52 -25 68 -28 158 -28
123 1 173 21 256 105 87 86 148 226 164 373 4 37 9 67 11 67 1 0 40 -22 86
-50 l83 -50 3 117 c2 85 -1 120 -10 129 -7 6 -79 59 -159 117 l-146 105 -159
-97 -159 -97 -3 -137 c-2 -75 0 -137 3 -137 4 0 45 23 92 51 46 28 87 49 90
45 9 -9 -18 -169 -35 -205 -23 -49 -66 -73 -125 -68 -61 5 -95 30 -127 93
l-25 49 -5 900 -5 900 -24 70 c-35 105 -84 186 -151 249 -49 45 -74 60 -132
77 -131 40 -268 11 -369 -79 l-46 -41 -39 40 c-86 88 -241 122 -367 80z"/>
<path d="M8032 5446 c-206 -50 -412 -273 -429 -464 l-6 -62 -273 0 -274 0 0
-140 0 -140 410 0 410 0 0 165 c0 156 1 169 24 214 46 90 163 171 246 171 85
0 204 -84 246 -175 22 -46 24 -63 24 -212 l0 -163 410 0 410 0 0 140 0 140
-275 0 -275 0 0 33 c0 153 -154 368 -320 449 -119 57 -217 70 -328 44z"/>
<path d="M7050 4240 l0 -130 1090 0 1090 0 0 130 0 130 -1090 0 -1090 0 0
-130z"/>
<path d="M5460 2399 c-168 -24 -309 -132 -388 -296 -52 -111 -55 -251 -7 -375
5 -14 0 -17 -31 -20 l-38 -3 -260 -617 c-146 -346 -263 -612 -267 -605 -4 6
-61 167 -127 357 -66 190 -182 520 -256 734 -75 214 -136 391 -136 393 0 1
-65 3 -145 3 -80 0 -145 -3 -145 -7 1 -5 153 -433 339 -953 l337 -945 138 0
137 0 294 685 293 685 71 3 70 3 114 -113 c124 -123 178 -196 237 -321 57
-118 73 -191 68 -307 -3 -84 -8 -105 -36 -162 -78 -158 -256 -255 -504 -274
l-88 -7 0 -130 0 -130 108 7 c278 19 475 97 627 250 89 90 142 181 171 296 24
93 22 253 -5 355 -41 156 -168 381 -280 494 l-67 68 50 23 c31 14 79 52 122
94 102 103 144 199 144 336 0 83 -13 136 -51 214 -93 190 -286 295 -489 265z
m140 -296 c140 -74 162 -239 44 -342 -46 -41 -73 -51 -135 -51 -141 0 -245
144 -194 267 25 59 63 101 113 128 62 32 108 31 172 -2z"/>
<path d="M1630 2170 l0 -120 152 0 153 0 -365 -365 -365 -365 -238 2 -237 3 0
-127 0 -128 112 0 113 0 -473 -473 c-259 -259 -472 -475 -472 -480 0 -4 80 -7
178 -7 l177 0 480 480 480 480 245 0 245 0 -2 126 -2 126 -110 -1 c-61 -1
-111 2 -111 6 0 10 483 493 493 493 4 0 7 -65 7 -145 l0 -145 135 0 135 0 0
380 0 380 -365 0 -365 0 0 -120z"/>
<path d="M10730 2243 c286 -246 416 -446 464 -714 8 -46 16 -104 18 -129 l3
-45 -228 -3 -227 -2 0 -140 0 -140 223 0 c123 0 226 -2 228 -5 3 -2 1 -44 -3
-92 -18 -191 -90 -377 -202 -526 -55 -74 -299 -317 -317 -317 -5 0 -9 -4 -9
-10 0 -6 58 -10 154 -10 l153 0 84 74 c257 226 375 445 409 758 5 54 10 104
10 113 0 13 27 15 200 15 l200 0 0 -52 c0 -82 27 -240 55 -323 59 -177 128
-280 301 -452 l133 -133 160 0 160 0 -167 167 c-130 131 -178 186 -216 251
-82 139 -133 299 -151 475 l-7 67 226 0 226 0 0 140 0 140 -225 0 -225 0 0 23
c1 96 41 265 90 378 68 159 167 285 362 460 l88 79 -163 0 -163 0 -120 -114
c-132 -125 -204 -221 -265 -351 -57 -122 -99 -303 -99 -431 l0 -44 -200 0
c-184 0 -200 1 -200 18 0 52 -23 208 -41 280 -54 217 -162 386 -359 559 l-94
83 -160 0 -161 0 55 -47z"/>
<path d="M7228 1706 l-178 -182 0 -149 0 -150 182 183 183 182 180 -180 181
-180 182 182 182 183 182 -183 182 -182 181 180 180 180 183 -182 182 -183 0
150 0 150 -183 183 -182 182 -180 -180 -180 -180 -182 182 -183 183 -183 -183
-182 -182 -180 180 c-99 99 -182 179 -185 179 -3 -1 -85 -84 -182 -183z"/>
<path d="M7232 997 l-182 -182 0 -150 0 -150 180 180 180 180 178 -178 c97
-97 182 -177 187 -177 5 0 90 80 187 177 l178 178 178 -178 c97 -97 181 -177
185 -177 4 0 85 79 179 175 94 96 175 175 182 175 6 0 91 -80 188 -177 l178
-178 0 150 0 150 -182 182 -183 183 -182 -182 -183 -183 -180 180 -180 180
-180 -180 -180 -180 -183 183 -182 182 -183 -183z"/>
</g>
</svg>
