<?xml version="1.0" encoding="UTF-8"?>
<!DOCTYPE svg PUBLIC "-//W3C//DTD SVG 1.1//EN" "http://www.w3.org/Graphics/SVG/1.1/DTD/svg11.dtd">
<!-- Creator: CorelDRAW 2021.5 -->
<svg xmlns="http://www.w3.org/2000/svg" xml:space="preserve" width="38.8906mm" height="50.1184mm" version="1.1" style="shape-rendering:geometricPrecision; text-rendering:geometricPrecision; image-rendering:optimizeQuality; fill-rule:evenodd; clip-rule:evenodd"
viewBox="0 0 371.35 478.56"
 xmlns:xlink="http://www.w3.org/1999/xlink"
 xmlns:xodm="http://www.corel.com/coreldraw/odm/2003">
 <defs>
  <style type="text/css">
   <![CDATA[
    .fil1 {fill:#070808}
    .fil0 {fill:#E1E2E2}
    .fil2 {fill:#F2F3F3}
   ]]>
  </style>
 </defs>
 <g id="Слой_x0020_1">
  <metadata id="CorelCorpID_0Corel-Layer"/>
  <path class="fil0" d="M340.24 101.73c-5.89,-3.94 -1.29,-3.02 -9.2,-3.68 7.52,14.22 1.62,24.16 1.83,42.32 0.11,9.2 0.56,15.04 -1.98,21.94 -1.4,3.8 -5.63,13.56 -7.97,17.8 -23.42,42.42 -117.23,141.3 -120.15,175.61 -7.26,32.63 -20.09,77.74 4.95,102.34 2.34,-0.49 1.84,3.41 1.84,-2.98 -12.7,-21.95 14.5,-71.19 23.71,-84.83 42.4,-62.8 98.4,-113.27 128.68,-182.39 3.01,-6.87 4.05,-15.57 7.74,-21.51 0.54,-25.35 8.39,-33.2 -15.47,-63.88 -4.37,-5.62 -8.68,-11.73 -15.82,-13.63 0.6,7.15 1.66,4.8 1.84,12.88z"/>
  <path class="fil1" d="M139.47 167.99c-4.35,5.37 -6.54,11.63 -8.84,18.62 -2.61,7.95 -3.62,15.79 -9.41,20.04l-0.08 -5.52c-6.37,-12.65 -21.34,-32.62 -37.41,-35.65 -19.93,-3.76 -43.58,8.13 -60.06,12.43 -2.37,3.47 -4.28,5.68 -5.52,10.34 2.48,-1.39 2.03,-1.01 5.52,-1.84 -3.39,7.06 -3.8,22.21 18.02,16.28 44.31,-12.03 44.26,0.3 60.8,13.48 2.65,2.11 11.05,6.51 12.4,7.85 5.58,5.51 1.31,5.3 6.33,15.76 14.81,-0.33 23.36,-21.76 36.8,-40.5 5.42,-7.56 11.88,-13.54 17.63,-21.02 6.09,-7.92 12.12,-12.4 19.73,-18.92 6.98,-5.98 14.66,-10.79 22.62,-16.03 8.49,-5.59 15.67,-9.06 25.29,-13.36 10.23,-4.57 17.92,-6.61 30.68,-7.97 7.26,-0.78 10.26,-1.86 18.36,-1.88 37.11,-0.11 18.98,-11.52 25.2,-20.91 8.31,-12.54 -2.23,8.66 2.46,-2.96l-7.36 -6.93c-55.34,-4.63 -86.69,16.16 -116.81,41.04 -14.54,12.01 -25.39,24.86 -37.71,41.42l-31.66 48.52c1.51,-22.99 9.01,-33.8 13.02,-52.28z"/>
  <path class="fil0" d="M10.42 186.39l-0.04 3.68 -1.06 3.68c1.18,39.56 0.02,54.03 17.27,83.41 31.19,53.12 68.02,63.85 101.67,97.29 36.68,36.45 29.94,46.08 38.98,59.49 6.12,-6.54 -0.53,-35.9 -2.86,-44.06 -4.15,-14.58 -9.03,-24.52 -15.6,-35.94 -35.18,-61.19 -98.93,-69.7 -125.11,-132.57 -4,-9.6 -9.2,-30.67 -9.2,-44.17l-4.04 9.2z"/>
  <path class="fil1" d="M167.23 433.94c-9.04,-13.41 -2.3,-23.04 -38.98,-59.49 -33.64,-33.43 -70.48,-44.16 -101.67,-97.29 -17.24,-29.38 -16.09,-43.85 -17.27,-83.41l1.06 -3.68 0.04 -3.68c-5.52,2.5 -5.5,8.06 -6.71,20.53 -1.02,10.43 -1.17,15.06 -2.71,24.91 -6.65,42.45 21.18,88.22 47.97,115.16 5.69,5.73 8.93,7.73 14.72,12.89l30.98 24.24c25.14,18.78 36.58,30.49 53.77,56.67 3.97,6.04 6.25,11.75 15.12,12.49 1.93,-4.01 3.57,-13.27 3.68,-19.34z"/>
  <path class="fil2" d="M222.45 73.09c-19.06,10.46 -34.18,23.25 -48.3,39.23 -9.45,10.69 -30.72,41.15 -34.67,55.66 -4,18.48 -11.5,29.29 -13.02,52.28l31.66 -48.52c12.31,-16.56 23.17,-29.42 37.71,-41.42 30.13,-24.89 61.48,-45.67 116.81,-41.04l12.83 1.73c-2.2,-8.76 -14.95,-18.35 -22.05,-22.39 -7.9,-4.49 -23.23,-8.97 -35.3,-9.22 -6.32,2.79 -16.91,3.82 -23.57,5.61 -8.24,2.22 -14.53,5.85 -22.1,8.08z"/>
  <path class="fil1" d="M209.56 455.08c0,-37.95 59.95,-105.22 86.26,-138.25 17.37,-21.8 31.95,-40.55 46.84,-65.44 13.47,-22.51 27.03,-49.98 27.03,-85.04 -3.69,5.94 -4.73,14.63 -7.74,21.51 -30.28,69.12 -86.27,119.6 -128.68,182.39 -9.21,13.64 -36.41,62.88 -23.71,84.83z"/>
  <path class="fil2" d="M64.16 135.23c-3.78,2.72 -7.77,5.05 -11.5,8.36 -9.83,8.74 -22.79,22.75 -28.99,34.29 16.48,-4.29 40.13,-16.19 60.06,-12.43 16.07,3.03 31.04,23 37.41,35.65l-1.3 -37.27c-3.43,-15.13 -7.41,-17.13 -15.18,-26.63 -18.58,-9.25 -21.05,-8.18 -40.49,-1.98z"/>
  <path class="fil2" d="M229.03 22.58c-3.17,14.04 0.11,26.63 13.83,27.81 15.51,1.33 20.77,-10.4 27.44,-16.63 16.38,-35.52 -24.91,-48.78 -41.27,-11.17z"/>
  <path class="fil2" d="M71.55 96.2c-1.42,13.05 1.13,23.74 14.74,24.08 13.43,0.34 16.56,-8.9 23.89,-14.74 5.77,-12.54 6.29,-31.63 -11.26,-32.24 -12.84,-0.44 -24.63,10.83 -27.36,22.9z"/>
  <path class="fil1" d="M207.72 458.06c-25.05,-24.6 -12.22,-69.71 -4.95,-102.34 -0.35,0.32 -0.87,0.36 -1,1.01l-3.3 4.48c-5.09,10.14 -11.89,46.33 -13.67,58.09 -2.09,13.79 -0.81,25.6 0.87,37.62 1.51,10.8 5.73,26.34 18.38,20.28 1.92,-4 2.64,-13.82 3.68,-19.14z"/>
  <path class="fil1" d="M222.45 73.09c7.57,-2.23 13.86,-5.87 22.1,-8.08 6.66,-1.79 17.25,-2.82 23.57,-5.61 3.55,-6.04 2.19,-16.55 2.19,-25.64 -6.68,6.23 -11.94,17.96 -27.44,16.63 -13.71,-1.18 -17,-13.76 -13.83,-27.81 -7.43,7.6 -6.16,14.16 -7.79,21.89 -3.99,18.95 -2,11.97 1.2,28.61z"/>
  <path class="fil1" d="M64.16 135.23c19.44,-6.2 21.92,-7.27 40.49,1.98 4.12,-5.71 4.76,-6.5 5.94,-14.95 1.25,-8.96 -0.42,-6.29 -0.42,-16.72 -7.32,5.84 -10.46,15.08 -23.89,14.74 -13.61,-0.34 -16.16,-11.04 -14.74,-24.08 -5.9,4.28 -12.22,30.42 -7.39,39.03z"/>
 </g>
</svg>
