<?xml version="1.0" encoding="iso-8859-1"?>
<!-- Uploaded to: SVG Repo, www.svgrepo.com, Generator: SVG Repo Mixer Tools -->
<svg version="1.1" id="Layer_1" xmlns="http://www.w3.org/2000/svg" xmlns:xlink="http://www.w3.org/1999/xlink" 
	 viewBox="0 0 511.999 511.999" xml:space="preserve">
<path style="fill:#DDB200;" d="M383.467,162.959c10.487-12.027,30.018-23.988,44.348-31.006
	c11.414-5.589,19.234-17.388,19.057-30.995c-0.243-18.679-15.813-33.538-34.493-33.538h-49.553l-8.534-27.802h63.966
	c33.453,0,61.338,26.611,61.772,60.062c0.316,24.367-13.688,45.497-34.128,55.508c-25.664,12.568-48.171,30.754-66.951,52.292
	l-28.645,32.851H161.693l-28.645-32.851c-18.781-21.538-41.287-39.724-66.951-52.292c-20.441-10.01-34.445-31.14-34.128-55.508
	c0.434-33.45,28.318-60.062,61.772-60.062h63.966l-9.322,27.802H98.831c-18.68,0-34.25,14.86-34.493,33.538
	c-0.177,13.607,7.643,25.405,19.057,30.995c14.331,7.018,33.861,18.979,44.348,31.006L383.467,162.959L383.467,162.959z"/>
<path style="opacity:0.31;fill:#664400;enable-background:new    ;" d="M394.291,152.765c-4.116,3.297-7.843,6.707-10.825,10.126
	H127.744c-2.643-3.032-5.863-6.058-9.426-9.003c-4.237,9.26-7.575,19.017-9.895,29.165c8.791,7.473,17.019,15.635,24.625,24.357
	l28.645,32.851h188.613l28.645-32.851c7.88-9.036,16.423-17.473,25.573-25.162C402.116,171.98,398.663,162.115,394.291,152.765z"/>
<path style="fill:#DDB200;" d="M211.984,246.528v59.271l5.746,6.898c13.261,15.92,20.524,57.009,20.524,77.728v78.017h35.637
	l-0.803-78.017c0-20.72,7.262-61.809,20.524-77.728l5.746-6.898v-59.271H211.984z"/>
<g>
	<path style="opacity:0.3;fill:#664400;enable-background:new    ;" d="M278.351,246.528v59.271l-5.746,6.898
		c-13.261,15.92-20.524,57.009-20.524,77.728l0.803,78.017h21.006l-0.803-78.017c0-20.72,7.262-61.809,20.524-77.728l5.746-6.898
		v-59.271H278.351z"/>
	<rect x="211.985" y="237.688" style="opacity:0.3;fill:#664400;enable-background:new    ;" width="87.376" height="58.92"/>
</g>
<path style="fill:#EEBF00;" d="M255.671,281.292L255.671,281.292c-70.864,0-128.311-57.446-128.311-128.31V0h256.621v152.983
	C383.981,223.846,326.535,281.292,255.671,281.292z"/>
<path style="opacity:0.3;fill:#664400;enable-background:new    ;" d="M355.812,0v133.982c0,70.864-57.446,128.31-128.31,128.31l0,0
	c-20.457,0-39.792-4.796-56.953-13.311c22.65,20.099,52.458,32.312,85.122,32.312l0,0c70.864,0,128.31-57.446,128.31-128.31V0
	H355.812z"/>
<polygon style="fill:#4E8FE3;" points="256.567,217.123 176.154,108.811 194.309,64.169 318.824,64.169 336.979,108.811 "/>
<g>
	<polygon style="fill:#8EC1ED;" points="318.824,64.169 287.664,108.793 256.539,64.204 225.38,108.829 194.254,64.24 	"/>
	<polygon style="fill:#8EC1ED;" points="287.664,108.793 256.567,217.123 225.38,108.829 	"/>
</g>
<rect id="SVGCleanerId_0" x="176.454" y="452.869" style="fill:#664400;" width="158.427" height="59.13"/>
<g>
	<rect x="127.363" style="opacity:0.3;fill:#664400;enable-background:new    ;" width="256.62" height="24.188"/>
	<rect x="114.381" y="39.617" style="opacity:0.3;fill:#664400;enable-background:new    ;" width="12.975" height="27.802"/>
	<rect x="383.983" y="39.617" style="opacity:0.3;fill:#664400;enable-background:new    ;" width="12.975" height="27.802"/>
</g>
<g>
	<rect id="SVGCleanerId_0_1_" x="176.454" y="452.869" style="fill:#664400;" width="158.427" height="59.13"/>
</g>
<g>
	<rect x="306.057" y="452.869" style="fill:#56361D;" width="28.831" height="59.13"/>
	<rect x="176.454" y="483.164" style="fill:#56361D;" width="158.427" height="28.831"/>
</g>
<g>
	<polygon style="fill:#4675CF;" points="176.154,108.811 182.007,116.695 331.126,116.695 336.979,108.811 333.773,100.927 
		179.36,100.927 	"/>
	<polygon style="opacity:0.45;fill:#4675CF;enable-background:new    ;" points="318.824,64.169 308.401,64.169 319.413,91.244 
		313.56,99.128 241.262,196.509 256.567,217.123 331.126,116.695 336.979,108.811 	"/>
</g>
</svg>