<?xml version="1.0" encoding="iso-8859-1"?>
<!-- Uploaded to: SVG Repo, www.svgrepo.com, Generator: SVG Repo Mixer Tools -->
<svg height="800px" width="800px" version="1.1" id="Layer_1" xmlns="http://www.w3.org/2000/svg" xmlns:xlink="http://www.w3.org/1999/xlink" 
	 viewBox="0 0 512 512" xml:space="preserve">
<g>
	<polygon style="fill:#4675CF;" points="186.205,408.076 90.454,503.826 66.108,437.718 0,413.372 82.217,331.155 122.966,290.406 
		211.543,378.982 	"/>
	<polygon style="fill:#4675CF;" points="405.487,306.86 512,413.372 445.891,437.718 421.545,503.826 298.975,381.256 	"/>
</g>
<g>
	<polygon style="fill:#4E8FE3;" points="146.568,314.077 34.53,426.115 66.038,437.718 78.385,471.244 191.06,358.569 	"/>
	<polygon style="fill:#4E8FE3;" points="477.501,426.233 377.778,326.51 325.388,363.103 433.85,471.566 446.315,437.718 	"/>
</g>
<g>
	<path style="opacity:0.23;fill:#3F489B;enable-background:new    ;" d="M405.487,306.876l-106.513,74.395l45.268,45.268
		c40.657-16.832,75.604-44.65,101.152-79.756L405.487,306.876z"/>
	<path style="opacity:0.23;fill:#3F489B;enable-background:new    ;" d="M82.217,331.171l-18.325,18.325
		c26.069,34.779,61.476,62.152,102.502,78.406l19.81-19.81l25.338-29.094l-88.577-88.577L82.217,331.171z"/>
</g>
<path style="fill:#CCA400;" d="M275.43,11.923L275.43,11.923c27.832-9.859,58.816,0.208,75.536,24.544l0,0
	c8.465,12.321,20.907,21.36,35.241,25.604l0,0c28.312,8.382,47.461,34.738,46.684,64.255l0,0
	c-0.393,14.943,4.359,29.569,13.461,41.428l0,0c17.978,23.422,17.978,56.002,0,79.424l0,0
	c-9.102,11.858-13.854,26.484-13.461,41.428l0,0c0.777,29.517-18.372,55.873-46.684,64.255l0,0
	c-14.334,4.244-26.775,13.283-35.241,25.604l0,0c-16.721,24.336-47.705,34.403-75.536,24.544l0,0
	c-14.091-4.992-29.469-4.992-43.56,0l0,0c-27.832,9.859-58.816-0.208-75.536-24.544l0,0c-8.466-12.321-20.907-21.36-35.241-25.604
	l0,0c-28.312-8.382-47.461-34.738-46.684-64.255l0,0c0.393-14.943-4.359-29.569-13.461-41.428l0,0
	c-17.978-23.422-17.978-56.002,0-79.424l0,0c9.102-11.858,13.854-26.484,13.461-41.428l0,0
	c-0.777-29.517,18.372-55.873,46.684-64.255l0,0c14.334-4.244,26.775-13.283,35.241-25.604l0,0
	c16.721-24.336,47.705-34.403,75.536-24.544l0,0C245.961,16.915,261.339,16.915,275.43,11.923z"/>
<circle style="fill:#EEBF00;" cx="253.646" cy="207.466" r="154.651"/>
<polygon style="fill:#FFEB99;" points="237.07,141.954 212.717,141.954 212.717,179.386 237.07,179.386 237.07,283.564 
	274.502,283.564 274.502,179.386 274.502,141.954 "/>
<g>
	<path style="fill:#CCA400;" d="M188.354,234.018c17.682,17.682,14.244,49.786,14.244,49.786s-32.105,3.437-49.786-14.244
		c-17.682-17.682-14.244-49.786-14.244-49.786S170.673,216.336,188.354,234.018z"/>
	<path style="fill:#CCA400;" d="M355.151,269.559c-17.682,17.682-49.786,14.244-49.786,14.244s-3.437-32.105,14.244-49.786
		s49.786-14.244,49.786-14.244S372.833,251.878,355.151,269.559z"/>
</g>
<path style="opacity:0.14;fill:#56361D;enable-background:new    ;" d="M446.424,167.754L446.424,167.754
	c-9.102-11.858-13.854-26.484-13.461-41.428l0,0c0.777-29.517-18.372-55.873-46.684-64.255l0,0
	c-13.093-3.876-24.595-11.763-32.942-22.486c19.976,31.429,31.553,68.72,31.553,108.717c0,112.091-90.868,202.957-202.957,202.957
	c-34.771,0-67.497-8.75-96.104-24.16c8.255,12.085,20.54,21.38,35.336,25.762l0,0c14.334,4.244,26.775,13.283,35.241,25.604l0,0
	c16.721,24.336,47.705,34.403,75.536,24.544l0,0c14.091-4.991,29.469-4.991,43.56,0l0,0c27.832,9.859,58.816-0.208,75.536-24.544
	l0,0c8.465-12.321,20.907-21.36,35.241-25.604l0,0c28.312-8.382,47.461-34.739,46.684-64.255l0,0
	c-0.393-14.943,4.359-29.569,13.461-41.428l0,0C464.401,223.754,464.401,191.176,446.424,167.754z"/>
</svg>