<?xml version="1.0" encoding="iso-8859-1"?>
<!-- Uploaded to: SVG Repo, www.svgrepo.com, Generator: SVG Repo Mixer Tools -->
<svg height="800px" width="800px" version="1.1" id="Layer_1" xmlns="http://www.w3.org/2000/svg" xmlns:xlink="http://www.w3.org/1999/xlink" 
	 viewBox="0 0 512 512" xml:space="preserve">
<polygon style="fill:#4675CF;" points="189.93,385.281 189.93,512 256.001,481.496 322.071,512 322.071,388.673 "/>
<polygon style="fill:#4E8FE3;" points="221.58,386.094 221.58,497.388 256.001,481.496 290.42,497.388 290.42,387.86 "/>
<path style="opacity:0.22;fill:#3F489B;enable-background:new    ;" d="M189.93,434.134c19.725,7.879,41.246,12.22,63.785,12.22
	c24.292,0,47.403-5.045,68.356-14.127v-43.552l-132.141-3.391V434.134z"/>
<path style="fill:#ACAAB1;" d="M278.498,3.874L278.498,3.874c28.749-10.185,60.756,0.215,78.028,25.353l0,0
	c8.745,12.728,21.597,22.064,36.403,26.449l0,0c29.246,8.659,49.026,35.884,48.224,66.374l0,0
	c-0.406,15.436,4.503,30.544,13.905,42.795l0,0c18.571,24.195,18.571,57.849,0,82.043l0,0
	c-9.403,12.249-14.311,27.357-13.905,42.795l0,0c0.802,30.49-18.978,57.716-48.224,66.374l0,0
	c-14.807,4.384-27.658,13.721-36.403,26.449l0,0c-17.273,25.139-49.278,35.538-78.028,25.353l0,0
	c-14.555-5.157-30.441-5.157-44.997,0l0,0c-28.749,10.185-60.756-0.215-78.028-25.353l0,0
	c-8.745-12.728-21.597-22.064-36.403-26.449l0,0c-29.246-8.659-49.026-35.884-48.224-66.374l0,0
	c0.406-15.436-4.503-30.544-13.905-42.795l0,0c-18.571-24.195-18.571-57.849,0-82.043l0,0c9.403-12.249,14.311-27.357,13.905-42.795
	l0,0c-0.802-30.49,18.978-57.716,48.224-66.374l0,0c14.807-4.384,27.658-13.721,36.403-26.449l0,0
	c17.273-25.14,49.278-35.539,78.028-25.353l0,0C248.057,9.03,263.943,9.03,278.498,3.874z"/>
<circle style="fill:#D7D5D9;" cx="255.997" cy="205.861" r="159.751"/>
<path style="fill:#F1F1F1;" d="M297.495,160.142c0-12.123-9.828-21.949-21.949-21.949h-16.717h-48.895v38.666h38.574
	c4.904,0,8.227,4.995,6.331,9.518l-41.116,98.095h32.702h5.965h22.553h22.552v-38.666h-22.552h-6.346l25.735-61.399
	c2.088-4.983,3.164-10.331,3.164-15.733V160.142z"/>
<g>
	<path style="fill:#ACAAB1;" d="M339.764,299.886c-2.039,0-4.08-0.778-5.636-2.335c-3.113-3.113-3.113-8.159,0-11.271
		c44.342-44.341,44.342-116.489,0-160.83c-3.113-3.113-3.113-8.159,0-11.271c3.114-3.113,8.159-3.113,11.272,0
		c24.49,24.49,37.977,57.052,37.977,91.686s-13.486,67.196-37.977,91.686C343.844,299.108,341.804,299.886,339.764,299.886z"/>
	<path style="fill:#ACAAB1;" d="M167.664,299.886c-2.039,0-4.08-0.778-5.635-2.335c-24.49-24.49-37.978-57.052-37.978-91.686
		s13.487-67.196,37.978-91.686c3.113-3.113,8.159-3.113,11.271,0c3.113,3.113,3.113,8.159,0,11.271
		c-44.341,44.341-44.341,116.489,0,160.83c3.113,3.113,3.113,8.159,0,11.271C171.744,299.108,169.703,299.886,167.664,299.886z"/>
</g>
<path style="opacity:0.14;fill:#56361D;enable-background:new    ;" d="M454.826,164.844L454.826,164.844
	c-9.402-12.249-14.311-27.357-13.905-42.795l0,0c0.802-30.49-18.978-57.716-48.224-66.374l0,0
	c-13.525-4.004-25.406-12.151-34.029-23.228c20.635,32.466,32.594,70.986,32.594,112.303c0,115.788-93.865,209.651-209.651,209.651
	c-35.918,0-69.723-9.039-99.274-24.957c8.527,12.483,21.217,22.085,36.502,26.611l0,0c14.807,4.384,27.658,13.721,36.403,26.449l0,0
	c17.273,25.139,49.278,35.538,78.028,25.353l0,0c14.555-5.156,30.441-5.156,44.997,0l0,0c28.749,10.185,60.756-0.215,78.028-25.353
	l0,0c8.745-12.728,21.597-22.064,36.403-26.449l0,0c29.246-8.659,49.026-35.884,48.224-66.374l0,0
	c-0.406-15.436,4.503-30.544,13.905-42.795l0,0C473.396,222.691,473.396,189.039,454.826,164.844z"/>
</svg>