<?xml version="1.0" encoding="iso-8859-1"?>
<!-- Uploaded to: SVG Repo, www.svgrepo.com, Generator: SVG Repo Mixer Tools -->
<svg height="800px" width="800px" version="1.1" id="Layer_1" xmlns="http://www.w3.org/2000/svg" xmlns:xlink="http://www.w3.org/1999/xlink" 
	 viewBox="0 0 512 512" xml:space="preserve">
<polygon style="fill:#5374FC;" points="340.835,301.255 340.835,511.174 256.824,472.638 175.127,511.174 175.127,301.255 "/>
<polygon style="fill:#4D53F1;" points="340.01,302.082 256,302.082 256,473.463 340.01,512 "/>
<path style="opacity:0.25;fill:#3F489B;enable-background:new    ;" d="M175.127,383.989c25.073,11.172,52.839,17.39,82.061,17.39
	c29.838,0,58.161-6.48,83.647-18.102v-77.723H175.127V383.989z"/>
<path style="fill:#FF0C38;" d="M265.169,3.42l35.718,30.951l46.78-6.727c6.892-0.991,13.465,3.233,15.426,9.914l13.314,45.348
	l42.991,19.633c6.333,2.892,9.58,10,7.617,16.68l-13.316,45.346l25.552,39.758c3.765,5.858,2.653,13.591-2.609,18.15l-35.719,30.949
	l0.001,47.262c0,6.963-5.116,12.868-12.008,13.858l-46.781,6.725l-25.551,39.759c-3.764,5.858-11.261,8.058-17.594,5.166
	L256,346.558l-42.99,19.634c-6.333,2.892-13.83,0.692-17.594-5.166l-25.551-39.759l-46.781-6.725
	c-6.892-0.991-12.008-6.895-12.008-13.858l0.001-47.262l-35.719-30.948c-5.262-4.56-6.374-12.293-2.609-18.15l25.552-39.758
	l-13.316-45.346c-1.961-6.681,1.284-13.787,7.617-16.68l42.991-19.633l13.314-45.348c1.961-6.681,8.535-10.905,15.426-9.914
	l46.78,6.727l35.718-30.951C252.093-1.14,259.907-1.14,265.169,3.42z"/>
<circle style="fill:#EEBF00;" cx="256" cy="186.525" r="154.227"/>
<path style="opacity:0.27;fill:#664400;enable-background:new    ;" d="M439.252,204.322L413.7,164.564l13.316-45.346
	c1.962-6.681-1.284-13.787-7.617-16.68l-18.756-8.565c-30.598,109.38-130.997,189.61-250.144,189.61
	c-13.402,0-26.567-1.017-39.422-2.974v20.075c0,6.963,5.116,12.868,12.008,13.858l46.781,6.725l25.551,39.759
	c3.764,5.858,11.261,8.058,17.594,5.166L256,346.558l42.99,19.635c6.333,2.892,13.83,0.692,17.594-5.166l25.551-39.759l46.781-6.725
	c6.892-0.991,12.008-6.895,12.008-13.858l-0.001-47.262l35.719-30.949C441.904,217.913,443.016,210.18,439.252,204.322z"/>
<circle style="fill:#FFEB99;" cx="256" cy="186.525" r="119.024"/>
<g>
	<path style="fill:#DDB200;" d="M314.063,173.416h-115.4c-4.328,0-7.837-3.508-7.837-7.837c0-4.329,3.509-7.837,7.837-7.837h115.4
		c4.328,0,7.837,3.508,7.837,7.837C321.899,169.909,318.391,173.416,314.063,173.416z"/>
	<path style="fill:#DDB200;" d="M314.063,209.705h-115.4c-4.328,0-7.837-3.508-7.837-7.837c0-4.329,3.509-7.837,7.837-7.837h115.4
		c4.328,0,7.837,3.508,7.837,7.837C321.899,206.197,318.391,209.705,314.063,209.705z"/>
	<path style="fill:#DDB200;" d="M294.103,242.093h-75.481c-4.328,0-7.837-3.508-7.837-7.837c0-4.329,3.509-7.837,7.837-7.837h75.481
		c4.328,0,7.837,3.508,7.837,7.837C301.94,238.586,298.431,242.093,294.103,242.093z"/>
	<path style="fill:#DDB200;" d="M294.103,139.759h-75.481c-4.328,0-7.837-3.508-7.837-7.837c0-4.329,3.509-7.837,7.837-7.837h75.481
		c4.328,0,7.837,3.508,7.837,7.837S298.431,139.759,294.103,139.759z"/>
</g>
<path style="opacity:0.31;fill:#FFFFFF;enable-background:new    ;" d="M317.864,82.911L155.642,245.134
	c12.446,21.957,31.665,39.569,54.823,49.991l157.391-157.391C357.434,114.576,339.822,95.357,317.864,82.911z"/>
</svg>