<?xml version="1.0" standalone="no"?>
<!DOCTYPE svg PUBLIC "-//W3C//DTD SVG 20010904//EN"
 "http://www.w3.org/TR/2001/REC-SVG-20010904/DTD/svg10.dtd">
<svg version="1.0" xmlns="http://www.w3.org/2000/svg"
 width="416.000000pt" height="416.000000pt" viewBox="0 0 416.000000 416.000000"
 preserveAspectRatio="xMidYMid meet">

<g transform="translate(0.000000,416.000000) scale(0.100000,-0.100000)"
fill="#000000" stroke="none">
<path d="M1875 4150 c-415 -47 -786 -201 -1106 -458 -88 -71 -266 -253 -330
-337 -84 -109 -170 -248 -225 -361 -350 -721 -265 -1547 225 -2189 64 -84 242
-266 330 -337 627 -505 1471 -609 2194 -269 467 219 846 618 1041 1097 287
704 169 1500 -311 2094 -34 41 -110 123 -169 181 -314 305 -700 497 -1132 565
-118 18 -408 26 -517 14z m376 -180 c836 -81 1511 -680 1684 -1493 116 -545
-9 -1102 -349 -1552 -77 -103 -248 -274 -353 -353 -600 -454 -1400 -516 -2054
-161 -494 269 -838 727 -954 1272 -143 672 88 1373 602 1822 392 343 917 514
1424 465z"/>
<path d="M1002 2953 c-18 -9 -43 -30 -55 -47 -21 -29 -22 -42 -25 -259 -2
-165 0 -233 9 -243 15 -18 169 -20 187 -2 8 8 12 66 12 195 l0 183 155 0 155
0 0 -197 -1 -198 -147 -110 c-200 -149 -200 -135 2 -285 l155 -115 1 -242 0
-243 -160 0 -160 0 0 198 c0 239 3 232 -111 232 -45 0 -80 -5 -87 -12 -9 -9
-12 -80 -12 -259 0 -239 1 -247 23 -280 44 -67 60 -70 357 -67 381 4 360 -19
360 410 0 363 5 345 -139 447 -56 40 -101 74 -101 76 0 2 44 35 98 74 143 102
137 85 137 398 0 250 -1 263 -21 290 -11 15 -36 38 -54 51 -32 21 -40 22 -289
22 -215 0 -261 -3 -289 -17z"/>
<path d="M2020 2953 c-19 -10 -45 -33 -57 -52 l-23 -34 0 -782 0 -782 23 -34
c44 -67 59 -70 364 -67 258 3 273 4 300 24 15 12 37 36 48 55 20 33 20 52 20
804 0 752 0 771 -20 804 -11 19 -33 43 -48 55 -27 20 -42 21 -300 24 -244 2
-276 1 -307 -15z m460 -868 l0 -695 -165 0 -165 0 0 695 0 695 165 0 165 0 0
-695z"/>
<path d="M3127 2472 c-14 -15 -17 -42 -17 -155 l0 -137 -143 0 c-98 0 -147 -4
-155 -12 -16 -16 -16 -150 0 -166 8 -8 57 -12 155 -12 l143 0 0 -138 c0 -168
2 -172 102 -172 95 0 98 5 98 173 l0 137 143 0 c98 0 147 4 155 12 16 16 16
150 0 166 -8 8 -57 12 -155 12 l-143 0 0 138 c0 168 -2 172 -102 172 -50 0
-69 -4 -81 -18z"/>
</g>
</svg>
