<?xml version="1.0" standalone="no"?>
<!DOCTYPE svg PUBLIC "-//W3C//DTD SVG 20010904//EN"
 "http://www.w3.org/TR/2001/REC-SVG-20010904/DTD/svg10.dtd">
<svg version="1.0" xmlns="http://www.w3.org/2000/svg"
 width="1544.000000pt" height="1200.000000pt" viewBox="0 0 1544.000000 1200.000000"
 preserveAspectRatio="xMidYMid meet" class="fill-general">

<g transform="translate(0.000000,1200.000000) scale(0.100000,-0.100000)" stroke="none">
<path d="M2905 11989 c-824 -45 -1530 -380 -2093 -992 -440 -479 -693 -997
-782 -1602 -27 -184 -37 -505 -21 -690 63 -724 356 -1331 889 -1846 522 -505
1116 -739 1812 -716 523 18 932 142 1316 400 208 140 273 169 339 147 74 -24
152 -160 187 -326 41 -196 22 -669 -43 -1053 -165 -986 -689 -2000 -1462
-2833 -590 -635 -1392 -1168 -2282 -1515 -77 -30 -143 -58 -148 -62 -4 -4 -6
-208 -5 -453 l3 -446 265 103 c2061 799 3541 1815 4501 3090 628 833 1052
1746 1263 2720 198 910 214 1950 44 2800 -155 776 -453 1416 -917 1970 -106
126 -395 414 -524 521 -507 418 -1052 667 -1655 754 -128 18 -440 42 -517 38
-16 0 -93 -4 -170 -9z"/>
<path d="M11600 11993 c-626 -23 -1215 -223 -1685 -573 -218 -161 -458 -392
-629 -605 -470 -586 -697 -1298 -648 -2037 40 -612 230 -1121 589 -1583 450
-578 1021 -933 1658 -1030 149 -23 416 -30 589 -16 478 39 832 157 1186 395
165 111 199 130 263 146 39 10 51 9 90 -8 37 -17 52 -32 88 -92 93 -157 121
-357 101 -723 -39 -696 -196 -1286 -513 -1927 -405 -820 -982 -1531 -1681
-2073 -466 -361 -986 -654 -1583 -892 l-180 -72 -3 -451 -2 -451 67 25 c566
212 1010 404 1503 650 486 243 824 437 1236 709 955 633 1670 1334 2239 2195
503 761 842 1580 1015 2450 199 1002 182 2096 -44 2970 -164 632 -428 1165
-814 1640 -121 148 -464 488 -612 606 -200 159 -431 309 -628 408 -302 151
-670 265 -1002 311 -116 15 -425 36 -490 33 -19 -1 -69 -3 -110 -5z"/>
</g>
</svg>
