<?xml version="1.0" standalone="no"?>
<!DOCTYPE svg PUBLIC "-//W3C//DTD SVG 20010904//EN"
 "http://www.w3.org/TR/2001/REC-SVG-20010904/DTD/svg10.dtd">
<svg version="1.0" xmlns="http://www.w3.org/2000/svg"
 width="1245.000000pt" height="1280.000000pt" viewBox="0 0 1245.000000 1280.000000"
 preserveAspectRatio="xMidYMid meet">
<metadata>
Created by potrace 1.15, written by Peter Selinger 2001-2017
</metadata>
<g transform="translate(0.000000,1280.000000) scale(0.100000,-0.100000)"
fill="#000000" stroke="none">
<path d="M11405 12663 c-32 -71 -89 -213 -127 -318 -38 -104 -96 -265 -130
-357 -33 -93 -64 -168 -69 -168 -16 0 -22 24 -20 76 3 95 -57 315 -109 399
-25 40 -79 68 -114 59 -14 -3 -37 -17 -51 -30 l-26 -24 3 -302 c3 -363 -1
-387 -70 -402 -29 -6 -51 -5 -69 3 l-26 12 7 98 c5 75 3 111 -9 157 -10 35
-20 133 -26 239 -11 218 -22 276 -58 317 -24 27 -35 31 -75 31 -26 0 -52 -5
-59 -12 -9 -9 -14 -118 -20 -404 -4 -216 -10 -401 -12 -413 -4 -20 -13 -21
-362 -32 -1120 -37 -2504 -38 -3223 -2 -1007 50 -1744 109 -1996 160 -116 23
-249 44 -406 66 -103 14 -160 20 -463 54 -190 21 -430 51 -525 66 -642 101
-1043 259 -1425 565 -98 78 -119 89 -170 89 -43 0 -56 -21 -90 -145 -35 -129
-58 -175 -88 -175 -47 0 -111 55 -205 177 -105 137 -149 173 -208 173 -39 -1
-79 -21 -73 -37 2 -4 24 -40 47 -80 43 -70 66 -153 44 -153 -6 0 -14 5 -17 10
-3 6 -44 10 -90 10 -77 0 -85 2 -103 25 -11 14 -23 41 -26 60 -7 35 -7 35 -62
35 -48 0 -60 -4 -104 -39 -54 -43 -118 -75 -286 -145 -62 -26 -138 -63 -170
-82 -57 -34 -114 -81 -114 -94 0 -6 93 -29 205 -50 125 -24 275 -78 275 -100
0 -5 -17 -37 -37 -72 -77 -132 -102 -237 -73 -314 6 -15 8 -29 6 -32 -3 -2
-69 -11 -147 -18 -194 -18 -197 -24 -31 -55 60 -12 124 -29 141 -40 35 -21 79
-84 83 -119 l3 -24 -245 -27 c-135 -16 -249 -28 -253 -28 -5 -1 -5 -6 -1 -12
14 -24 118 -59 231 -79 153 -28 235 -56 285 -99 l41 -35 -22 -17 c-11 -9 -21
-25 -21 -36 0 -10 16 -112 35 -226 35 -207 50 -383 77 -857 17 -304 17 -1622
0 -2000 -21 -473 -73 -1366 -87 -1505 -2 -27 -7 -104 -10 -170 -3 -66 -8 -142
-11 -170 -19 -196 -70 -1175 -85 -1618 -21 -659 -3 -1783 36 -2258 l7 -77 -46
5 c-65 8 -134 -29 -220 -115 l-68 -70 50 -12 c98 -23 179 -95 237 -209 l27
-53 -108 -102 c-119 -112 -177 -156 -208 -156 -31 0 -5 -14 86 -46 43 -15 75
-31 72 -36 -20 -32 -144 -70 -303 -94 -173 -26 -160 -33 62 -33 l207 -1 0 25
c0 36 31 48 106 40 35 -4 64 -9 64 -12 0 -3 -16 -24 -36 -46 -68 -75 -111
-205 -98 -300 7 -52 16 -60 87 -72 57 -9 102 -60 118 -132 13 -64 1 -222 -28
-363 -9 -41 -16 -127 -17 -190 l-1 -115 73 -3 c39 -2 72 0 72 3 0 32 44 357
59 433 20 104 46 199 60 221 12 19 75 -11 174 -82 113 -81 164 -90 222 -38 11
10 40 21 65 23 25 3 91 24 145 48 130 55 162 60 197 27 26 -24 41 -64 53 -140
6 -39 7 -39 43 -32 91 17 93 60 11 226 -63 128 -81 198 -60 237 7 14 31 27 64
36 28 8 140 40 248 71 108 30 208 55 223 55 14 0 147 -20 294 -45 147 -24 332
-54 412 -65 80 -12 206 -30 280 -41 851 -124 1990 -246 3155 -339 138 -11 268
-22 290 -25 22 -2 81 -7 130 -10 50 -3 113 -8 140 -11 28 -2 172 -14 320 -24
550 -41 1098 -80 1365 -100 151 -11 289 -22 306 -25 17 -3 152 -10 301 -15
407 -14 557 -31 1098 -126 556 -98 726 -123 960 -143 132 -12 345 -15 345 -5
0 4 -22 32 -48 63 -189 219 -325 470 -348 638 -6 49 -5 53 14 53 65 0 199 -79
357 -210 180 -149 238 -187 323 -209 44 -12 122 0 122 19 0 16 -78 75 -185
139 -60 35 -126 80 -148 99 -38 35 -97 125 -97 150 0 9 86 12 396 12 253 0
393 3 389 10 -15 25 -225 69 -425 90 -226 23 -457 64 -478 84 -13 14 19 28 77
35 57 7 92 23 79 36 -3 3 -43 15 -89 26 -46 11 -89 25 -95 32 -27 29 -125 344
-168 539 -49 224 -71 352 -105 623 -20 158 -39 350 -96 990 -9 94 -19 202 -23
240 -4 39 -4 90 0 115 54 315 107 790 133 1190 8 129 17 267 19 305 3 39 8
169 11 290 3 121 8 263 10 315 2 52 9 322 15 600 26 1261 71 1874 186 2555 56
338 147 735 223 981 44 142 59 259 76 599 16 322 32 447 68 548 30 83 68 131
124 158 38 19 56 21 123 16 45 -3 96 -13 123 -25 25 -11 48 -18 51 -14 3 3 6
20 6 38 0 41 -18 53 -148 98 -56 19 -114 42 -129 50 -64 33 -113 112 -113 180
0 29 -5 38 -30 51 -45 23 -73 19 -172 -30 -95 -46 -132 -55 -141 -32 -3 7 -1
152 4 323 4 170 11 437 15 594 l7 286 -40 12 c-22 7 -47 12 -56 12 -9 0 -35
-45 -72 -127z m-9510 -2037 c467 -98 811 -124 1885 -146 502 -10 994 -27 1040
-35 14 -2 86 -9 160 -15 249 -20 517 -60 745 -111 l130 -29 665 0 c626 0 966
-6 1775 -30 412 -12 2002 -25 2036 -17 13 3 32 20 42 37 21 35 41 30 33 -8 -3
-15 -8 -106 -11 -202 -3 -96 -8 -197 -11 -225 -2 -27 -13 -185 -24 -350 -20
-301 -62 -867 -99 -1325 -19 -225 -33 -403 -46 -570 -2 -36 -11 -164 -20 -285
-8 -121 -17 -245 -20 -275 -7 -76 -32 -531 -47 -845 -17 -350 -17 -1598 0
-1895 7 -124 19 -315 27 -425 8 -110 17 -236 20 -280 8 -105 29 -354 56 -650
28 -310 31 -716 5 -910 -21 -163 -38 -255 -46 -255 -3 0 -35 36 -70 80 -236
301 -571 462 -1039 501 -176 15 -746 6 -946 -15 -82 -8 -233 -21 -335 -28
-245 -17 -1099 -17 -1325 0 -603 45 -1145 137 -1635 277 -93 27 -101 28 -370
28 -151 0 -315 -3 -365 -7 -223 -18 -467 -47 -735 -87 -822 -125 -986 -143
-1431 -165 -90 -5 -138 -3 -142 4 -4 5 -23 113 -42 238 -20 126 -46 297 -60
379 -124 764 -195 1290 -244 1800 -50 513 -52 1168 -6 1540 7 61 16 162 20
225 17 300 75 951 135 1520 11 107 32 308 45 445 14 138 29 293 35 345 45 414
84 968 106 1516 l6 162 -42 62 -43 63 34 -6 c19 -3 88 -17 154 -31z m7660 4
c77 -5 194 -14 260 -20 66 -5 156 -12 200 -14 193 -13 381 -27 392 -31 9 -3
11 -33 7 -112 -3 -59 -7 -113 -9 -119 -2 -7 -25 -1 -62 17 -88 43 -175 53
-372 40 -247 -16 -339 -1 -442 75 -62 45 -152 174 -121 174 4 0 70 -5 147 -10z
m1795 -101 c0 -59 -4 -99 -10 -99 -6 0 -10 42 -10 106 0 67 4 103 10 99 6 -3
10 -50 10 -106z m-625 -79 c-1 -346 -45 -1641 -60 -1750 -2 -14 -4 -46 -4 -72
-1 -27 -4 -48 -8 -48 -9 0 -6 1956 2 1978 3 8 17 12 37 10 l33 -3 0 -115z
m436 -220 c9 -87 14 -246 13 -445 0 -367 -16 -516 -91 -872 -10 -46 -20 -77
-24 -70 -7 13 -4 67 37 862 37 715 37 713 44 685 4 -14 13 -86 21 -160z m14
-2095 c-6 -224 -35 -674 -56 -865 -5 -52 -23 -216 -40 -365 -16 -148 -41 -371
-54 -495 -14 -124 -29 -265 -35 -315 -5 -49 -15 -148 -21 -220 -18 -222 -27
-207 -28 50 -1 310 16 1033 29 1245 23 370 91 849 156 1090 36 136 35 134 45
119 6 -8 7 -104 4 -244z m-706 -950 c63 -1075 62 -1569 -4 -2300 -13 -148 -31
-367 -40 -485 -8 -118 -22 -255 -29 -305 -30 -190 -39 -236 -47 -228 -5 5 -15
82 -24 172 -30 335 -38 614 -32 1226 6 646 18 905 92 2100 4 77 6 118 21 425
4 74 9 140 13 145 3 6 11 -82 18 -195 6 -113 21 -362 32 -555z m106 -4060 c-8
-584 -38 -1279 -55 -1298 -10 -11 -15 15 -37 188 -27 208 -24 827 5 1165 12
135 31 364 42 510 11 146 24 276 27 290 14 50 23 -426 18 -855z m-9106 199 c6
-27 20 -89 31 -139 54 -238 93 -569 88 -745 l-3 -105 -77 -20 c-42 -10 -80
-17 -83 -14 -3 3 0 140 6 305 6 164 9 417 7 560 -3 267 1 289 31 158z m9590
-901 c28 -249 102 -651 187 -1012 27 -118 41 -198 36 -203 -15 -15 -77 17
-105 53 -39 52 -65 155 -92 361 -14 104 -31 215 -40 247 -12 46 -15 123 -15
360 0 166 4 301 9 301 4 0 14 -48 20 -107z m-8099 -168 c173 -19 368 -50 378
-59 12 -13 -635 0 -745 14 -138 18 -136 31 7 49 103 13 214 12 360 -4z m-900
-5 c10 -6 11 -12 5 -18 -16 -14 -156 -70 -195 -77 -50 -9 -90 8 -90 39 0 22 5
24 57 28 38 3 60 10 67 21 8 13 26 17 76 17 36 0 72 -5 80 -10z m6295 0 c83
-5 281 -19 440 -30 160 -12 368 -24 463 -27 l174 -6 47 -36 c201 -152 478
-377 468 -379 -7 -1 -103 11 -212 28 -110 16 -348 52 -530 80 -526 80 -1377
209 -1685 256 -124 19 -247 37 -273 41 -28 3 -44 10 -39 15 10 10 249 46 382
57 137 12 590 12 765 1z m-6730 -100 c14 -45 -30 -82 -120 -100 -33 -7 -68
-17 -79 -22 -23 -12 -36 4 -36 47 0 55 31 75 117 75 32 0 65 5 73 10 23 15 38
12 45 -10z m910 -35 c44 -8 130 -21 190 -30 132 -20 163 -26 150 -31 -5 -2
-165 -19 -355 -39 -401 -41 -620 -64 -672 -70 -21 -3 -38 -1 -38 4 0 16 92 89
152 121 105 56 184 71 348 65 80 -3 181 -12 225 -20z m4635 -231 c12 -4 12 -7
-3 -16 -31 -17 -176 -11 -242 10 -68 21 -274 114 -275 123 0 5 482 -103 520
-117z m230 65 c91 -16 212 -38 270 -49 58 -10 161 -28 230 -40 69 -12 158 -28
199 -36 40 -8 84 -14 97 -14 13 0 24 -5 24 -11 0 -7 -14 -9 -37 -5 -21 3 -76
10 -123 16 -377 47 -788 123 -865 160 -11 5 -29 11 -40 14 -49 12 94 -8 245
-35z m-4172 -20 c35 -6 60 -15 55 -19 -4 -4 -89 -15 -188 -24 -99 -9 -270 -25
-380 -36 -633 -63 -820 -80 -857 -80 -35 0 -38 2 -38 28 l0 29 158 6 c150 6
252 18 462 52 139 23 304 46 395 55 98 10 307 4 393 -11z m5512 -63 c337 -56
675 -123 1015 -200 281 -64 420 -99 429 -108 19 -16 -297 -8 -440 11 -233 33
-388 71 -819 200 -324 97 -409 121 -429 121 -9 0 -16 5 -16 11 0 7 9 9 23 6
12 -3 119 -22 237 -41z m-7162 -107 c68 -23 76 -38 40 -76 -19 -20 -31 -23
-104 -23 -46 0 -86 -4 -89 -10 -14 -22 -25 -8 -25 31 0 31 6 47 29 70 36 35
64 37 149 8z m9356 -315 c9 -66 16 -124 16 -130 0 -5 -19 -9 -43 -9 -50 0 -48
-10 -22 163 10 67 22 117 26 110 4 -7 14 -67 23 -134z m-9340 -42 c1 -70 -1
-81 -14 -75 -8 4 -54 9 -102 12 -96 7 -114 16 -124 69 -6 32 -6 32 32 33 22 0
66 11 99 24 33 13 71 23 84 22 24 -2 25 -5 25 -85z m848 50 c32 -11 66 -25 75
-31 15 -8 14 -10 -12 -16 -17 -4 -77 -25 -135 -47 -278 -106 -297 -112 -410
-112 -83 -1 -112 3 -137 17 l-33 18 0 93 c0 51 3 96 7 100 5 4 138 6 298 4
266 -4 295 -6 347 -26z m-854 -339 c-3 -84 -4 -88 -26 -91 -36 -5 -80 17 -101
52 -21 34 -42 111 -33 121 3 3 41 5 84 5 l79 0 -3 -87z m1692 27 c393 -23 635
-59 1635 -245 466 -87 833 -132 1205 -150 69 -3 181 -12 250 -20 69 -8 213
-21 320 -30 107 -8 238 -19 290 -25 233 -24 430 -68 255 -56 -112 8 -629 53
-815 71 -85 8 -274 26 -420 40 -146 14 -348 34 -450 45 -102 11 -288 31 -415
45 -217 23 -430 47 -835 95 -375 43 -1486 186 -1609 206 -147 24 279 41 589
24z m5790 -26 c215 -23 524 -93 530 -119 4 -21 -294 -78 -499 -96 -194 -16
-548 -7 -756 20 -194 26 -466 78 -675 131 -283 71 -285 68 50 70 162 2 387 6
500 10 283 11 677 3 850 -16z m-1984 -114 c347 -48 402 -56 712 -96 309 -41
353 -57 98 -37 -256 20 -541 57 -796 104 -91 17 -182 33 -202 36 -21 3 -38 10
-38 14 0 11 -27 14 226 -21z m-661 -31 c323 -18 583 -55 879 -126 61 -14 66
-18 45 -26 -23 -9 -403 -3 -459 7 -14 2 -63 7 -110 11 -47 4 -175 20 -285 36
-110 16 -306 45 -435 64 -129 19 -252 35 -273 35 -25 0 -36 4 -31 11 7 12 363
6 669 -12z m4013 -152 c32 -38 31 -63 -1 -117 -44 -72 -59 -81 -92 -50 -22 21
-25 32 -25 91 0 54 4 70 18 78 24 15 88 13 100 -2z m517 -54 c86 -28 118 -43
148 -72 35 -33 107 -163 107 -193 0 -7 18 -40 40 -73 21 -32 38 -61 35 -63 -2
-2 -27 14 -57 36 -109 82 -260 150 -370 166 l-48 7 0 121 c0 110 1 120 18 113
9 -4 67 -23 127 -42z m-2865 -74 c365 -25 632 -47 636 -51 14 -14 -244 -33
-436 -32 -247 1 -502 25 -805 77 l-70 12 55 6 c68 8 438 1 620 -12z"/>
</g>
</svg>
