<?xml version="1.0" standalone="no"?>
<!DOCTYPE svg PUBLIC "-//W3C//DTD SVG 20010904//EN"
 "http://www.w3.org/TR/2001/REC-SVG-20010904/DTD/svg10.dtd">
<svg version="1.0" xmlns="http://www.w3.org/2000/svg"
 width="1280.000000pt" height="1098.000000pt" viewBox="0 0 1280.000000 1098.000000"
 preserveAspectRatio="xMidYMid meet">
<metadata>
Created by potrace 1.15, written by Peter Selinger 2001-2017
</metadata>
<g transform="translate(0.000000,1098.000000) scale(0.100000,-0.100000)"
fill="#000000" stroke="none">
<path d="M10030 10871 c0 -19 -14 -45 -40 -77 -22 -27 -40 -56 -40 -65 0 -13
-44 -39 -65 -39 -2 0 -6 12 -10 28 -3 15 -17 44 -31 64 -13 21 -24 42 -24 48
0 24 -43 -14 -61 -53 -21 -48 -24 -89 -8 -119 10 -18 8 -25 -11 -40 -27 -22
-52 -24 -44 -4 13 34 -53 116 -94 116 -20 0 -32 -109 -18 -166 7 -28 5 -32
-24 -44 -23 -10 -37 -10 -49 -3 -9 6 -31 14 -49 17 -17 4 -34 11 -37 16 -3 4
18 30 46 57 28 26 66 75 86 108 20 33 47 70 62 83 22 19 24 24 11 32 -20 13
-112 2 -176 -21 -27 -11 -64 -34 -81 -51 -30 -33 -63 -103 -63 -137 0 -31 -33
-51 -86 -51 -27 0 -68 -9 -91 -20 -49 -22 -49 -22 -27 40 14 39 26 220 15 220
-18 0 -134 -76 -179 -118 -35 -32 -99 -47 -138 -33 -66 24 -144 2 -176 -49 -7
-11 -30 -33 -52 -48 l-39 -27 -46 51 c-45 49 -46 50 -73 34 -23 -12 -28 -22
-28 -55 l0 -40 -54 -1 c-43 0 -65 -7 -110 -34 -31 -19 -63 -45 -72 -57 -18
-28 -41 -30 -49 -5 -12 40 -122 65 -172 38 -17 -8 -53 -41 -80 -73 -59 -71
-61 -73 -96 -73 -16 0 -48 -5 -73 -11 -37 -10 -51 -21 -90 -72 -61 -81 -88
-142 -89 -202 -3 -103 0 -97 -48 -90 -33 5 -46 3 -57 -10 -12 -14 -6 -23 46
-73 l59 -57 -20 -61 -21 -60 -34 21 c-28 16 -51 20 -115 19 -44 0 -92 -6 -107
-12 -24 -10 -26 -13 -15 -36 8 -16 20 -26 34 -26 14 0 29 -11 40 -27 9 -16 32
-45 52 -65 31 -34 33 -40 23 -63 -10 -22 -16 -25 -35 -18 -47 17 -98 8 -123
-21 -28 -32 -31 -53 -6 -60 10 -3 7 -4 -7 -3 -24 2 -25 5 -22 57 2 46 -3 62
-28 102 -35 55 -57 70 -131 94 -30 9 -68 27 -85 39 -16 12 -41 26 -55 30 -21
7 -23 6 -12 -7 7 -9 10 -23 6 -31 -3 -9 1 -26 10 -39 9 -12 16 -34 16 -48 0
-54 22 -98 81 -162 51 -58 57 -68 39 -68 -12 0 -35 -8 -51 -17 -28 -17 -30
-16 -99 17 -38 19 -70 38 -70 42 0 5 9 37 20 71 37 117 18 187 -72 266 l-38
33 -11 -28 c-7 -16 -14 -73 -15 -127 -2 -53 -6 -97 -9 -97 -3 0 -17 7 -31 16
-18 12 -48 17 -102 18 -71 1 -82 4 -140 39 l-63 39 41 39 c29 28 40 47 40 68
0 38 -18 49 -36 23 -8 -11 -38 -28 -67 -37 -28 -10 -59 -24 -68 -32 -17 -15
-89 -15 -89 0 0 4 4 16 9 25 5 9 11 45 13 80 4 58 3 62 -17 62 -48 0 -135 -80
-135 -124 0 -12 -10 -16 -36 -16 -30 0 -35 3 -29 18 21 52 24 76 11 107 -8 18
-18 35 -23 38 -18 11 -92 -63 -103 -104 -10 -36 -14 -39 -44 -39 -29 0 -39 7
-71 51 -20 28 -34 53 -32 55 3 3 36 10 73 16 39 6 98 25 136 43 46 23 77 32
99 30 25 -3 30 -1 25 11 -3 9 -6 17 -6 20 0 7 -83 46 -139 65 -92 32 -145 21
-219 -45 -22 -20 -49 -36 -61 -36 -12 0 -45 14 -74 30 -30 17 -68 30 -85 30
-18 0 -32 4 -32 8 0 5 20 23 44 40 24 18 58 53 74 79 17 27 38 56 47 66 9 10
14 21 11 24 -3 3 -61 7 -128 9 -175 5 -182 7 -239 66 l-48 50 -56 -6 c-30 -3
-79 -9 -109 -12 -60 -6 -57 -10 -71 89 -7 45 -8 47 -41 47 -19 0 -34 -3 -34
-7 -1 -5 -10 -19 -21 -32 l-20 -24 -28 20 c-15 12 -45 26 -67 32 -47 13 -134
14 -153 2 -24 -15 -41 -1 -41 34 0 25 -10 42 -42 74 -39 37 -48 41 -93 41 -27
0 -79 -9 -113 -19 l-64 -20 -58 30 c-70 36 -102 36 -183 4 -85 -35 -155 -84
-167 -118 -5 -16 -20 -37 -32 -47 -23 -18 -23 -18 -54 11 -41 40 -64 31 -64
-25 1 -22 7 -59 15 -81 14 -38 9 -54 -17 -55 -4 0 -23 -16 -43 -37 -22 -22
-35 -30 -35 -21 0 36 -70 107 -142 143 l-73 36 -8 -31 c-6 -25 -4 -35 9 -44
11 -9 17 -30 18 -72 2 -32 6 -69 10 -81 6 -18 2 -25 -17 -34 -21 -10 -30 -6
-71 25 -49 37 -70 39 -119 14 -15 -7 -16 -12 -6 -24 8 -10 8 -14 0 -14 -25 0
-21 31 7 67 56 71 51 164 -14 248 -19 25 -47 72 -61 103 -20 43 -27 52 -31 37
-2 -11 -11 -24 -18 -28 -9 -5 -14 -21 -12 -42 1 -22 -5 -42 -17 -55 -24 -27
-33 -153 -15 -212 13 -47 7 -58 -18 -35 -10 10 -32 17 -49 17 -27 0 -35 8 -67
61 -20 33 -36 67 -36 74 0 8 20 28 44 44 42 29 106 106 120 145 3 10 1 46 -5
80 -7 33 -11 69 -11 79 0 9 -4 17 -10 17 -17 0 -124 -118 -144 -160 -20 -41
-34 -51 -34 -25 0 23 -77 101 -127 130 -25 14 -47 25 -49 25 -8 0 -4 -76 5
-107 14 -48 66 -107 122 -137 47 -26 49 -29 49 -72 0 -25 7 -60 14 -79 19 -45
13 -45 -94 3 -47 21 -111 46 -142 57 l-57 19 40 44 c55 63 64 105 44 200 -15
77 -54 170 -78 191 -10 8 -25 -6 -63 -57 -27 -37 -64 -92 -81 -122 -28 -52
-30 -59 -22 -115 8 -54 7 -62 -12 -78 -12 -9 -33 -20 -48 -23 -53 -11 -160
-71 -231 -129 -30 -25 -58 -45 -62 -45 -5 0 -8 -7 -8 -15 0 -8 7 -15 17 -15 9
0 39 -11 67 -25 71 -35 168 -43 238 -21 95 30 109 38 139 82 46 67 52 68 170
30 127 -42 174 -62 163 -68 -5 -3 -28 -9 -51 -13 -34 -5 -48 -3 -72 14 -24 17
-125 51 -153 51 -21 0 -5 -47 23 -71 51 -42 14 -70 -38 -29 -49 38 -87 15 -43
-25 29 -27 25 -43 -16 -54 -54 -15 -112 -59 -140 -106 -13 -23 -24 -44 -24
-47 0 -4 32 10 71 30 55 29 76 46 96 79 14 24 29 40 34 37 6 -3 17 -23 26 -45
10 -26 21 -39 34 -39 27 0 33 40 14 86 -15 36 -15 39 1 51 10 7 26 13 37 13
17 0 18 -5 12 -48 -6 -42 -3 -50 19 -71 30 -28 46 -21 47 22 0 56 31 121 62
131 36 13 196 -10 219 -31 10 -9 26 -13 38 -10 29 8 24 -10 -8 -27 -15 -8 -48
-36 -72 -63 -42 -45 -58 -73 -91 -163 -7 -19 -31 -52 -53 -72 l-39 -36 35 -15
c28 -12 46 -13 86 -5 39 8 55 8 67 -2 24 -20 18 -35 -30 -69 -73 -52 -49 -73
30 -26 45 26 55 24 55 -10 0 -36 21 -85 40 -95 16 -9 18 -4 18 48 -1 101 7
156 24 181 l16 23 18 -33 c28 -56 70 -99 83 -86 18 18 14 135 -6 168 -16 27
-16 29 2 49 23 26 35 26 35 0 0 -31 28 -67 60 -78 28 -10 28 -10 35 39 5 36 2
63 -11 100 l-18 51 22 17 c22 16 27 16 73 2 27 -8 49 -19 49 -24 0 -5 -16 -31
-36 -58 -19 -27 -46 -83 -60 -125 -13 -43 -29 -83 -34 -89 -7 -9 -6 -16 3 -24
18 -15 146 47 176 85 22 28 51 112 51 150 0 31 22 45 77 51 26 3 60 12 76 20
37 19 43 11 24 -29 -8 -18 -18 -44 -21 -58 -7 -32 -15 -170 -10 -170 13 0 112
55 130 72 21 19 22 19 28 -6 3 -14 20 -36 37 -48 16 -12 38 -41 49 -63 47
-103 104 -126 162 -66 17 17 34 31 38 31 5 0 17 -15 28 -34 32 -55 62 -69 129
-62 32 3 81 7 110 9 79 6 142 42 182 104 l35 53 14 -33 c9 -19 16 -72 18 -127
3 -92 4 -96 34 -122 34 -31 75 -36 106 -13 28 21 31 19 37 -31 3 -28 13 -54
25 -67 20 -19 22 -19 46 -3 26 16 26 16 26 -9 0 -37 34 -67 68 -59 32 8 95 39
132 64 14 10 42 21 63 25 28 4 51 19 82 52 43 45 45 45 69 29 16 -10 46 -16
81 -16 51 0 58 3 96 40 23 22 45 40 50 40 5 0 9 9 9 20 0 17 17 50 76 147 11
17 19 20 41 14 18 -5 28 -14 28 -27 2 -63 18 -106 49 -125 38 -23 56 -24 56
-3 0 8 4 13 9 10 5 -4 8 -14 7 -24 -2 -13 -15 -18 -57 -20 -73 -4 -129 -50
-158 -127 -12 -31 -21 -64 -21 -74 0 -10 -11 -40 -25 -67 -14 -27 -25 -56 -24
-64 0 -10 2 -11 6 -2 2 6 13 12 24 12 11 0 32 9 47 19 15 11 44 22 64 25 38 7
149 90 169 127 15 30 29 22 29 -16 0 -19 4 -35 9 -35 24 0 18 -38 -14 -96 -20
-35 -39 -65 -43 -68 -4 -2 -34 3 -67 12 -41 10 -75 13 -110 8 -44 -7 -57 -15
-112 -71 -34 -35 -59 -66 -55 -69 8 -9 142 -7 185 3 41 10 45 6 22 -19 -36
-40 -72 -190 -46 -190 21 0 98 69 119 107 12 23 26 66 29 95 5 49 11 58 65
109 36 33 62 51 66 45 4 -6 8 -76 10 -155 4 -138 3 -144 -14 -136 -27 12 -100
18 -127 11 -56 -14 -237 -180 -237 -217 0 -5 54 -9 120 -9 114 0 122 1 175 30
61 33 82 30 107 -20 17 -35 207 -222 219 -215 5 4 9 14 9 24 0 10 7 35 15 54
19 45 19 157 1 201 -12 30 -12 34 5 44 10 7 37 12 60 12 22 0 49 4 59 10 13 7
29 5 55 -6 41 -17 54 -14 30 6 -23 19 -18 32 27 65 23 17 57 51 76 78 29 40
35 59 41 120 l6 72 55 18 c95 31 230 65 230 58 0 -3 -14 -21 -30 -38 -22 -24
-38 -33 -62 -33 -35 0 -113 -21 -148 -40 -21 -11 -21 -12 -4 -31 11 -12 30
-19 56 -19 42 0 43 -2 27 -32 -9 -16 -17 -19 -43 -14 -35 7 -74 -13 -62 -32 4
-6 22 -14 41 -18 37 -7 38 -21 4 -59 -32 -36 -50 -99 -47 -161 3 -45 5 -54 13
-39 5 11 21 41 37 66 22 36 28 58 28 103 0 31 3 56 8 56 4 0 26 -10 49 -22 30
-16 45 -20 53 -12 17 17 -4 60 -39 80 -36 21 -39 43 -12 68 19 17 20 16 40
-23 21 -41 46 -61 76 -61 23 0 30 28 12 48 -8 9 -22 41 -30 71 l-16 55 35 32
c48 46 156 96 188 88 17 -4 27 -1 34 13 21 37 21 4 0 -43 -25 -56 -31 -193
-10 -231 15 -26 16 -112 2 -148 -10 -26 -9 -26 28 -20 26 5 48 18 72 46 25 27
44 39 63 39 32 0 34 -15 12 -75 -20 -57 -19 -68 4 -55 11 5 27 30 36 55 20 50
29 55 47 24 18 -28 75 -62 94 -55 13 5 11 12 -15 41 -17 20 -31 42 -31 49 0 7
-11 30 -25 50 -14 20 -25 50 -25 66 l0 30 37 -20 c21 -11 46 -20 56 -20 10 0
27 -5 38 -10 15 -9 19 -7 19 5 0 41 -55 116 -102 141 -28 15 -39 56 -18 69 6
3 10 2 10 -3 0 -17 72 -43 101 -37 16 4 29 10 28 13 -3 27 -51 91 -82 111 -28
18 -37 31 -37 51 0 15 6 32 13 38 11 9 69 26 92 27 6 0 10 -30 11 -70 1 -67
18 -150 36 -169 4 -6 8 -25 8 -43 0 -58 31 -42 74 38 34 62 38 77 34 122 -3
29 -14 72 -26 96 -12 25 -22 52 -22 62 0 19 117 143 123 131 3 -4 8 -25 11
-47 4 -22 25 -68 47 -103 21 -35 39 -67 39 -73 0 -5 4 -9 8 -9 9 0 72 122 72
139 0 8 10 6 30 -4 16 -8 41 -15 55 -15 14 0 38 -8 52 -17 15 -10 43 -24 63
-30 77 -27 112 -10 124 60 8 45 22 53 62 32 57 -30 102 -18 168 44 117 109
134 131 145 183 6 28 9 66 5 85 l-6 34 35 -21 c20 -12 50 -42 66 -68 50 -76
78 -103 116 -109 41 -7 81 16 95 53 l10 24 40 -40 c45 -45 77 -50 95 -14 11
21 11 21 34 3 50 -41 99 -10 146 93 14 31 33 62 41 69 27 22 54 87 54 129 0
38 1 40 31 40 64 0 139 70 139 130 0 17 5 41 11 52 7 13 7 23 2 27 -6 3 -13
47 -17 97 -6 79 -4 93 10 98 29 11 52 6 57 -13 2 -11 23 -31 46 -46 33 -22 47
-26 77 -21 30 6 35 11 31 28 -6 20 -5 20 11 4 16 -15 14 -19 -26 -54 -48 -42
-73 -102 -66 -156 2 -20 15 -66 29 -102 14 -37 25 -80 25 -98 0 -17 5 -38 10
-46 9 -13 10 -13 10 0 0 8 9 21 20 28 11 7 20 23 20 35 0 13 12 34 26 48 14
13 30 32 36 42 15 29 38 125 38 161 0 42 10 51 28 25 8 -11 25 -24 38 -29 32
-13 44 -47 44 -126 0 -60 -1 -64 -23 -64 -33 0 -124 -47 -147 -77 -22 -29 -35
-73 -44 -151 l-5 -52 32 16 c18 9 61 40 96 68 53 42 63 47 59 28 -10 -36 41
-192 62 -192 4 0 16 21 26 48 27 67 23 138 -11 200 -20 38 -26 58 -21 79 4 15
12 52 18 81 12 62 14 62 93 -38 65 -81 106 -146 98 -154 -4 -3 -15 -6 -26 -6
-32 0 -81 -36 -104 -77 -40 -73 -82 -293 -55 -293 4 0 50 28 101 63 83 55 97
69 124 120 28 56 31 59 61 54 17 -2 45 -9 61 -15 71 -26 174 -51 223 -55 46
-4 53 -2 48 12 -2 9 -11 40 -20 69 -25 89 -85 163 -161 198 -57 27 -99 30
-135 9 -46 -26 -75 -19 -111 28 -18 23 -58 70 -88 105 -29 34 -52 64 -50 66 2
3 24 -1 48 -7 35 -10 47 -19 63 -52 28 -55 77 -115 94 -115 19 0 27 40 15 74
-15 37 -15 38 17 34 20 -2 28 -9 30 -28 4 -26 29 -60 44 -60 5 0 8 19 6 42 -3
51 14 59 68 33 41 -19 137 -22 179 -5 l30 12 -78 26 c-78 26 -78 26 -128 9
-28 -10 -52 -17 -54 -15 -2 2 1 22 7 44 15 54 6 76 -24 65 -15 -5 -28 -23 -38
-52 -17 -51 -25 -58 -51 -52 -31 9 -32 22 -5 58 26 33 32 59 20 89 -9 25 -18
20 -80 -39 -36 -34 -67 -55 -81 -55 -38 0 -141 58 -189 106 -25 24 -52 44 -62
45 -28 1 17 17 50 18 48 2 152 50 203 95 67 58 91 69 152 76 l53 5 -34 37
c-28 30 -43 38 -86 44 -58 8 -113 45 -94 64 6 6 35 13 65 16 30 3 65 8 79 11
l25 5 -29 15 c-22 12 -45 14 -94 9 l-64 -7 8 38 c12 59 8 95 -12 110 -27 19
-34 16 -34 -16z m0 -211 c0 -5 -17 -12 -37 -15 -21 -4 -45 -9 -55 -11 -29 -8
-29 14 -1 24 36 13 93 15 93 2z m-216 -68 c6 -9 -63 -37 -71 -29 -5 5 45 36
59 37 4 0 9 -4 12 -8z m-91 -127 c27 -7 33 -20 19 -42 -6 -9 -30 -2 -92 29
l-84 42 29 12 c25 10 34 9 65 -12 19 -12 47 -26 63 -29z m-264 16 c9 -6 10
-10 2 -16 -15 -8 -41 1 -41 15 0 12 20 13 39 1z m151 -66 c7 -9 10 -18 6 -22
-8 -9 -56 14 -56 27 0 15 36 12 50 -5z m-5920 -155 c0 -5 -2 -10 -4 -10 -3 0
-8 5 -11 10 -3 6 -1 10 4 10 6 0 11 -4 11 -10z m-62 -55 c1 -14 13 -43 27 -65
14 -22 25 -42 25 -45 0 -3 -24 -5 -52 -3 l-53 3 0 57 c0 47 3 59 20 67 29 14
30 13 33 -14z m-365 -50 c-3 -17 -27 -17 -48 0 -19 15 -18 15 15 13 19 -2 34
-7 33 -13z m131 -31 c8 -22 9 -22 -19 -16 -20 3 -23 7 -14 18 15 18 25 18 33
-2z m-186 -22 c64 -17 64 -17 43 -36 -20 -19 -23 -19 -57 -3 -19 9 -48 17 -64
17 -26 0 -30 4 -30 26 0 23 3 25 23 19 12 -3 50 -14 85 -23z m-90 -149 c-15
-15 -30 -24 -34 -20 -7 7 35 46 51 47 5 0 -3 -12 -17 -27z m-113 -123 c-28
-29 -55 -39 -55 -21 0 13 52 50 69 51 10 0 4 -11 -14 -30z m2650 -60 c18 -19
17 -20 -3 -20 -15 0 -22 6 -22 20 0 11 2 20 3 20 2 0 12 -9 22 -20z m1900 10
c3 -5 1 -10 -4 -10 -6 0 -11 5 -11 10 0 6 2 10 4 10 3 0 8 -4 11 -10z m41
-117 c24 -10 44 -21 44 -25 0 -4 -19 -18 -42 -32 -31 -18 -46 -22 -55 -14 -7
6 -13 15 -13 21 0 6 -10 21 -22 34 -18 20 -20 26 -10 48 l12 26 21 -20 c12
-11 42 -28 65 -38z m-1769 10 c10 -21 28 -50 40 -64 l23 -26 -20 -18 c-24 -21
-22 -23 -48 35 -11 25 -30 60 -42 78 l-22 32 26 0 c21 0 30 -8 43 -37z m187
-13 c5 -5 7 -13 3 -17 -4 -4 -13 -1 -19 5 -7 7 -22 12 -35 12 -13 0 -23 5 -23
11 0 13 59 4 74 -11z m-274 -9 c0 -3 3 -17 7 -31 6 -25 6 -25 -15 -6 -25 22
-30 59 -7 50 8 -4 15 -9 15 -13z m472 -32 c10 -5 18 -16 18 -24 0 -12 -9 -10
-47 6 -66 28 -79 43 -28 34 22 -4 48 -11 57 -16z m141 -60 c23 -12 65 -43 93
-70 58 -58 120 -79 202 -71 51 4 51 4 106 -53 31 -31 56 -58 56 -60 0 -2 -35
-11 -77 -20 -43 -8 -100 -22 -128 -29 -27 -8 -61 -17 -75 -20 l-26 -5 4 64 c2
35 1 76 -2 90 -9 37 -81 112 -150 157 -66 42 -67 49 -3 17z m1047 -69 c0 -4
-7 -11 -16 -14 -28 -11 -35 -7 -24 14 10 18 40 18 40 0z m-132 -42 c-5 -13
-58 -31 -58 -19 0 13 24 31 43 31 10 0 17 -5 15 -12z m-1278 -34 c50 -18 87
-24 156 -24 99 0 104 -3 104 -59 0 -18 13 -41 40 -69 22 -22 40 -48 40 -57 0
-42 -62 -115 -97 -115 -12 0 -38 -14 -57 -30 -36 -32 -54 -32 -74 0 -11 18 -9
21 13 30 15 6 31 10 36 10 15 0 59 47 59 63 0 18 -29 30 -44 19 -6 -5 -39 -12
-73 -15 -60 -6 -62 -6 -87 24 -35 41 -77 135 -83 184 -3 22 -13 49 -22 59 -15
18 -15 19 4 11 11 -5 49 -19 85 -31z m1320 -18 c0 -26 -23 -56 -43 -56 -12 0
-39 -8 -59 -18 -34 -18 -36 -18 -47 0 -6 10 -11 19 -11 22 0 2 26 11 58 20 31
9 64 21 72 26 16 10 30 13 30 6z m-54 -201 c-4 -14 -11 -25 -16 -25 -10 0 -4
43 8 65 9 15 14 -14 8 -40z m-1278 -7 c25 -30 27 -39 27 -125 0 -104 11 -129
44 -99 11 10 23 31 26 47 8 34 16 36 38 11 11 -12 13 -22 7 -32 -13 -20 -13
-67 0 -75 5 -3 17 10 27 29 28 60 53 39 33 -28 -27 -91 -24 -89 -67 -47 -27
27 -50 40 -79 44 -23 4 -46 12 -51 19 -5 7 -15 63 -22 123 -7 61 -14 122 -17
138 -7 35 1 34 34 -5z m1257 -152 c-8 -38 -35 -72 -35 -42 0 23 29 90 36 84 3
-3 2 -22 -1 -42z"/>
<path d="M10830 10242 c0 -4 6 -17 14 -28 8 -11 18 -38 22 -60 15 -87 82 -181
167 -234 56 -36 68 -40 128 -40 43 0 70 -5 77 -13 9 -11 38 -94 88 -259 8 -27
-7 -22 -48 16 -27 25 -35 39 -31 55 3 12 0 43 -8 69 -30 110 -79 126 -79 26 0
-34 -6 -39 -34 -28 -11 4 -16 19 -16 44 0 43 -25 74 -41 49 -5 -8 -9 -24 -9
-36 0 -29 -28 -30 -60 -3 -40 35 -143 51 -195 31 -16 -6 -9 -13 40 -36 47 -23
73 -29 123 -29 34 1 62 -2 62 -5 0 -3 -10 -25 -22 -48 -16 -30 -20 -45 -12
-53 17 -17 59 7 80 46 22 40 34 42 60 13 18 -21 18 -22 0 -33 -45 -27 -64 -47
-69 -73 -7 -40 9 -44 62 -17 26 14 63 27 82 30 34 6 38 3 73 -45 44 -59 79
-143 70 -166 -4 -9 2 -25 12 -37 19 -21 19 -21 -1 -13 -109 43 -189 50 -270
20 -37 -13 -65 -16 -108 -11 l-59 6 7 -33 c4 -18 21 -45 41 -63 23 -21 34 -40
34 -59 0 -30 7 -30 -110 -9 l-35 7 19 -22 c11 -12 37 -26 58 -33 42 -12 46
-21 20 -40 -29 -21 -62 -69 -62 -90 0 -18 3 -17 33 9 18 16 49 35 68 43 18 7
44 22 55 32 25 23 83 16 64 -7 -16 -19 -51 -118 -44 -124 12 -13 120 56 142
90 20 30 28 35 52 31 l30 -4 -25 -30 c-23 -28 -30 -52 -25 -88 3 -22 3 -22 48
0 23 11 56 38 73 60 25 31 37 39 53 34 32 -10 43 -25 51 -71 l7 -43 -69 0
c-37 0 -93 -7 -123 -16 -30 -9 -72 -19 -92 -21 -21 -3 -38 -11 -38 -18 0 -15
61 -58 112 -80 50 -20 80 -19 162 9 75 25 92 25 101 -4 3 -10 26 -40 50 -66
25 -26 45 -49 45 -50 0 -1 -24 -5 -52 -9 -29 -4 -75 -19 -103 -32 -27 -14 -63
-28 -79 -32 l-30 -7 50 -32 c27 -19 61 -36 75 -39 l25 -5 -23 -45 c-12 -25
-20 -50 -17 -55 4 -5 -7 -24 -23 -41 -42 -45 -63 -82 -63 -110 0 -28 34 -62
73 -71 37 -9 45 -32 19 -57 -45 -42 -36 -110 24 -182 13 -16 24 -33 24 -39 0
-5 16 -29 35 -53 40 -48 93 -74 159 -77 l44 -1 -21 -32 c-14 -21 -42 -41 -82
-59 -81 -35 -125 -76 -125 -115 0 -42 18 -77 47 -90 l25 -12 -40 -29 c-22 -16
-45 -37 -50 -46 -13 -23 -4 -52 18 -59 17 -5 16 -8 -6 -30 -36 -37 -31 -66 22
-114 25 -24 58 -48 73 -54 16 -7 41 -27 57 -46 30 -36 78 -61 117 -61 22 0 25
-5 29 -50 7 -66 48 -119 109 -140 24 -8 50 -19 57 -23 6 -5 17 -5 24 -1 18 11
171 12 186 1 24 -18 14 -54 -22 -75 -46 -27 -68 -63 -64 -104 2 -24 8 -33 21
-32 22 2 22 -12 0 -20 -17 -7 -19 -4 -51 47 -37 60 -146 84 -247 53 -27 -9
-70 -16 -95 -16 -25 0 -52 -5 -60 -10 -13 -8 -13 -10 2 -10 10 0 22 -9 28 -20
6 -11 17 -20 25 -20 8 0 35 -20 60 -44 48 -45 131 -83 193 -88 43 -3 48 -12
17 -32 -14 -9 -25 -23 -25 -31 0 -25 -38 -36 -112 -33 l-71 3 -13 53 c-15 58
-63 135 -95 152 -20 11 -161 41 -167 36 -5 -6 58 -119 88 -156 l30 -37 -58 -6
c-35 -3 -80 -16 -113 -32 l-54 -28 50 -23 c69 -33 139 -32 209 3 l54 26 73
-23 c41 -13 76 -25 78 -26 6 -5 -84 -76 -206 -162 l-31 -22 -17 50 c-22 65
-59 102 -132 128 -97 34 -242 49 -231 22 2 -3 28 -49 58 -100 53 -89 105 -140
143 -140 35 0 46 -38 23 -82 -16 -29 -43 -158 -55 -254 -6 -56 -5 -64 9 -64 9
0 20 4 26 8 5 5 29 14 54 21 93 27 164 101 195 204 10 34 10 50 -1 87 -16 52
-18 100 -5 100 5 0 53 36 106 81 53 44 98 79 100 77 2 -2 -2 -24 -9 -48 -11
-37 -20 -48 -52 -64 -52 -25 -114 -74 -114 -91 0 -19 29 -26 73 -16 28 7 37 6
37 -4 0 -27 -13 -45 -32 -45 -28 0 -58 -18 -58 -35 0 -11 12 -15 41 -15 40 0
41 -1 36 -27 -27 -130 -28 -145 -11 -202 l17 -56 18 65 c23 79 24 125 4 164
-8 15 -15 30 -15 33 0 2 27 1 60 -3 55 -6 60 -5 60 13 0 27 -28 49 -72 57 -41
8 -49 27 -24 61 13 18 15 18 50 -13 40 -35 62 -39 90 -19 16 12 13 17 -34 67
-28 30 -55 62 -60 71 -16 28 52 151 111 202 27 23 49 51 50 62 l0 20 9 -20 c5
-11 9 -34 9 -52 1 -48 38 -138 77 -186 46 -57 72 -113 79 -171 l7 -48 33 32
c18 18 36 44 40 59 20 85 26 98 49 109 31 14 36 8 37 -42 0 -23 3 -59 8 -81 6
-38 8 -39 19 -18 7 12 12 52 12 89 0 64 1 66 23 59 54 -16 113 -17 126 -2 16
20 6 37 -21 37 -12 0 -43 18 -69 40 -26 22 -55 40 -63 40 -9 0 -22 15 -29 33
-14 32 -14 32 22 42 29 9 102 40 120 52 10 7 -38 48 -78 65 -32 15 -55 18 -85
14 -39 -6 -44 -4 -54 19 -16 35 -17 35 24 35 28 0 44 8 70 34 19 19 34 38 34
43 0 4 -27 16 -59 27 -48 15 -65 17 -91 7 -43 -14 -39 -16 -54 19 -11 27 -9
36 13 85 14 30 30 53 36 52 5 -2 23 -23 40 -48 31 -43 130 -128 150 -129 6 0
19 -14 29 -31 15 -25 20 -28 32 -18 15 13 15 77 -2 159 -15 75 -58 124 -134
154 -77 31 -75 27 -81 112 -4 43 -10 91 -14 106 l-7 28 58 -30 c45 -23 77 -31
135 -34 l77 -5 -20 51 c-23 62 -43 102 -60 120 -38 39 -50 136 -23 172 8 11
15 35 15 53 0 34 -28 103 -42 103 -13 0 -68 92 -62 102 4 5 30 25 59 44 52 33
53 34 42 63 -9 24 -18 30 -53 36 l-42 6 10 35 c12 44 -9 120 -52 187 -35 56
-36 64 -10 72 53 17 85 116 56 172 -8 17 -37 56 -65 88 -48 58 -49 59 -53 136
l-3 78 -50 51 c-86 88 -143 125 -195 126 -68 1 -102 13 -95 33 16 42 17 71 2
77 -20 7 -90 -29 -115 -61 l-20 -25 -48 25 c-26 14 -53 25 -60 25 -9 0 -3 19
17 58 28 52 30 64 27 134 -2 42 -6 79 -9 83 -13 13 -59 -7 -59 -26 0 -11 -17
-29 -42 -45 -24 -15 -55 -38 -69 -51 -22 -20 -31 -23 -47 -14 -17 9 -19 18
-15 74 5 62 5 64 -27 90 -31 26 -33 27 -47 10 -13 -17 -14 -17 -11 2 3 17 10
20 55 17 55 -3 131 27 164 64 21 24 59 99 59 117 0 7 13 31 30 53 40 53 39 70
-4 69 -19 -1 -41 -7 -49 -13 -8 -7 -38 -14 -66 -16 -29 -3 -63 -12 -74 -20
-12 -9 -38 -27 -58 -40 -20 -14 -46 -37 -58 -52 -21 -27 -25 -25 -22 8 1 10
-6 31 -15 47 -17 29 -17 31 16 96 18 36 37 68 40 70 4 3 34 -5 66 -16 32 -12
85 -24 116 -26 65 -6 97 9 162 76 l38 39 -28 15 c-42 21 -70 26 -157 28 -42 1
-77 4 -77 8 0 3 7 14 15 25 8 10 17 38 21 62 8 52 -3 154 -17 154 -5 0 -30
-19 -54 -41 -53 -49 -67 -90 -64 -190 1 -38 0 -71 -2 -72 -48 -36 -66 -53 -85
-79 -17 -22 -25 -27 -29 -17 -5 16 -75 291 -75 299 0 3 30 3 66 2 39 -2 78 2
97 9 45 19 127 107 160 173 42 82 38 87 -63 88 -201 1 -190 3 -244 -47 -27
-25 -56 -45 -63 -45 -18 0 -53 18 -78 40 -27 24 -129 66 -245 101 -110 33
-100 31 -100 21z m590 -1024 c6 -24 16 -58 22 -76 12 -39 10 -42 -19 -31 -15
5 -23 17 -23 32 0 12 -8 39 -18 59 -17 32 -17 36 -3 46 26 17 30 14 41 -30z
m-311 -19 c17 -6 31 -15 31 -21 0 -6 -7 -7 -16 -4 -9 3 -26 6 -39 6 -12 0 -25
7 -29 15 -6 18 9 19 53 4z m411 -35 c0 -7 -4 -16 -10 -19 -17 -11 -28 3 -22
30 3 20 7 23 18 14 8 -6 14 -17 14 -25z m-225 -5 c5 -5 -2 -9 -17 -9 -14 0
-31 7 -39 16 -11 13 -9 14 17 8 16 -3 33 -11 39 -15z m250 -119 c3 -5 3 -15
-1 -21 -6 -11 -23 6 -24 24 0 10 18 9 25 -3z m177 -194 c-16 -17 -35 -46 -43
-63 -8 -18 -17 -33 -20 -33 -4 0 -17 21 -29 47 -21 45 -21 48 -5 58 10 5 31
19 49 31 28 19 33 19 54 6 l23 -15 -29 -31z m93 -5 c3 -5 1 -12 -5 -16 -5 -3
-10 1 -10 9 0 18 6 21 15 7z m443 -1973 c-11 -32 -12 -32 -22 -9 -7 17 -6 25
5 32 24 15 28 10 17 -23z m-75 -140 c-9 -10 -20 -18 -25 -18 -14 0 -9 28 8 45
24 23 39 -3 17 -27z m87 -24 c0 -11 -9 -29 -20 -39 -11 -10 -25 -33 -32 -51
-12 -35 -23 -40 -47 -25 -11 7 -8 17 16 52 17 24 38 59 48 78 13 26 19 31 26
20 5 -8 9 -23 9 -35z m70 -186 c0 -10 -3 -18 -8 -18 -9 0 -31 68 -23 75 7 8
30 -36 31 -57z m61 -158 c9 -31 10 -43 1 -52 -16 -16 -19 -11 -27 45 -9 59 9
64 26 7z"/>
<path d="M1181 10034 c-17 -14 -43 -46 -57 -70 -14 -24 -29 -44 -34 -44 -4 0
-15 11 -24 25 -25 38 -73 59 -104 46 l-24 -12 25 -23 c22 -20 47 -79 47 -110
0 -6 9 -19 19 -30 16 -17 18 -28 12 -56 -5 -23 -12 -34 -22 -31 -19 6 -153 18
-158 15 -2 -2 -1 -18 3 -37 9 -47 65 -103 111 -111 35 -7 37 -9 31 -38 -8 -40
-10 -42 -34 -29 -31 17 -73 13 -110 -9 l-33 -20 44 -44 c29 -30 55 -47 80 -51
35 -7 37 -10 37 -44 0 -31 -7 -41 -46 -73 -46 -37 -64 -46 -64 -30 -1 39 -35
153 -58 195 -16 29 -32 69 -36 90 -14 74 -55 26 -92 -108 -29 -106 -14 -172
56 -240 22 -22 40 -45 40 -53 0 -8 -11 -46 -25 -84 -14 -38 -25 -83 -25 -101
l0 -31 -47 45 c-27 25 -61 54 -78 64 -46 29 -98 55 -102 51 -10 -10 -4 -166 7
-186 16 -30 7 -124 -15 -153 -8 -12 -27 -37 -40 -56 -29 -39 -33 -95 -10 -128
8 -11 17 -45 21 -75 l6 -55 -65 -18 c-62 -17 -64 -19 -63 -47 1 -23 10 -35 37
-51 l36 -22 -19 -30 c-23 -38 -25 -150 -3 -202 18 -43 14 -63 -14 -63 -11 0
-27 -3 -36 -6 -25 -10 -75 -90 -75 -120 0 -15 16 -64 36 -110 l36 -84 -21 -55
c-28 -74 -27 -86 15 -166 46 -88 108 -159 138 -159 13 0 35 -11 50 -25 l27
-25 -22 -29 c-32 -43 -22 -67 26 -63 22 2 58 12 79 22 l40 19 34 -39 c18 -22
40 -40 48 -40 21 0 17 -18 -6 -25 -32 -10 -94 -89 -114 -146 -10 -30 -21 -59
-23 -65 -2 -6 8 -15 24 -19 21 -5 31 -2 44 14 12 14 29 21 52 21 19 0 53 7 76
15 40 14 42 13 57 -10 15 -23 15 -26 -10 -56 -36 -42 -42 -74 -23 -115 16 -32
37 -46 37 -24 0 6 5 10 12 10 8 0 7 -6 -4 -16 -15 -15 -19 -14 -60 10 -35 20
-58 26 -105 26 -63 0 -102 -18 -166 -78 -15 -15 -47 -36 -69 -47 -39 -18 -69
-52 -35 -40 7 3 20 -1 27 -9 8 -10 21 -14 36 -10 14 4 41 -3 69 -16 43 -21 52
-22 128 -12 45 5 93 13 107 18 24 7 24 7 8 -18 -9 -14 -18 -40 -20 -59 -3 -30
-11 -38 -67 -71 l-64 -37 -59 60 c-96 98 -151 113 -263 70 l-43 -16 22 -27
c24 -29 142 -108 163 -108 7 0 13 -4 13 -10 0 -5 -5 -10 -10 -10 -22 0 -101
-85 -120 -128 -11 -24 -20 -47 -20 -49 0 -8 82 4 115 17 40 15 92 66 117 115
25 48 34 55 76 55 18 0 49 7 69 15 20 8 38 14 40 12 2 -3 -22 -73 -53 -156
l-57 -152 -21 23 c-61 69 -116 85 -211 61 -68 -17 -149 -56 -182 -86 l-23 -20
53 -34 c28 -19 81 -49 117 -68 63 -32 67 -32 130 -23 60 9 65 9 82 -12 10 -12
18 -30 18 -40 0 -34 89 -206 136 -264 47 -56 49 -57 57 -35 5 13 21 51 35 84
22 50 26 76 27 150 0 112 -26 172 -95 220 -25 18 -46 39 -48 48 -4 22 78 280
86 272 4 -3 12 -25 19 -48 11 -37 11 -45 -6 -68 -42 -57 -69 -169 -41 -169 5
0 28 16 49 36 39 35 40 35 51 14 10 -18 8 -26 -9 -44 -23 -24 -28 -66 -9 -66
6 0 22 10 35 21 18 18 25 20 38 9 8 -7 15 -21 15 -32 0 -44 80 -141 132 -161
15 -5 14 2 -8 51 -36 81 -50 101 -90 119 -42 20 -40 31 11 58 48 25 54 41 21
56 -21 10 -33 9 -66 -6 -44 -20 -58 -15 -62 25 -3 22 0 24 43 21 32 -2 52 3
69 17 30 24 21 52 -17 52 -37 0 -109 22 -125 38 -21 21 -17 202 5 236 11 16
15 35 12 46 -4 11 -2 20 4 20 5 0 12 -9 16 -19 14 -45 163 -151 213 -151 28 0
89 -40 114 -76 l27 -38 11 30 c6 16 12 34 15 41 2 6 -3 37 -12 67 -13 45 -13
59 -3 71 20 25 36 18 76 -35 21 -27 42 -50 46 -50 17 0 7 39 -22 81 -16 24
-30 47 -30 50 0 4 18 9 40 12 45 6 90 31 90 50 0 9 -29 12 -107 12 -87 0 -111
3 -127 17 -21 18 -21 18 -1 33 60 46 97 87 86 98 -19 19 -126 12 -164 -12 -30
-19 -35 -19 -55 -5 -26 18 -28 34 -4 34 31 1 82 56 82 89 0 21 -109 13 -151
-11 l-40 -22 -25 26 c-22 21 -24 29 -15 46 6 11 11 32 11 46 0 38 12 38 69 1
37 -23 75 -37 125 -46 39 -7 82 -19 94 -27 20 -13 25 -13 32 -1 11 16 -42 118
-82 159 -28 29 -93 50 -152 50 -53 0 -65 8 -77 54 -6 22 -20 60 -32 83 -22 46
-18 65 9 42 12 -10 50 -14 131 -15 62 -1 113 1 113 4 0 13 -65 104 -86 121
l-23 18 24 11 c13 6 36 29 49 51 14 22 34 42 45 46 31 10 91 82 91 110 0 17
-14 40 -42 67 l-42 41 32 26 c58 48 71 119 34 188 -7 12 -12 30 -12 41 0 11
-11 44 -24 74 -26 58 -80 103 -137 115 l-30 6 33 22 c18 12 53 25 78 29 104
15 142 30 161 61 25 39 24 77 -1 100 -27 24 -25 35 5 35 42 0 85 27 85 53 0
13 -5 28 -12 35 -6 6 -10 13 -7 14 2 2 18 10 34 18 47 24 44 56 -12 131 -26
35 -57 86 -68 114 -14 36 -32 57 -63 78 -36 24 -42 33 -37 51 27 85 17 123
-46 187 -27 27 -54 47 -60 43 -6 -3 -18 0 -27 8 -9 8 -42 25 -72 38 -30 13
-59 27 -63 31 -14 11 4 59 22 59 43 0 112 33 126 61 20 37 19 57 -2 62 -11 3
-7 5 10 6 25 1 27 -1 27 -43 0 -34 7 -53 34 -88 40 -51 77 -72 158 -87 31 -5
75 -19 97 -31 49 -24 69 -27 51 -5 -6 8 -9 18 -6 23 3 5 -6 20 -19 32 -14 13
-25 31 -25 41 0 37 -32 88 -94 152 -39 40 -59 67 -50 67 9 0 32 7 51 16 34 17
36 16 94 -12 77 -36 85 -46 69 -83 -16 -40 -20 -104 -8 -152 8 -30 26 -53 72
-94 33 -30 65 -55 70 -55 8 0 3 95 -9 189 -4 31 -3 32 13 18 37 -34 192 -83
192 -60 0 4 -16 29 -35 55 -41 56 -106 92 -182 103 -29 4 -53 11 -53 16 0 6
-22 32 -49 59 -59 59 -59 60 123 60 l128 0 -6 -22 c-24 -83 -17 -120 37 -193
47 -62 119 -135 150 -151 l28 -15 -2 114 c-1 106 -3 118 -30 167 -16 30 -27
61 -24 70 3 9 20 25 39 36 88 50 223 174 211 194 -12 20 -102 52 -161 57 -118
10 -226 -50 -240 -135 -4 -23 -12 -46 -18 -50 -6 -5 -56 -12 -111 -16 -55 -3
-118 -9 -140 -12 l-40 -7 33 36 34 35 98 -5 c69 -4 99 -2 104 6 10 16 -12 41
-51 58 -36 15 -40 24 -19 42 11 9 20 9 35 2 24 -13 68 -14 76 -2 3 5 -8 18
-25 27 -40 24 -38 39 9 68 50 32 105 97 118 141 13 40 15 41 -68 -17 -55 -38
-79 -71 -79 -108 0 -34 -21 -33 -56 5 -18 20 -39 35 -46 33 -24 -8 -20 -54 6
-86 31 -36 32 -44 7 -66 -25 -23 -39 -14 -47 29 -6 34 -25 57 -56 68 -21 8
-40 -22 -28 -43 4 -8 11 -43 15 -76 7 -61 6 -62 -25 -84 -53 -37 -182 -90
-206 -84 -16 4 -26 0 -34 -16 -25 -46 -21 -8 6 57 25 61 28 82 30 197 3 124 4
131 33 178 l30 48 -44 0 c-40 0 -51 -6 -100 -50 -53 -48 -95 -64 -110 -40 -4
6 11 39 32 73 22 34 43 68 47 75 12 21 -11 13 -43 -14z m-60 -259 c-11 -25
-25 -45 -32 -45 -6 0 -8 7 -5 16 3 9 6 21 6 28 0 19 43 71 48 58 2 -6 -6 -32
-17 -57z m-48 -198 c-6 -39 -23 -51 -23 -16 0 21 19 64 26 57 2 -2 1 -21 -3
-41z m106 -130 c-2 -2 -29 -18 -59 -36 -30 -17 -66 -39 -78 -48 -23 -16 -24
-16 -20 13 2 21 12 33 37 46 19 10 46 29 60 43 25 25 26 25 45 5 11 -11 18
-21 15 -23z m-64 -127 c-22 -25 -48 -26 -43 -3 2 9 14 20 28 23 33 9 37 4 15
-20z m-125 -85 c0 -16 -27 -32 -37 -21 -7 7 16 36 28 36 5 0 9 -7 9 -15z m-89
-2025 c1 -16 2 -40 2 -52 1 -21 -4 -24 -53 -29 -48 -5 -57 -3 -72 15 -16 19
-15 21 20 32 19 7 47 24 61 38 33 33 41 33 42 -4z m-171 10 c0 -5 -2 -10 -4
-10 -3 0 -8 5 -11 10 -3 6 -1 10 4 10 6 0 11 -4 11 -10z m185 -292 c-4 -33 -4
-34 -19 -13 -15 22 -12 35 8 35 8 0 12 -9 11 -22z m64 -166 c-5 -13 -9 -40 -9
-61 0 -34 -3 -39 -26 -44 -25 -4 -26 -3 -20 32 4 20 9 54 12 76 9 68 13 73 34
45 13 -18 16 -30 9 -48z m-86 45 c7 -19 -18 -63 -28 -48 -8 15 2 61 14 61 5 0
11 -6 14 -13z m217 -150 c0 -15 -4 -13 -24 10 -13 15 -22 31 -20 35 8 12 44
-25 44 -45z m123 -91 c26 -22 36 -46 19 -46 -10 0 -62 53 -62 63 0 13 15 7 43
-17z"/>
<path d="M1354 5744 c-3 -11 -10 -27 -15 -37 -46 -86 -49 -95 -50 -174 -1 -68
3 -88 25 -132 22 -43 36 -56 81 -78 30 -15 57 -33 60 -41 6 -16 -27 -282 -35
-282 -3 0 -15 18 -27 39 l-23 39 20 44 c18 40 29 158 14 158 -17 0 -46 -24
-59 -50 -9 -17 -20 -30 -25 -30 -18 0 -20 39 -3 74 13 29 14 39 4 49 -10 9
-17 6 -36 -15 -32 -37 -43 -35 -62 10 -8 20 -29 53 -46 72 -28 33 -93 80 -110
80 -12 0 43 -102 71 -132 14 -15 40 -32 59 -39 18 -6 33 -14 33 -19 0 -5 -18
-19 -40 -31 -46 -26 -53 -55 -16 -65 17 -4 39 2 66 17 41 23 42 23 56 4 23
-32 16 -42 -32 -48 -50 -5 -91 -36 -81 -60 4 -11 22 -15 66 -16 93 0 112 -13
139 -96 19 -55 22 -84 18 -136 -3 -43 -1 -70 7 -78 25 -25 -8 -9 -41 20 -52
46 -134 80 -211 89 -82 10 -96 15 -148 57 l-42 33 -6 -45 c-6 -38 -3 -52 20
-90 26 -46 31 -95 9 -102 -6 -2 -36 17 -66 42 -30 25 -58 45 -61 45 -18 0 21
-65 54 -92 22 -17 39 -35 39 -40 0 -4 -15 -14 -33 -22 -42 -17 -77 -60 -70
-86 5 -20 5 -20 30 0 19 14 41 20 79 20 30 0 63 5 74 12 15 10 25 9 50 -2 l31
-15 -26 -35 c-14 -18 -25 -39 -25 -44 0 -6 -6 -23 -14 -38 -17 -32 -12 -38 28
-38 44 1 111 34 131 64 18 28 44 33 63 14 8 -8 5 -18 -13 -40 -14 -16 -26 -39
-26 -51 -1 -22 2 -60 5 -64 1 -1 23 5 49 14 28 9 59 29 77 49 50 57 88 42 109
-44 7 -29 10 -56 7 -59 -3 -3 -24 -1 -47 6 -26 8 -87 11 -165 9 -150 -4 -154
-9 -61 -93 97 -90 149 -103 249 -65 29 11 60 20 69 20 9 0 33 -20 53 -45 20
-24 49 -50 63 -57 42 -20 37 -32 -17 -45 -27 -7 -71 -27 -96 -45 -25 -18 -57
-40 -69 -49 l-24 -15 52 -31 c29 -17 82 -41 118 -52 77 -25 108 -54 129 -119
17 -51 64 -92 108 -92 14 0 47 -9 72 -21 l47 -21 -14 -41 c-8 -22 -19 -49 -24
-59 -8 -15 -5 -23 12 -37 21 -17 24 -17 62 1 21 11 40 18 40 16 33 -67 48 -86
102 -120 33 -21 70 -38 82 -38 29 0 36 -13 18 -36 -33 -44 -8 -141 46 -173 18
-11 61 -27 96 -37 60 -16 66 -20 88 -63 32 -63 60 -85 130 -104 98 -27 178
-32 206 -14 13 8 40 17 59 19 34 3 35 2 38 -34 2 -25 10 -42 22 -48 16 -9 24
-3 50 34 17 25 33 58 36 73 5 27 7 28 74 28 69 0 69 0 62 -25 -15 -53 -5 -144
21 -203 l26 -58 26 17 c16 11 25 25 25 43 0 15 9 34 20 43 10 9 31 35 46 57
15 23 32 41 40 41 29 0 44 -13 44 -40 0 -60 13 -92 44 -111 39 -24 53 -24 59
-1 4 13 5 12 6 -5 1 -18 -6 -22 -49 -28 -33 -4 -62 -17 -83 -33 -60 -50 -72
-73 -88 -162 -6 -30 -19 -73 -30 -96 -22 -47 -26 -75 -7 -56 7 7 22 12 33 12
12 0 30 9 40 20 10 11 27 20 37 20 46 0 152 82 184 143 17 31 34 28 34 -7 0
-13 7 -29 15 -36 8 -7 15 -21 15 -31 0 -26 -50 -149 -60 -149 -5 0 -21 5 -37
11 -43 16 -145 14 -184 -5 -36 -17 -121 -124 -112 -139 7 -11 197 -3 228 9 19
7 19 7 2 -13 -22 -25 -33 -111 -23 -177 l7 -46 35 28 c64 50 79 85 79 189 l0
92 37 37 c21 20 40 45 43 55 14 44 28 16 70 -146 14 -55 29 -108 32 -119 4
-16 1 -17 -35 -11 -65 11 -117 -10 -173 -68 -57 -59 -106 -139 -116 -187 l-6
-33 69 7 c164 16 196 26 243 72 24 24 46 44 48 44 11 0 51 -26 81 -51 18 -16
38 -29 44 -29 6 0 32 -13 57 -29 46 -28 155 -71 180 -71 9 0 11 6 6 18 -4 9
-9 42 -12 72 -5 64 -42 152 -81 194 -53 57 -111 86 -171 86 -31 0 -61 4 -67 8
-7 4 -32 67 -57 140 -34 99 -42 132 -31 132 8 0 14 -4 14 -8 0 -4 13 -16 30
-25 25 -15 30 -25 30 -55 0 -46 17 -108 38 -140 l16 -24 18 22 c10 12 18 37
18 56 0 37 2 39 32 23 14 -8 18 -17 14 -34 -6 -25 11 -75 25 -75 5 0 11 12 15
28 11 51 13 54 36 46 13 -4 27 -13 33 -20 29 -37 205 -75 205 -44 0 6 -4 10
-9 10 -6 0 -32 15 -58 33 -40 27 -58 32 -108 33 -62 2 -70 10 -40 44 19 22 27
57 15 65 -21 13 -59 -5 -80 -40 -24 -39 -39 -43 -63 -17 -23 25 -22 28 13 42
17 7 37 22 45 34 30 42 10 90 -25 61 -30 -26 -122 -55 -141 -45 -43 24 -129
153 -129 195 0 13 -9 30 -20 38 -30 21 -13 27 28 10 57 -25 164 -22 251 6 66
21 80 22 124 12 28 -6 51 -10 53 -8 2 2 -1 20 -7 40 -7 26 -22 45 -54 67 -46
31 -64 65 -46 83 7 7 30 5 76 -8 36 -9 68 -15 71 -12 9 9 -47 47 -87 59 -22 6
-39 15 -39 21 0 5 14 25 30 44 19 21 30 45 30 63 0 39 -17 47 -32 15 -7 -16
-33 -37 -62 -52 -28 -14 -59 -34 -68 -44 -15 -15 -41 -18 -76 -10 -1 1 2 10 7
20 11 20 24 141 15 141 -14 0 -81 -41 -97 -58 -11 -11 -25 -38 -32 -59 -11
-32 -18 -39 -44 -41 -35 -4 -37 2 -16 38 19 33 19 70 -1 98 l-15 22 -39 -31
c-24 -19 -46 -50 -56 -75 -17 -44 -42 -62 -68 -47 -18 10 -76 95 -71 104 3 3
32 9 66 12 41 5 83 18 127 41 37 19 80 38 95 42 45 11 28 34 -48 65 -92 37
-145 37 -210 0 -28 -16 -57 -36 -64 -45 -20 -23 -45 -20 -95 14 -24 17 -58 33
-75 36 -17 4 -31 10 -31 14 0 4 19 18 43 30 23 12 69 50 102 85 l60 64 -56 15
c-30 9 -71 16 -91 16 -40 0 -38 -10 -37 186 1 87 -1 91 -30 123 -26 28 -36 32
-78 30 -26 -1 -53 -1 -59 0 -6 0 -14 26 -16 56 -4 44 -11 62 -34 86 -33 35
-74 59 -102 59 -10 0 -32 10 -50 23 -40 30 -129 52 -175 43 -19 -4 -51 -18
-71 -31 -20 -14 -38 -25 -39 -25 -1 0 -1 19 -1 43 1 24 12 63 24 87 12 24 28
60 35 81 27 77 -21 149 -100 149 -31 0 -36 3 -30 18 4 9 9 34 12 55 7 45 -19
81 -52 73 -19 -5 -20 -2 -17 27 2 22 -3 41 -16 57 -19 23 -26 25 -99 23 -43
-1 -107 -2 -144 -2 -49 0 -76 -7 -110 -24 l-45 -24 -36 33 c-49 45 -112 61
-153 40 -16 -8 -42 -20 -57 -25 -16 -6 -28 -15 -28 -21 0 -12 -38 -46 -102
-93 -37 -27 -41 -27 -64 -12 -26 16 -30 30 -14 40 13 8 13 91 0 115 -16 29
-50 45 -61 29 -7 -11 -9 -11 -9 2 0 24 10 29 38 18 94 -36 203 25 265 147 9
17 27 38 41 48 14 9 30 24 35 34 8 16 4 18 -34 20 -24 1 -47 -3 -50 -8 -4 -6
-28 -7 -60 -4 -47 6 -61 3 -128 -29 -41 -20 -78 -40 -82 -46 -14 -23 -21 -9
-22 47 -1 54 2 60 44 110 24 28 51 52 58 52 8 0 31 -11 51 -25 49 -33 136 -58
174 -50 17 4 51 21 78 39 26 18 53 35 61 37 25 9 -33 37 -118 59 -45 11 -86
18 -91 15 -24 -15 -7 13 23 36 32 26 70 90 82 141 l7 27 -45 -14 c-83 -25
-132 -73 -159 -155 -13 -39 -22 -49 -66 -70 -28 -14 -59 -33 -70 -43 -21 -20
-29 -14 -27 18 3 29 46 269 49 273 2 1 23 -9 47 -23 59 -33 116 -33 188 2 98
47 198 124 179 138 -7 4 -176 54 -204 60 -27 5 -67 -1 -130 -20 -25 -8 -64 27
-64 56 0 10 -11 30 -23 46 -13 15 -36 51 -51 78 -15 28 -45 70 -66 94 -34 37
-41 41 -46 25z m-239 -1068 c17 -13 27 -28 23 -32 -11 -10 -88 43 -88 61 0 18
17 11 65 -29z m315 -54 c0 -15 6 -53 14 -84 13 -58 10 -66 -23 -49 -12 7 -18
24 -20 57 -1 26 -7 56 -12 67 -8 14 -7 22 8 32 23 17 33 10 33 -23z m-157 -31
c23 -12 37 -31 22 -31 -15 0 -55 25 -59 37 -4 8 -3 13 1 11 5 -2 20 -10 36
-17z m257 -61 c0 -23 -11 -32 -25 -20 -7 6 -10 21 -7 35 3 20 7 23 18 14 8 -6
14 -19 14 -29z m25 -130 c3 -5 2 -17 -3 -25 -7 -13 -10 -12 -20 10 -9 20 -9
25 3 25 7 0 17 -4 20 -10z m1641 -1284 l39 -34 -32 -34 c-18 -19 -33 -40 -33
-47 0 -8 -6 -11 -16 -7 -9 3 -22 6 -29 6 -12 0 -12 6 1 35 8 19 15 53 16 75 1
22 4 40 8 40 4 0 24 -15 46 -34z m-146 -96 c0 -5 -4 -10 -10 -10 -5 0 -10 5
-10 10 0 6 5 10 10 10 6 0 10 -4 10 -10z m347 -116 c-1 -2 -12 -1 -24 2 -15 4
-19 11 -15 26 5 21 5 21 24 -2 10 -12 17 -24 15 -26z m149 -71 c9 -21 25 -48
37 -61 20 -21 20 -23 4 -39 -20 -21 -23 -18 -70 70 l-37 67 26 0 c20 0 28 -8
40 -37z m176 2 c-4 -12 -53 -7 -67 7 -7 6 4 8 30 6 22 -2 39 -7 37 -13z m182
-1 c9 -3 16 -12 16 -19 0 -10 -10 -11 -42 -3 -58 13 -72 28 -26 28 20 0 43 -3
52 -6z m-440 -36 c10 -38 7 -42 -14 -23 -23 21 -26 45 -6 45 7 0 16 -10 20
-22z"/>
<path d="M11542 5462 c-21 -68 -22 -84 -12 -121 6 -24 9 -46 6 -49 -3 -3 -24
3 -45 13 -22 10 -47 15 -55 12 -35 -14 -8 -59 48 -82 39 -17 44 -30 21 -61
-14 -18 -15 -18 -49 19 -26 27 -43 37 -65 37 -24 0 -31 -5 -31 -19 0 -10 7
-24 15 -31 20 -16 65 -99 65 -119 0 -40 -146 -171 -192 -171 -10 0 -18 -6 -18
-14 0 -8 -3 -17 -7 -19 -5 -3 -8 43 -8 101 0 105 -1 109 -37 176 -32 57 -38
79 -38 128 0 32 -3 58 -7 57 -26 -2 -68 -41 -91 -84 -22 -40 -33 -51 -56 -53
l-29 -4 7 76 c4 42 4 76 1 76 -12 0 -45 -66 -45 -90 0 -47 -12 -51 -68 -23
-47 23 -56 24 -80 13 l-27 -13 27 -11 c37 -16 148 -136 148 -161 0 -18 -6 -20
-80 -19 -44 1 -80 -2 -80 -5 0 -3 9 -20 19 -37 22 -36 79 -74 125 -83 27 -6
31 -12 34 -41 3 -28 1 -33 -9 -22 -20 19 -103 15 -122 -5 -14 -17 -12 -21 30
-52 24 -19 61 -37 81 -40 28 -5 39 -12 46 -34 9 -26 6 -31 -34 -67 -25 -22
-48 -39 -52 -40 -4 0 -16 30 -27 66 -13 43 -35 86 -64 123 -24 31 -47 66 -51
79 -15 45 -39 20 -55 -56 -24 -116 -5 -179 78 -256 37 -36 38 -41 7 -97 -13
-24 -27 -59 -31 -76 -6 -30 -25 -47 -25 -22 0 20 -53 80 -116 129 l-64 50 -7
-27 c-4 -16 -7 -57 -7 -93 l-1 -65 -45 -2 c-25 -1 -87 -6 -138 -10 -86 -7 -96
-10 -119 -37 -22 -26 -24 -34 -18 -87 7 -62 7 -63 -42 -59 -56 4 -143 -75
-143 -131 0 -11 -11 -41 -25 -68 -47 -90 -43 -186 11 -250 l24 -29 -42 -4
c-28 -3 -59 2 -88 14 -81 35 -135 42 -174 23 -43 -20 -70 -73 -61 -116 7 -29
6 -30 -16 -23 -35 13 -95 10 -113 -5 -9 -7 -16 -27 -16 -43 0 -16 -4 -27 -8
-24 -20 12 -83 -16 -92 -40 -15 -37 -12 -97 6 -149 8 -25 12 -55 9 -66 -11
-35 6 -99 36 -133 l29 -33 -21 -19 c-29 -27 -47 -63 -49 -104 -3 -56 -1 -66
20 -90 11 -13 23 -34 26 -47 4 -13 13 -23 21 -23 9 0 25 -10 37 -22 12 -13 41
-39 64 -58 41 -34 43 -38 31 -62 -11 -25 -15 -26 -65 -21 -40 4 -60 2 -78 -11
-37 -24 -51 -53 -34 -74 11 -14 11 -15 -5 -9 -10 4 -20 7 -21 7 -2 0 -1 24 2
53 8 95 -45 166 -155 207 -32 12 -67 30 -78 39 -11 10 -30 24 -42 30 -20 10
-21 9 -19 -24 2 -19 8 -40 13 -47 6 -7 13 -37 16 -67 7 -60 42 -128 95 -183
l36 -38 -42 0 c-23 0 -42 -4 -42 -10 0 -22 -45 -8 -101 31 -32 23 -59 45 -59
49 0 5 11 32 25 62 18 38 25 70 25 114 0 65 -5 75 -77 157 l-33 37 -11 -27
c-14 -35 -32 -172 -26 -195 7 -24 -6 -23 -28 2 -23 25 -116 60 -161 60 l-35 0
18 -32 c48 -86 104 -126 191 -135 47 -5 54 -9 74 -42 11 -20 35 -51 52 -68
l30 -33 -162 0 -161 0 16 37 c21 53 13 142 -19 184 -42 58 -154 169 -170 169
-11 0 -17 -16 -22 -65 -20 -204 -20 -186 8 -239 14 -27 26 -54 26 -61 0 -14
-42 -55 -56 -55 -22 0 -226 -224 -213 -234 2 -1 36 -10 75 -19 158 -36 314 30
348 147 9 29 21 58 28 64 7 6 76 13 153 17 l140 7 -35 -30 c-34 -29 -37 -30
-125 -25 -50 2 -96 0 -104 -5 -22 -16 -5 -41 40 -60 l41 -17 -21 -19 c-18 -17
-25 -17 -45 -7 -29 16 -61 11 -61 -9 0 -8 12 -21 28 -28 15 -7 27 -16 27 -20
0 -4 -27 -31 -59 -60 -46 -40 -63 -63 -76 -102 -9 -28 -15 -53 -13 -55 2 -2
30 17 61 42 44 36 60 56 68 87 6 23 13 47 15 55 3 10 16 3 44 -24 66 -64 100
-16 40 57 l-30 37 22 20 c12 12 25 21 29 21 4 0 14 -21 21 -47 10 -36 21 -51
42 -62 37 -18 53 -3 38 36 -10 24 -16 89 -13 130 2 29 191 100 236 89 14 -4
27 0 35 9 27 32 30 13 5 -30 -44 -76 -56 -123 -56 -223 -1 -81 -4 -99 -28
-147 l-28 -55 41 0 c31 0 51 7 76 28 52 43 72 51 98 41 l24 -9 -21 -35 c-12
-19 -30 -51 -42 -70 -14 -23 -17 -35 -9 -35 14 0 79 64 96 95 11 19 14 17 56
-28 45 -48 54 -52 82 -41 14 5 12 10 -9 35 -13 16 -27 46 -30 67 -3 20 -13 51
-21 68 -9 19 -13 41 -9 57 8 31 13 32 40 13 11 -7 37 -16 58 -20 21 -4 46 -10
54 -13 14 -5 15 0 10 36 -5 43 -47 108 -76 118 -34 13 -40 23 -29 54 10 30 10
30 32 11 27 -26 76 -35 109 -23 l27 10 -28 48 c-17 29 -43 56 -65 68 -37 20
-46 45 -28 73 11 18 109 63 115 53 3 -4 4 -41 4 -82 -1 -46 6 -97 17 -134 10
-33 17 -72 16 -87 -2 -21 2 -28 15 -28 20 0 31 14 81 95 48 79 51 144 11 223
-16 30 -28 61 -28 71 0 9 18 37 41 61 23 25 45 57 51 73 13 35 25 34 33 -3 7
-32 70 -132 87 -139 5 -2 18 -17 28 -33 l18 -30 22 48 c12 27 28 80 36 119 19
85 51 132 99 141 45 8 83 47 90 93 13 83 27 141 35 141 4 0 36 -9 70 -19 l61
-19 10 25 c7 19 5 34 -8 62 l-18 36 39 20 c28 15 49 37 73 80 18 33 33 70 33
82 0 30 14 36 53 22 28 -10 42 -9 84 5 63 21 79 43 101 143 17 73 18 76 68
109 69 46 79 60 93 128 18 97 15 193 -9 223 -11 14 -20 41 -20 59 0 28 4 34
21 34 29 0 59 18 59 35 0 18 -90 65 -125 65 -24 0 -25 3 -23 48 1 26 -1 56 -5
67 -6 19 -2 20 71 20 78 1 108 12 179 66 l22 16 -22 21 c-14 13 -30 19 -43 16
-13 -3 -39 7 -73 30 -29 20 -60 36 -68 36 -10 0 -13 9 -11 31 3 29 8 33 51 44
55 14 81 37 91 78 5 20 3 27 -9 27 -8 0 -15 5 -15 11 0 6 7 9 16 7 9 -2 23
-26 34 -57 29 -87 97 -131 203 -132 34 0 86 -8 114 -17 29 -8 56 -12 60 -7 5
4 2 10 -4 12 -7 3 -13 13 -13 22 0 10 -13 30 -30 44 -16 15 -30 34 -30 42 0
39 -83 115 -167 151 l-38 16 27 12 c14 6 35 20 47 30 17 15 29 17 77 11 101
-12 104 -15 104 -88 0 -90 23 -161 63 -191 30 -23 110 -66 122 -66 16 0 -11
160 -41 234 -6 16 -5 17 16 6 27 -15 151 -9 195 9 l29 12 -29 25 c-64 54 -151
68 -249 42 -42 -11 -47 -10 -83 15 -21 14 -51 31 -67 37 -17 6 -25 14 -20 19
10 9 268 141 277 141 2 0 7 -27 9 -59 5 -74 33 -116 102 -156 94 -55 199 -89
218 -70 6 6 -25 129 -53 209 -20 59 -40 83 -91 111 -33 18 -35 37 -8 88 31 57
70 187 79 264 5 38 7 70 5 71 -1 2 -35 -8 -75 -22 -115 -41 -182 -103 -231
-212 -17 -40 -18 -51 -7 -99 6 -29 9 -60 6 -69 -3 -8 -28 -27 -54 -41 -26 -14
-82 -45 -123 -69 -41 -24 -77 -42 -79 -40 -9 8 42 94 57 94 24 0 134 54 150
73 23 27 4 40 -49 35 -35 -4 -49 -2 -49 8 0 29 13 44 39 44 33 0 67 23 57 38
-4 7 -23 12 -42 12 -28 0 -34 4 -34 20 0 12 9 33 21 49 14 20 21 44 21 82 1
58 -9 119 -20 119 -4 0 -18 -35 -30 -78z m-552 -359 c0 -40 -11 -74 -21 -67
-10 6 -12 77 -2 87 14 14 23 6 23 -20z m7 -203 c0 -22 -4 -40 -8 -40 -10 0
-12 64 -2 73 10 11 10 10 10 -33z m119 -94 c10 -8 17 -16 14 -19 -3 -2 -26
-18 -51 -35 -25 -16 -51 -37 -58 -46 -20 -24 -31 -19 -31 13 0 23 6 31 29 39
16 6 37 22 47 36 22 30 24 30 50 12z m-18 -128 c-2 -6 -14 -18 -26 -26 -20
-13 -22 -13 -22 6 0 18 12 26 43 31 5 0 7 -4 5 -11z m-128 -98 c0 -14 -7 -20
-22 -20 -20 0 -21 1 -3 20 10 11 20 20 22 20 1 0 3 -9 3 -20z m-115 -180 c10
-11 26 -22 36 -25 13 -4 19 -16 19 -37 0 -25 -3 -29 -17 -22 -10 4 -44 10 -76
12 -64 4 -66 9 -24 62 26 35 38 36 62 10z m-1186 -1739 c11 -7 9 -11 -9 -21
-25 -14 -33 -9 -24 14 7 18 13 19 33 7z m-131 -63 c-5 -15 -58 -24 -58 -9 0
11 17 19 43 20 11 1 17 -4 15 -11z m42 -52 c0 -3 -4 -16 -10 -30 -8 -21 -16
-26 -43 -26 -20 0 -46 -9 -61 -21 -26 -21 -28 -21 -41 -3 -20 27 -18 33 13 40
15 3 50 14 77 24 53 20 65 23 65 16z m-75 -212 c-19 -29 -32 -26 -16 3 5 10
13 27 17 38 6 18 7 18 11 2 3 -10 -3 -29 -12 -43z m-40 -146 c-10 -32 -34 -68
-45 -68 -14 0 -13 5 10 50 22 43 46 55 35 18z"/>
<path d="M4477 2223 c-10 -17 21 -162 45 -208 50 -97 123 -145 219 -145 42 0
70 -5 76 -12 12 -16 103 -244 103 -257 0 -6 -20 3 -45 20 -38 26 -45 36 -45
63 0 41 -27 121 -46 137 -22 18 -44 -7 -44 -52 0 -39 -5 -44 -34 -33 -11 4
-16 19 -16 44 0 21 -6 43 -14 49 -16 14 -21 8 -31 -37 -6 -28 -10 -32 -28 -26
-12 3 -29 14 -39 24 -25 26 -136 54 -176 43 l-33 -8 71 -39 c63 -34 78 -38
121 -34 27 3 51 2 54 -2 2 -3 -5 -19 -16 -36 -26 -40 -25 -74 2 -74 19 0 33
13 76 68 17 21 19 22 41 7 30 -22 28 -28 -18 -59 -34 -22 -40 -32 -40 -61 0
-37 18 -47 39 -21 6 7 39 23 72 36 l61 22 26 -24 c67 -60 132 -152 132 -185 0
-14 6 -23 15 -23 8 0 15 -5 15 -11 0 -7 -9 -9 -22 -5 -13 4 -53 9 -90 13 -59
5 -81 2 -168 -26 -89 -29 -105 -32 -147 -23 -26 6 -49 9 -51 7 -12 -12 39 -84
76 -109 46 -30 72 -70 56 -86 -5 -5 -33 -3 -69 5 -84 20 -92 20 -70 -5 10 -11
42 -27 72 -36 29 -8 53 -18 53 -22 0 -3 -12 -23 -26 -43 -17 -26 -24 -47 -22
-70 4 -39 23 -49 31 -17 4 13 29 38 59 57 29 19 59 43 66 53 7 10 25 18 40 18
l28 0 -2 -80 c-2 -47 1 -80 7 -80 43 0 109 72 119 130 5 31 9 35 39 38 29 3
33 1 26 -15 -17 -41 -17 -68 0 -100 10 -18 21 -33 25 -33 20 0 74 74 85 117
11 43 15 48 43 51 16 2 35 -3 41 -10 40 -48 61 -77 61 -82 0 -3 -30 -14 -67
-25 -38 -12 -94 -39 -125 -61 -32 -22 -69 -42 -83 -46 -41 -10 -29 -35 25 -52
137 -45 197 -35 280 44 31 30 60 54 65 54 4 0 32 -12 61 -26 29 -14 67 -28 86
-31 38 -6 49 -14 30 -21 -28 -9 -84 -66 -109 -111 -15 -25 -33 -54 -41 -64 -8
-9 -13 -20 -9 -23 5 -5 139 -7 202 -3 53 4 83 -10 139 -67 l54 -55 103 3 102
3 34 -85 c38 -95 38 -95 73 -103 22 -5 29 -1 44 28 l18 34 62 -48 c36 -27 87
-55 120 -65 l59 -19 50 54 c49 54 50 54 59 29 12 -34 25 -40 84 -40 40 0 59 6
90 29 36 26 118 110 171 174 12 14 35 29 50 33 94 21 110 28 145 66 65 70 116
197 98 244 -5 13 -7 31 -5 39 3 8 7 21 9 29 4 11 13 12 43 6 28 -7 42 -6 52 5
12 12 10 19 -14 52 -26 33 -44 51 -78 74 -5 4 1 33 14 66 l24 60 40 -21 c30
-16 62 -22 125 -24 47 -1 90 1 97 5 6 5 9 20 6 36 -4 20 -11 27 -28 27 -15 0
-26 8 -30 20 -4 11 -22 41 -41 65 -19 25 -34 51 -34 59 0 19 35 47 46 37 5 -5
28 -11 52 -14 38 -5 48 -2 79 26 33 29 34 32 16 45 -17 13 -17 14 2 10 15 -3
19 -10 17 -28 -10 -94 -7 -117 23 -165 23 -38 45 -57 98 -85 38 -21 83 -51
101 -69 17 -17 35 -31 38 -31 3 0 4 17 2 38 -2 20 -8 71 -12 112 -8 76 -30
131 -81 199 l-26 34 37 -6 c21 -3 40 -1 43 4 4 5 13 9 21 9 18 0 134 -88 134
-102 0 -4 -14 -33 -31 -63 -21 -37 -33 -74 -36 -114 -5 -57 -4 -61 38 -125 24
-36 47 -66 50 -66 15 0 60 146 61 202 1 32 13 36 27 9 13 -24 93 -62 149 -71
52 -8 54 3 13 75 -23 39 -41 57 -83 78 -29 15 -67 27 -84 27 -33 0 -57 21 -69
58 -4 13 -21 40 -38 59 l-32 36 159 -7 c88 -3 161 -8 163 -10 2 -1 -6 -25 -18
-51 -24 -53 -22 -134 4 -164 7 -9 25 -36 40 -61 29 -52 102 -130 120 -130 8 0
21 38 34 98 37 162 37 156 9 215 -14 30 -26 57 -26 60 0 11 54 57 66 57 17 0
224 206 224 223 0 19 -70 31 -185 31 -73 0 -98 -4 -131 -22 -68 -35 -101 -69
-119 -122 -9 -26 -22 -53 -29 -60 -9 -7 -63 -10 -156 -8 l-142 3 43 28 c40 26
46 28 84 17 22 -6 65 -10 95 -8 47 3 55 6 55 23 0 14 -14 26 -43 41 -42 20
-42 21 -23 38 15 14 24 15 40 7 24 -14 68 -14 76 -1 3 5 -7 17 -22 27 -15 9
-30 18 -31 19 -10 7 12 44 25 44 31 0 105 96 124 163 l8 29 -37 -28 c-67 -50
-91 -77 -109 -123 -9 -25 -18 -48 -20 -50 -2 -2 -18 13 -36 34 -23 27 -39 37
-50 32 -25 -10 -21 -51 10 -87 29 -35 24 -62 -15 -68 -16 -3 -21 4 -27 37 -7
41 -46 86 -69 78 -7 -2 -10 -34 -8 -88 3 -73 1 -87 -15 -101 -41 -37 -191 -75
-225 -57 -15 8 -24 7 -39 -7 -28 -26 -23 -3 10 42 42 57 71 151 71 231 0 66 7
89 44 144 l17 27 -36 4 c-29 3 -48 -3 -91 -30 -40 -25 -61 -32 -79 -28 -14 4
-25 10 -25 15 0 4 18 34 41 66 22 31 38 60 34 63 -10 11 -55 -22 -81 -60 -31
-44 -39 -46 -55 -15 -18 35 -61 77 -79 77 -28 0 -31 -12 -10 -35 11 -12 23
-42 26 -71 4 -27 12 -60 19 -74 9 -19 9 -31 1 -53 l-12 -27 -34 25 c-19 14
-39 25 -44 25 -6 0 -23 7 -38 14 -25 13 -28 13 -29 -2 -4 -55 19 -105 67 -147
32 -28 34 -33 24 -59 l-11 -29 -28 27 c-30 29 -87 43 -111 27 -12 -8 -12 -13
-2 -23 6 -6 12 -21 12 -32 0 -11 21 -39 46 -63 43 -41 45 -46 35 -72 -9 -21
-22 -29 -67 -40 -31 -7 -58 -10 -61 -8 -3 3 1 31 7 62 12 56 6 165 -10 194 -4
8 -4 27 0 42 13 45 -15 44 -57 -2 -95 -102 -109 -152 -74 -257 12 -35 19 -72
16 -82 -3 -11 -22 -29 -41 -41 -20 -12 -49 -39 -64 -61 -32 -44 -35 -42 -44
24 -4 28 -25 80 -50 123 l-43 75 -21 -39 c-12 -21 -23 -54 -24 -73 l-3 -36
-28 24 c-16 13 -34 24 -41 24 -7 0 -20 8 -30 19 -23 25 -91 55 -110 48 -11 -5
-16 -20 -16 -51 0 -48 -16 -69 -34 -44 -34 46 -87 25 -135 -52 -25 -41 -35
-48 -71 -54 -52 -8 -83 -41 -106 -109 l-17 -52 -17 40 c-9 22 -20 82 -23 136
-8 115 -20 149 -55 149 -14 0 -34 -7 -44 -17 -17 -15 -18 -14 -18 35 0 39 -4
52 -14 52 -8 0 -18 -6 -23 -12 -5 -9 -9 -3 -13 17 -4 26 -10 30 -43 33 -34 3
-99 -21 -157 -57 -8 -5 -34 -14 -57 -20 -41 -11 -87 -48 -109 -86 -11 -19 -13
-19 -42 -2 -54 31 -163 13 -179 -30 -4 -10 -17 -27 -31 -39 -13 -12 -22 -27
-21 -35 2 -8 -14 -49 -34 -92 -33 -72 -39 -78 -63 -75 -23 3 -29 10 -39 51
-15 57 -38 84 -82 93 -25 5 -32 3 -36 -12 -4 -17 -5 -16 -6 2 -1 17 8 24 47
34 90 25 141 99 142 206 0 34 7 78 15 97 18 43 21 94 4 65 -5 -9 -15 -15 -22
-12 -7 2 -25 -9 -40 -26 -15 -16 -37 -30 -48 -30 -28 0 -134 -110 -151 -156
-15 -41 -25 -43 -34 -7 -4 15 -16 35 -27 44 -20 15 -20 17 -2 87 9 40 22 75
29 79 6 4 37 6 68 4 32 -1 81 4 112 13 53 16 59 21 106 91 l49 75 -42 0 c-37
0 -133 -19 -192 -37 -18 -5 -18 -5 -2 20 20 30 23 121 6 181 l-11 38 -29 -28
c-51 -49 -72 -105 -67 -182 3 -37 8 -74 12 -83 5 -11 -2 -28 -22 -50 -16 -19
-37 -49 -47 -68 l-17 -35 -16 29 c-15 29 -92 252 -92 267 0 4 26 8 58 8 68 0
99 19 156 92 69 91 121 220 83 205 -8 -3 -39 -8 -71 -12 -100 -13 -166 -39
-212 -84 -23 -22 -50 -41 -60 -41 -9 0 -33 12 -53 27 -43 33 -209 113 -234
113 -10 0 -27 5 -37 10 -10 6 -21 7 -23 3z m3106 -354 c-10 -17 -26 -38 -37
-47 -18 -16 -18 -16 -11 8 11 39 34 70 51 70 13 0 13 -4 -3 -31z m-73 -152 c0
-2 -8 -19 -17 -38 -13 -24 -18 -29 -21 -17 -4 20 15 58 28 58 6 0 10 -2 10 -3z
m47 -159 c10 -22 7 -24 -76 -39 -47 -9 -87 -15 -89 -14 -2 2 1 13 8 24 7 14
21 21 43 21 18 1 46 7 62 15 40 18 41 18 52 -7z m-82 -114 c-21 -15 -55 -19
-55 -6 0 17 22 29 47 24 25 -5 25 -6 8 -18z m-151 -29 c-7 -17 -30 -20 -38 -6
-4 5 0 12 6 14 25 10 37 7 32 -8z m-194 -116 c7 -17 20 -37 28 -45 12 -12 12
-20 3 -40 l-11 -26 -30 25 c-16 14 -45 31 -65 37 -19 6 -35 15 -35 18 0 7 79
60 91 61 4 1 12 -13 19 -30z m-1968 -107 c15 -18 28 -35 28 -37 0 -3 -13 -5
-29 -5 -23 0 -32 7 -45 34 -9 19 -28 43 -43 54 -27 20 -27 20 -9 41 l19 21 25
-37 c14 -21 38 -53 54 -71z m56 56 c16 -16 15 -38 -2 -38 -13 0 -26 20 -26 41
0 13 14 11 28 -3z m-410 -84 c12 -2 22 -9 22 -14 0 -14 -74 -12 -88 2 -25 25
-11 28 66 12z m202 -4 c0 -5 -15 -10 -34 -10 -19 0 -38 5 -41 10 -4 6 10 10
34 10 23 0 41 -4 41 -10z m310 -50 c0 -11 -2 -20 -3 -20 -2 0 -12 9 -22 20
-18 19 -17 20 3 20 15 0 22 -6 22 -20z"/>
</g>
</svg>
