<?xml version="1.0" standalone="no"?>
<!DOCTYPE svg PUBLIC "-//W3C//DTD SVG 20010904//EN"
 "http://www.w3.org/TR/2001/REC-SVG-20010904/DTD/svg10.dtd">
<svg version="1.0" xmlns="http://www.w3.org/2000/svg"
 width="1280.000000pt" height="1280.000000pt" viewBox="0 0 1280.000000 1280.000000"
 preserveAspectRatio="xMidYMid meet">
<metadata>
Created by potrace 1.15, written by Peter Selinger 2001-2017
</metadata>
<g transform="translate(0.000000,1280.000000) scale(0.100000,-0.100000)"
fill="#000000" stroke="none">
<path d="M2315 12786 c-89 -38 -124 -169 -67 -246 26 -35 80 -70 111 -71 14
-1 -2 -7 -37 -15 -77 -17 -140 -44 -189 -81 -49 -37 -108 -131 -124 -195 l-12
-52 -13 46 c-29 99 -120 191 -217 220 -23 7 -84 13 -134 13 l-93 0 38 18 c140
71 165 223 46 283 -46 22 -155 26 -220 6 -93 -28 -164 -102 -172 -182 -4 -47
-3 -52 35 -89 45 -46 105 -65 176 -58 l48 4 -59 -33 c-71 -40 -146 -118 -175
-182 -16 -35 -21 -67 -21 -127 l-1 -80 -60 30 c-51 26 -70 30 -140 30 -68 0
-90 -5 -145 -31 -88 -42 -169 -117 -208 -196 -72 -142 -63 -279 24 -393 l26
-35 -49 0 c-83 0 -141 -26 -209 -94 -44 -44 -66 -77 -83 -121 -40 -105 -40
-104 -40 -55 -1 62 -42 145 -83 170 -102 62 -220 -26 -247 -184 -21 -120 16
-218 97 -257 41 -20 45 -21 86 -5 55 21 102 70 126 132 l19 49 1 -37 c0 -57
20 -138 46 -190 33 -64 86 -115 155 -148 l59 -27 -65 -32 c-103 -51 -171 -146
-196 -274 l-12 -59 -13 37 c-26 78 -89 120 -171 113 -57 -5 -92 -25 -127 -72
-30 -40 -30 -162 0 -202 32 -44 68 -66 117 -71 84 -10 154 34 182 113 l13 38
7 -45 c27 -162 131 -283 276 -320 l47 -12 -63 -22 c-144 -48 -223 -142 -259
-307 -8 -35 -14 -51 -15 -37 -1 32 -36 85 -74 113 -40 30 -144 30 -183 0 -49
-36 -67 -70 -72 -133 -8 -114 58 -191 163 -191 85 0 143 49 168 140 2 8 9 -15
16 -50 15 -76 59 -165 105 -209 17 -17 60 -46 95 -64 l62 -34 -46 -17 c-105
-41 -196 -162 -217 -292 l-11 -64 -18 52 c-20 61 -53 93 -109 108 -145 39
-257 -111 -191 -256 24 -53 61 -81 118 -90 92 -14 152 25 183 117 l18 52 7
-54 c18 -133 97 -247 207 -299 l58 -28 -57 -28 c-110 -53 -178 -147 -206 -285
l-13 -64 -8 38 c-16 83 -99 136 -190 123 -84 -13 -136 -79 -136 -173 0 -102
68 -173 165 -173 84 0 132 35 160 116 l12 36 12 -64 c25 -126 104 -231 212
-279 l49 -23 -59 -28 c-103 -49 -181 -158 -203 -282 l-11 -61 -10 35 c-20 78
-78 120 -164 120 -97 0 -163 -69 -163 -171 0 -87 32 -137 106 -165 92 -35 190
11 217 103 l13 45 12 -63 c29 -160 143 -281 292 -314 l35 -8 -45 -11 c-150
-40 -252 -151 -281 -309 l-13 -69 -11 39 c-25 85 -75 123 -162 123 -65 0 -112
-27 -141 -81 -20 -37 -23 -54 -19 -108 5 -67 22 -99 69 -134 33 -25 118 -34
158 -17 45 19 89 74 97 123 l7 42 12 -68 c26 -140 95 -237 207 -291 l57 -28
-58 -28 c-108 -51 -187 -163 -207 -295 l-7 -50 -14 47 c-32 106 -159 149 -255
85 -99 -66 -89 -248 15 -301 101 -51 215 -3 243 104 l10 35 11 -62 c23 -129
105 -239 214 -287 l52 -23 -56 -25 c-110 -51 -184 -148 -209 -278 -10 -52 -14
-60 -19 -40 -23 85 -81 130 -168 130 -54 0 -100 -25 -136 -73 -17 -23 -21 -43
-21 -102 0 -80 13 -108 69 -149 39 -30 143 -30 183 0 38 28 73 81 74 113 1 14
7 -3 15 -38 31 -140 103 -239 210 -288 l55 -25 -58 -27 c-109 -52 -188 -164
-208 -296 l-7 -50 -14 47 c-41 137 -237 155 -306 28 -15 -27 -18 -50 -16 -100
5 -107 61 -163 163 -163 84 0 137 38 159 114 l13 44 11 -65 c16 -86 55 -161
114 -216 48 -45 141 -94 178 -94 11 0 20 -4 20 -10 0 -5 -11 -10 -23 -10 -44
0 -144 -59 -196 -116 -52 -57 -83 -124 -96 -209 l-7 -50 -13 43 c-23 77 -76
115 -160 115 -102 0 -158 -56 -163 -163 -2 -50 1 -73 16 -100 69 -127 265
-109 306 28 l14 47 7 -50 c20 -132 99 -244 208 -296 l58 -27 -55 -25 c-107
-49 -179 -148 -210 -288 -8 -35 -14 -52 -15 -38 -1 32 -36 85 -74 113 -40 30
-144 30 -183 0 -49 -36 -67 -70 -72 -133 -3 -47 0 -69 17 -104 55 -113 228
-117 290 -7 11 21 21 46 22 56 0 11 9 -14 20 -54 35 -137 95 -216 204 -269
l54 -27 -47 -27 c-59 -34 -117 -96 -145 -157 -18 -39 -21 -66 -22 -157 l0
-110 -29 58 c-63 129 -209 150 -278 40 -60 -97 -1 -309 105 -373 49 -30 117
-27 158 7 43 36 59 79 59 160 l1 68 30 -58 c39 -76 101 -137 175 -172 48 -23
72 -28 135 -29 l76 0 -31 -60 c-27 -53 -31 -71 -30 -141 0 -69 5 -91 30 -145
45 -95 118 -169 211 -216 73 -36 84 -39 168 -39 106 0 163 22 231 90 l41 41
-1 -75 c-1 -45 5 -90 13 -111 39 -95 133 -179 243 -216 l53 -18 -54 -8 c-210
-32 -238 -222 -46 -310 72 -33 191 -32 258 1 64 31 89 71 84 133 -5 65 -42
110 -120 147 l-62 30 40 1 c150 1 274 79 333 209 l25 55 13 -37 c42 -120 165
-211 314 -232 l55 -8 -48 -12 c-87 -22 -134 -92 -124 -182 6 -57 31 -92 87
-120 56 -29 120 -30 176 -2 58 27 87 76 87 143 0 87 -36 134 -124 160 l-41 12
69 13 c129 24 239 105 287 214 l22 48 22 -49 c50 -111 155 -189 285 -213 l69
-13 -41 -12 c-85 -25 -121 -73 -121 -159 0 -97 54 -153 158 -162 104 -8 180
51 190 146 2 29 -1 64 -8 81 -19 45 -74 89 -123 97 l-42 7 69 12 c137 26 237
97 290 207 l28 57 28 -57 c52 -109 152 -182 280 -205 l65 -11 -47 -14 c-106
-31 -149 -158 -85 -254 66 -99 248 -89 301 15 51 101 3 215 -104 243 l-35 10
61 11 c134 23 251 115 293 228 12 30 21 62 21 70 0 8 5 12 10 9 6 -3 10 -14
10 -23 0 -9 13 -44 28 -77 54 -113 166 -192 302 -210 l55 -8 -50 -12 c-143
-37 -166 -237 -35 -306 45 -25 123 -24 177 1 70 31 107 115 84 191 -17 56 -49
88 -109 108 l-52 18 66 11 c125 21 230 96 284 205 l28 57 25 -54 c49 -107 149
-180 288 -210 35 -8 53 -14 40 -15 -40 -2 -98 -41 -121 -83 -18 -32 -21 -51
-18 -94 5 -58 25 -93 72 -128 40 -30 162 -30 202 0 72 53 93 138 55 217 -22
46 -78 86 -122 88 -13 1 5 7 41 15 141 31 235 99 287 212 l25 53 24 -50 c50
-110 159 -190 287 -213 l62 -11 -35 -10 c-79 -21 -123 -78 -123 -162 0 -102
56 -158 163 -163 50 -2 73 1 100 16 127 69 109 265 -28 305 l-47 14 64 11
c126 22 231 99 281 205 l28 58 25 -55 c49 -107 148 -179 288 -210 35 -8 52
-14 38 -15 -32 -1 -85 -36 -113 -74 -30 -40 -30 -144 0 -183 41 -56 69 -69
149 -69 82 0 111 14 153 75 29 43 30 116 2 170 -21 41 -78 79 -122 81 -13 1 6
7 41 15 85 19 159 53 208 98 46 41 98 133 109 190 l7 40 22 -66 c50 -149 159
-239 320 -263 l49 -8 -43 -13 c-24 -7 -57 -25 -72 -40 -81 -77 -54 -228 48
-270 79 -33 193 -3 233 60 28 47 28 136 -2 184 -21 34 -82 70 -123 73 -11 0
14 8 55 18 137 31 232 103 282 212 l22 49 23 -49 c52 -109 155 -187 281 -212
l64 -12 -36 -12 c-82 -28 -116 -76 -116 -162 0 -97 69 -163 171 -163 87 0 137
32 165 106 35 93 -11 190 -104 217 l-46 14 44 7 c72 11 134 35 185 70 55 39
121 123 130 166 8 37 21 39 29 3 12 -48 75 -130 129 -167 59 -40 113 -61 184
-72 l48 -7 -47 -13 c-93 -28 -139 -125 -104 -218 28 -74 78 -106 165 -106 102
0 171 66 171 163 0 86 -42 144 -120 164 -35 9 -35 9 30 22 128 25 231 102 283
212 l23 49 22 -49 c50 -109 145 -181 282 -212 41 -10 64 -18 50 -18 -14 -1
-43 -11 -64 -24 -106 -61 -101 -234 9 -287 78 -38 191 -14 237 50 63 87 15
222 -91 254 -25 8 -37 15 -26 15 46 2 143 34 194 64 69 41 136 130 159 210
l16 60 12 -46 c25 -100 80 -163 180 -209 41 -19 66 -23 155 -23 l107 0 -46
-25 c-110 -61 -145 -174 -75 -244 65 -65 177 -74 288 -23 71 33 100 58 126
109 57 111 -21 203 -171 203 l-66 0 56 33 c76 46 136 107 168 172 23 46 27 68
27 135 l0 81 59 -31 c52 -26 69 -30 140 -30 90 1 163 27 237 85 l38 31 -19
-43 c-42 -97 -35 -175 21 -223 40 -33 122 -35 185 -5 85 42 159 147 169 242
17 151 -139 207 -283 102 -22 -17 -22 -15 6 42 37 74 56 162 47 223 -8 57 -44
137 -77 172 l-25 27 57 5 c140 12 261 113 310 259 l19 53 0 -45 c1 -25 12 -68
26 -97 41 -89 120 -117 197 -70 76 46 110 120 112 242 1 65 -3 88 -21 121 -28
53 -77 84 -132 84 -76 0 -119 -34 -155 -124 l-23 -56 -6 68 c-13 155 -96 271
-224 316 l-37 13 56 26 c109 49 181 148 212 288 8 35 14 52 15 38 1 -32 36
-85 74 -113 40 -30 144 -30 183 0 56 41 69 69 69 149 0 59 -4 79 -21 101 -53
72 -138 93 -217 55 -44 -21 -86 -78 -88 -117 0 -11 -9 14 -20 54 -34 134 -93
213 -197 266 -26 13 -66 28 -88 32 l-39 7 58 18 c153 46 251 164 273 330 l7
53 12 -47 c36 -143 210 -174 299 -54 17 23 21 43 21 100 0 107 -43 165 -131
175 -97 11 -162 -29 -187 -115 l-13 -45 -13 68 c-14 79 -58 167 -105 213 -17
17 -60 46 -95 64 l-62 34 45 17 c105 40 205 177 221 301 l7 59 18 -55 c21 -62
53 -94 110 -109 145 -39 257 111 191 256 -24 53 -61 81 -118 90 -91 14 -166
-34 -188 -122 l-12 -47 -11 68 c-23 142 -118 262 -237 302 l-30 10 59 28 c110
52 181 149 209 285 l13 65 8 -38 c28 -148 254 -170 312 -30 33 79 3 193 -60
233 -47 28 -136 28 -184 -2 -34 -21 -70 -82 -73 -123 0 -11 -8 14 -18 55 -31
136 -103 232 -212 282 l-47 22 56 29 c107 53 178 150 203 277 13 65 13 65 22
30 20 -78 78 -120 164 -120 97 0 163 69 163 171 0 87 -32 137 -106 165 -93 35
-190 -11 -218 -105 l-14 -46 -7 50 c-25 160 -115 270 -263 320 l-66 22 40 7
c57 11 149 63 189 107 47 52 81 122 96 198 l12 63 12 -36 c28 -81 76 -116 160
-116 105 0 171 77 163 191 -5 63 -23 97 -72 133 -39 30 -143 30 -183 0 -38
-28 -73 -81 -74 -113 -1 -14 -7 3 -15 38 -30 139 -98 232 -207 285 l-57 28 58
28 c108 51 187 163 207 295 l7 50 14 -47 c32 -106 159 -149 255 -85 45 30 69
80 69 142 -1 108 -64 178 -164 178 -85 0 -142 -43 -163 -123 l-10 -35 -11 61
c-22 127 -105 238 -213 289 l-50 23 54 25 c108 49 171 131 206 269 11 40 20
65 20 54 2 -34 43 -94 81 -115 52 -29 126 -28 170 1 61 42 75 71 75 153 0 80
-13 108 -69 149 -39 30 -143 30 -183 0 -38 -28 -73 -81 -74 -113 -1 -14 -7 3
-15 38 -31 140 -103 239 -210 288 l-55 25 58 27 c109 52 188 164 208 296 l7
50 14 -47 c41 -137 238 -155 305 -28 25 46 25 134 0 180 -68 127 -264 109
-305 -28 l-14 -47 -7 50 c-13 85 -44 152 -96 209 -52 57 -152 116 -196 116
-12 0 -23 5 -23 10 0 6 9 10 20 10 37 0 130 49 178 94 59 55 98 130 114 216
11 65 11 65 21 30 21 -79 78 -123 162 -123 102 0 158 56 163 163 2 50 -1 73
-16 100 -69 127 -265 109 -306 -28 l-14 -47 -7 50 c-20 132 -99 244 -208 296
l-58 27 55 25 c107 49 179 148 210 288 8 35 14 52 15 38 1 -32 36 -85 74 -113
40 -30 144 -30 183 0 56 41 69 69 69 149 0 82 -14 111 -75 153 -43 29 -116 30
-170 2 -39 -20 -79 -78 -81 -117 0 -10 -9 15 -20 55 -35 136 -103 225 -210
274 l-47 22 47 27 c58 34 116 96 144 157 18 39 21 66 22 157 l0 110 28 -58
c37 -74 83 -107 150 -107 99 0 151 58 151 169 1 111 -53 227 -127 271 -49 30
-117 27 -158 -7 -43 -37 -59 -79 -59 -160 l-1 -68 -27 54 c-36 72 -107 142
-179 177 -47 22 -72 27 -134 28 l-76 0 29 56 c58 117 43 257 -42 368 -22 28
-39 52 -37 52 1 0 24 -11 51 -25 80 -41 162 -29 216 30 36 39 35 123 -2 186
-109 185 -346 225 -389 66 -13 -50 10 -134 51 -181 l30 -33 -83 41 c-78 39
-87 41 -172 41 -111 0 -168 -23 -236 -96 l-47 -49 10 42 c19 85 -14 193 -80
262 -47 49 -99 82 -176 111 -55 22 -58 24 -28 25 67 0 124 22 164 62 35 35 38
43 38 93 0 49 -4 59 -35 94 -99 109 -309 120 -399 21 -30 -33 -36 -48 -36 -84
0 -63 42 -116 122 -155 l63 -30 -40 -1 c-150 -1 -274 -79 -333 -209 l-25 -55
-13 37 c-41 118 -163 209 -309 232 l-50 7 47 14 c106 32 149 159 85 255 -46
69 -152 90 -237 47 -54 -28 -80 -74 -80 -141 0 -86 42 -144 120 -164 l35 -10
-61 -11 c-124 -22 -233 -100 -282 -203 l-28 -59 -23 49 c-49 110 -154 188
-284 212 l-69 13 39 11 c85 25 123 75 123 162 0 105 -73 168 -187 161 -67 -4
-100 -21 -137 -72 -30 -39 -30 -143 0 -183 28 -38 81 -73 113 -74 14 -1 -3 -7
-38 -15 -139 -30 -232 -98 -285 -207 l-28 -57 -28 58 c-51 108 -163 187 -295
207 l-50 7 47 14 c138 41 156 240 28 307 -48 25 -155 19 -198 -11 -39 -28 -66
-86 -65 -143 1 -79 46 -136 123 -156 l35 -10 -62 -11 c-89 -16 -167 -57 -223
-119 -45 -49 -90 -139 -90 -179 0 -8 -4 -12 -10 -9 -5 3 -10 14 -10 23 0 9
-13 44 -28 77 -53 111 -164 190 -297 210 l-50 7 47 14 c137 41 155 238 28 305
-22 12 -55 19 -90 19 -35 0 -68 -7 -90 -19 -127 -67 -109 -264 28 -305 l47
-14 -50 -7 c-131 -20 -238 -95 -293 -205 l-30 -59 -31 64 c-51 104 -143 169
-282 199 -35 8 -52 14 -38 15 32 1 85 36 113 74 30 40 30 144 0 183 -41 56
-69 69 -149 69 -59 0 -79 -4 -101 -21 -72 -53 -93 -138 -55 -217 22 -46 78
-86 122 -88 13 -1 -5 -7 -40 -15 -141 -31 -230 -94 -282 -199 l-31 -64 -30 59
c-55 112 -165 187 -297 205 l-54 7 54 18 c62 21 94 53 109 110 31 114 -49 209
-175 210 -61 0 -112 -24 -141 -67 -66 -99 -20 -229 91 -258 l50 -12 -55 -8
c-135 -18 -248 -97 -301 -208 l-27 -58 -25 55 c-49 107 -148 179 -288 210 -35
8 -52 14 -38 15 32 1 85 36 113 74 30 40 30 144 0 183 -36 49 -70 67 -133 72
-47 3 -69 0 -104 -17 -112 -54 -118 -227 -9 -289 22 -12 50 -22 63 -23 13 -1
-5 -7 -40 -15 -85 -19 -159 -53 -208 -98 -46 -41 -98 -132 -109 -191 l-7 -40
-18 58 c-45 150 -162 248 -324 273 l-49 7 43 13 c85 25 130 99 116 191 -12 81
-80 133 -172 133 -106 -1 -173 -65 -173 -166 0 -83 35 -131 116 -159 l37 -12
-62 -11 c-123 -22 -234 -105 -283 -213 l-22 -47 -30 59 c-52 105 -155 179
-279 201 l-60 11 37 12 c82 28 116 76 116 162 0 97 -69 163 -171 163 -87 0
-137 -32 -165 -106 -35 -93 11 -190 104 -218 l47 -13 -50 -7 c-71 -11 -147
-42 -194 -79 -50 -40 -107 -118 -116 -158 -8 -37 -21 -37 -29 -1 -12 47 -75
129 -129 166 -61 41 -111 61 -187 71 l-55 8 48 12 c87 22 134 92 124 182 -6
57 -31 92 -87 121 -125 63 -263 -11 -263 -142 0 -88 36 -134 124 -160 l42 -13
-64 -10 c-129 -21 -236 -98 -287 -204 l-28 -59 -23 49 c-49 109 -144 181 -281
212 -41 10 -65 18 -52 18 12 1 41 10 62 21 108 55 106 241 -3 291 -49 22 -128
24 -172 5z m351 -575 c10 -20 20 -49 24 -66 l6 -30 86 -3 87 -3 11 43 c14 50
49 115 78 141 l20 19 -19 -64 c-11 -34 -23 -98 -26 -140 l-6 -78 52 0 51 0 0
-250 0 -250 55 0 55 0 0 250 0 250 30 0 30 0 2 -247 3 -248 52 -3 53 -3 2 248
3 248 48 3 47 3 0 62 c0 55 -12 122 -35 192 -4 13 7 5 30 -20 23 -25 42 -61
53 -97 l17 -58 85 0 85 0 17 58 c11 36 30 72 53 97 22 24 34 32 29 20 -19 -56
-34 -137 -34 -192 l0 -62 48 -3 47 -3 3 -248 2 -248 53 3 52 3 2 245 2 245 30
3 31 3 0 -250 0 -251 55 0 55 0 0 250 0 250 51 0 52 0 -6 78 c-6 69 -19 127
-42 187 -8 20 -8 20 14 0 31 -27 67 -91 81 -142 l11 -43 85 0 c59 0 86 4 88
13 21 75 35 106 64 144 19 24 35 43 37 41 2 -2 -5 -28 -15 -59 -11 -31 -22
-93 -26 -138 l-7 -81 52 0 51 0 0 -250 0 -250 55 0 55 0 0 251 0 250 33 -3 32
-3 2 -245 2 -245 51 -3 50 -3 2 248 3 248 53 3 53 3 -7 62 c-6 61 -24 152 -38
192 -5 12 7 4 29 -20 23 -25 42 -61 53 -98 l17 -58 99 3 99 3 16 52 c15 48 77
150 86 141 2 -2 -2 -22 -10 -45 -16 -48 -35 -153 -35 -200 0 -33 0 -33 50 -33
l50 0 0 -250 0 -250 55 0 55 0 0 251 0 250 33 -3 32 -3 3 -247 2 -248 50 0 50
0 2 248 3 247 53 3 c33 2 52 8 52 15 0 41 -23 182 -35 216 -16 46 -12 51 16
19 29 -35 57 -90 64 -131 l7 -37 88 0 88 0 7 33 c10 46 49 118 76 142 l22 20
-7 -20 c-18 -50 -36 -145 -36 -197 l0 -58 50 0 50 0 0 -250 0 -250 55 0 55 0
0 250 0 250 30 0 30 0 0 -250 0 -250 55 0 55 0 0 250 0 250 51 0 52 0 -6 83
c-3 45 -15 108 -25 140 l-20 58 23 -21 c28 -27 71 -105 80 -148 l7 -33 85 3
84 3 18 52 c10 29 30 70 46 93 32 47 52 63 41 34 -17 -45 -37 -134 -43 -196
l-6 -68 52 0 51 0 0 -250 0 -250 55 0 55 0 2 248 3 247 30 0 30 0 3 -248 2
-248 53 3 52 3 2 245 2 245 50 3 c42 3 51 6 51 22 0 41 -22 173 -35 210 -8 22
-10 40 -6 40 22 0 91 -129 91 -170 0 -19 6 -20 88 -20 l88 0 17 54 c15 47 73
143 82 134 1 -1 -5 -34 -15 -73 -11 -38 -19 -98 -19 -132 l-1 -63 50 0 50 0 0
-250 0 -250 55 0 55 0 0 250 0 250 30 0 30 0 0 -250 0 -250 55 0 55 0 0 250 0
250 50 0 50 0 0 58 c0 52 -18 147 -36 197 l-7 20 22 -20 c27 -24 66 -96 76
-142 l7 -33 98 0 99 0 11 43 c14 49 49 114 78 140 l20 19 -20 -64 c-11 -34
-22 -98 -25 -140 l-6 -78 52 0 51 0 0 -250 0 -250 55 0 55 0 0 250 0 250 30 0
30 0 0 -250 0 -250 55 0 55 0 0 250 0 250 50 0 50 0 0 58 c0 52 -18 148 -36
197 -7 18 -6 19 10 5 29 -23 65 -85 78 -135 l12 -45 86 0 85 0 18 60 c12 40
30 73 53 98 24 24 33 30 29 17 -18 -49 -33 -125 -39 -187 l-6 -67 52 -3 53 -3
3 -247 2 -248 50 0 50 0 2 248 3 247 33 3 32 3 0 -250 0 -251 55 0 55 0 0 250
0 250 50 0 50 0 0 39 c0 50 -25 184 -40 211 -7 12 -9 24 -6 27 10 10 71 -88
87 -140 l16 -52 86 -3 86 -3 11 43 c14 50 49 115 78 141 l20 19 -19 -64 c-11
-34 -23 -98 -26 -140 l-6 -78 52 0 51 0 0 -250 0 -250 55 0 55 0 0 250 0 250
30 0 30 0 0 -250 0 -250 55 0 55 0 2 248 3 247 48 3 47 3 0 62 c0 55 -12 122
-35 192 -4 13 7 5 30 -20 23 -25 42 -61 53 -97 l17 -58 86 0 87 0 7 37 c9 50
37 103 71 133 24 22 26 23 20 5 -21 -58 -36 -136 -36 -192 l0 -63 47 0 46 0
-6 -250 -5 -250 28 0 c34 0 29 -20 60 285 12 109 22 201 24 203 2 1 15 0 29
-3 22 -6 25 -11 21 -33 -3 -15 -20 -125 -37 -244 l-33 -217 24 -6 c14 -3 27
-4 29 -1 3 3 30 110 60 238 30 128 56 235 59 237 2 2 22 -1 44 -7 39 -10 42
-9 50 14 17 43 32 153 28 204 -1 27 0 50 4 50 16 0 43 -99 43 -156 l0 -62 82
-37 83 -37 39 35 c47 42 83 62 131 72 l35 7 -45 -35 c-41 -33 -93 -94 -133
-157 -16 -25 -15 -26 18 -49 19 -13 35 -27 35 -30 0 -4 -63 -96 -140 -205
-134 -192 -139 -200 -120 -213 11 -8 24 -13 29 -11 5 2 77 85 160 186 136 163
153 181 171 172 11 -6 20 -15 20 -21 0 -6 -72 -90 -160 -186 -88 -96 -160
-178 -160 -182 0 -5 8 -15 18 -24 16 -15 29 -5 199 153 l182 170 30 -37 31
-37 73 74 c40 41 80 90 88 108 12 27 29 43 29 27 0 -38 -29 -115 -56 -151 -20
-25 -34 -49 -32 -53 2 -3 21 -35 42 -69 33 -52 43 -62 60 -57 50 14 124 15
166 3 l45 -14 -82 -16 c-45 -9 -107 -28 -138 -42 l-55 -25 16 -41 c9 -22 15
-42 13 -44 -2 -2 -103 -44 -224 -94 -121 -50 -221 -96 -222 -104 -2 -7 1 -20
6 -28 8 -12 46 -3 241 60 194 62 233 72 241 59 22 -34 4 -42 -226 -103 -226
-60 -230 -61 -233 -89 -4 -35 -10 -35 249 13 118 22 222 40 232 40 11 0 17 -8
17 -24 0 -43 10 -56 44 -56 43 0 138 25 186 50 22 11 40 16 40 11 0 -18 -89
-88 -130 -101 l-41 -13 3 -85 3 -85 42 -12 c50 -15 124 -57 144 -81 13 -16 12
-17 -6 -10 -47 19 -125 36 -192 42 l-73 7 0 -52 0 -51 -250 0 -250 0 0 -55 0
-55 251 0 250 0 -3 -32 -3 -33 -247 -3 -248 -2 0 -50 0 -50 248 -2 247 -3 3
-52 c2 -34 8 -53 15 -53 42 0 183 23 218 35 l43 16 -25 -27 c-30 -32 -83 -60
-132 -69 l-37 -7 0 -88 0 -88 33 -7 c46 -10 118 -49 142 -76 l20 -22 -20 7
c-50 18 -145 36 -197 36 l-58 0 0 -50 0 -50 -250 0 -250 0 0 -55 0 -55 250 0
250 0 0 -30 0 -30 -250 0 -250 0 0 -55 0 -55 250 0 250 0 0 -51 0 -52 78 6
c42 3 106 14 141 25 l63 21 -21 -23 c-28 -29 -106 -72 -148 -81 l-33 -7 0 -98
0 -98 33 -7 c52 -12 166 -79 154 -91 -2 -2 -26 3 -53 11 -27 9 -86 18 -131 22
l-83 6 0 -52 0 -51 -250 0 -250 0 0 -55 0 -55 250 0 250 0 0 -30 0 -30 -250 0
-250 0 0 -55 0 -55 250 0 250 0 0 -50 0 -50 58 0 c52 0 147 18 197 36 19 7 19
7 2 -13 -22 -26 -103 -69 -144 -78 l-33 -7 0 -89 c0 -86 1 -89 23 -89 39 0
167 -72 167 -94 0 -3 -18 1 -40 9 -37 13 -169 35 -210 35 -16 0 -19 -9 -22
-52 l-3 -53 -247 -3 -248 -2 0 -50 0 -50 248 -2 247 -3 3 -32 3 -33 -250 0
-251 0 0 -55 0 -55 250 0 250 0 0 -50 c0 -50 0 -50 33 -50 46 0 152 18 198 34
21 8 39 10 39 6 0 -14 -81 -63 -133 -81 l-52 -18 -3 -84 -3 -85 54 -16 c49
-14 144 -72 135 -82 -3 -2 -40 5 -83 16 -43 11 -102 20 -132 20 l-53 0 0 -50
0 -50 -250 0 -250 0 0 -55 0 -55 250 0 250 0 0 -30 0 -30 -250 0 -250 0 0 -55
0 -55 250 0 250 0 0 -50 0 -50 58 0 c52 0 147 18 197 36 l20 7 -20 -23 c-22
-25 -130 -80 -157 -80 -16 0 -18 -11 -18 -87 l0 -88 60 -18 c38 -11 75 -30 98
-52 l37 -34 -65 18 c-36 10 -97 21 -137 24 l-72 6 -3 -52 -3 -52 -247 -3 -248
-2 0 -50 0 -50 248 -2 247 -3 3 -32 3 -33 -250 0 -251 0 0 -55 0 -55 250 0
250 0 0 -50 0 -50 39 0 c49 0 184 25 211 40 13 7 20 7 20 0 0 -15 -76 -62
-133 -81 l-52 -18 -3 -98 -3 -98 58 -17 c37 -11 73 -30 98 -53 25 -23 33 -34
20 -30 -70 23 -137 35 -192 35 l-62 0 -3 -47 -3 -48 -248 -3 -248 -2 3 -53 3
-52 245 -2 245 -2 3 -30 3 -31 -250 0 -251 0 0 -55 0 -55 250 0 250 0 0 -51 0
-52 79 6 c44 4 105 15 135 25 31 10 56 15 56 11 0 -15 -104 -77 -147 -89 l-43
-11 0 -85 c0 -59 4 -86 13 -88 6 -2 30 -9 53 -15 37 -10 140 -78 132 -86 -2
-2 -30 5 -62 15 -32 11 -94 23 -137 26 l-79 7 0 -52 0 -51 -250 0 -250 0 0
-55 0 -55 251 0 250 0 -3 -32 -3 -33 -245 -2 -245 -2 -3 -51 -3 -50 248 -2
248 -3 3 -51 3 -52 62 5 c55 4 136 20 192 38 12 4 5 -7 -20 -30 -25 -23 -61
-42 -97 -53 l-58 -17 0 -85 0 -85 58 -17 c50 -15 140 -73 129 -84 -2 -2 -24 3
-48 12 -24 8 -83 18 -131 21 l-88 6 0 -52 0 -51 -250 0 -250 0 0 -55 0 -55
250 0 250 0 0 -30 0 -30 -250 0 -250 0 0 -55 0 -55 250 0 250 0 0 -51 0 -52
79 6 c44 4 105 15 135 25 31 10 56 15 56 11 0 -17 -85 -70 -137 -85 l-54 -16
3 -85 3 -86 52 -16 c49 -15 150 -77 141 -86 -2 -2 -32 4 -65 15 -34 10 -96 22
-137 26 l-76 7 0 -52 0 -51 -250 0 -250 0 0 -55 0 -55 251 0 250 0 -3 -33 -3
-32 -247 -3 -248 -2 0 -50 0 -50 248 -2 247 -3 3 -53 c2 -41 7 -52 20 -52 46
1 164 21 203 34 24 8 45 13 48 11 14 -15 -125 -95 -167 -95 -22 0 -23 -2 -20
-101 l3 -100 52 -18 c52 -18 133 -67 133 -81 0 -4 -27 0 -59 11 -33 10 -94 21
-135 25 l-76 7 0 -52 0 -51 -250 0 -250 0 0 -55 0 -55 248 -2 247 -3 0 -30 0
-30 -248 -3 -248 -2 3 -53 3 -52 245 -2 245 -2 3 -50 c3 -42 6 -51 22 -51 41
0 173 22 210 35 22 8 40 12 40 9 0 -22 -128 -94 -167 -94 -22 0 -23 -3 -23
-89 l0 -89 33 -7 c46 -11 118 -49 146 -79 l24 -26 -59 21 c-32 12 -96 24 -141
26 l-82 6 -3 -49 c-2 -27 -7 -48 -13 -48 -5 1 -117 5 -247 9 l-238 7 0 -29 0
-30 198 -22 c323 -36 293 -30 285 -60 -3 -14 -6 -27 -7 -28 -1 0 -109 16 -241
37 -247 40 -254 40 -255 -1 0 -14 48 -28 241 -75 225 -54 240 -59 234 -79 -20
-72 -20 -71 32 -85 26 -7 89 -16 138 -19 l90 -7 -40 -19 c-26 -13 -64 -20
-109 -21 l-70 -1 -32 -72 -33 -71 44 -46 c30 -30 50 -62 60 -96 8 -28 14 -53
12 -55 -2 -1 -16 14 -32 35 -28 38 -102 101 -155 133 l-30 19 -23 -35 c-12
-19 -25 -35 -30 -35 -4 0 -95 61 -202 135 -107 74 -199 135 -203 135 -4 0 -13
-10 -21 -22 -11 -18 -11 -23 1 -32 8 -6 94 -76 191 -155 175 -143 176 -144
160 -168 -16 -24 -16 -24 -37 -5 -12 11 -95 85 -185 166 l-165 146 -20 -20
-20 -20 45 -47 c25 -27 100 -106 167 -176 67 -70 122 -132 122 -136 0 -5 -14
-21 -32 -36 l-31 -26 59 -60 c32 -33 81 -74 107 -91 26 -17 46 -32 44 -34 -11
-12 -114 22 -156 51 l-48 34 -67 -45 c-52 -35 -66 -49 -61 -62 16 -39 17 -137
2 -172 l-14 -35 -7 40 c-12 71 -29 129 -52 183 l-23 53 -42 -21 c-22 -12 -42
-20 -43 -18 -1 2 -44 103 -96 226 -66 159 -97 222 -109 222 -44 -1 -42 -12 34
-240 41 -124 75 -230 75 -236 0 -12 -40 -27 -48 -19 -4 4 -47 153 -113 396
-20 75 -21 77 -47 69 -15 -4 -26 -13 -25 -21 1 -8 20 -111 42 -229 23 -119 41
-223 41 -233 0 -11 -8 -17 -24 -17 -40 0 -56 -11 -56 -37 0 -41 30 -143 57
-196 l25 -50 -41 32 c-26 21 -51 54 -69 92 l-27 59 -95 0 -95 0 -17 -58 c-11
-36 -30 -72 -53 -97 -22 -24 -34 -32 -29 -20 14 40 32 131 38 192 l7 62 -53 3
-53 3 -3 247 -2 248 -50 0 -50 0 -2 -248 -3 -247 -32 -3 -33 -3 0 250 0 251
-55 0 -55 0 0 -250 0 -250 -50 0 -50 0 0 -40 c0 -47 27 -186 41 -212 6 -12 6
-18 0 -18 -23 0 -76 98 -97 178 -2 8 -29 12 -88 12 l-85 0 -15 -52 c-14 -50
-69 -138 -85 -138 -4 0 1 25 11 56 10 30 21 91 25 135 l6 79 -52 0 -51 0 0
250 0 250 -55 0 -55 0 0 -250 0 -250 -30 0 -30 0 -2 247 -3 248 -52 3 -53 3
-2 -248 -3 -248 -47 -3 -48 -3 0 -62 c0 -55 12 -122 35 -192 4 -13 -7 -5 -30
20 -23 25 -42 61 -53 97 l-17 58 -85 0 -85 0 -17 -58 c-11 -36 -30 -72 -53
-97 -23 -25 -34 -33 -30 -20 23 70 35 137 35 192 l0 62 -47 3 -48 3 -3 248 -2
248 -53 -3 -52 -3 -2 -245 -2 -245 -30 -3 -31 -3 0 250 0 251 -55 0 -55 0 0
-250 0 -250 -51 0 -52 0 6 -79 c4 -44 15 -105 25 -135 10 -31 15 -56 11 -56
-16 0 -71 88 -85 138 l-15 52 -85 0 c-59 0 -86 -4 -88 -12 -20 -77 -74 -178
-95 -178 -4 0 0 24 10 54 10 29 21 90 25 135 l7 81 -52 0 -51 0 0 250 0 250
-55 0 -55 0 0 -251 0 -250 -32 3 -33 3 -2 245 -2 245 -51 3 -50 3 -2 -248 -3
-248 -53 -3 -53 -3 6 -62 c6 -57 24 -142 40 -192 4 -12 -7 -5 -30 20 -23 25
-42 61 -53 98 l-17 58 -98 -3 -98 -3 -18 -52 c-19 -55 -65 -133 -80 -133 -5 0
-3 18 5 39 16 46 34 152 34 199 0 32 0 32 -50 32 l-50 0 0 250 0 250 -55 0
-55 0 0 -251 0 -250 -32 3 -33 3 -3 247 -2 248 -50 0 -50 0 -2 -247 -3 -248
-52 -3 c-44 -3 -53 -6 -53 -22 0 -41 22 -173 35 -210 16 -45 12 -50 -16 -17
-29 34 -57 89 -64 130 l-7 37 -88 0 -88 0 -7 -33 c-10 -46 -49 -118 -76 -142
l-22 -20 7 20 c18 50 36 145 36 198 l0 57 -50 0 -50 0 0 250 0 250 -55 0 -55
0 0 -250 0 -250 -30 0 -30 0 0 250 0 250 -55 0 -55 0 0 -250 0 -250 -51 0 -52
0 6 -82 c4 -46 13 -105 22 -132 8 -27 13 -51 11 -53 -12 -12 -79 102 -91 154
l-7 33 -84 0 c-59 0 -86 -4 -88 -13 -23 -79 -76 -176 -98 -177 -4 0 -1 17 6
38 15 41 36 164 36 206 0 24 -3 26 -50 26 l-50 0 0 250 0 250 -55 0 -55 0 -2
-247 -3 -248 -30 0 -30 0 -3 248 -2 248 -53 -3 -52 -3 -2 -245 -2 -245 -50 -3
c-47 -3 -51 -5 -51 -28 0 -42 21 -165 36 -206 7 -21 9 -38 5 -38 -22 0 -91
129 -91 170 0 19 -6 20 -88 20 l-88 0 -17 -54 c-16 -49 -73 -143 -82 -134 -3
2 3 26 11 53 8 28 18 87 21 133 l6 82 -52 0 -51 0 0 250 0 250 -55 0 -55 0 0
-250 0 -250 -30 0 -30 0 0 250 0 250 -55 0 -55 0 0 -250 0 -250 -50 0 -50 0 0
-57 c0 -53 18 -148 36 -198 l7 -20 -22 20 c-27 24 -66 96 -76 142 l-7 33 -98
0 -99 0 -15 -53 c-14 -49 -72 -144 -82 -135 -2 3 5 40 16 83 11 43 20 102 20
132 l0 53 -50 0 -50 0 0 250 0 250 -55 0 -55 0 0 -250 0 -250 -30 0 -30 0 0
250 0 250 -55 0 -55 0 0 -250 0 -250 -50 0 -50 0 0 -57 c0 -53 18 -149 36
-198 7 -18 6 -19 -10 -5 -29 23 -65 85 -78 135 l-12 45 -86 0 -85 0 -17 -58
c-11 -36 -30 -72 -53 -97 -22 -24 -34 -32 -30 -20 18 51 34 126 39 187 l6 67
-52 3 -53 3 -3 248 -2 247 -50 0 -50 0 -2 -248 -3 -247 -32 -3 -33 -3 0 250 0
251 -55 0 -55 0 0 -250 0 -250 -50 0 -50 0 0 -39 c0 -49 25 -184 40 -211 7
-12 7 -20 1 -20 -17 0 -69 84 -84 136 l-14 49 -86 3 -86 3 -11 -43 c-14 -52
-50 -116 -81 -143 -22 -20 -22 -20 -14 0 23 60 36 118 42 188 l6 77 -52 0 -51
0 0 250 0 250 -55 0 -55 0 0 -250 0 -250 -30 0 -30 0 0 250 0 250 -55 0 -55 0
-2 -248 -3 -247 -47 -3 -48 -3 0 -62 c0 -55 12 -122 35 -192 4 -13 -7 -5 -30
20 -23 25 -42 61 -53 97 l-17 58 -86 0 -87 0 -7 -37 c-8 -43 -28 -85 -63 -130
-35 -48 -43 -40 -20 19 11 29 23 92 27 140 l7 88 -50 0 -49 0 6 250 5 250 -28
0 c-34 0 -29 20 -60 -285 -12 -109 -22 -201 -24 -203 -2 -1 -15 0 -29 3 -22 6
-25 11 -21 33 3 15 20 125 37 244 l33 217 -24 6 c-14 3 -27 4 -29 1 -3 -3 -30
-110 -60 -238 -30 -128 -56 -235 -59 -237 -2 -2 -21 1 -44 7 -22 5 -42 6 -45
2 -13 -22 -35 -143 -35 -200 l-1 -65 -21 40 c-16 29 -22 59 -22 107 l-1 66
-86 40 c-82 37 -87 38 -98 21 -18 -30 -90 -78 -134 -90 -21 -6 -41 -9 -43 -6
-2 2 16 18 41 36 36 26 106 110 139 168 3 6 -8 20 -29 33 -19 12 -35 25 -35
29 0 4 63 97 140 206 134 191 139 199 120 212 -11 8 -24 13 -29 11 -5 -2 -77
-85 -161 -185 -136 -164 -154 -182 -171 -172 -11 6 -19 16 -17 24 2 7 66 83
143 167 201 220 182 195 159 218 -19 20 -21 19 -194 -144 -96 -91 -180 -165
-187 -165 -6 -1 -23 14 -38 32 l-25 32 -74 -76 c-40 -41 -79 -89 -87 -107 -15
-34 -34 -44 -26 -14 3 9 8 34 12 54 3 21 22 58 41 84 19 25 34 49 32 53 -2 3
-21 35 -42 69 -33 52 -43 62 -60 57 -51 -14 -124 -15 -166 -2 l-45 14 40 7
c85 15 132 28 183 51 l52 24 -16 41 c-9 22 -15 42 -13 44 2 2 101 43 219 92
118 48 219 91 223 95 12 9 -1 49 -16 49 -6 0 -112 -32 -235 -71 -183 -59 -226
-69 -233 -58 -22 34 -3 42 226 103 226 60 230 61 233 89 3 21 -1 27 -15 27
-10 0 -117 -18 -238 -40 -121 -22 -225 -40 -232 -40 -7 0 -13 11 -13 24 0 43
-10 56 -44 56 -44 0 -138 -26 -187 -51 -23 -11 -43 -18 -47 -15 -12 12 80 86
128 103 l51 18 -3 83 -3 83 -52 18 c-55 19 -133 65 -133 80 0 5 18 3 39 -5 46
-16 152 -34 199 -34 32 0 32 0 32 50 l0 50 250 0 250 0 0 55 0 55 -251 0 -250
0 3 33 3 32 247 3 248 2 0 50 0 50 -247 2 -248 3 -3 52 c-2 34 -8 53 -15 53
-41 0 -182 -23 -216 -35 -46 -16 -51 -12 -19 16 35 29 90 57 131 64 l37 7 0
88 0 88 -33 7 c-46 10 -118 49 -142 76 l-20 22 20 -7 c50 -18 145 -36 198 -36
l57 0 0 50 0 50 250 0 250 0 0 55 0 55 -250 0 -250 0 0 30 0 30 250 0 250 0 0
55 0 55 -250 0 -250 0 0 51 0 52 -82 -6 c-46 -4 -105 -13 -132 -22 -27 -8 -51
-13 -53 -11 -12 12 102 79 154 91 l33 7 0 98 0 98 -33 7 c-52 12 -166 79 -154
91 2 2 26 -3 53 -11 27 -9 86 -18 132 -22 l82 -6 0 52 0 51 250 0 250 0 0 55
0 55 -250 0 -250 0 0 30 0 30 250 0 250 0 0 55 0 55 -250 0 -250 0 0 50 0 50
-57 0 c-53 0 -148 -18 -198 -36 l-20 -7 20 22 c24 27 96 66 142 76 l33 7 0 89
c0 86 -1 89 -22 89 -40 0 -168 72 -168 94 0 3 18 -1 40 -9 37 -13 169 -35 210
-35 16 0 19 9 22 53 l3 52 248 3 247 2 0 50 0 50 -247 2 -248 3 -3 33 -3 32
250 0 251 0 0 55 0 55 -250 0 -250 0 0 51 0 52 -72 -7 c-68 -6 -146 -23 -193
-42 -18 -7 -19 -6 -6 10 20 24 94 66 144 81 l42 12 3 86 3 85 -54 16 c-49 14
-144 72 -135 82 3 2 40 -5 83 -16 43 -11 102 -20 132 -20 l53 0 0 50 0 50 250
0 250 0 0 55 0 55 -250 0 -250 0 0 30 0 30 250 0 250 0 0 55 0 55 -250 0 -250
0 0 50 0 50 -57 0 c-51 0 -137 -16 -198 -35 -13 -4 -5 7 20 30 25 23 61 42 97
53 l58 17 0 85 0 85 -58 17 c-49 15 -140 73 -130 84 2 2 24 -4 48 -13 25 -8
84 -18 132 -22 l87 -6 3 50 3 50 248 3 247 2 0 50 0 50 -247 2 -248 3 -3 33
-3 32 250 0 251 0 0 55 0 55 -250 0 -250 0 0 50 0 50 -39 0 c-50 0 -184 -25
-211 -40 -12 -7 -24 -9 -27 -6 -10 10 88 71 140 87 l52 16 3 99 3 99 -58 17
c-37 11 -73 30 -98 53 -25 23 -33 34 -20 30 70 -23 137 -35 192 -35 l62 0 3
48 3 47 248 3 248 2 -3 53 -3 52 -245 2 -245 2 -3 30 -3 31 250 0 251 0 0 55
0 55 -250 0 -250 0 0 51 0 52 -77 -6 c-70 -6 -128 -19 -188 -42 -20 -8 -20 -8
0 14 27 31 91 67 143 81 l42 11 0 85 c0 59 -4 86 -12 88 -77 20 -178 74 -178
95 0 5 25 0 56 -10 31 -10 92 -22 135 -25 l79 -7 0 52 0 51 250 0 250 0 0 55
0 55 -251 0 -250 0 3 33 3 32 245 2 245 2 3 51 3 50 -248 2 -248 3 -3 53 -3
52 -67 -6 c-37 -4 -97 -14 -135 -24 l-67 -17 22 25 c29 30 83 58 131 67 l37 7
0 87 0 88 -57 16 c-51 14 -141 72 -130 83 2 2 24 -3 48 -12 24 -8 83 -18 132
-21 l87 -6 0 52 0 51 250 0 250 0 0 55 0 55 -250 0 -250 0 0 30 0 30 250 0
250 0 0 55 0 55 -250 0 -250 0 0 51 0 52 -77 -6 c-43 -3 -107 -15 -141 -26
l-64 -19 19 20 c26 29 91 64 141 78 l43 11 -3 85 -3 85 -52 18 c-55 19 -133
65 -133 80 0 5 27 1 59 -10 33 -10 94 -21 135 -25 l76 -7 0 52 0 51 250 0 250
0 0 55 0 55 -251 0 -250 0 3 33 3 32 248 3 247 2 0 50 0 50 -247 2 -248 3 -3
53 c-2 33 -8 52 -15 52 -41 0 -182 -23 -216 -35 -23 -8 -41 -12 -41 -9 0 22
128 94 168 94 21 0 22 3 22 100 0 72 -4 102 -12 104 -56 16 -112 41 -142 64
-42 32 -46 45 -8 31 38 -15 167 -39 208 -39 l34 0 0 50 0 50 250 0 250 0 0 55
0 55 -247 2 -248 3 0 30 0 30 248 3 248 2 -3 53 -3 52 -245 2 -245 2 -3 50
c-3 47 -5 51 -28 51 -42 0 -165 -21 -206 -36 -21 -7 -38 -9 -38 -5 0 22 129
91 170 91 19 0 20 6 20 88 l0 88 -54 17 c-53 17 -143 74 -132 84 2 3 27 -2 53
-11 26 -9 85 -20 130 -23 l82 -6 3 48 3 48 90 -1 c50 -1 161 -5 248 -8 l157
-7 0 30 0 30 -142 17 c-79 9 -189 21 -245 27 l-103 12 7 26 c3 14 6 27 7 28 1
1 109 -16 241 -37 247 -40 254 -40 255 2 0 13 -45 27 -241 75 -224 54 -240 59
-234 78 21 73 23 70 -53 88 -38 9 -103 17 -143 17 l-74 1 40 22 c29 15 60 22
115 23 l74 2 33 71 32 71 -44 45 c-36 37 -75 113 -75 146 0 4 33 -26 73 -65
39 -40 89 -82 110 -94 l37 -21 23 34 c12 19 26 35 30 35 5 0 97 -61 204 -135
107 -74 198 -135 201 -135 4 0 13 10 21 22 12 19 11 23 -7 37 -11 9 -97 78
-191 155 -169 138 -170 139 -154 163 14 21 18 22 32 10 9 -8 92 -83 186 -166
l169 -151 20 20 20 20 -40 42 c-22 24 -97 103 -167 176 -70 74 -127 137 -127
142 0 5 14 20 31 34 l31 26 -36 41 c-31 37 -70 70 -156 132 l-25 17 45 -6 c49
-7 88 -24 136 -60 l30 -23 68 45 c52 35 66 49 61 62 -16 38 -17 137 -3 172
l15 35 7 -45 c16 -97 62 -220 83 -220 8 0 28 7 44 16 17 8 32 14 33 12 2 -2
45 -103 96 -225 93 -223 102 -237 137 -215 10 6 -7 67 -64 239 -43 128 -75
234 -73 236 3 3 15 7 27 11 25 8 18 27 99 -265 l57 -207 26 8 c14 4 25 13 24
21 -1 8 -20 111 -42 229 -23 119 -41 223 -41 233 0 11 8 17 24 17 40 0 56 11
56 37 0 40 -29 143 -56 195 -22 44 -23 48 -6 39 33 -17 79 -77 97 -125 l18
-46 97 0 98 0 7 37 c9 48 37 102 67 131 l25 22 -17 -67 c-10 -38 -20 -98 -24
-135 l-6 -67 52 -3 53 -3 3 -247 2 -248 50 0 50 0 2 248 3 247 33 3 32 3 0
-250 0 -251 55 0 55 0 0 250 0 250 51 0 52 0 -6 73 c-6 64 -20 130 -42 192
-10 31 51 -42 71 -84z"/>
<path d="M609 12195 c-65 -21 -141 -92 -178 -167 -34 -67 -38 -111 -17 -161
48 -114 192 -113 300 3 85 90 111 177 78 253 -33 74 -97 99 -183 72z"/>
<path d="M655 802 c-50 -23 -70 -60 -70 -127 2 -154 222 -313 344 -248 109 57
101 199 -18 306 -86 77 -183 103 -256 69z"/>
</g>
</svg>
