<?xml version="1.0" standalone="no"?>
<!DOCTYPE svg PUBLIC "-//W3C//DTD SVG 20010904//EN"
 "http://www.w3.org/TR/2001/REC-SVG-20010904/DTD/svg10.dtd">
<svg version="1.0" xmlns="http://www.w3.org/2000/svg"
 width="1280.000000pt" height="1174.000000pt" viewBox="0 0 1280.000000 1174.000000"
 preserveAspectRatio="xMidYMid meet">
<metadata>
Created by potrace 1.15, written by Peter Selinger 2001-2017
</metadata>
<g transform="translate(0.000000,1174.000000) scale(0.100000,-0.100000)"
fill="#000000" stroke="none">
<path d="M8855 11729 c-160 -13 -185 -18 -185 -38 0 -9 9 -82 20 -161 11 -79
19 -144 17 -146 -1 -1 -30 -5 -64 -9 l-61 -7 -6 29 c-3 15 -15 82 -26 148 -12
66 -23 125 -25 131 -14 42 -737 -185 -727 -228 2 -7 30 -73 63 -145 33 -73 58
-136 56 -141 -7 -10 -126 -67 -130 -61 -2 2 -37 66 -76 142 -55 105 -77 137
-88 132 -32 -12 -212 -121 -303 -183 -96 -66 -310 -233 -310 -242 0 -3 48 -59
105 -124 l106 -120 -63 -63 c-34 -35 -67 -63 -73 -63 -5 0 -61 51 -123 113
l-113 112 -65 -70 c-118 -127 -256 -295 -252 -306 2 -7 38 31 80 83 42 52 112
133 156 179 l81 84 115 -114 115 -115 78 75 c43 41 79 79 80 84 1 6 -43 61
-98 124 -55 63 -98 120 -96 125 11 33 325 259 491 355 l90 51 44 -83 c25 -45
60 -110 79 -144 l34 -63 82 41 c45 23 83 42 84 43 2 2 -27 69 -63 150 -36 81
-64 149 -62 150 12 11 311 120 398 145 143 41 279 70 285 61 2 -4 17 -75 32
-159 24 -134 29 -151 47 -151 34 0 146 22 146 29 0 3 -9 75 -20 160 -12 84
-19 155 -18 156 10 9 273 25 413 25 l167 0 -5 -42 c-4 -24 -7 -97 -9 -163 l-3
-120 80 -7 c44 -3 81 -5 83 -4 1 2 7 52 12 112 5 60 12 132 15 161 l6 52 47
-5 c241 -29 617 -96 634 -112 4 -4 -11 -77 -32 -162 -21 -85 -38 -155 -37
-156 11 -6 178 -46 181 -43 4 4 96 296 96 304 0 7 254 -83 360 -128 171 -72
290 -129 290 -140 0 -6 -32 -71 -71 -145 -39 -74 -67 -138 -62 -142 23 -22
187 -109 193 -103 4 5 42 65 84 136 43 70 82 127 87 127 6 0 45 -23 87 -52
167 -112 309 -224 414 -326 l57 -55 -110 -116 c-60 -63 -109 -118 -109 -121 0
-3 29 -34 64 -69 l64 -64 117 104 c64 57 120 104 125 104 14 0 168 -188 243
-298 72 -102 197 -309 197 -323 0 -5 -57 -40 -127 -77 -71 -37 -134 -71 -141
-75 -11 -7 -5 -26 27 -91 23 -44 45 -81 50 -81 5 0 72 29 149 64 l140 64 25
-56 c40 -89 93 -230 126 -338 39 -128 75 -273 69 -279 -3 -3 -72 -20 -154 -39
-142 -31 -149 -34 -148 -57 1 -41 27 -184 35 -193 4 -5 74 2 158 15 83 12 154
19 158 15 17 -16 33 -206 40 -445 l6 -254 -165 7 -165 7 -6 -93 c-3 -51 -4
-94 -2 -96 1 -1 74 -10 161 -18 87 -9 160 -17 160 -17 4 -4 -36 -290 -50 -367
-19 -96 -67 -314 -70 -318 -2 -1 -72 16 -157 38 -110 28 -155 36 -160 28 -15
-23 -40 -141 -32 -149 4 -4 73 -26 153 -50 80 -23 146 -42 147 -43 8 -6 -166
-509 -181 -523 -2 -2 -66 21 -142 51 -77 30 -145 56 -152 58 -10 2 -72 -119
-72 -143 0 -3 65 -34 145 -69 80 -34 145 -68 145 -75 0 -23 -291 -595 -302
-595 -6 0 -72 34 -146 76 -125 70 -136 74 -146 58 -6 -10 -28 -49 -49 -85
l-37 -66 122 -71 c68 -39 131 -77 140 -84 16 -12 10 -25 -68 -153 -163 -265
-273 -427 -287 -419 -6 4 -67 45 -135 92 -68 46 -127 81 -131 76 -16 -19 -121
-172 -121 -177 0 -3 57 -47 128 -98 70 -51 128 -93 130 -94 2 -2 -216 -297
-260 -352 -7 -9 -7 -13 1 -13 13 0 283 359 279 371 -2 4 -60 49 -131 99 l-127
91 52 75 c28 41 56 74 61 74 8 0 99 -61 219 -147 l47 -34 114 173 c157 239
270 426 263 437 -4 5 -63 42 -131 82 -69 39 -128 76 -131 80 -6 11 57 129 69
129 5 0 70 -34 144 -77 129 -72 137 -75 150 -57 18 25 263 515 290 580 l21 51
-147 63 c-80 35 -147 64 -149 65 -7 5 44 115 53 115 6 0 74 -27 153 -59 78
-32 144 -56 146 -52 3 4 29 72 59 151 77 204 140 401 130 410 -4 4 -51 20
-103 35 -221 62 -202 54 -195 83 3 15 10 43 15 63 l10 35 147 -38 c82 -21 153
-38 160 -38 22 0 102 389 125 605 6 63 9 117 7 120 -3 2 -74 11 -157 18 -84 8
-155 16 -158 19 -3 4 -2 39 2 78 l7 72 86 -6 c47 -3 120 -7 161 -8 l75 -1 -1
229 c-1 215 -24 498 -42 516 -4 3 -72 -5 -152 -18 -80 -13 -150 -24 -156 -24
-9 0 -44 139 -44 176 0 6 70 26 155 44 120 26 155 37 155 49 0 28 -68 273
-105 381 -46 131 -125 320 -134 320 -4 0 -71 -30 -150 -66 -78 -36 -143 -64
-144 -62 -1 2 -16 32 -33 68 l-32 66 142 73 c77 41 142 75 144 77 5 3 -82 155
-146 254 -71 111 -206 290 -274 363 l-53 57 -120 -110 -120 -110 -52 57 -52
58 115 115 114 116 -77 70 c-123 111 -278 233 -406 318 -65 43 -119 77 -121
75 -2 -2 -36 -58 -76 -124 -40 -66 -79 -126 -86 -134 -10 -11 -25 -6 -91 29
-43 24 -79 44 -80 45 -2 1 29 60 67 132 38 72 72 138 76 147 5 13 -18 28 -117
75 -206 97 -555 227 -571 212 -4 -3 -26 -69 -49 -146 -23 -77 -45 -144 -49
-148 -4 -4 -37 0 -73 9 -49 12 -67 21 -67 33 0 9 16 77 35 151 19 74 35 140
35 145 0 31 -729 151 -730 121 -3 -64 -29 -308 -33 -312 -3 -3 -32 -2 -65 2
-59 6 -61 7 -57 33 2 14 6 88 9 164 l6 137 -168 -1 c-92 -1 -212 -5 -267 -10z"/>
<path d="M3500 11565 l0 -165 -59 0 c-44 0 -60 4 -65 16 -3 9 -6 64 -6 122 0
59 -3 124 -7 146 l-6 39 -115 -7 c-193 -12 -592 -73 -614 -94 -4 -4 8 -74 27
-155 19 -81 35 -151 35 -155 0 -8 -139 -47 -144 -40 -1 1 -22 72 -46 156 l-43
153 -31 -7 c-132 -28 -666 -255 -666 -284 0 -5 32 -67 71 -137 39 -70 71 -132
72 -137 2 -8 -137 -96 -153 -96 -5 0 -46 59 -91 130 -46 72 -87 130 -91 130
-33 0 -325 -225 -477 -368 l-114 -106 117 -112 c131 -126 129 -118 58 -188
l-41 -39 -92 79 c-50 44 -103 89 -118 101 -14 12 -30 22 -36 22 -13 1 -160
-190 -242 -312 -72 -108 -203 -337 -203 -354 0 -7 63 -44 140 -83 77 -39 140
-72 140 -74 0 -2 -14 -33 -31 -69 l-30 -66 -67 31 c-138 62 -220 98 -226 98
-28 0 -258 -681 -238 -702 4 -3 74 -22 156 -42 81 -19 150 -36 151 -38 4 -4
-31 -178 -36 -182 -2 -2 -74 10 -158 25 -102 19 -157 25 -161 18 -20 -31 -59
-438 -60 -613 l0 -129 165 5 165 6 0 -78 0 -78 -149 -7 c-81 -4 -154 -11 -161
-15 -11 -7 -10 -36 4 -159 26 -235 90 -571 108 -571 5 0 72 16 148 35 76 19
145 35 152 35 16 0 44 -109 31 -120 -4 -4 -72 -24 -151 -45 -79 -21 -145 -42
-147 -46 -9 -13 150 -484 185 -549 9 -16 21 -13 152 41 79 32 146 59 151 59 7
0 60 -111 55 -115 -2 -1 -68 -30 -148 -64 -80 -35 -147 -64 -148 -66 -8 -8
296 -613 324 -644 1 -2 66 33 143 77 100 57 143 77 149 69 18 -24 62 -106 62
-115 0 -5 -59 -45 -130 -87 -72 -43 -132 -81 -135 -85 -7 -11 299 -489 367
-573 l23 -27 120 86 c66 47 126 88 133 91 7 3 19 -3 27 -13 7 -11 32 -44 54
-76 l41 -56 -131 -97 c-93 -68 -128 -99 -121 -108 5 -7 56 -75 115 -152 124
-165 166 -214 167 -198 0 6 -11 24 -24 40 -58 70 -236 305 -236 313 0 5 56 50
125 100 69 51 124 97 122 103 -9 27 -123 176 -133 173 -5 -2 -65 -43 -132 -91
-67 -47 -126 -83 -132 -80 -21 13 -360 532 -360 551 0 5 60 45 132 88 73 44
134 80 136 82 5 3 -89 164 -95 164 -3 0 -65 -34 -138 -75 -72 -41 -136 -75
-141 -75 -17 0 -304 564 -304 598 0 5 65 38 145 72 163 71 154 57 106 161
l-26 58 -135 -55 c-74 -30 -142 -56 -151 -59 -14 -5 -24 11 -49 77 -38 97
-152 440 -148 443 2 2 72 22 156 46 114 32 152 47 152 58 -1 9 -9 45 -19 81
-15 53 -22 64 -37 62 -10 -2 -80 -18 -154 -36 -74 -18 -138 -30 -142 -27 -25
21 -127 676 -107 682 2 1 74 7 159 13 l155 11 0 95 0 95 -162 -4 -163 -4 0
134 c0 180 36 548 55 568 3 3 72 -6 153 -19 81 -14 151 -25 156 -25 8 0 60
216 53 220 -1 1 -54 14 -119 29 -177 41 -188 45 -188 64 0 50 134 460 195 598
l23 53 147 -65 c80 -36 148 -64 151 -61 3 2 22 41 44 86 l39 81 -142 71 c-78
39 -144 73 -146 75 -5 5 86 170 159 285 59 94 174 251 242 332 l23 27 124
-106 c99 -84 127 -102 136 -92 6 7 35 39 64 70 l52 56 -115 113 c-64 61 -116
115 -116 118 0 11 239 225 325 292 92 71 225 162 229 157 2 -1 40 -61 86 -133
46 -71 84 -132 86 -133 3 -5 194 109 194 116 0 5 -68 134 -122 229 l-29 52
108 54 c59 30 149 71 198 92 128 53 349 126 356 117 3 -4 23 -69 44 -144 21
-76 42 -143 46 -149 5 -8 30 -5 93 11 66 18 86 27 86 41 0 9 -15 80 -34 158
l-33 141 37 10 c73 20 326 59 450 69 69 6 144 13 166 15 l42 3 6 -45 c3 -25 6
-84 6 -132 0 -48 3 -102 6 -119 l7 -31 78 0 79 0 0 167 0 166 178 -6 c154 -5
380 -24 390 -33 2 -1 -6 -73 -18 -159 -12 -86 -20 -158 -18 -161 3 -2 39 -11
81 -18 69 -12 77 -11 81 3 3 9 17 80 31 159 24 122 30 142 46 142 72 0 582
-157 648 -199 12 -8 4 -35 -48 -156 -34 -81 -61 -148 -59 -150 2 -2 39 -20 83
-40 l79 -36 17 22 c8 12 42 75 75 140 32 66 63 119 69 119 37 0 433 -259 539
-353 l50 -43 -102 -120 c-56 -65 -102 -122 -102 -125 0 -3 36 -39 81 -79 l81
-73 115 114 114 114 90 -94 c50 -52 120 -132 156 -177 36 -46 70 -81 74 -78
11 6 -99 140 -221 269 -52 55 -98 101 -101 103 -3 1 -56 -50 -118 -114 l-112
-116 -62 58 c-34 32 -65 60 -70 64 -4 3 41 62 99 130 l106 124 -33 29 c-64 54
-184 144 -274 204 -94 63 -325 197 -330 191 -1 -2 -35 -67 -74 -145 l-71 -143
-55 24 c-30 14 -61 28 -68 33 -12 6 -3 35 49 153 35 79 64 147 64 150 0 9
-262 107 -375 140 -116 34 -309 80 -336 80 -12 0 -21 -33 -43 -152 -16 -84
-30 -156 -32 -159 -3 -5 -113 10 -122 17 -2 1 7 72 19 158 13 85 21 157 19
160 -14 14 -383 46 -532 46 l-78 0 0 -165z"/>
<path d="M8910 11699 c-74 -4 -149 -10 -166 -14 l-30 -5 17 -138 c27 -207 36
-185 -77 -201 -67 -9 -99 -9 -103 -2 -4 6 -19 76 -35 156 -23 117 -32 145 -45
145 -25 0 -244 -55 -334 -84 -86 -27 -254 -92 -276 -105 -11 -7 -2 -36 48
-150 33 -78 61 -145 61 -149 0 -8 -199 -107 -204 -101 -1 2 -35 65 -76 139
-40 74 -74 137 -76 139 -2 2 -63 -31 -135 -75 -167 -100 -409 -281 -409 -304
0 -4 46 -60 102 -125 l102 -118 -99 -93 -100 -92 -115 114 -115 115 -58 -63
c-33 -35 -100 -112 -150 -173 -74 -89 -95 -110 -115 -108 -23 2 -24 1 -7 -17
10 -11 19 -20 20 -20 2 0 37 43 79 95 112 140 216 255 229 255 7 0 61 -49 122
-109 l110 -110 110 103 109 103 -104 123 -104 123 40 35 c100 87 467 333 479
321 1 -2 35 -62 74 -134 40 -71 76 -134 80 -138 10 -10 230 94 230 109 1 6
-26 73 -59 149 -33 76 -56 143 -52 147 19 19 296 113 437 148 108 28 152 35
156 27 4 -7 19 -79 35 -160 l28 -149 31 6 c16 2 69 10 118 17 69 9 87 15 86
28 0 9 -8 82 -18 163 l-17 146 30 6 c17 3 127 9 244 12 l212 7 0 -166 0 -167
43 0 c24 0 78 -3 119 -6 l75 -7 13 158 c9 114 17 158 27 162 25 10 424 -53
556 -88 20 -5 37 -14 37 -19 0 -5 -16 -74 -36 -155 -20 -81 -34 -148 -32 -150
6 -5 228 -65 241 -65 7 0 31 60 57 146 24 80 49 148 55 151 30 11 565 -205
565 -228 0 -5 -31 -72 -70 -148 l-69 -139 125 -71 c69 -39 128 -71 132 -71 4
0 45 60 92 134 l84 134 106 -71 c111 -76 262 -194 344 -268 l49 -45 -113 -118
-112 -117 78 -82 c43 -45 84 -88 90 -96 11 -12 33 3 135 94 l122 109 34 -40
c120 -138 355 -485 353 -519 0 -5 -60 -43 -132 -83 -72 -40 -134 -75 -137 -77
-4 -4 82 -193 106 -234 1 -2 69 26 150 62 l148 65 24 -51 c51 -113 171 -483
171 -529 0 -11 -40 -24 -145 -48 -80 -19 -150 -37 -155 -40 -7 -4 0 -57 17
-148 25 -127 30 -142 48 -142 11 0 83 9 159 20 77 11 141 18 143 17 9 -10 33
-343 33 -470 l0 -150 -160 6 c-88 3 -162 2 -164 -1 -2 -4 -7 -64 -10 -133 l-7
-125 138 -13 c198 -18 186 -13 178 -75 -30 -234 -90 -546 -106 -546 -4 0 -74
16 -155 35 -81 20 -151 32 -155 28 -14 -15 -61 -215 -53 -222 5 -4 75 -27 156
-51 85 -25 145 -48 143 -54 -44 -146 -141 -416 -154 -429 -5 -5 -71 17 -147
47 -76 31 -143 56 -150 56 -12 0 -97 -196 -92 -212 2 -5 64 -37 138 -70 74
-33 138 -63 142 -66 13 -13 -246 -532 -266 -532 -6 1 -72 34 -145 75 -74 41
-136 73 -137 72 -14 -20 -124 -219 -124 -225 0 -4 60 -43 133 -86 72 -44 134
-80 136 -82 7 -6 -222 -373 -301 -483 l-17 -23 -123 84 c-68 47 -128 88 -135
91 -12 7 -186 -230 -178 -243 2 -4 60 -47 127 -95 68 -49 125 -90 127 -92 2
-1 -56 -82 -128 -178 -111 -146 -131 -178 -121 -190 7 -8 17 -15 22 -15 6 0 5
6 -2 14 -14 18 -21 7 128 204 67 89 122 163 122 166 0 4 -193 146 -253 187
-11 8 141 225 155 221 6 -2 66 -41 133 -87 68 -47 125 -85 128 -85 12 0 337
509 337 527 0 5 -54 39 -120 76 -65 38 -126 75 -136 82 -16 11 -13 20 39 113
l57 100 142 -78 c79 -43 144 -78 145 -77 1 1 36 67 79 147 99 187 205 413 196
422 -4 3 -70 34 -147 68 -77 34 -141 63 -142 63 -4 5 77 182 85 185 6 2 72
-22 148 -53 76 -30 141 -55 145 -55 20 0 179 465 164 478 -6 5 -76 28 -156 52
l-146 43 25 96 c14 53 27 98 28 100 2 2 73 -14 158 -35 85 -21 157 -36 160
-34 18 20 126 624 113 636 -1 1 -54 7 -117 13 -63 6 -136 14 -161 17 l-46 6 4
72 c2 39 6 91 9 115 l6 44 158 -7 159 -7 7 38 c12 61 -23 603 -40 620 -1 1
-73 -8 -160 -21 -109 -16 -159 -20 -161 -12 -9 28 -47 247 -43 251 2 2 70 20
152 39 81 19 150 37 153 40 18 18 -176 603 -205 620 -4 2 -70 -25 -147 -60
-77 -35 -142 -63 -145 -63 -13 -2 -104 199 -95 208 6 5 66 39 135 76 69 37
128 70 132 74 9 8 -121 225 -199 333 -82 113 -204 260 -214 256 -4 -2 -60 -50
-124 -106 l-116 -104 -79 84 -78 83 36 40 c20 22 70 75 111 117 66 68 73 79
61 94 -50 59 -503 405 -514 393 -2 -2 -41 -64 -86 -136 -45 -73 -85 -133 -90
-133 -4 0 -54 27 -111 60 -57 33 -107 61 -111 62 -4 2 26 69 67 149 l75 146
-93 43 c-193 90 -475 200 -513 200 -8 0 -14 -5 -14 -11 0 -6 -20 -75 -45 -154
l-45 -142 -108 30 c-59 16 -109 31 -111 33 -2 2 13 71 34 154 22 87 34 155 29
160 -20 18 -617 120 -630 107 -3 -2 -34 -295 -34 -316 0 -7 -124 -4 -177 5
l-31 5 5 155 c5 128 4 158 -8 165 -16 10 -127 9 -319 -2z"/>
<path d="M3240 11683 c-266 -25 -548 -68 -565 -85 -3 -2 11 -74 29 -159 19
-84 34 -154 33 -155 -5 -4 -200 -54 -211 -54 -7 0 -30 62 -56 150 -25 87 -48
150 -55 150 -54 0 -522 -187 -592 -237 -10 -7 6 -45 63 -153 44 -83 72 -146
65 -148 -6 -2 -58 -32 -116 -67 l-104 -62 -88 133 c-48 74 -91 134 -94 134
-26 0 -300 -215 -424 -334 l-90 -85 112 -111 c62 -62 113 -114 113 -117 0 -2
-33 -42 -74 -87 l-73 -83 -124 103 c-68 56 -127 100 -131 98 -16 -10 -138
-172 -205 -274 -75 -112 -183 -298 -183 -315 0 -5 56 -39 124 -73 178 -91 166
-71 109 -188 -26 -54 -48 -100 -49 -101 0 -1 -67 27 -148 62 -82 36 -150 65
-152 65 -6 0 -105 -264 -137 -370 -57 -186 -71 -240 -61 -249 5 -5 71 -24 147
-42 76 -18 142 -36 147 -39 8 -5 -35 -247 -45 -258 -2 -2 -71 8 -154 22 -83
14 -155 26 -160 26 -19 0 -74 -601 -58 -643 4 -12 31 -14 165 -9 l159 5 7
-113 c4 -62 5 -114 2 -117 -3 -3 -74 -11 -158 -19 -84 -7 -155 -13 -157 -13
-20 -4 73 -608 98 -634 5 -5 77 8 161 28 84 20 153 35 154 33 2 -2 14 -47 28
-100 l26 -97 -31 -10 c-18 -5 -84 -24 -147 -42 -63 -18 -119 -36 -124 -41 -11
-9 10 -80 91 -311 31 -88 61 -161 68 -163 7 -3 74 20 149 50 75 31 140 56 145
56 12 0 85 -179 77 -188 -4 -4 -69 -34 -144 -68 -113 -50 -136 -64 -134 -80 4
-22 172 -364 235 -476 l42 -77 140 79 c77 43 143 75 147 71 5 -4 32 -48 62
-99 l54 -91 -134 -82 c-74 -45 -136 -85 -139 -88 -8 -14 319 -511 341 -518 5
-2 68 37 138 87 71 50 129 90 130 88 1 -2 38 -52 81 -112 60 -84 75 -110 64
-116 -42 -25 -244 -183 -242 -191 3 -9 145 -195 220 -288 31 -38 41 -57 33
-65 -17 -17 -11 -27 10 -16 11 6 20 14 20 18 0 4 -30 45 -68 92 -37 47 -98
124 -135 172 l-68 87 118 87 c65 48 124 93 131 99 11 10 -3 35 -73 131 -48 65
-88 120 -90 122 -2 2 -57 -35 -124 -83 -66 -47 -127 -88 -135 -91 -10 -4 -44
39 -114 143 -179 268 -225 345 -210 355 7 4 70 42 141 84 l127 76 -19 32 c-11
17 -40 67 -66 111 -26 44 -48 81 -50 83 -1 2 -63 -31 -138 -73 -74 -41 -139
-75 -145 -75 -15 0 -275 521 -265 530 4 5 67 34 138 66 72 32 134 61 139 65
11 10 -74 219 -89 219 -6 0 -72 -25 -148 -55 -75 -30 -141 -55 -146 -55 -5 0
-11 8 -14 18 -3 9 -30 87 -60 172 -30 85 -62 178 -70 206 l-15 51 146 43 c81
23 151 46 155 50 7 6 -37 216 -48 228 -1 1 -71 -14 -155 -33 -85 -20 -157 -32
-161 -28 -16 17 -66 313 -93 549 l-6 51 157 12 c87 7 160 15 163 19 3 4 3 61
0 127 l-5 120 -163 3 -162 2 0 108 c0 174 33 496 51 508 4 2 76 -7 160 -21 83
-14 153 -24 155 -23 3 3 55 253 58 277 1 10 -41 25 -147 52 -82 20 -151 40
-154 43 -12 12 77 311 139 466 17 41 34 85 39 97 l8 23 83 -36 c46 -20 113
-48 150 -64 l67 -29 55 116 c31 63 56 117 56 119 0 2 -63 36 -140 76 -77 40
-140 77 -140 83 0 30 198 342 307 482 l64 83 126 -105 c70 -57 127 -103 128
-102 1 1 40 45 87 98 l86 96 -114 114 -114 113 43 44 c113 117 431 363 447
346 4 -5 45 -66 91 -135 l84 -126 115 68 c63 38 121 72 128 76 10 6 -5 43 -61
151 l-75 143 88 44 c113 57 225 103 372 154 l118 40 34 -112 c19 -62 40 -131
47 -154 7 -24 15 -43 19 -43 8 0 244 61 247 64 1 0 -14 71 -32 156 -19 85 -32
156 -29 159 11 11 263 52 422 68 199 19 192 22 192 -68 0 -31 3 -97 6 -147 l7
-92 118 0 119 0 0 166 0 167 153 -7 c125 -6 328 -23 333 -29 1 -1 -7 -63 -17
-137 -28 -206 -38 -183 92 -204 61 -10 115 -14 119 -9 4 4 20 74 36 156 25
132 30 147 49 147 32 0 269 -65 395 -108 171 -59 180 -63 180 -74 0 -5 -26
-74 -59 -152 l-58 -143 118 -56 119 -55 75 143 75 144 73 -41 c138 -77 445
-289 447 -309 0 -3 -46 -61 -102 -129 l-101 -123 59 -54 c32 -29 83 -74 112
-100 l53 -46 115 114 115 114 50 -55 c55 -60 189 -217 229 -268 23 -29 27 -30
44 -17 11 8 17 18 13 21 -4 4 -12 2 -20 -4 -10 -8 -27 7 -74 67 -93 118 -232
271 -246 271 -6 0 -62 -50 -123 -111 l-111 -111 -84 78 c-46 42 -90 83 -98 90
-11 10 4 33 88 133 57 67 101 125 99 130 -12 34 -291 226 -490 339 l-56 32
-77 -145 -76 -145 -49 25 c-27 14 -73 36 -104 49 l-55 24 64 149 63 148 -52
24 c-120 55 -565 185 -581 169 -3 -3 -19 -76 -37 -162 -21 -105 -35 -155 -43
-152 -6 2 -47 9 -91 16 -43 6 -84 13 -90 15 -7 2 -3 54 12 161 12 88 20 161
18 163 -9 9 -270 30 -389 30 l-130 1 3 -158 3 -159 -102 -7 c-56 -3 -104 -4
-107 -2 -3 4 -19 221 -21 309 -1 17 -5 18 -81 10z"/>
<path d="M8886 11603 l-39 -4 7 -77 c3 -42 9 -116 12 -163 l7 -86 -104 -12
c-57 -7 -149 -21 -204 -32 -55 -10 -101 -15 -105 -10 -3 5 -20 75 -39 155 -28
118 -38 146 -52 146 -33 0 -352 -100 -367 -115 -2 -2 21 -70 53 -150 31 -81
53 -150 49 -155 -5 -4 -43 -22 -84 -40 -41 -17 -126 -58 -188 -90 l-112 -59
-23 37 c-13 20 -50 81 -82 135 -44 74 -63 97 -76 94 -20 -5 -240 -154 -287
-194 l-33 -28 101 -125 101 -125 -58 -50 c-32 -27 -111 -101 -175 -164 l-117
-114 -76 69 c-42 38 -96 87 -121 108 l-45 39 -47 -53 c-26 -29 -82 -98 -126
-154 l-78 -100 24 -21 c14 -11 73 -55 131 -97 l107 -78 -73 -108 c-40 -60
-102 -160 -137 -223 -99 -179 -112 -201 -115 -197 -1 2 -18 91 -36 198 -23
134 -35 187 -40 170 -6 -19 -7 -14 -8 20 0 25 -4 72 -9 105 l-9 60 48 75 47
74 -33 23 c-36 25 -45 28 -45 15 0 -4 13 -16 30 -25 l30 -18 -38 -57 c-20 -31
-40 -60 -45 -63 -8 -6 41 -794 52 -822 5 -13 33 31 106 170 125 234 223 399
314 528 39 55 67 102 63 106 -4 3 -62 48 -129 99 l-123 93 38 46 c64 81 90
111 98 111 4 0 52 -39 108 -87 56 -49 109 -94 119 -102 16 -12 30 -1 145 116
70 72 170 165 222 208 52 42 98 80 102 84 4 4 -35 65 -87 135 -52 71 -93 132
-90 136 7 12 153 110 163 110 5 0 46 -58 92 -130 45 -71 86 -130 91 -130 5 0
57 27 115 61 135 78 265 137 400 184 10 3 -45 183 -91 297 -6 14 9 22 91 47
54 17 101 28 105 23 4 -4 24 -70 44 -147 21 -77 41 -144 45 -148 4 -5 59 3
121 17 125 28 324 56 395 56 l45 0 -7 165 -7 165 41 0 42 0 0 -122 c0 -68 3
-139 6 -159 l6 -36 172 -7 c94 -4 221 -13 281 -20 61 -7 113 -10 117 -7 3 3
16 73 27 155 11 82 23 151 26 154 6 6 179 -18 193 -27 7 -4 0 -61 -19 -160
-17 -84 -28 -155 -26 -158 3 -2 62 -17 131 -33 134 -31 341 -91 401 -116 20
-8 39 -12 44 -10 4 3 31 70 60 150 30 81 57 146 62 146 10 0 189 -71 189 -75
0 -1 -29 -69 -65 -151 -41 -93 -61 -150 -54 -153 75 -25 376 -192 482 -267 26
-19 50 -34 55 -34 4 0 49 58 100 130 l94 130 61 -47 c34 -25 72 -55 84 -66
l22 -19 -105 -125 -104 -125 47 -41 c99 -86 185 -173 274 -278 l91 -107 127
98 c69 54 129 96 133 93 18 -10 149 -203 144 -211 -3 -5 -64 -46 -136 -91 -71
-46 -130 -85 -130 -87 0 -2 18 -33 40 -69 52 -84 149 -280 185 -370 15 -38 31
-74 35 -79 5 -5 70 14 155 44 122 45 148 51 156 39 11 -17 59 -160 59 -175 0
-6 -66 -30 -147 -54 -82 -23 -151 -44 -154 -46 -4 -2 8 -63 27 -136 29 -116
59 -280 79 -440 7 -55 -2 -52 130 -38 50 5 115 10 145 11 l55 3 5 -101 5 -101
-35 -6 c-19 -3 -92 -6 -161 -6 l-126 0 -7 -182 c-6 -165 -14 -267 -32 -383
l-6 -40 158 -23 c87 -13 160 -25 162 -27 4 -4 -27 -197 -32 -202 -1 -2 -69 10
-151 27 -172 35 -175 35 -175 14 0 -28 -78 -330 -114 -441 -20 -59 -34 -108
-33 -109 1 -1 65 -22 142 -48 77 -25 146 -50 153 -55 11 -7 11 -14 -1 -44
l-15 -35 -152 55 c-83 31 -152 54 -154 52 -2 -2 -34 -80 -71 -174 -37 -93 -87
-212 -111 -264 -24 -52 -44 -98 -44 -103 0 -4 65 -39 145 -78 l146 -69 -46
-90 c-25 -50 -47 -91 -50 -91 -3 0 -68 32 -145 70 -77 39 -142 70 -144 70 -2
0 -29 -46 -59 -102 -44 -85 -130 -233 -236 -410 -8 -15 -13 -28 -11 -31 3 -2
63 -39 133 -82 70 -43 130 -82 132 -85 5 -8 -97 -170 -108 -170 -4 0 -66 39
-139 86 -104 68 -133 83 -139 71 -13 -22 -236 -339 -311 -442 l-66 -89 127
-95 c69 -52 128 -95 130 -97 4 -4 -94 -137 -114 -154 -11 -9 -36 6 -131 80
-64 50 -122 94 -128 96 -7 3 -41 -33 -76 -78 -36 -46 -122 -152 -193 -236
l-128 -153 33 -27 c17 -15 104 -89 193 -164 88 -76 163 -138 167 -138 4 0 63
67 130 148 68 82 132 153 143 158 28 13 30 36 4 52 -18 12 -23 11 -34 -5 -43
-60 -233 -278 -242 -278 -7 0 -78 56 -159 125 -81 69 -152 128 -157 132 -6 3
0 18 14 35 231 284 293 359 300 361 4 2 62 -40 129 -92 67 -53 125 -96 128
-96 6 0 130 159 180 229 12 17 0 28 -118 115 l-131 96 46 63 c25 34 91 129
148 211 56 82 109 158 118 169 15 19 18 18 138 -62 67 -45 128 -84 136 -87 10
-4 39 32 95 118 44 67 80 128 80 134 0 6 -61 48 -135 94 l-136 82 17 27 c10
14 66 112 126 216 59 105 111 195 115 201 5 8 53 -13 148 -63 130 -69 140 -73
153 -56 19 27 136 263 131 266 -2 2 -65 31 -139 66 -74 35 -138 66 -143 70 -4
4 5 34 19 67 15 32 58 133 95 224 43 104 73 164 81 163 7 -2 73 -25 147 -53
74 -27 138 -50 142 -50 6 0 69 160 69 175 0 2 -64 25 -143 50 -78 25 -148 49
-154 53 -9 6 -6 29 13 87 14 44 43 147 63 230 21 82 43 151 49 153 6 2 77 -11
157 -28 81 -18 149 -30 151 -27 7 7 53 256 54 288 0 25 -1 25 -156 46 -86 12
-157 23 -159 25 -2 2 1 37 6 78 6 41 13 154 17 250 l7 175 164 3 164 3 -7 152
c-4 83 -12 156 -17 161 -6 6 -65 4 -161 -5 -84 -9 -154 -15 -156 -14 -1 1 -11
60 -21 131 -16 108 -54 294 -77 380 -5 19 6 24 150 64 86 24 156 47 156 52 0
16 -91 283 -99 291 -5 5 -73 -17 -153 -47 -79 -31 -147 -56 -150 -56 -3 0 -18
30 -33 68 -34 80 -134 281 -169 338 l-25 41 137 83 c75 46 138 84 140 85 6 5
-162 251 -214 314 -1 1 -60 -43 -130 -99 l-128 -102 -45 54 c-24 29 -102 111
-173 182 l-128 129 47 55 c159 184 161 187 151 200 -18 21 -233 182 -244 182
-5 0 -49 -59 -98 -130 l-90 -130 -30 21 c-79 51 -270 161 -348 200 -49 24 -88
47 -88 51 0 4 29 71 65 149 36 78 64 143 63 144 -2 1 -30 13 -63 27 -123 54
-218 89 -230 84 -6 -2 -33 -66 -60 -143 -26 -76 -51 -141 -54 -145 -3 -4 -53
8 -111 26 -58 18 -167 48 -242 66 -76 18 -138 36 -138 40 0 4 14 74 30 155 17
82 27 152 23 156 -11 10 -297 57 -305 50 -3 -3 -15 -75 -26 -159 -11 -85 -22
-155 -24 -157 -2 -2 -57 3 -123 11 -66 7 -172 13 -236 14 l-116 0 -7 61 c-3
34 -6 109 -6 165 l0 104 -57 0 c-32 0 -75 -3 -96 -7 l-39 -6 8 -126 c5 -69 8
-142 9 -161 l0 -34 -120 -13 c-66 -8 -171 -24 -233 -37 l-114 -22 -7 20 c-5
12 -23 82 -41 156 -18 74 -34 136 -35 137 -2 4 -259 -74 -287 -88 l-25 -11 53
-141 c30 -78 54 -147 54 -153 0 -6 -46 -30 -102 -53 -57 -24 -156 -72 -222
-108 -65 -36 -122 -61 -126 -56 -4 4 -42 65 -84 136 -43 70 -80 127 -83 127
-10 0 -195 -126 -231 -157 l-34 -28 96 -124 c53 -68 96 -127 96 -131 0 -4 -28
-29 -62 -56 -35 -27 -123 -108 -197 -180 l-133 -132 -97 86 c-53 47 -106 95
-118 105 -20 17 -25 18 -40 6 -22 -19 -183 -221 -183 -231 0 -4 55 -49 123
-99 67 -50 123 -93 125 -94 2 -2 -36 -63 -85 -137 -48 -73 -124 -199 -167
-278 -44 -80 -91 -165 -105 -190 l-25 -45 -23 160 c-22 160 -36 303 -27 275 2
-8 17 -98 32 -200 l28 -185 38 70 c105 192 167 299 231 395 39 58 74 110 78
116 5 8 -154 135 -246 196 -9 5 92 142 187 252 l34 40 87 -80 c48 -43 103 -92
122 -107 l34 -29 137 134 c76 73 159 149 185 168 25 19 46 37 47 40 0 3 -45
61 -100 130 l-99 125 27 23 c42 36 260 182 271 182 5 0 46 -61 91 -135 45 -74
84 -135 86 -135 3 0 22 11 43 24 49 31 218 115 304 151 37 15 67 31 67 34 0 4
-25 71 -55 151 -42 109 -52 145 -43 152 17 10 175 62 265 87 l73 20 9 -37 c6
-20 23 -90 40 -155 16 -65 31 -120 33 -122 2 -2 30 3 63 11 52 12 180 31 334
50 l44 6 -6 51 c-3 29 -9 103 -13 165 l-7 112 85 0 c47 0 100 3 117 6 l31 7 0
-167 0 -166 68 0 c66 0 253 -14 343 -26 l45 -5 19 160 c18 154 19 161 41 161
28 0 327 -50 333 -56 2 -2 -10 -74 -28 -160 -18 -85 -31 -157 -29 -158 1 -2
62 -17 133 -34 72 -18 172 -46 224 -62 60 -19 97 -27 101 -20 3 5 28 73 54
150 33 94 53 140 63 140 18 0 303 -116 315 -128 5 -5 -19 -70 -57 -152 -36
-79 -64 -145 -62 -146 2 -2 51 -28 110 -59 106 -54 278 -156 308 -182 15 -13
26 -1 104 114 48 70 91 132 95 136 10 11 290 -200 290 -218 0 -4 -45 -58 -100
-120 -55 -63 -100 -117 -100 -122 0 -5 41 -49 91 -98 50 -50 121 -124 159
-166 l68 -76 122 98 c67 55 125 99 130 99 15 0 240 -318 240 -339 0 -3 -61
-42 -135 -86 -74 -44 -135 -83 -135 -86 0 -4 21 -44 46 -89 26 -46 71 -137
101 -204 30 -66 55 -122 57 -123 1 -1 69 24 152 56 101 40 151 55 156 47 20
-34 109 -329 102 -335 -5 -4 -76 -25 -157 -47 -145 -38 -148 -39 -143 -64 3
-14 17 -74 30 -135 14 -60 33 -162 42 -227 l17 -116 31 4 c92 14 288 29 292
23 3 -6 24 -297 24 -346 0 -10 -40 -13 -165 -13 l-165 0 0 -67 c0 -68 -14
-262 -26 -358 l-6 -51 150 -18 c83 -11 156 -22 163 -26 11 -8 -8 -151 -41
-307 l-11 -50 -155 35 c-85 19 -157 32 -160 29 -3 -2 -20 -63 -39 -135 -31
-121 -70 -257 -82 -288 -3 -9 38 -26 144 -59 81 -26 152 -50 156 -54 7 -7 -42
-160 -64 -202 -7 -14 -26 -10 -151 37 -78 30 -147 54 -153 54 -7 0 -26 -39
-45 -87 -18 -49 -57 -142 -86 -208 -30 -65 -50 -122 -46 -126 4 -4 68 -35 142
-69 74 -34 137 -64 140 -66 2 -3 -31 -76 -75 -164 l-79 -159 -144 76 c-115 60
-146 73 -153 62 -5 -8 -30 -52 -56 -99 -25 -47 -75 -133 -110 -192 -35 -59
-63 -110 -63 -115 0 -4 59 -44 130 -87 72 -44 133 -82 135 -86 4 -6 -156 -264
-178 -287 -9 -10 -42 8 -146 77 -74 50 -135 89 -136 87 -14 -23 -176 -256
-227 -326 -37 -51 -68 -97 -68 -101 0 -4 53 -47 118 -95 64 -48 121 -91 126
-96 8 -7 -180 -269 -202 -283 -4 -2 -63 41 -132 95 l-125 99 -25 -28 c-71 -80
-271 -332 -269 -339 3 -7 266 -234 288 -247 5 -3 64 62 132 144 68 83 128 150
133 150 5 0 20 -9 32 -21 12 -11 24 -17 27 -12 3 5 -9 21 -28 36 l-34 27 -127
-155 c-111 -135 -130 -153 -143 -142 -9 8 -71 60 -138 117 -68 56 -123 106
-123 110 0 5 28 41 63 82 34 40 95 115 135 166 41 51 77 90 80 88 4 -2 61 -47
127 -99 90 -72 123 -93 133 -85 19 16 222 286 222 295 0 4 -57 49 -125 98 -69
50 -125 94 -125 98 0 4 44 69 98 145 54 75 117 165 140 199 l42 61 135 -90
c128 -85 137 -89 150 -72 18 25 189 294 193 304 2 4 -58 45 -133 90 -74 45
-135 86 -135 90 0 5 26 52 58 107 32 54 80 137 106 185 26 48 52 90 57 93 5 3
28 -5 51 -18 24 -13 87 -47 140 -76 l98 -52 85 171 c47 93 85 173 85 178 0 4
-63 36 -140 71 -78 36 -143 68 -145 72 -3 4 12 45 33 91 21 45 58 131 82 191
23 59 48 107 54 107 6 0 74 -25 151 -54 77 -30 143 -51 147 -48 3 4 25 60 47
125 l40 118 -22 8 c-12 5 -82 28 -155 51 -105 34 -131 46 -128 59 10 30 85
306 96 349 6 23 16 42 23 42 7 0 76 -14 155 -32 78 -17 145 -29 148 -25 11 10
79 376 72 383 -2 1 -72 11 -156 22 -84 11 -156 22 -159 25 -3 4 0 63 6 132 6
69 11 166 11 215 l0 90 165 0 165 0 0 88 c0 91 -17 303 -26 311 -4 4 -208 -14
-284 -25 l-35 -6 -18 123 c-10 67 -29 171 -43 231 -15 61 -22 113 -18 118 5 4
72 24 149 45 77 20 143 40 148 44 8 8 -68 254 -103 336 l-19 44 -147 -60 c-82
-32 -151 -56 -155 -52 -4 5 -24 46 -44 93 -20 47 -61 131 -91 187 -30 56 -54
104 -54 107 0 2 61 40 135 83 74 43 135 82 135 87 0 13 -158 247 -215 319
l-45 57 -122 -100 c-66 -55 -124 -99 -128 -98 -4 2 -73 72 -155 155 -171 178
-168 140 -26 298 l90 100 -32 28 c-46 40 -280 217 -287 217 -3 0 -45 -59 -93
-130 -49 -72 -92 -130 -96 -130 -5 0 -49 25 -97 56 -49 30 -139 82 -201 115
-103 55 -111 62 -103 82 4 12 33 75 64 140 31 65 56 122 56 127 0 13 -327 150
-359 150 -5 0 -32 -67 -61 -150 -28 -82 -55 -150 -58 -150 -3 0 -55 15 -116
34 -61 19 -155 45 -208 57 -54 13 -98 28 -98 34 0 6 14 73 30 148 17 76 30
144 30 151 0 9 -30 19 -92 30 -134 25 -290 47 -294 43 -2 -2 -13 -72 -23 -156
-10 -84 -21 -154 -24 -157 -3 -3 -60 -1 -125 5 -66 6 -159 11 -206 11 l-86 0
0 165 0 165 -97 -2 c-54 -1 -115 -3 -137 -5z"/>
<path d="M3666 11593 c-3 -3 -6 -77 -6 -163 l0 -157 -212 -5 c-117 -3 -214 -5
-215 -4 -1 0 -7 72 -14 159 l-12 157 -36 0 c-32 0 -175 -18 -297 -36 -68 -10
-67 -6 -39 -155 14 -74 27 -144 30 -156 5 -20 -2 -23 -93 -43 -53 -12 -144
-35 -202 -52 -58 -17 -111 -31 -119 -32 -9 -1 -30 47 -64 149 -27 83 -50 151
-51 152 -3 4 -187 -66 -281 -108 l-93 -40 69 -146 c38 -80 69 -147 69 -148 0
-2 -46 -28 -103 -58 -57 -30 -143 -81 -192 -113 -50 -32 -95 -62 -101 -66 -7
-5 -46 42 -103 122 -51 72 -96 130 -99 130 -12 0 -164 -118 -240 -187 l-74
-66 74 -76 c40 -42 91 -95 112 -118 l39 -42 -109 -113 c-60 -63 -125 -135
-144 -160 -19 -26 -38 -48 -41 -48 -4 0 -62 43 -129 95 -67 52 -126 95 -130
95 -10 0 -144 -192 -205 -293 -27 -44 -44 -82 -39 -87 5 -5 59 -36 119 -70 61
-34 120 -68 131 -75 21 -14 21 -15 -31 -117 -29 -57 -72 -146 -95 -199 l-42
-96 -150 59 c-83 32 -152 57 -153 56 -7 -9 -67 -179 -94 -267 -21 -65 -29
-106 -22 -110 5 -3 76 -24 156 -46 144 -39 146 -40 140 -65 -21 -80 -65 -286
-75 -350 -6 -41 -13 -80 -15 -86 -2 -7 -54 -3 -161 11 l-159 21 -7 -31 c-12
-53 -32 -355 -24 -362 4 -5 79 -10 165 -11 l158 -4 6 -206 c3 -114 7 -213 9
-221 2 -12 -29 -18 -156 -33 -88 -10 -161 -19 -162 -21 -4 -4 22 -192 42 -299
11 -60 20 -88 30 -88 7 0 77 14 154 30 77 17 144 30 149 30 5 0 14 -27 20 -60
10 -48 58 -229 88 -332 4 -14 -21 -25 -144 -63 -81 -26 -151 -50 -155 -54 -6
-6 66 -230 79 -242 5 -4 71 17 148 47 77 29 145 53 150 54 6 0 36 -62 67 -137
31 -76 68 -164 82 -196 l26 -57 -108 -51 c-59 -28 -124 -57 -144 -66 -21 -8
-38 -19 -38 -24 0 -5 38 -86 85 -180 l86 -170 52 29 c119 67 225 122 234 122
5 0 16 -15 25 -32 16 -35 162 -285 191 -329 l17 -26 -140 -87 -139 -87 95
-147 c53 -81 102 -153 110 -161 12 -13 32 -2 147 77 l135 91 37 -57 c21 -31
83 -117 137 -191 55 -73 102 -139 105 -147 3 -8 -44 -49 -121 -106 -72 -54
-123 -98 -121 -106 7 -18 225 -292 234 -292 4 0 62 45 129 100 l121 99 137
-161 c75 -89 137 -167 138 -173 1 -6 -60 -64 -134 -128 l-135 -117 -37 43
c-20 23 -76 90 -125 149 -48 59 -93 107 -99 107 -5 1 -23 -13 -39 -29 -16 -16
-24 -30 -17 -30 6 0 14 4 17 10 3 5 15 14 25 20 16 9 35 -10 146 -140 80 -94
131 -147 139 -142 25 15 285 246 285 253 0 4 -19 29 -43 55 -34 39 -243 288
-253 302 -1 2 -59 -42 -129 -99 -107 -87 -128 -100 -139 -88 -57 61 -207 262
-200 269 5 4 61 47 124 95 63 48 117 91 118 96 2 5 -34 60 -80 122 -46 62
-115 156 -152 210 l-68 97 -123 -85 c-68 -47 -130 -88 -138 -91 -10 -3 -43 39
-106 136 -50 77 -91 144 -91 149 0 4 60 46 133 91 72 46 133 84 135 86 2 1
-17 33 -41 70 -24 38 -79 131 -122 207 -42 75 -82 137 -87 137 -5 0 -67 -31
-137 -70 -71 -39 -134 -70 -140 -70 -10 0 -161 289 -161 308 0 4 62 36 138 71
75 35 140 67 144 70 4 3 -17 60 -47 126 -30 66 -69 159 -87 207 -18 48 -37 88
-43 88 -5 0 -75 -25 -154 -55 -80 -30 -146 -53 -147 -52 -9 12 -73 211 -69
215 2 3 70 26 150 52 80 26 147 49 150 51 2 3 -8 47 -24 99 -16 52 -41 149
-56 215 -16 66 -29 121 -30 122 -1 2 -72 -11 -158 -29 -87 -17 -159 -29 -161
-27 -9 8 -58 329 -53 342 3 9 51 18 158 30 84 9 154 19 156 21 3 2 0 61 -6
131 -6 69 -11 173 -11 229 0 86 -3 105 -16 110 -9 3 -81 6 -160 6 l-144 0 0
78 c0 42 5 125 12 184 l11 107 26 -5 c44 -7 264 -34 282 -34 13 0 19 12 24 53
10 73 61 322 80 382 8 28 15 53 15 56 0 3 -70 25 -155 49 -85 24 -155 48 -155
53 0 13 99 309 108 324 6 9 48 -3 157 -46 83 -33 151 -58 151 -57 1 0 23 51
49 111 26 61 71 156 100 212 l54 102 -135 77 c-74 42 -137 80 -140 85 -5 9 72
136 155 253 31 44 59 84 63 90 4 6 57 -28 128 -83 67 -51 127 -94 134 -97 6
-2 29 19 51 48 22 29 91 106 154 171 l114 117 -24 27 c-13 15 -61 68 -106 117
-46 49 -83 92 -83 96 0 21 265 234 279 225 6 -3 38 -45 72 -93 35 -48 76 -104
92 -124 l29 -38 61 44 c72 50 211 133 300 177 34 17 64 33 66 35 2 2 -26 66
-63 143 -36 77 -66 144 -66 149 0 9 123 63 262 116 81 30 68 43 128 -139 23
-71 44 -133 46 -136 2 -4 54 9 116 27 62 19 156 43 208 54 52 11 104 22 116
25 l21 5 -29 156 c-16 86 -27 159 -24 161 11 11 344 58 352 50 2 -1 9 -73 17
-160 8 -87 16 -159 18 -160 2 -2 60 0 129 4 69 4 168 8 221 8 l96 1 6 83 c4
45 7 117 7 160 l0 77 48 0 c26 0 78 -3 116 -7 l69 -6 -6 -81 c-4 -45 -9 -118
-13 -163 l-7 -81 59 -7 c52 -5 282 -45 355 -61 l26 -6 39 157 39 157 36 -6
c20 -3 100 -26 177 -51 l139 -45 -54 -146 c-29 -81 -52 -151 -51 -156 2 -5 46
-27 98 -49 90 -38 244 -113 289 -141 27 -17 29 -14 115 133 39 67 76 124 82
126 14 5 284 -175 291 -193 3 -7 -38 -69 -91 -138 l-96 -124 83 -68 c45 -38
129 -114 187 -170 l105 -102 120 109 119 109 46 -52 c69 -79 180 -219 180
-228 0 -5 -56 -50 -125 -100 -69 -50 -125 -94 -125 -97 0 -3 33 -56 74 -117
66 -99 126 -200 239 -405 34 -61 35 -62 41 -35 14 73 57 376 53 380 -2 2 -14
-53 -26 -123 -27 -162 -42 -235 -46 -231 -1 2 -37 66 -80 143 -43 77 -113 193
-156 259 -44 65 -79 121 -79 125 0 3 57 46 125 96 69 49 125 94 125 99 0 9
-137 184 -204 261 l-43 49 -119 -111 -119 -112 -105 103 c-58 56 -138 128
-177 160 l-73 58 50 64 c28 35 73 93 101 129 28 36 50 67 48 69 -108 86 -327
222 -339 210 -4 -5 -41 -65 -80 -134 -40 -69 -74 -127 -76 -129 -2 -2 -63 25
-136 61 -73 36 -159 76 -192 89 -32 13 -60 28 -62 34 -3 6 20 76 50 155 l54
145 -56 22 c-82 31 -321 98 -327 91 -3 -3 -22 -73 -41 -154 -20 -82 -37 -151
-39 -153 -2 -2 -53 6 -112 18 -59 11 -148 26 -198 32 -49 7 -93 15 -96 18 -4
3 0 60 7 126 7 66 13 137 13 157 l1 37 -52 5 c-113 11 -205 15 -212 9z"/>
<path d="M3695 11405 l-7 -162 -241 -6 c-133 -3 -243 -5 -244 -3 -1 1 -9 71
-17 155 -8 84 -17 155 -19 158 -6 5 -156 -11 -255 -28 -61 -11 -63 -12 -57
-38 29 -137 51 -293 41 -296 -6 -2 -49 -11 -96 -20 -47 -9 -148 -34 -225 -57
-77 -22 -144 -40 -149 -41 -4 -1 -26 48 -47 108 -22 61 -46 129 -55 152 l-15
42 -67 -25 c-85 -33 -232 -95 -232 -100 0 -2 29 -66 65 -142 36 -76 65 -142
65 -148 0 -5 -51 -35 -113 -66 -63 -32 -165 -92 -227 -133 -63 -41 -115 -75
-116 -75 -1 0 -45 59 -98 131 l-97 130 -42 -33 c-68 -53 -207 -170 -207 -174
0 -3 49 -58 109 -122 l110 -119 -85 -84 c-47 -46 -122 -128 -166 -181 -45 -54
-85 -98 -90 -98 -5 0 -62 41 -128 90 -66 50 -124 90 -129 90 -6 0 -56 -68
-111 -152 -94 -142 -100 -153 -83 -166 10 -7 73 -45 141 -84 67 -39 121 -74
120 -77 -2 -3 -35 -69 -75 -146 -39 -78 -86 -176 -103 -220 -18 -44 -33 -81
-34 -83 -2 -1 -68 23 -147 53 -79 30 -149 53 -155 51 -16 -6 -108 -286 -98
-295 5 -4 74 -26 153 -49 79 -23 145 -43 147 -45 1 -1 -13 -63 -31 -138 -18
-74 -42 -191 -54 -259 -11 -67 -22 -125 -25 -127 -3 -3 -65 2 -139 11 -74 9
-145 16 -159 16 -28 0 -24 24 -45 -242 l-6 -78 90 0 c50 0 124 -3 165 -6 l75
-7 7 -216 c3 -119 9 -232 12 -252 l6 -36 -114 -12 c-216 -22 -208 -21 -208
-48 0 -26 41 -285 46 -291 1 -2 73 10 159 28 87 17 159 30 160 28 2 -2 15 -55
29 -118 14 -63 42 -167 60 -230 19 -63 32 -118 28 -121 -4 -4 -72 -28 -152
-54 -80 -26 -146 -49 -147 -50 -7 -4 55 -169 64 -172 5 -2 76 21 157 51 129
47 148 52 153 38 18 -53 112 -279 145 -351 21 -47 35 -88 31 -91 -5 -4 -69
-36 -143 -71 -74 -35 -137 -65 -140 -67 -5 -4 112 -238 135 -268 9 -14 16 -15
26 -8 8 6 71 41 141 78 l126 66 38 -67 c20 -38 80 -139 132 -226 51 -87 92
-160 90 -161 -1 -1 -63 -40 -135 -85 -73 -46 -133 -86 -133 -89 0 -2 38 -63
85 -134 l85 -129 135 92 c74 51 136 91 138 88 2 -2 48 -67 102 -144 55 -77
128 -178 163 -224 54 -70 62 -86 50 -95 -121 -89 -238 -183 -238 -191 0 -5 43
-63 94 -128 l94 -117 123 100 c68 55 126 100 129 100 4 0 225 -259 307 -360
l22 -27 -154 -134 c-85 -74 -160 -134 -167 -134 -7 0 -69 66 -137 148 -123
144 -126 147 -144 128 -16 -15 -17 -22 -8 -40 7 -12 16 -19 20 -17 4 3 65 -62
136 -145 70 -82 133 -148 138 -146 6 2 95 77 198 167 l187 164 -65 76 c-36 41
-115 135 -177 209 -61 74 -121 146 -132 160 l-22 25 -127 -102 c-70 -57 -128
-102 -130 -100 -1 2 -30 38 -64 81 l-61 79 129 100 129 100 -127 171 c-70 95
-158 216 -195 270 l-68 98 -27 -17 c-14 -9 -75 -50 -135 -91 -60 -40 -110 -72
-111 -71 -28 38 -105 160 -105 167 0 5 59 47 130 92 72 46 130 86 130 91 0 4
-47 85 -104 180 -57 95 -125 212 -151 261 -26 48 -51 87 -57 87 -5 0 -69 -32
-142 -70 -73 -39 -136 -70 -139 -70 -4 0 -27 41 -52 90 l-46 91 142 69 c77 38
143 71 146 73 2 3 -21 59 -51 126 -60 131 -166 393 -166 410 0 6 -2 11 -3 11
-4 0 -270 -94 -298 -105 -12 -4 -18 1 -23 18 -3 14 -8 32 -12 40 -4 12 29 26
150 67 86 28 156 53 156 54 0 2 -9 29 -20 62 -26 73 -81 277 -110 406 -21 90
-24 97 -44 93 -141 -31 -291 -53 -297 -44 -8 13 -33 189 -27 194 2 2 72 13
157 24 85 12 156 22 157 24 2 2 -1 39 -6 83 -6 43 -13 176 -17 295 l-6 216
-75 7 c-41 3 -107 6 -146 6 -100 0 -100 0 -92 111 4 51 9 96 12 98 5 5 247
-16 295 -26 26 -5 27 -4 34 58 10 94 60 339 93 457 l30 103 -22 8 c-11 5 -77
25 -146 46 -69 21 -129 41 -134 45 -4 5 6 51 23 103 l32 96 37 -14 c222 -80
266 -95 272 -88 4 4 17 35 30 68 40 104 111 257 167 357 29 53 53 99 53 101 0
3 -57 40 -127 83 -71 43 -132 81 -137 85 -10 9 123 219 138 219 5 0 61 -38
125 -83 64 -46 121 -87 127 -90 6 -4 57 49 117 121 58 70 146 167 196 216 78
76 89 91 79 105 -7 9 -46 54 -87 101 -41 47 -83 95 -94 107 l-19 21 77 64 c43
34 81 63 85 63 5 0 52 -57 105 -127 l96 -127 61 45 c94 69 231 151 360 216
l117 59 -18 42 c-10 23 -39 89 -65 146 -26 58 -43 108 -39 111 19 17 183 78
188 71 2 -5 22 -58 44 -117 21 -60 46 -126 54 -146 l15 -36 89 29 c106 36 322
93 416 109 51 9 67 16 67 29 0 9 -11 80 -24 159 -12 78 -20 144 -17 146 13 8
193 28 198 22 4 -3 13 -76 21 -162 l16 -156 70 7 c39 4 170 8 291 10 l220 2 7
84 c3 46 6 119 7 162 l1 77 38 0 c21 0 41 -2 43 -5 3 -2 -1 -75 -7 -162 -7
-87 -10 -160 -9 -162 2 -2 59 -9 127 -17 129 -15 297 -44 385 -68 47 -13 53
-12 57 2 3 10 21 80 41 157 21 77 38 141 39 142 5 6 196 -58 196 -65 0 -4 -22
-74 -49 -155 l-50 -148 27 -10 c179 -67 334 -139 446 -206 47 -29 60 -33 67
-22 5 8 44 69 86 137 50 82 80 121 89 118 8 -3 48 -28 89 -56 49 -33 73 -55
68 -63 -6 -11 -155 -218 -174 -243 -5 -6 31 -42 98 -95 59 -46 163 -141 232
-211 l126 -127 120 105 c66 57 123 103 127 102 8 -4 128 -151 128 -158 -1 -3
-57 -47 -125 -99 -69 -52 -125 -97 -125 -100 0 -3 29 -46 65 -96 85 -119 178
-276 311 -523 60 -111 110 -199 111 -195 1 4 14 184 28 398 29 441 35 509 45
481 5 -16 10 -12 32 25 26 43 26 45 8 63 -21 21 -40 14 -40 -15 0 -10 -4 -19
-10 -19 -5 0 -7 6 -4 13 9 24 -20 38 -44 22 l-21 -15 31 -50 c44 -70 29 -73
-17 -3 l-38 57 27 21 c49 39 24 41 -28 2 -19 -14 -18 -17 28 -88 37 -59 46
-80 42 -103 -3 -16 -6 -51 -6 -78 0 -34 -3 -47 -11 -42 -9 5 -10 -1 -5 -20 7
-27 -37 -415 -52 -464 -7 -20 -13 -13 -52 60 -86 163 -193 345 -266 450 l-73
107 129 96 c106 79 128 100 121 113 -12 22 -164 204 -185 221 -14 12 -29 1
-118 -81 -57 -51 -110 -99 -119 -106 -14 -10 -31 2 -115 86 -96 95 -208 194
-268 238 l-30 22 98 131 c54 72 97 133 95 135 -12 11 -228 155 -246 165 -21
10 -26 4 -105 -128 l-84 -139 -119 64 c-66 35 -168 82 -227 105 l-106 43 40
110 c22 61 46 129 54 150 8 22 11 43 7 47 -11 9 -218 75 -265 84 -42 8 -33 26
-84 -180 -15 -60 -30 -113 -33 -117 -3 -4 -70 6 -148 22 -79 16 -178 32 -222
35 -43 4 -84 11 -91 15 -10 6 -10 38 0 159 8 91 9 155 4 160 -5 5 -48 11 -96
13 l-86 4 -7 -161z"/>
<path d="M3003 11443 c-28 -5 -28 -10 -3 -178 11 -71 20 -135 20 -141 0 -5
-35 -16 -77 -23 -128 -21 -350 -77 -473 -119 -63 -22 -115 -40 -116 -39 -1 1
-27 68 -59 150 -31 81 -61 147 -66 147 -25 0 -81 -31 -76 -42 2 -7 31 -76 63
-152 47 -112 56 -140 44 -144 -8 -3 -76 -36 -150 -73 -144 -72 -241 -131 -358
-217 -40 -29 -79 -55 -85 -58 -7 -2 -56 52 -111 121 l-98 125 -30 -21 c-16
-12 -32 -28 -35 -35 -3 -8 32 -58 83 -116 48 -57 94 -110 101 -119 12 -14 -2
-32 -118 -145 -112 -110 -221 -234 -304 -348 l-20 -28 -125 87 c-69 48 -130
89 -136 92 -10 4 -84 -97 -84 -115 0 -4 61 -45 135 -91 74 -46 135 -85 135
-87 0 -1 -18 -32 -41 -69 -60 -99 -162 -309 -210 -435 -24 -61 -48 -110 -54
-110 -7 0 -76 23 -154 50 -78 28 -143 50 -145 50 -7 0 -27 -83 -21 -88 3 -4
70 -28 148 -53 133 -42 142 -47 141 -70 -1 -13 -20 -94 -42 -179 -36 -140 -70
-314 -88 -459 l-6 -54 -77 7 c-42 3 -115 9 -163 13 l-88 6 0 -46 0 -45 63 -6
c34 -3 106 -8 160 -12 l97 -6 0 -211 c0 -121 7 -264 15 -332 8 -66 15 -127 15
-136 0 -12 -14 -18 -58 -23 -31 -4 -103 -14 -160 -23 l-103 -16 7 -41 c3 -22
8 -44 10 -47 1 -3 74 7 161 22 87 15 158 26 159 26 0 -1 13 -63 28 -137 68
-327 214 -748 366 -1050 24 -48 36 -81 30 -85 -6 -4 -70 -36 -143 -72 -73 -36
-134 -67 -136 -69 -6 -6 31 -84 40 -84 5 0 68 32 142 70 74 39 138 70 143 70
5 0 26 -33 46 -73 54 -105 170 -305 249 -430 38 -60 69 -112 69 -115 0 -4 -61
-46 -135 -95 l-135 -87 26 -40 26 -39 41 26 c23 14 80 52 127 83 47 31 90 59
96 63 6 4 52 -52 109 -136 54 -78 152 -213 218 -300 65 -88 121 -165 123 -172
3 -8 -45 -51 -120 -110 l-126 -97 21 -30 c12 -16 27 -32 34 -35 8 -2 67 39
134 91 66 53 122 96 125 96 3 0 42 -46 88 -102 81 -100 307 -368 354 -418 l23
-26 -214 -189 c-119 -104 -214 -193 -212 -199 2 -5 8 -11 13 -13 6 -2 105 80
219 182 115 102 212 185 216 185 5 0 183 -190 354 -377 l50 -56 -115 -113
-115 -113 27 -27 27 -28 116 113 116 112 224 -226 c123 -124 226 -228 227
-230 2 -2 -48 -58 -110 -124 l-112 -119 26 -21 c15 -12 30 -21 34 -21 5 0 56
50 113 111 58 61 110 110 115 108 17 -7 442 -413 440 -421 -2 -4 -49 -57 -106
-117 -56 -60 -102 -114 -102 -118 0 -5 11 -20 25 -33 l24 -23 69 74 c37 41 87
95 111 121 l43 47 196 -177 c161 -146 432 -384 646 -570 l38 -33 -53 -62 c-29
-34 -77 -89 -106 -123 l-53 -61 29 -27 29 -28 102 119 c56 65 105 119 110 121
9 3 462 -374 468 -390 2 -4 -42 -63 -98 -130 l-102 -122 27 -24 c15 -12 31
-22 35 -20 4 2 51 56 104 120 54 65 101 118 105 118 4 0 25 -15 47 -33 21 -19
131 -109 244 -202 113 -92 205 -171 205 -175 0 -5 -43 -61 -95 -125 -52 -64
-96 -120 -98 -125 -2 -4 10 -17 27 -29 l30 -21 102 125 c67 82 106 122 113
117 6 -5 81 -65 166 -133 85 -68 162 -130 172 -137 16 -12 39 3 202 127 l185
141 96 -125 c53 -69 101 -125 107 -125 7 0 22 10 35 21 l22 22 -49 63 c-28 35
-72 93 -100 128 l-50 64 256 202 c141 111 259 198 263 193 4 -4 45 -55 91
-113 117 -147 104 -137 139 -108 l29 25 -99 123 c-54 68 -99 127 -99 130 0 4
55 52 123 107 67 55 171 141 232 192 60 50 112 91 116 91 3 0 51 -54 105 -120
55 -66 102 -120 106 -120 4 0 19 11 34 24 l28 23 -89 104 c-49 57 -97 113
-107 125 -18 20 -16 22 165 176 189 162 434 379 601 532 l96 89 74 -79 c40
-43 87 -96 105 -116 38 -44 50 -46 79 -15 l22 23 -110 119 -110 120 33 32 c17
17 118 113 222 212 l190 180 115 -115 116 -114 27 28 27 28 -114 113 -114 114
226 234 227 233 70 -68 c38 -37 91 -87 118 -112 l47 -44 28 28 27 27 -120 113
-119 113 105 114 c58 63 143 157 188 209 46 52 89 101 96 108 9 10 55 -25 226
-173 118 -101 218 -183 223 -182 26 9 6 33 -116 138 -73 63 -170 146 -215 186
l-83 72 116 137 c64 76 166 200 226 276 61 76 113 138 117 138 3 0 62 -44 130
-97 l124 -96 28 34 c16 19 29 36 29 39 0 3 -56 48 -125 100 -69 52 -125 99
-125 103 0 5 26 43 58 85 74 98 230 319 312 442 35 52 64 96 66 98 1 2 62 -35
135 -82 73 -47 136 -86 140 -86 6 0 49 65 49 75 0 2 -60 41 -132 86 -73 45
-135 84 -136 85 -2 1 45 85 106 186 60 101 140 242 177 313 38 72 69 131 71
133 1 2 65 -29 143 -67 77 -39 145 -71 149 -71 10 0 48 78 41 83 -2 2 -68 34
-147 72 -78 38 -140 74 -138 80 3 5 34 73 69 150 157 340 281 706 352 1038 9
42 22 77 29 77 6 0 77 -13 158 -28 163 -32 149 -35 163 36 4 17 3 32 -2 32
-18 0 -307 51 -310 54 -2 2 3 55 12 117 10 64 19 215 22 347 l6 232 57 0 c31
0 105 3 163 7 107 6 107 6 107 32 0 46 -11 72 -29 67 -9 -3 -80 -8 -158 -12
-117 -5 -143 -4 -147 7 -2 8 -9 68 -16 134 -14 140 -49 325 -89 463 l-28 97
154 50 c168 55 160 48 134 118 l-10 25 -152 -54 c-84 -29 -154 -52 -154 -51
-1 1 -21 52 -45 112 -53 135 -135 302 -201 407 -27 44 -49 84 -49 89 0 5 59
47 130 94 72 47 130 88 130 91 0 3 -18 32 -41 64 l-41 58 -126 -94 c-70 -51
-130 -94 -133 -94 -4 0 -40 42 -82 93 -70 85 -261 280 -349 355 -21 17 -38 34
-38 38 0 4 43 60 95 125 52 65 95 122 95 126 0 4 -16 20 -35 36 l-34 27 -92
-122 c-51 -68 -95 -127 -99 -131 -4 -4 -49 21 -101 56 -124 85 -311 192 -432
247 -53 24 -97 47 -97 50 0 4 27 71 60 149 33 78 60 144 60 146 0 3 -77 35
-84 35 -2 0 -30 -66 -61 -147 -32 -82 -59 -149 -60 -151 -1 -1 -62 18 -136 43
-125 43 -403 116 -496 130 -24 4 -43 10 -43 13 0 4 11 68 25 142 33 181 34
176 -16 184 -23 4 -43 5 -45 3 -2 -2 -15 -72 -28 -156 -14 -84 -27 -155 -29
-157 -2 -2 -55 3 -118 12 -63 8 -211 17 -330 21 -294 8 -497 -12 -743 -72 -55
-14 -101 -23 -103 -21 -2 1 -22 68 -44 147 -23 79 -45 147 -48 151 -7 8 -91
-11 -91 -21 0 -4 23 -74 50 -156 27 -82 50 -150 50 -151 0 -1 -39 -15 -87 -33
-108 -38 -342 -152 -442 -214 -41 -25 -77 -44 -81 -42 -4 2 -44 59 -90 127
-46 68 -85 125 -87 127 -3 5 -38 -13 -66 -33 -16 -13 -10 -24 77 -146 l96
-132 -93 -70 c-50 -39 -170 -149 -265 -245 l-173 -174 -112 93 c-62 52 -118
97 -124 102 -14 8 -62 -39 -63 -60 0 -7 56 -56 124 -110 l124 -97 -58 -76
c-116 -152 -249 -378 -446 -756 l-99 -190 -6 225 c-4 124 -8 326 -9 450 l-3
225 -8 -135 c-3 -74 -7 -245 -8 -380 -1 -135 -4 -276 -8 -314 l-6 -69 -20 39
c-62 124 -290 545 -343 635 -34 58 -101 158 -148 223 -47 64 -86 118 -86 120
0 1 56 47 125 101 69 55 125 101 125 104 0 4 -14 21 -31 39 l-29 33 -122 -104
-121 -103 -156 156 c-86 86 -205 194 -264 240 -60 45 -106 88 -104 94 3 6 43
67 91 135 l86 124 -35 24 c-18 12 -38 23 -42 23 -4 0 -46 -59 -92 -130 -46
-72 -88 -130 -92 -130 -5 0 -57 28 -116 62 -117 67 -300 152 -418 194 -41 15
-75 27 -75 28 0 1 22 71 49 155 l49 152 -24 10 c-72 27 -65 35 -113 -136 -41
-144 -46 -156 -65 -152 -12 3 -70 17 -130 31 -294 69 -693 94 -1021 65 -69 -6
-128 -9 -132 -6 -4 4 -41 278 -43 315 0 3 -40 0 -67 -5z m51 -35 c3 -13 13
-84 22 -158 9 -74 18 -137 19 -139 2 -2 55 2 117 8 164 16 547 14 708 -4 154
-17 312 -46 417 -75 40 -11 77 -20 82 -20 6 0 20 33 31 73 72 242 68 235 95
229 14 -2 25 -9 25 -14 0 -6 -21 -76 -46 -155 -25 -80 -42 -149 -37 -153 4 -4
51 -22 103 -39 140 -48 383 -167 503 -245 l25 -17 88 135 c49 75 91 136 94
136 3 -1 14 -7 24 -15 19 -14 16 -21 -72 -149 l-92 -135 92 -69 c124 -92 278
-232 373 -339 43 -48 81 -89 85 -91 3 -1 59 43 125 98 65 55 122 100 126 100
11 0 31 -28 27 -39 -1 -5 -55 -51 -118 -101 -63 -51 -116 -96 -118 -100 -2 -4
35 -60 82 -124 127 -174 224 -342 486 -839 l72 -139 60 114 c293 557 371 692
506 876 45 63 82 115 80 117 -99 72 -246 200 -241 209 21 37 25 35 151 -69
l127 -105 39 47 c65 80 287 294 376 363 46 36 95 74 108 86 l25 21 -87 122
c-48 68 -89 128 -92 135 -4 10 34 42 41 34 1 -2 41 -60 89 -130 48 -71 90
-128 93 -128 3 0 58 31 122 70 133 79 262 141 408 195 119 44 114 18 47 218
l-43 128 25 9 c14 6 27 10 28 10 2 0 22 -66 46 -147 24 -82 46 -151 49 -155 4
-4 52 3 107 17 350 86 707 102 1108 49 60 -7 110 -13 111 -11 2 1 12 65 24
142 12 77 24 148 27 158 6 18 39 24 49 8 3 -6 -6 -78 -20 -162 -14 -83 -24
-153 -23 -155 2 -2 58 -15 123 -29 174 -37 326 -79 460 -126 64 -22 118 -39
120 -37 2 1 29 68 61 148 31 80 58 146 60 148 1 2 13 -2 27 -10 l24 -13 -58
-139 c-33 -76 -59 -144 -59 -150 1 -6 80 -50 178 -98 103 -50 238 -126 322
-182 79 -53 147 -96 150 -96 3 0 47 56 99 125 51 69 97 125 101 125 4 0 14 -8
22 -17 15 -17 8 -28 -83 -143 l-100 -125 53 -44 c89 -75 299 -291 372 -383 45
-57 73 -85 80 -79 24 18 232 168 243 174 7 5 23 -10 42 -37 l31 -45 -123 -82
c-67 -45 -127 -87 -134 -93 -9 -8 1 -30 39 -91 67 -107 187 -351 228 -464 18
-50 34 -91 36 -91 1 0 71 23 154 51 83 28 152 50 154 48 2 -2 6 -14 10 -25 8
-25 20 -19 -165 -80 l-137 -45 19 -67 c32 -111 57 -212 74 -302 15 -82 45
-315 45 -353 0 -18 8 -19 153 -12 83 4 157 8 162 9 6 0 11 -11 13 -26 3 -27 1
-28 -40 -29 -24 -1 -97 -4 -163 -8 l-119 -6 2 -95 c4 -120 -13 -382 -34 -523
-8 -60 -14 -110 -12 -111 2 -2 66 -13 143 -25 181 -29 177 -28 169 -54 -3 -12
-8 -24 -10 -26 -1 -2 -69 9 -149 24 -81 14 -153 24 -160 21 -7 -2 -16 -26 -20
-52 -37 -250 -203 -743 -375 -1112 -34 -74 -60 -135 -58 -137 2 -1 67 -35 145
-74 141 -70 142 -71 131 -96 -6 -14 -14 -24 -17 -23 -3 2 -66 34 -138 71 -73
37 -137 67 -142 67 -6 0 -25 -28 -44 -62 -134 -245 -170 -309 -248 -440 -49
-81 -89 -150 -89 -155 1 -4 61 -46 135 -91 134 -83 134 -84 119 -107 l-16 -24
-36 23 c-21 13 -77 49 -125 80 -49 32 -95 60 -102 62 -8 4 -51 -50 -117 -148
-56 -84 -158 -228 -225 -320 -67 -92 -124 -172 -127 -177 -3 -4 53 -53 124
-107 122 -93 129 -99 113 -116 -9 -10 -19 -18 -23 -18 -4 0 -63 43 -130 95
-68 53 -127 92 -131 88 -3 -4 -53 -66 -110 -138 -158 -200 -389 -472 -593
-698 -103 -113 -186 -208 -186 -211 0 -6 112 -114 193 -187 35 -32 37 -35 23
-54 -14 -19 -17 -18 -83 45 -37 36 -91 87 -119 113 l-51 48 -130 -133 c-72
-73 -178 -182 -236 -243 l-106 -110 110 -110 c60 -61 109 -115 109 -121 0 -5
-5 -15 -12 -22 -10 -10 -38 13 -130 105 l-118 117 -142 -140 c-79 -76 -182
-177 -230 -222 -49 -45 -88 -84 -88 -86 0 -3 47 -55 105 -118 104 -112 118
-134 91 -144 -12 -5 -34 16 -183 175 l-51 55 -55 -50 c-406 -364 -528 -471
-675 -598 -155 -132 -172 -150 -159 -165 203 -238 199 -233 180 -247 -21 -16
-17 -19 -149 138 l-81 96 -74 -62 c-41 -34 -150 -124 -244 -200 -93 -77 -173
-142 -177 -145 -4 -4 37 -63 92 -131 55 -69 100 -128 100 -131 0 -4 -6 -12
-14 -18 -12 -10 -33 11 -116 114 -56 69 -104 125 -107 125 -2 0 -112 -85 -243
-189 -131 -104 -251 -198 -266 -209 l-28 -19 101 -129 c89 -114 99 -130 85
-141 -9 -7 -18 -13 -21 -13 -3 0 -49 57 -101 125 -52 69 -97 125 -100 125 -3
0 -87 -64 -188 -141 l-183 -141 -175 142 c-97 78 -181 143 -187 145 -7 2 -57
-52 -112 -120 -92 -115 -101 -123 -117 -108 -16 14 -11 23 82 138 55 67 100
124 100 128 0 4 -289 244 -474 394 l-52 41 -98 -119 c-55 -66 -102 -122 -105
-124 -4 -2 -14 3 -24 10 -17 12 -14 18 40 82 32 37 80 93 106 124 l47 56 -152
129 c-84 71 -197 166 -250 212 l-97 82 -103 -120 c-57 -66 -109 -120 -116
-120 -37 0 -18 37 77 147 56 64 100 120 99 124 -2 5 -115 106 -253 227 -137
120 -338 298 -445 395 l-195 177 -110 -116 c-84 -88 -114 -114 -128 -109 -9 4
-17 11 -17 15 0 4 47 58 105 121 58 63 105 117 105 120 0 7 -24 31 -300 293
l-165 156 -113 -116 c-106 -110 -114 -116 -130 -101 -15 16 -9 25 98 132 l115
115 -242 242 -242 242 -116 -113 c-110 -108 -117 -113 -133 -97 -16 17 -10 24
102 131 l119 113 -118 123 c-215 226 -644 717 -769 881 -33 44 -9 54 -181 -81
-100 -79 -107 -82 -120 -65 -8 11 -15 21 -15 24 0 3 56 49 125 103 82 64 123
103 118 110 -5 7 -75 102 -158 213 -82 110 -184 250 -225 312 -41 61 -78 111
-82 112 -4 0 -66 -39 -139 -86 -124 -81 -133 -86 -146 -69 -7 11 -13 22 -13
25 0 3 60 46 134 94 l134 87 -73 118 c-83 133 -200 335 -265 458 l-43 82 -147
-74 -147 -74 -11 25 c-11 24 -9 26 131 95 78 39 143 72 145 74 1 1 -21 51 -49
111 -175 373 -286 697 -359 1044 -17 79 -32 145 -33 146 -1 1 -69 -9 -150 -23
-81 -14 -154 -22 -162 -19 -8 3 -15 14 -15 25 0 22 0 22 184 50 70 11 130 22
132 24 2 2 -3 64 -12 138 -11 86 -17 215 -18 360 l-1 226 -157 10 c-87 5 -160
12 -163 14 -2 3 -1 15 2 28 6 23 8 24 87 17 45 -3 118 -9 163 -12 l83 -7 0 39
c0 103 62 420 118 607 16 53 27 99 23 101 -3 2 -72 25 -153 51 -82 25 -148 52
-148 58 0 7 5 19 10 27 9 14 55 1 308 -88 6 -2 12 1 12 8 0 46 168 415 259
568 24 40 42 74 40 76 -2 2 -62 41 -134 86 -71 46 -132 84 -133 86 -2 1 10 23
27 48 l31 45 130 -90 c71 -49 133 -89 137 -89 4 1 42 47 83 103 41 56 146 173
233 260 86 87 157 160 157 163 0 2 -125 153 -189 227 -14 17 -14 20 4 33 10 8
22 14 25 14 4 0 51 -56 106 -124 l98 -125 31 23 c188 143 423 280 592 346 21
9 20 12 -42 160 l-64 151 25 11 c13 6 26 9 27 7 2 -2 30 -69 61 -149 32 -80
59 -146 60 -147 1 -1 53 16 116 38 126 44 330 97 483 124 53 10 97 20 97 24 0
4 -9 69 -20 146 -25 179 -25 175 5 175 17 0 26 -7 29 -22z"/>
<path d="M6161 10125 c-100 -68 -98 -66 -63 -118 17 -24 54 -82 81 -127 l50
-84 11 30 c66 168 79 216 68 237 -20 39 -69 107 -76 106 -4 0 -36 -20 -71 -44z
m110 -27 c18 -29 32 -58 32 -64 0 -11 -75 -206 -78 -201 -30 40 -135 220 -131
224 11 12 131 92 138 92 3 1 21 -23 39 -51z"/>
<path d="M6175 10089 c-27 -21 -50 -44 -50 -51 0 -15 87 -158 96 -158 3 0 20
33 38 74 l33 75 -27 45 c-15 25 -30 48 -33 50 -4 2 -29 -14 -57 -35z m79 -26
l23 -38 -29 -58 -29 -58 -41 62 -40 63 38 33 c22 18 42 33 46 33 4 0 18 -17
32 -37z"/>
<path d="M6504 10108 l-38 -62 33 -95 c18 -53 38 -109 45 -125 l12 -29 44 74
c24 41 61 100 82 131 l38 57 -81 55 c-44 31 -84 56 -89 56 -5 0 -25 -28 -46
-62z m122 -6 l72 -47 -67 -107 c-36 -59 -68 -108 -71 -108 -3 0 -22 45 -44 99
l-38 99 33 56 c19 31 36 56 39 56 3 0 37 -21 76 -48z"/>
<path d="M6523 10080 l-32 -49 35 -77 c19 -42 39 -73 43 -68 28 31 101 158 94
164 -16 13 -88 67 -98 72 -6 4 -25 -16 -42 -42z m85 -10 c17 -16 32 -32 32
-36 0 -11 -65 -113 -73 -114 -4 0 -19 24 -33 53 l-26 54 23 36 c13 20 29 37
34 37 6 -1 25 -14 43 -30z"/>
<path d="M1938 4454 l-78 -65 81 -95 81 -94 27 22 c14 13 50 43 78 67 l52 43
-77 93 c-42 52 -79 94 -82 94 -3 1 -40 -29 -82 -65z m190 -83 l27 -34 -65 -59
-65 -58 -33 37 c-19 21 -51 59 -72 84 l-39 46 67 56 67 56 43 -47 c24 -26 56
-62 70 -81z"/>
<path d="M1965 4429 c-28 -23 -50 -44 -50 -48 0 -8 98 -130 105 -130 3 -1 29
20 58 45 l52 46 -51 61 c-28 34 -54 63 -58 65 -3 1 -29 -16 -56 -39z m100 -35
l37 -45 -23 -26 c-47 -49 -58 -50 -100 -2 -21 24 -38 47 -39 52 0 11 63 66 76
67 7 0 28 -21 49 -46z"/>
<path d="M10696 4408 l-76 -93 43 -39 c23 -21 59 -51 79 -67 l36 -29 76 92
c42 51 76 96 76 100 0 7 -145 128 -153 128 -2 0 -39 -42 -81 -92z m147 21 c34
-29 63 -55 65 -59 1 -4 -27 -44 -64 -88 l-66 -82 -68 57 c-59 48 -67 59 -57
72 27 37 121 151 124 151 2 0 32 -23 66 -51z"/>
<path d="M10719 4384 l-52 -66 29 -24 c16 -13 41 -33 55 -44 l27 -20 44 53
c24 28 49 59 55 67 10 13 3 23 -42 58 -29 23 -56 42 -58 42 -3 0 -29 -30 -58
-66z m125 -8 c16 -13 16 -17 5 -34 -29 -39 -68 -82 -76 -82 -4 1 -24 15 -45
33 l-36 33 41 50 42 51 25 -18 c14 -10 33 -25 44 -33z"/>
<path d="M2320 4025 c-102 -91 -185 -171 -185 -179 0 -8 46 -64 103 -124 56
-61 102 -117 102 -124 0 -8 5 -19 12 -26 9 -9 17 -7 35 9 l22 22 -109 117
c-61 64 -110 120 -110 123 0 5 264 245 301 274 13 11 36 -10 158 -142 l142
-155 -102 -97 c-56 -54 -107 -102 -115 -106 -25 -15 -15 -32 74 -120 l88 -88
118 112 118 112 166 -166 167 -167 -115 -115 -115 -115 93 -93 94 -92 111 118
112 118 162 -152 162 -152 -112 -120 -112 -119 95 -89 95 -88 35 37 c19 20 70
75 112 121 l76 84 114 -103 c62 -57 132 -121 156 -142 l43 -39 -106 -118 c-58
-65 -105 -122 -104 -127 1 -5 25 -31 54 -57 l53 -48 107 121 c58 66 109 120
113 120 9 -1 306 -259 310 -270 2 -4 -42 -60 -98 -123 -55 -63 -100 -119 -100
-124 0 -11 176 -163 188 -163 4 0 55 54 111 121 l103 120 22 -19 c11 -10 82
-70 156 -132 74 -62 141 -118 148 -124 10 -10 -7 -35 -80 -122 -51 -61 -98
-117 -105 -125 -10 -13 4 -29 88 -98 55 -46 101 -82 103 -80 1 2 47 58 101
124 54 66 100 121 101 123 3 5 358 -289 362 -299 2 -4 -38 -59 -89 -121 -51
-62 -96 -118 -100 -124 -8 -10 170 -164 189 -164 6 0 53 54 107 120 54 66 100
120 102 120 13 0 302 -236 303 -247 0 -7 -68 42 -150 109 -83 66 -152 119
-154 117 -2 -2 -48 -58 -101 -124 -54 -66 -102 -119 -107 -117 -6 1 -57 41
-114 88 -70 57 -102 90 -96 98 5 6 50 61 100 123 51 62 92 114 92 117 0 8
-327 276 -337 276 -5 0 -54 -54 -108 -120 -54 -66 -101 -120 -103 -120 -2 0
-53 41 -113 91 l-109 91 29 36 c16 21 63 77 104 126 l74 89 -136 115 c-75 63
-145 123 -157 134 -20 18 -21 17 -120 -98 -54 -64 -102 -121 -105 -127 -4 -5
-57 34 -118 87 l-111 97 93 107 c51 59 98 115 105 124 12 14 -4 32 -130 142
-79 69 -146 126 -149 126 -5 0 -159 -171 -200 -223 -16 -20 -18 -19 -87 43
l-71 63 109 123 109 122 -87 78 c-48 43 -112 102 -144 132 l-56 55 -64 -69
c-34 -38 -85 -93 -113 -121 l-50 -53 -105 99 -105 99 45 49 c25 26 74 78 109
114 35 37 62 71 60 77 -2 5 -69 70 -148 144 l-144 135 -112 -116 -112 -115
-107 99 -106 100 116 116 116 116 -156 159 -157 158 -114 -114 -115 -115 -105
105 -105 104 120 114 120 114 -127 136 c-69 75 -129 140 -133 145 -5 6 -180
-144 -284 -244 -19 -17 -17 -20 95 -140 l113 -121 -29 -24 c-16 -13 -27 -25
-24 -28 3 -3 21 7 39 23 l34 28 -109 117 c-61 65 -110 121 -110 126 0 9 265
254 269 248 1 -2 57 -62 124 -135 l122 -131 -115 -109 c-63 -59 -115 -113
-115 -118 0 -6 49 -60 110 -120 l109 -109 116 114 115 114 147 -147 147 -147
-117 -118 -117 -117 117 -110 116 -109 113 116 113 116 133 -126 c73 -70 135
-130 137 -135 2 -5 -23 -37 -55 -71 -33 -33 -82 -85 -109 -114 l-50 -54 115
-109 115 -109 55 58 c30 31 81 85 113 120 l57 63 135 -122 135 -123 -28 -30
c-15 -17 -65 -72 -110 -122 l-82 -91 82 -73 c79 -70 82 -72 97 -53 52 63 195
223 200 223 7 0 271 -229 271 -235 0 -2 -47 -59 -105 -125 l-105 -122 121
-103 121 -104 103 120 c57 66 106 121 110 121 12 1 285 -232 285 -243 0 -6
-24 -39 -53 -72 -29 -34 -74 -87 -100 -119 l-48 -56 120 -101 c66 -56 122
-101 124 -101 3 0 51 56 107 125 l103 125 51 -43 c28 -24 99 -83 159 -131 59
-48 107 -90 107 -92 0 -3 -46 -61 -101 -130 -56 -68 -100 -126 -98 -127 2 -2
54 -43 114 -92 61 -49 115 -92 121 -96 6 -5 48 39 110 116 54 68 101 124 104
125 3 0 67 -50 143 -111 l138 -110 -24 -42 c-13 -23 -50 -88 -81 -145 l-58
-103 28 -22 c16 -12 64 -50 108 -85 44 -34 82 -62 86 -62 10 0 220 159 220
166 0 11 -133 264 -137 261 -2 -2 24 -62 57 -132 33 -71 57 -132 53 -136 -4
-4 -50 -39 -102 -78 l-93 -70 -99 80 -99 80 72 139 c40 76 74 137 75 136 2 -1
-24 -62 -58 -136 -33 -73 -58 -136 -57 -140 2 -4 40 -38 85 -74 l82 -66 85 63
c46 34 85 68 85 75 1 8 -22 69 -50 137 -28 69 -47 129 -43 136 4 7 3 9 -3 6
-9 -5 -23 12 -23 27 0 5 306 236 312 236 3 0 47 -56 99 -125 52 -68 97 -124
101 -125 13 0 193 146 193 158 0 6 -42 66 -94 132 -51 67 -90 125 -85 129 40
36 356 281 362 281 4 0 52 -56 106 -125 87 -110 101 -123 115 -112 9 8 53 44
99 81 45 37 82 70 82 73 0 2 -45 59 -100 126 l-100 122 28 25 c16 14 92 78
170 142 l142 117 102 -122 c56 -67 103 -124 104 -126 2 -2 43 30 91 70 48 41
93 79 100 84 11 8 -9 37 -92 133 -58 68 -105 125 -105 126 0 3 189 167 291
254 l27 22 104 -119 c56 -66 108 -120 113 -120 6 0 34 22 63 49 l52 49 -105
118 c-58 65 -105 121 -105 125 0 6 265 251 295 272 9 7 29 -9 71 -55 33 -35
82 -89 110 -118 l52 -55 96 88 96 88 -110 116 c-61 64 -110 119 -110 122 0 3
70 72 156 154 l156 149 116 -116 117 -117 93 92 92 93 -116 116 -116 116 165
169 165 169 117 -115 118 -114 88 94 89 95 -117 111 c-110 105 -116 113 -102
132 21 30 261 292 266 292 10 0 313 -271 313 -279 0 -5 -47 -62 -105 -127
-106 -117 -106 -118 -86 -137 17 -17 23 -18 35 -8 9 8 14 17 11 21 -3 4 38 57
91 116 53 60 103 116 111 125 13 15 -6 34 -177 183 -105 91 -194 166 -199 166
-4 0 -50 -48 -101 -106 -52 -59 -127 -142 -167 -186 l-73 -80 78 -72 c42 -40
96 -90 119 -111 l42 -40 -58 -63 -59 -62 -115 110 c-63 60 -117 110 -119 110
-6 0 -383 -379 -386 -389 -1 -4 46 -59 105 -121 59 -62 108 -117 108 -123 0
-5 -26 -33 -59 -61 l-58 -51 -107 113 c-58 62 -110 112 -115 112 -10 0 -376
-349 -376 -359 0 -3 48 -57 106 -119 58 -61 104 -115 102 -120 -2 -4 -29 -31
-60 -61 l-58 -53 -68 73 c-37 41 -87 94 -109 119 -32 34 -45 43 -56 35 -8 -5
-94 -82 -191 -170 l-176 -159 28 -31 c99 -106 182 -204 182 -212 0 -5 -9 -18
-20 -28 -24 -22 -9 -34 -135 110 -48 55 -91 104 -95 109 -7 7 -380 -303 -388
-322 -1 -4 43 -60 98 -124 55 -65 100 -122 100 -126 0 -12 -113 -101 -125 -99
-5 0 -54 54 -109 119 -66 80 -102 116 -110 110 -31 -25 -373 -306 -384 -317
-11 -10 5 -35 89 -139 56 -69 100 -128 98 -129 -2 -2 -30 -24 -62 -50 -33 -26
-62 -47 -66 -47 -4 0 -52 56 -107 125 -85 107 -101 122 -114 111 -8 -7 -105
-84 -215 -171 -110 -86 -201 -160 -203 -164 -1 -4 40 -63 93 -131 52 -67 95
-125 95 -129 -1 -13 -133 -103 -139 -94 -26 41 -187 243 -193 243 -9 0 -320
-238 -331 -253 -5 -7 8 -80 32 -174 23 -89 41 -164 41 -167 0 -3 -25 -24 -55
-47 l-55 -41 -48 38 c-26 20 -50 40 -54 44 -5 3 15 82 42 175 27 93 47 172 42
175 -91 77 -323 260 -329 260 -5 0 -49 -49 -98 -110 -48 -60 -94 -115 -101
-121 -10 -8 -28 0 -74 37 -33 26 -60 51 -60 56 0 5 44 63 98 129 53 66 96 122
95 125 -2 4 -374 311 -419 346 -8 6 -45 -31 -115 -116 l-104 -124 -60 48 c-33
27 -59 55 -59 63 1 8 45 67 99 132 l98 116 -39 32 c-21 18 -112 94 -202 171
-159 134 -165 138 -181 120 -10 -11 -57 -65 -105 -121 -49 -57 -91 -103 -95
-103 -3 0 -33 24 -66 54 l-59 53 106 124 106 124 -41 35 c-52 44 -283 245
-318 277 l-25 23 -105 -119 c-57 -66 -109 -120 -115 -120 -6 -1 -19 8 -29 19
-17 19 -15 23 90 141 l108 121 -24 22 c-13 13 -98 90 -188 171 l-164 149 -112
-120 -113 -119 -58 54 c-33 30 -61 56 -63 58 -2 1 46 56 107 121 l112 119
-192 183 -191 184 -115 -118 -115 -118 -61 61 -61 61 115 115 115 115 -197
197 -197 197 -119 -112 -119 -112 -59 62 -58 61 119 112 120 113 -106 113
c-58 63 -135 146 -170 186 -35 39 -66 72 -69 72 -4 1 -89 -73 -190 -164z"/>
<path d="M10170 3941 c-69 -77 -126 -144 -127 -148 -2 -5 48 -56 112 -113 63
-58 115 -107 115 -110 0 -3 -44 -53 -99 -110 l-98 -105 -118 114 -117 113
-153 -158 -153 -159 114 -115 114 -115 -103 -103 -102 -102 -114 114 c-71 71
-119 112 -127 108 -6 -4 -73 -67 -149 -140 l-137 -133 111 -119 111 -118 -101
-94 c-55 -51 -104 -94 -109 -96 -4 -2 -34 25 -66 60 -33 34 -82 87 -110 116
l-50 54 -142 -128 c-78 -70 -141 -132 -140 -136 2 -4 50 -60 107 -124 l104
-117 -64 -58 c-35 -32 -69 -58 -75 -59 -5 0 -57 54 -114 120 -103 119 -104
120 -124 101 -12 -10 -75 -64 -141 -121 -66 -56 -124 -106 -128 -110 -4 -4 37
-59 92 -123 55 -64 102 -120 105 -125 5 -8 -203 -192 -216 -192 -2 0 -49 54
-103 120 -54 66 -103 120 -107 120 -12 0 -313 -250 -311 -258 2 -4 46 -60 99
-125 52 -65 94 -121 92 -126 -2 -5 -43 -41 -93 -81 -49 -40 -97 -79 -107 -87
-14 -13 -26 -2 -117 111 -56 69 -104 126 -106 126 -3 0 -73 -54 -157 -121 -83
-66 -161 -127 -171 -134 -19 -13 -16 -18 49 -102 37 -48 83 -106 101 -129 l33
-41 -104 -82 c-58 -45 -111 -84 -119 -86 -8 -4 -47 38 -107 117 -51 68 -95
125 -97 127 -1 2 -64 -43 -140 -100 -178 -135 -170 -128 -157 -129 5 0 72 47
148 105 76 58 140 105 142 105 2 0 46 -56 99 -125 53 -69 99 -125 103 -125 10
0 225 168 236 184 7 10 -15 45 -80 127 -50 63 -93 119 -97 126 -4 7 52 58 152
137 88 69 162 126 164 126 4 0 164 -196 203 -248 3 -4 227 176 238 192 6 9
-22 51 -92 136 l-101 123 141 116 c77 64 146 116 153 116 7 0 52 -47 100 -105
48 -58 93 -111 100 -119 11 -11 33 3 134 89 107 90 120 105 108 119 -7 9 -55
65 -106 124 -51 59 -92 109 -90 111 2 2 58 49 124 106 66 57 127 109 135 116
13 11 30 -4 119 -106 57 -66 107 -120 112 -120 7 0 159 129 159 135 0 1 -47
56 -105 121 -58 65 -105 121 -105 124 0 6 257 240 264 240 2 0 51 -51 107
-113 57 -61 109 -112 116 -112 7 0 62 46 123 103 l110 103 -107 115 c-60 63
-108 118 -108 122 0 4 60 65 133 136 l133 130 117 -117 117 -117 113 112 112
113 -114 115 -114 115 144 150 144 150 116 -115 116 -115 109 115 c60 63 109
117 109 120 0 3 -52 52 -115 110 -63 58 -115 108 -115 112 0 10 230 263 240
263 11 0 270 -227 270 -237 0 -4 -47 -60 -105 -124 -58 -64 -105 -119 -105
-123 0 -10 61 -54 66 -48 3 3 -6 14 -20 25 -15 11 -26 23 -26 26 0 4 47 59
105 123 58 63 105 119 105 123 0 6 -284 260 -292 260 -2 0 -60 -63 -128 -139z"/>
<path d="M2418 3906 c-38 -35 -68 -67 -68 -72 0 -8 120 -137 133 -143 11 -4
142 121 142 136 0 12 -122 143 -133 143 -4 -1 -37 -29 -74 -64z m134 -13 c32
-32 58 -61 58 -65 0 -11 -111 -113 -124 -113 -12 0 -116 107 -116 119 0 7 112
115 120 116 2 0 30 -26 62 -57z"/>
<path d="M2440 3883 l-54 -50 50 -53 50 -52 53 48 52 49 -48 54 -49 54 -54
-50z m92 -20 l37 -38 -44 -37 -43 -38 -36 44 -35 43 37 31 c20 17 39 31 42 31
3 1 22 -16 42 -36z"/>
<path d="M10236 3872 l-67 -76 73 -68 c40 -37 75 -67 78 -67 3 -1 36 33 73 74
l69 75 -49 44 c-26 24 -62 55 -78 69 l-31 25 -68 -76z m161 -23 l43 -40 -57
-64 c-32 -36 -60 -65 -63 -65 -3 1 -34 27 -69 59 l-63 58 58 65 59 65 24 -19
c13 -10 44 -36 68 -59z"/>
<path d="M10259 3849 l-42 -50 49 -50 48 -49 39 38 c66 64 67 70 11 119 -27
23 -52 43 -56 43 -3 0 -25 -23 -49 -51z m94 -5 l37 -35 -31 -39 c-18 -22 -35
-40 -39 -40 -4 0 -24 15 -45 33 l-39 34 35 41 c19 23 36 42 39 42 3 -1 22 -16
43 -36z"/>
<path d="M2462 3498 c-17 -17 -15 -33 2 -18 12 10 37 -11 142 -120 l128 -131
115 115 116 116 80 -80 80 -80 -115 -116 -115 -115 185 -181 184 -182 112 119
112 118 71 -64 c39 -34 71 -65 71 -67 0 -2 -49 -56 -110 -120 -105 -112 -108
-117 -92 -135 27 -31 350 -327 356 -327 2 0 29 26 58 57 29 32 78 84 109 117
l56 59 62 -53 c33 -30 61 -57 61 -61 0 -3 -48 -59 -106 -123 l-107 -118 29
-28 c51 -50 269 -240 275 -240 3 0 52 53 109 118 57 64 106 117 110 117 3 0
34 -25 68 -55 l61 -55 -104 -120 c-58 -66 -105 -122 -105 -125 0 -7 376 -330
383 -330 3 0 51 54 107 120 56 66 104 120 106 120 7 0 138 -111 142 -119 1 -3
-43 -60 -98 -125 -55 -66 -100 -123 -100 -126 0 -4 33 -34 73 -67 39 -33 127
-105 193 -161 l121 -100 102 124 c57 68 105 124 108 124 3 0 43 -32 90 -71
l84 -71 -44 -51 c-92 -109 -157 -191 -157 -198 0 -10 372 -312 386 -313 6 -1
54 52 107 117 53 65 98 119 101 120 8 3 146 -107 146 -116 0 -5 -43 -62 -96
-128 -53 -65 -94 -123 -92 -128 8 -22 359 -293 373 -287 8 3 96 66 195 141
128 96 179 140 172 148 -87 112 -182 241 -182 247 0 4 34 33 74 64 l75 56 97
-128 c53 -70 98 -128 99 -130 2 -2 94 67 204 153 131 101 199 160 194 168 -4
7 -46 62 -95 124 -48 61 -88 115 -88 120 0 5 19 25 43 43 23 19 61 49 84 68
l42 33 98 -125 c54 -69 102 -125 106 -126 7 0 340 264 385 305 12 10 -4 35
-87 136 -56 68 -100 126 -99 130 7 16 139 120 147 115 5 -3 53 -60 107 -125
l97 -120 51 43 c246 207 331 280 334 287 2 5 -42 61 -97 125 -56 64 -101 120
-101 124 0 4 27 31 61 60 l60 52 22 -20 c12 -12 60 -66 107 -121 47 -55 88
-99 92 -98 13 4 298 258 298 266 0 4 -47 60 -105 125 l-106 118 63 59 63 58
45 -47 c25 -26 75 -80 112 -121 l67 -74 108 99 c59 54 143 133 187 175 l80 77
-112 118 -112 119 71 65 70 66 112 -113 c61 -62 114 -112 118 -111 17 7 359
344 359 354 0 7 -50 58 -110 114 -60 56 -110 107 -110 114 0 6 33 45 74 85
l75 74 48 -41 c26 -22 80 -73 118 -112 l70 -71 126 132 c111 117 129 132 143
120 9 -7 16 -9 16 -3 0 5 -7 16 -16 23 -14 12 -32 -3 -143 -120 l-126 -133
-50 52 c-27 28 -81 79 -118 112 l-68 61 -85 -84 c-46 -46 -84 -88 -84 -94 0
-6 50 -57 110 -114 61 -56 110 -108 110 -115 0 -12 -320 -326 -339 -334 -4 -1
-56 47 -116 108 -59 61 -112 109 -116 108 -4 -2 -42 -34 -83 -71 l-76 -69 111
-119 112 -119 -24 -26 c-43 -46 -321 -299 -329 -299 -4 0 -53 51 -110 113 -56
61 -108 112 -114 112 -6 -1 -41 -29 -79 -64 l-67 -62 105 -118 c58 -64 105
-121 105 -126 0 -5 -62 -63 -137 -129 l-137 -121 -25 25 c-15 13 -62 67 -106
119 -44 52 -83 95 -87 95 -9 1 -148 -119 -148 -127 0 -4 45 -59 100 -124 55
-64 100 -120 99 -125 -1 -13 -357 -309 -366 -303 -4 2 -52 57 -107 122 -65 79
-102 116 -110 110 -44 -33 -156 -127 -156 -131 0 -2 46 -60 102 -129 85 -105
99 -127 86 -136 -8 -6 -91 -73 -185 -148 -93 -76 -173 -138 -176 -138 -5 0
-165 196 -203 248 -1 2 -46 -31 -99 -73 -62 -50 -94 -82 -91 -91 3 -8 47 -66
97 -130 55 -70 88 -119 82 -125 -30 -30 -369 -286 -375 -283 -3 2 -47 58 -98
124 -50 66 -96 120 -101 120 -12 0 -169 -118 -169 -128 0 -3 40 -58 88 -122
49 -63 91 -120 95 -126 4 -7 -61 -63 -168 -143 -96 -72 -179 -132 -183 -133
-5 -2 -88 60 -185 137 l-176 139 37 46 c20 25 64 80 99 122 35 43 63 81 63 86
0 5 -19 24 -42 42 -24 19 -61 49 -84 67 l-40 32 -100 -124 c-56 -70 -105 -122
-112 -120 -18 7 -362 287 -362 296 0 4 45 62 100 129 l100 122 -96 79 c-53 43
-98 79 -100 79 -2 0 -47 -53 -101 -118 -54 -65 -102 -119 -108 -120 -11 -2
-365 288 -365 300 0 3 45 60 100 125 55 65 100 120 100 123 0 3 -36 36 -81 73
-65 56 -83 66 -95 56 -8 -6 -55 -60 -106 -120 -50 -60 -94 -109 -97 -109 -8 0
-355 300 -359 309 -1 4 45 61 102 128 l105 120 -62 54 c-34 30 -69 59 -77 66
-13 10 -32 -8 -120 -108 -57 -65 -107 -119 -110 -119 -8 0 -280 240 -280 247
0 3 39 49 87 102 48 53 96 106 107 119 l20 23 -69 64 c-39 35 -73 64 -77 65
-4 0 -31 -26 -60 -57 -29 -32 -78 -85 -109 -117 l-57 -60 -153 141 c-85 77
-164 152 -176 165 l-23 24 112 118 c108 114 110 118 92 135 -10 10 -47 44 -82
76 l-63 59 -113 -119 -112 -119 -175 171 -174 172 115 115 115 116 -85 85
c-46 47 -89 85 -95 85 -5 0 -60 -50 -121 -111 l-110 -110 -127 130 c-70 72
-128 131 -130 131 -2 0 -8 -5 -15 -12z"/>
<path d="M2558 3363 c50 -54 110 -117 134 -140 l44 -43 114 115 115 115 57
-57 58 -58 -116 -116 -116 -116 209 -202 208 -202 111 117 111 117 29 -20 c16
-12 38 -30 48 -42 22 -24 28 -16 -132 -182 l-74 -76 179 -165 c98 -91 195
-180 215 -198 l38 -32 52 59 c29 32 78 85 109 117 l56 59 37 -28 c20 -15 36
-32 36 -38 0 -5 -39 -53 -87 -106 -48 -53 -95 -106 -106 -117 -18 -22 -18 -22
158 -179 161 -143 178 -155 193 -141 10 8 58 62 107 120 50 58 92 105 95 105
3 0 23 -15 44 -33 l39 -34 -108 -122 c-105 -118 -107 -122 -89 -139 20 -19
268 -232 366 -314 l56 -48 103 121 c56 66 106 120 110 120 11 0 88 -64 88 -74
1 -5 -45 -63 -100 -128 -99 -117 -101 -120 -83 -138 36 -35 418 -350 425 -350
3 0 50 54 104 120 54 66 102 120 106 120 7 0 119 -90 119 -95 0 -2 -45 -58
-100 -125 -55 -67 -98 -126 -94 -131 5 -9 409 -339 430 -352 10 -6 63 55 210
242 2 2 26 -15 53 -37 l51 -40 -102 -127 c-85 -107 -99 -128 -87 -139 8 -8 95
-78 194 -156 99 -79 187 -149 196 -157 14 -11 43 8 229 147 117 88 214 161
216 163 2 1 -33 50 -77 107 -45 58 -89 117 -99 131 l-19 26 50 37 c28 21 52
36 54 34 2 -2 45 -57 95 -123 51 -66 98 -120 105 -120 8 0 109 74 226 165 117
91 217 168 222 171 5 4 -33 60 -85 125 -52 66 -97 124 -101 130 -4 7 19 31 53
58 33 25 62 46 64 46 2 0 48 -56 102 -125 54 -69 100 -125 102 -125 1 0 104
81 227 181 l225 181 -100 122 c-55 68 -100 127 -99 132 0 10 77 74 88 74 4 0
52 -54 106 -120 54 -66 102 -120 105 -120 4 0 71 55 151 121 79 67 177 149
217 183 39 33 72 63 72 66 0 3 -47 59 -105 125 l-105 120 37 33 c20 17 40 32
44 32 6 0 83 -86 209 -233 6 -7 360 297 360 309 0 3 -46 57 -103 120 -56 63
-103 118 -105 123 -1 4 15 22 37 39 l39 32 108 -120 c106 -118 108 -119 129
-102 71 62 405 375 405 379 0 3 -50 57 -111 121 l-111 115 46 45 45 46 115
-120 115 -119 206 206 207 206 -116 113 -117 114 58 58 58 58 115 -115 116
-116 133 141 c74 77 130 144 126 148 -4 4 -18 -6 -32 -23 -14 -16 -71 -76
-126 -133 l-100 -103 -36 33 c-20 18 -73 69 -118 112 l-83 80 -64 -69 -64 -70
114 -115 115 -116 -196 -193 -196 -194 -114 119 -113 119 -58 -57 -57 -57 112
-117 c109 -113 112 -117 94 -135 -87 -84 -378 -349 -384 -349 -4 0 -53 51
-110 113 -57 61 -106 113 -109 115 -8 3 -100 -77 -100 -87 0 -5 48 -61 106
-125 104 -115 106 -118 88 -136 -57 -54 -308 -270 -314 -270 -4 0 -54 54 -111
119 -114 132 -101 127 -173 63 l-38 -33 53 -62 c29 -34 77 -90 107 -124 l53
-61 -143 -122 c-79 -67 -173 -147 -211 -177 l-67 -55 -20 25 c-11 14 -58 70
-104 125 l-83 100 -62 -49 -61 -50 22 -29 c13 -15 58 -71 102 -124 63 -78 76
-99 66 -111 -6 -7 -101 -86 -210 -175 l-200 -161 -97 125 c-54 69 -102 125
-106 126 -10 0 -146 -103 -146 -112 -1 -3 42 -61 94 -127 52 -66 95 -124 95
-129 0 -8 -402 -323 -420 -330 -4 -2 -51 54 -104 123 -54 69 -99 125 -102 125
-3 0 -32 -21 -65 -46 l-60 -46 24 -31 c134 -178 169 -228 165 -232 -3 -3 -94
-72 -203 -154 l-199 -149 -70 56 c-39 31 -127 101 -196 156 -69 55 -127 101
-129 102 -2 2 42 60 98 129 56 70 99 130 97 134 -3 5 -31 27 -61 51 -48 37
-58 41 -69 29 -7 -8 -54 -64 -103 -126 l-91 -112 -203 165 c-112 91 -207 169
-212 173 -4 4 38 62 94 130 55 67 99 126 97 131 -2 4 -34 33 -72 64 l-68 56
-102 -125 c-55 -68 -103 -124 -106 -124 -3 0 -84 65 -180 145 -96 81 -190 159
-208 174 l-33 27 105 124 106 124 -48 43 c-77 70 -66 74 -181 -63 l-104 -124
-91 77 c-50 42 -143 123 -208 179 l-117 101 51 59 c28 32 76 87 107 122 l56
64 -49 43 c-26 24 -51 44 -56 44 -4 0 -54 -54 -111 -119 -101 -117 -103 -119
-124 -103 -12 9 -87 75 -168 146 l-146 129 72 80 c39 44 89 99 109 122 l38 43
-51 47 -51 48 -72 -79 c-39 -43 -89 -98 -111 -121 l-40 -43 -195 180 c-107 99
-196 184 -198 189 -2 5 44 59 102 120 58 61 106 115 106 119 0 4 -24 31 -53
60 l-54 53 -110 -115 c-61 -64 -114 -116 -118 -116 -4 0 -94 84 -201 187
l-194 187 117 118 118 118 -68 67 -67 68 -87 -85 c-49 -47 -102 -98 -120 -114
l-32 -28 -121 126 c-68 69 -127 126 -132 126 -6 0 30 -44 80 -97z"/>
<path d="M6357 498 c-10 -59 -17 -115 -17 -126 0 -28 45 -55 68 -43 39 21 41
32 26 126 l-13 90 5 -92 c5 -86 4 -92 -16 -103 -17 -9 -25 -8 -39 4 -16 14
-16 24 -4 123 17 143 11 156 -10 21z"/>
<path d="M6412 575 c0 -16 2 -22 5 -12 2 9 2 23 0 30 -3 6 -5 -1 -5 -18z"/>
</g>
</svg>
