<?xml version="1.0" standalone="no"?>
<!DOCTYPE svg PUBLIC "-//W3C//DTD SVG 20010904//EN"
 "http://www.w3.org/TR/2001/REC-SVG-20010904/DTD/svg10.dtd">
<svg version="1.0" xmlns="http://www.w3.org/2000/svg"
 width="1280.000000pt" height="1280.000000pt" viewBox="0 0 1280.000000 1280.000000"
 preserveAspectRatio="xMidYMid meet">
<metadata>
Created by potrace 1.15, written by Peter Selinger 2001-2017
</metadata>
<g transform="translate(0.000000,1280.000000) scale(0.100000,-0.100000)"
fill="#000000" stroke="none">
<path d="M1315 11443 c-269 -38 -511 -226 -622 -483 -69 -161 -64 189 -61
-4185 3 -3755 4 -3953 21 -4010 87 -294 306 -507 591 -575 79 -19 134 -20
1994 -20 l1912 0 36 33 c64 58 55 152 -19 197 -31 20 -65 20 -1907 20 -2078 0
-1948 -4 -2083 67 -130 68 -228 189 -274 338 -17 58 -18 203 -18 3985 l0 3925
24 73 c60 184 214 327 401 373 46 12 866 14 5095 14 l5040 0 75 -23 c41 -13
100 -39 131 -58 116 -70 217 -208 250 -344 12 -46 14 -696 14 -3965 0 -3705
-1 -3913 -18 -3974 -54 -197 -219 -355 -414 -396 -58 -12 -356 -15 -1951 -15
-1624 0 -1887 -2 -1911 -14 -78 -41 -88 -153 -20 -210 l31 -26 1921 0 c1885 0
1924 1 2005 20 277 66 503 285 584 566 l23 79 0 3980 0 3980 -32 95 c-87 255
-268 436 -523 523 l-95 32 -5085 1 c-2797 1 -5098 -1 -5115 -3z"/>
<path d="M5909 2812 c-275 -91 -360 -415 -180 -684 68 -101 167 -198 361 -353
171 -137 260 -220 290 -268 l17 -28 38 49 c44 58 98 107 295 264 322 257 432
418 432 633 0 143 -49 245 -157 327 -110 83 -297 104 -416 45 -67 -32 -133
-97 -166 -160 l-24 -49 -25 50 c-30 61 -109 136 -172 165 -66 30 -215 34 -293
9z"/>
</g>
</svg>
