<?xml version="1.0" standalone="no"?>
<!DOCTYPE svg PUBLIC "-//W3C//DTD SVG 20010904//EN"
 "http://www.w3.org/TR/2001/REC-SVG-20010904/DTD/svg10.dtd">
<svg version="1.0" xmlns="http://www.w3.org/2000/svg"
 width="1280.000000pt" height="1280.000000pt" viewBox="0 0 1280.000000 1280.000000"
 preserveAspectRatio="xMidYMid meet">
<metadata>
Created by potrace 1.15, written by Peter Selinger 2001-2017
</metadata>
<g transform="translate(0.000000,1280.000000) scale(0.100000,-0.100000)"
fill="#000000" stroke="none">
<path d="M3676 12785 c-146 -52 -187 -256 -75 -374 77 -82 230 -80 314 4 143
142 40 387 -161 385 -22 -1 -56 -7 -78 -15z"/>
<path d="M5126 12786 c-86 -32 -136 -110 -136 -211 0 -163 132 -259 295 -214
53 15 120 85 136 141 28 103 -9 210 -91 264 -49 33 -145 42 -204 20z"/>
<path d="M6576 12785 c-84 -30 -136 -110 -136 -210 0 -69 23 -126 66 -167 81
-76 218 -78 301 -5 49 43 73 99 73 172 0 73 -24 129 -73 172 -59 52 -150 67
-231 38z"/>
<path d="M8026 12785 c-84 -30 -136 -110 -136 -210 0 -133 90 -225 220 -225
130 0 220 92 220 225 0 73 -24 129 -73 172 -59 52 -150 67 -231 38z"/>
<path d="M9476 12785 c-84 -30 -136 -110 -136 -210 0 -256 335 -311 435 -72
70 168 -119 347 -299 282z"/>
<path d="M2027 12626 c-60 -25 -74 -33 -120 -75 -66 -60 -96 -175 -63 -240 59
-114 239 -156 377 -88 201 98 238 316 68 401 -72 35 -178 36 -262 2z"/>
<path d="M3135 12521 c-47 -21 -69 -44 -88 -91 l-15 -34 -15 31 c-22 41 -70
80 -115 93 -75 21 -83 17 -170 -82 -206 -237 -364 -355 -543 -405 -97 -27
-334 -24 -504 7 -203 36 -193 35 -222 9 -45 -43 -66 -96 -61 -160 3 -40 1 -56
-6 -50 -46 37 -154 30 -212 -14 l-31 -24 -7 -128 c-13 -255 -54 -439 -128
-570 -42 -77 -183 -216 -288 -285 -47 -31 -139 -85 -205 -119 -66 -34 -123
-67 -127 -73 -14 -20 -8 -115 8 -156 9 -22 30 -51 48 -65 l31 -25 -31 0 c-61
0 -154 -99 -154 -163 0 -8 42 -78 93 -154 117 -172 159 -248 191 -343 35 -107
40 -171 22 -259 -27 -127 -121 -265 -268 -388 -74 -63 -79 -70 -74 -98 10 -48
51 -100 96 -121 l41 -20 -41 -18 c-44 -19 -86 -72 -95 -121 -6 -28 0 -35 67
-92 151 -128 255 -286 278 -421 31 -185 -68 -387 -278 -565 -67 -57 -73 -64
-67 -92 9 -47 50 -100 93 -122 l41 -20 -40 -17 c-43 -19 -85 -73 -95 -122 -5
-27 -1 -34 42 -70 171 -139 279 -297 304 -446 31 -180 -69 -384 -274 -558 -42
-35 -76 -70 -76 -77 0 -7 7 -31 16 -54 17 -42 82 -99 113 -99 9 -1 -5 -12 -30
-25 -48 -25 -82 -67 -94 -117 -7 -25 2 -37 95 -125 157 -149 227 -260 251
-397 30 -177 -74 -387 -276 -558 -41 -34 -75 -68 -75 -75 0 -7 7 -31 16 -54
18 -44 83 -99 117 -99 13 0 1 -10 -31 -26 -52 -26 -84 -64 -96 -117 -6 -26 2
-37 99 -129 205 -195 279 -364 241 -546 -29 -137 -134 -292 -279 -412 -37 -30
-67 -61 -67 -68 0 -20 29 -84 48 -106 9 -10 35 -27 56 -36 l39 -18 -30 -16
c-41 -21 -80 -69 -93 -114 -20 -72 -15 -85 52 -143 253 -216 384 -388 433
-565 37 -135 29 -339 -22 -607 -19 -101 -17 -107 46 -152 37 -26 51 -30 111
-30 44 0 65 -4 60 -10 -36 -45 -29 -154 15 -211 l24 -31 128 -7 c255 -13 446
-56 572 -129 136 -77 285 -260 407 -501 31 -61 62 -114 68 -118 20 -14 115 -8
156 8 22 9 51 30 65 48 l25 31 0 -31 c0 -61 99 -154 163 -154 8 0 78 42 154
93 222 151 341 207 468 221 73 9 181 -12 253 -48 77 -39 190 -134 267 -225 65
-77 72 -82 100 -77 48 10 100 51 121 96 l20 41 18 -41 c19 -44 72 -86 121 -95
28 -6 35 0 92 67 177 209 380 309 562 278 139 -23 294 -124 421 -274 60 -71
67 -77 95 -71 47 9 100 50 122 93 l20 41 17 -40 c19 -43 73 -85 121 -95 27 -5
35 1 88 63 185 216 382 314 566 283 139 -23 298 -127 423 -275 34 -41 68 -75
75 -75 7 0 31 7 54 16 42 17 99 82 99 113 0 9 13 -7 30 -35 21 -38 41 -57 73
-73 24 -12 49 -21 56 -21 7 0 58 47 113 105 195 205 364 279 546 241 137 -29
295 -136 411 -279 30 -37 62 -67 70 -67 57 1 137 67 148 122 5 26 6 26 30 -22
25 -50 64 -82 116 -94 27 -6 37 1 129 98 193 204 364 281 544 243 153 -32 281
-123 436 -306 38 -44 38 -44 76 -33 54 16 91 48 112 95 l18 40 16 -30 c21 -41
69 -80 114 -93 70 -19 85 -14 137 47 223 260 391 388 576 440 97 27 345 24
504 -6 194 -36 193 -36 216 -15 12 11 32 38 46 62 21 36 25 52 21 102 -3 41
-1 57 6 51 46 -37 154 -30 212 14 l31 24 6 125 c13 252 57 449 130 575 77 136
260 285 501 407 61 31 114 62 118 68 14 20 8 115 -8 156 -9 22 -30 51 -48 65
-30 24 -30 25 -8 25 64 0 144 74 158 145 5 29 -4 47 -89 171 -151 222 -206
340 -222 474 -8 68 14 178 49 248 39 77 136 192 226 268 75 64 81 71 75 99 -9
48 -50 100 -95 121 l-41 20 41 18 c44 19 86 72 96 122 5 28 0 34 -65 88 -211
177 -312 380 -281 565 23 139 127 298 275 423 41 34 75 68 75 75 0 7 -7 31
-16 54 -17 42 -81 99 -113 99 -9 1 4 10 27 22 47 23 88 75 98 124 5 27 1 34
-39 67 -232 190 -339 395 -307 586 23 139 127 298 275 423 41 34 75 68 75 75
0 7 -7 31 -16 54 -17 42 -82 99 -113 99 -9 0 4 12 29 26 54 30 76 57 90 107
l11 38 -101 96 c-157 149 -227 260 -251 397 -30 177 75 390 276 558 41 34 75
69 75 78 -1 29 -38 97 -66 119 -16 12 -41 25 -57 28 l-28 6 39 17 c51 23 90
66 103 113 l10 39 -105 99 c-180 171 -251 304 -250 469 1 94 23 162 85 267 35
57 150 182 228 246 44 37 44 37 33 75 -16 54 -48 91 -95 112 l-40 18 30 16
c41 21 80 69 93 114 21 75 17 83 -82 170 -237 206 -355 364 -404 543 -28 98
-25 335 5 504 37 203 36 193 10 222 -43 45 -96 66 -160 61 -40 -3 -56 -1 -50
6 37 46 30 154 -14 212 l-24 31 -132 7 c-529 29 -727 156 -970 622 -35 65 -67
122 -73 126 -20 14 -115 8 -156 -8 -22 -9 -51 -30 -65 -48 l-25 -31 0 31 c0
61 -99 154 -163 154 -9 0 -79 -42 -155 -94 -220 -150 -338 -205 -472 -221
-163 -19 -352 81 -515 275 -65 76 -72 81 -100 76 -48 -10 -100 -51 -121 -96
l-20 -41 -18 41 c-19 44 -72 86 -122 96 -27 5 -34 1 -70 -43 -98 -120 -219
-219 -327 -268 -220 -100 -463 -13 -679 241 -58 69 -65 75 -93 69 -47 -9 -100
-50 -122 -93 l-20 -41 -17 40 c-19 44 -73 85 -122 95 -26 5 -35 1 -53 -23 -46
-59 -168 -177 -227 -219 -219 -157 -432 -146 -654 33 -41 34 -104 95 -140 137
-35 42 -70 76 -77 76 -7 0 -31 -7 -54 -16 -42 -17 -99 -82 -99 -113 0 -9 -13
7 -30 35 -21 38 -41 57 -73 73 -24 12 -49 21 -56 21 -7 0 -58 -47 -113 -105
-195 -204 -365 -279 -544 -242 -137 29 -284 127 -404 270 -35 42 -71 77 -80
77 -29 -1 -97 -38 -119 -66 -12 -16 -25 -41 -28 -57 l-6 -28 -17 39 c-23 51
-66 90 -113 103 l-39 10 -99 -105 c-194 -204 -365 -281 -545 -243 -136 29
-284 128 -405 271 -35 41 -71 75 -79 76 -8 0 -33 -9 -55 -19z m3 -227 c228
-163 335 -317 335 -485 1 -67 -4 -86 -35 -150 -59 -125 -169 -239 -345 -357
l-61 -42 -103 108 c-126 131 -181 205 -227 301 -30 62 -36 88 -40 156 -8 145
43 259 168 384 67 66 182 151 205 151 7 0 53 -29 103 -66z m1448 4 c281 -199
393 -416 317 -613 -46 -118 -167 -251 -334 -365 l-85 -59 -65 49 c-152 114
-264 250 -307 374 -20 59 -24 84 -20 153 4 72 10 93 46 167 29 58 64 108 114
162 78 83 211 194 232 194 8 0 53 -28 102 -62z m1440 6 c215 -154 321 -288
347 -439 28 -162 -77 -340 -296 -503 -153 -113 -133 -108 -208 -52 -35 26
-103 88 -150 137 -67 70 -96 109 -130 178 -43 87 -44 90 -44 190 0 99 1 103
42 187 30 60 65 110 115 164 78 83 211 194 233 194 7 0 48 -25 91 -56z m1460
-6 c106 -74 236 -203 281 -279 35 -59 63 -152 63 -209 0 -92 -58 -214 -148
-312 -57 -61 -182 -163 -258 -211 l-41 -26 -79 63 c-371 294 -412 577 -124
867 92 93 184 168 206 169 6 0 51 -28 100 -62z m1437 10 c245 -169 370 -354
354 -525 -10 -106 -61 -199 -171 -308 -50 -51 -131 -119 -180 -153 l-89 -61
-46 32 c-25 18 -93 79 -151 137 -112 112 -154 176 -185 284 -55 190 56 404
310 600 33 25 65 46 71 46 6 0 45 -24 87 -52z m1534 -91 c244 -257 287 -513
115 -698 -70 -76 -141 -126 -312 -223 -105 -59 -137 -73 -146 -63 -19 20 -125
207 -156 277 -66 146 -86 305 -53 416 32 108 140 219 280 289 70 34 169 73
191 74 6 1 43 -32 81 -72z m-8661 -402 c274 -52 396 -233 364 -540 -9 -86 -47
-326 -53 -331 -7 -7 -286 40 -363 61 -282 74 -394 224 -381 505 5 112 39 266
64 291 29 29 250 37 369 14z m2060 -339 c126 -33 275 -149 396 -308 65 -86 75
-90 138 -58 40 20 72 58 85 99 7 22 8 21 25 -16 21 -48 76 -92 122 -99 32 -5
36 -1 108 92 275 353 555 398 834 133 46 -44 110 -113 142 -154 62 -82 73 -86
134 -55 40 20 72 58 85 99 7 22 8 21 25 -16 21 -48 75 -92 122 -99 32 -6 36
-3 88 66 167 225 352 340 524 327 85 -6 139 -26 226 -82 70 -45 189 -164 259
-257 48 -64 61 -68 121 -38 40 20 72 58 85 99 7 24 8 24 22 -10 18 -44 40 -67
85 -90 59 -30 71 -26 130 54 117 155 246 261 372 305 59 20 83 24 146 19 41
-3 95 -13 120 -23 114 -44 261 -170 366 -311 51 -69 64 -74 122 -44 45 23 66
46 86 91 8 19 15 28 16 20 1 -47 95 -130 148 -130 12 0 40 27 75 73 337 439
740 436 889 -8 15 -44 33 -81 41 -83 21 -4 78 40 97 74 l16 32 12 -58 c11 -53
35 -90 58 -90 6 0 30 21 54 46 63 64 181 141 247 160 131 38 243 -4 298 -111
28 -55 30 -66 30 -169 -1 -99 -4 -121 -33 -201 -29 -83 -30 -91 -15 -102 23
-17 76 -16 120 2 48 20 49 20 19 -16 -29 -35 -39 -64 -34 -104 l3 -28 160 -1
c155 -1 162 -2 223 -30 249 -115 197 -386 -109 -571 -50 -31 -58 -39 -49 -55
15 -28 58 -59 101 -72 l39 -11 -37 -17 c-59 -27 -103 -86 -103 -139 0 -10 29
-38 67 -66 37 -27 99 -81 138 -120 293 -291 253 -579 -122 -872 -91 -71 -95
-80 -63 -143 20 -40 58 -72 99 -85 22 -7 22 -8 -15 -25 -60 -27 -104 -86 -104
-139 0 -10 28 -38 65 -65 88 -64 202 -179 249 -250 135 -204 109 -405 -81
-607 -43 -45 -112 -108 -155 -141 -86 -65 -90 -75 -58 -138 20 -40 58 -72 99
-85 22 -7 21 -8 -16 -25 -48 -21 -92 -75 -99 -122 -6 -32 -3 -36 66 -88 40
-29 103 -83 139 -120 246 -246 253 -488 20 -734 -44 -46 -113 -110 -154 -142
-82 -62 -86 -73 -55 -134 20 -40 58 -72 99 -85 22 -7 21 -8 -16 -25 -48 -21
-92 -75 -99 -122 -6 -33 -3 -36 68 -90 148 -112 259 -245 304 -363 14 -36 19
-76 19 -141 0 -87 -2 -94 -43 -177 -49 -100 -155 -219 -277 -313 -82 -62 -86
-73 -56 -132 23 -45 46 -67 90 -85 33 -14 33 -14 9 -20 -37 -10 -76 -44 -98
-88 -31 -60 -27 -71 53 -132 439 -337 436 -740 -8 -889 -44 -15 -81 -33 -83
-41 -4 -21 40 -78 74 -97 l32 -16 -56 -12 c-30 -6 -66 -21 -78 -33 l-23 -22
73 -79 c47 -50 88 -107 112 -155 36 -70 39 -83 39 -158 0 -73 -3 -86 -30 -131
-24 -37 -44 -56 -90 -79 -55 -28 -66 -30 -169 -30 -99 1 -121 4 -201 33 -83
29 -91 30 -102 15 -17 -22 -16 -76 1 -118 8 -19 13 -35 11 -35 -2 0 -21 11
-41 25 -36 25 -107 35 -118 17 -3 -4 -2 -42 2 -83 23 -244 -53 -414 -199 -449
-130 -31 -292 72 -402 256 -18 31 -39 54 -48 54 -24 0 -66 -53 -80 -100 l-12
-40 -17 37 c-27 59 -86 103 -139 103 -10 0 -38 -29 -66 -67 -27 -37 -81 -99
-120 -138 -291 -293 -579 -253 -872 122 -71 91 -80 95 -143 63 -40 -20 -72
-58 -85 -99 -7 -22 -8 -21 -25 16 -21 48 -75 92 -122 99 -32 6 -36 3 -88 -68
-30 -40 -84 -102 -121 -139 -247 -244 -487 -251 -733 -18 -46 44 -110 113
-142 154 -62 82 -73 86 -134 55 -40 -20 -72 -58 -85 -99 -7 -22 -8 -21 -25 16
-21 48 -75 92 -122 99 -32 6 -36 3 -85 -63 -67 -89 -173 -195 -247 -246 -203
-138 -405 -110 -610 84 -46 44 -110 113 -142 154 -62 82 -73 86 -134 55 -40
-20 -72 -58 -85 -99 -7 -24 -8 -24 -22 10 -18 44 -40 67 -85 90 -59 30 -71 25
-126 -49 -57 -77 -179 -199 -235 -238 -21 -14 -69 -40 -105 -57 -61 -29 -76
-32 -163 -32 -93 0 -98 1 -184 44 -100 50 -215 152 -311 277 -62 81 -73 85
-132 55 -45 -23 -66 -46 -86 -91 -8 -19 -15 -28 -16 -20 -1 47 -95 130 -148
130 -12 0 -41 -28 -76 -74 -113 -147 -258 -265 -378 -305 -224 -76 -420 45
-510 314 -15 44 -33 81 -41 83 -21 4 -78 -40 -97 -74 l-16 -32 -12 58 c-11 53
-35 90 -58 90 -6 0 -30 -21 -54 -46 -63 -64 -181 -141 -247 -160 -131 -38
-243 4 -298 111 -28 55 -30 66 -29 169 0 98 4 122 31 201 29 82 30 91 15 102
-21 17 -75 16 -117 -1 -19 -8 -35 -13 -35 -11 0 2 11 21 25 42 19 27 25 47 23
77 l-3 39 -160 1 c-155 1 -162 2 -223 30 -243 112 -198 380 93 561 64 40 73
49 65 65 -15 28 -58 59 -101 72 l-39 11 37 17 c59 27 103 86 103 139 0 10 -29
38 -67 66 -37 27 -99 81 -138 120 -251 249 -259 491 -24 739 44 47 114 111
155 141 81 62 86 73 54 135 -20 40 -58 72 -99 85 -22 7 -21 8 16 25 48 21 92
75 99 122 5 31 2 36 -67 88 -40 30 -103 85 -139 121 -245 245 -252 487 -19
733 44 46 113 110 154 142 82 62 86 73 55 134 -20 40 -58 72 -99 85 -22 7 -21
8 16 25 48 21 92 75 99 122 6 33 3 36 -68 90 -40 30 -102 83 -136 118 -248
247 -254 492 -19 737 44 45 113 108 153 139 81 62 85 73 54 134 -20 40 -58 72
-99 85 -24 7 -24 8 10 22 44 18 67 40 90 85 30 59 26 70 -55 132 -125 96 -227
211 -277 311 -42 85 -44 92 -44 179 0 65 5 105 19 141 45 118 156 251 304 363
79 59 83 71 53 130 -23 45 -46 66 -91 86 -19 8 -28 15 -20 16 47 1 130 95 130
148 0 12 -27 40 -73 75 -439 337 -436 740 8 889 44 15 81 33 83 41 4 21 -40
78 -74 97 l-32 16 57 12 c36 8 66 21 79 35 l22 23 -51 50 c-69 67 -145 184
-165 251 -38 131 4 243 111 298 55 28 66 30 169 29 98 0 122 -4 201 -31 82
-29 91 -30 103 -15 16 22 15 75 -3 119 -20 47 -19 50 8 26 12 -11 32 -26 44
-32 25 -13 89 -15 97 -3 3 4 1 42 -3 84 -22 237 54 412 196 447 128 33 286
-63 395 -239 25 -41 50 -70 60 -70 23 0 65 53 79 100 l12 40 17 -38 c22 -48
71 -89 117 -98 32 -6 39 -4 57 22 215 296 424 415 632 360z m7779 -51 c121
-26 165 -44 177 -74 19 -49 22 -249 5 -340 -54 -281 -232 -403 -542 -371 -86
9 -326 47 -331 53 -5 6 39 283 56 352 24 95 76 205 123 260 44 50 126 100 197
119 72 19 227 20 315 1z m-10470 -776 c67 -25 167 -114 228 -204 23 -33 74
-118 114 -190 84 -151 93 -123 -71 -219 -112 -65 -235 -118 -315 -135 -73 -15
-188 -14 -247 4 -142 42 -279 209 -349 424 l-17 53 53 55 c200 204 420 281
604 212z m10813 -527 c106 -34 217 -121 314 -248 77 -101 78 -102 28 -176 -73
-107 -168 -215 -233 -263 -180 -136 -322 -146 -497 -37 -75 47 -192 169 -267
279 l-63 91 106 101 c153 148 260 222 369 257 60 19 174 17 243 -4z m-10819
-888 c94 -46 228 -176 319 -308 l61 -89 -32 -46 c-18 -25 -79 -93 -137 -151
-112 -112 -176 -154 -284 -185 -157 -46 -340 26 -502 196 -66 70 -144 170
-144 186 0 17 103 160 168 232 180 201 366 257 551 165z m10844 -572 c59 -29
109 -64 163 -114 83 -78 194 -211 194 -233 0 -15 -93 -147 -158 -223 -89 -105
-213 -187 -320 -212 -176 -41 -381 86 -560 348 l-61 88 51 68 c111 148 246
259 367 303 55 20 81 23 153 20 78 -3 95 -7 171 -45z m-10910 -852 c126 -39
261 -157 388 -338 l58 -85 -32 -46 c-18 -25 -79 -93 -137 -151 -111 -111 -185
-160 -284 -186 -193 -51 -404 57 -593 303 -66 87 -69 75 41 220 120 160 239
256 356 287 76 20 127 19 203 -4z m10913 -599 c61 -30 106 -63 169 -122 83
-80 185 -203 185 -225 0 -16 -100 -155 -165 -230 -100 -114 -218 -188 -330
-207 -162 -28 -340 77 -503 296 -113 153 -108 133 -52 208 112 149 253 265
376 309 48 17 76 20 147 17 80 -4 97 -9 173 -46z m-10931 -846 c122 -32 245
-130 363 -288 113 -153 108 -133 51 -209 -85 -114 -218 -231 -316 -280 -85
-42 -89 -43 -188 -43 -99 0 -103 1 -188 43 -61 30 -108 64 -165 117 -79 74
-192 211 -192 232 0 15 102 156 165 229 115 130 254 210 375 213 20 1 62 -6
95 -14z m10856 -575 c35 -11 88 -34 117 -50 68 -40 186 -152 258 -246 67 -87
68 -77 -26 -204 -322 -434 -632 -423 -957 35 l-63 87 30 42 c128 177 299 315
426 345 66 15 149 12 215 -9z m-10810 -890 c118 -47 244 -162 358 -329 l60
-87 -45 -60 c-65 -87 -187 -207 -257 -253 -95 -61 -175 -84 -274 -79 -72 4
-93 10 -167 46 -58 29 -108 64 -162 114 -83 78 -194 211 -194 232 0 26 126
192 206 271 83 83 181 145 260 165 56 13 152 5 215 -20z m10840 -569 c111 -42
251 -161 359 -304 51 -69 53 -62 -54 -205 -209 -277 -409 -359 -624 -256 -94
45 -228 174 -320 308 l-61 89 32 46 c18 25 79 94 137 152 90 91 117 112 190
147 47 22 96 43 110 46 52 10 176 -2 231 -23z m-10847 -878 c119 -46 251 -167
366 -335 l60 -86 -108 -103 c-131 -126 -205 -181 -301 -227 -126 -60 -279 -55
-396 14 -97 57 -240 204 -282 290 -15 31 -15 33 31 101 202 302 426 425 630
346z m10809 -562 c146 -51 267 -191 343 -399 l27 -73 -54 -55 c-116 -118 -259
-205 -383 -231 -128 -27 -240 4 -337 95 -86 79 -140 157 -258 374 l-42 77 103
61 c133 79 238 130 313 151 84 25 217 24 288 0z m-10215 -756 c79 -13 145 -25
147 -27 6 -6 -36 -277 -55 -353 -54 -212 -161 -337 -325 -380 -111 -28 -287
-16 -428 31 -61 20 -67 35 -74 184 -12 262 71 453 231 529 115 55 237 59 504
16z m9148 -300 c421 -58 584 -201 584 -510 0 -91 -17 -189 -46 -278 -20 -61
-35 -67 -184 -74 -262 -12 -454 71 -529 230 -56 118 -60 249 -16 512 26 153
23 145 53 140 15 -3 77 -11 138 -20z m-8101 -382 c117 -206 155 -317 155 -454
0 -95 -19 -160 -67 -229 -68 -97 -216 -195 -372 -245 l-53 -17 -55 53 c-119
117 -203 258 -230 383 -36 171 34 314 215 444 79 56 323 192 334 186 4 -3 37
-57 73 -121z m1405 -83 c112 -112 154 -176 185 -284 46 -157 -26 -340 -196
-502 -70 -66 -170 -144 -186 -144 -5 0 -45 25 -89 55 -246 172 -367 351 -351
522 10 108 62 200 176 313 53 53 134 121 180 152 l84 57 46 -32 c25 -18 93
-79 151 -137z m1450 0 c152 -151 209 -272 197 -414 -13 -154 -122 -316 -313
-462 -87 -67 -77 -68 -204 26 -375 279 -417 551 -127 827 40 38 113 97 161
131 l89 61 46 -32 c25 -17 93 -79 151 -137z m1398 56 c100 -89 160 -164 205
-255 41 -82 42 -87 42 -186 0 -99 -1 -103 -43 -188 -49 -99 -148 -211 -267
-303 -88 -67 -78 -68 -205 26 -303 225 -387 442 -258 669 42 73 180 210 291
288 l89 63 41 -29 c23 -16 71 -54 105 -85z m1389 52 c154 -122 248 -239 291
-362 20 -59 24 -84 20 -153 -4 -72 -10 -93 -48 -170 -36 -74 -60 -105 -144
-189 -56 -55 -123 -116 -150 -134 l-49 -33 -31 18 c-72 43 -186 133 -252 202
-114 116 -174 255 -160 365 20 147 125 289 316 429 67 49 122 87 127 88 1 1
37 -27 80 -61z m1627 -222 c25 -35 60 -94 78 -132 31 -64 33 -76 33 -174 0
-95 -3 -111 -30 -170 -47 -102 -121 -187 -251 -287 -78 -61 -85 -61 -156 -13
-273 186 -401 380 -369 561 26 149 141 292 354 441 l82 58 107 -110 c59 -61
127 -139 152 -174z"/>
<path d="M11165 12369 c-76 -19 -126 -67 -146 -141 -24 -87 39 -219 134 -281
70 -46 107 -57 191 -57 136 1 216 67 216 179 0 174 -221 343 -395 300z"/>
<path d="M642 11543 c-97 -34 -200 -169 -217 -285 -16 -104 48 -212 140 -238
107 -30 256 54 317 178 27 55 36 174 19 233 -33 109 -139 155 -259 112z"/>
<path d="M12305 10951 c-146 -88 -155 -327 -18 -466 119 -120 272 -107 338 29
24 50 27 64 23 138 -4 94 -32 168 -88 232 -69 78 -187 109 -255 67z"/>
<path d="M150 9774 c-149 -65 -198 -246 -97 -361 43 -49 99 -73 172 -73 172 0
274 160 201 316 -49 106 -177 161 -276 118z"/>
<path d="M12529 9261 c-67 -13 -125 -56 -153 -113 -46 -92 -32 -193 37 -262
142 -141 387 -43 387 155 0 143 -129 247 -271 220z"/>
<path d="M125 8311 c-166 -75 -166 -327 0 -402 50 -23 143 -24 193 -3 176 73
176 335 0 408 -50 21 -143 20 -193 -3z"/>
<path d="M12475 7793 c-103 -54 -147 -160 -114 -276 41 -149 259 -197 374 -82
107 106 78 287 -56 356 -48 24 -160 26 -204 2z"/>
<path d="M125 6861 c-166 -75 -166 -327 0 -402 50 -23 143 -24 193 -3 172 72
177 328 7 405 -24 11 -63 19 -100 19 -37 0 -76 -8 -100 -19z"/>
<path d="M12475 6341 c-171 -79 -165 -340 10 -407 65 -25 161 -16 214 19 144
95 130 318 -24 388 -53 25 -147 24 -200 0z"/>
<path d="M141 5417 c-19 -6 -54 -29 -77 -51 -108 -104 -75 -295 61 -357 55
-25 154 -25 203 0 164 85 163 327 -3 402 -45 21 -130 23 -184 6z"/>
<path d="M12475 4891 c-171 -79 -166 -333 7 -405 50 -21 143 -20 193 3 76 34
125 113 125 201 0 88 -49 167 -125 201 -53 25 -147 24 -200 0z"/>
<path d="M140 3967 c-47 -15 -116 -86 -129 -133 -44 -159 55 -296 214 -296
160 0 258 136 214 297 -14 50 -84 120 -136 134 -47 13 -117 12 -163 -2z"/>
<path d="M12475 3441 c-179 -83 -162 -336 28 -416 99 -41 224 13 273 119 54
116 9 247 -101 297 -53 25 -147 24 -200 0z"/>
<path d="M260 2378 c-30 -16 -55 -41 -75 -73 -28 -45 -30 -55 -30 -144 0 -82
4 -104 26 -151 52 -111 142 -180 234 -180 53 0 89 16 126 57 51 55 64 91 64
188 0 78 -4 97 -28 147 -71 144 -210 213 -317 156z"/>
<path d="M12113 1771 c-144 -49 -223 -162 -223 -315 0 -78 21 -136 61 -173 77
-70 203 -54 304 39 133 121 160 316 56 413 -57 55 -114 65 -198 36z"/>
<path d="M1345 891 c-131 -61 -142 -216 -23 -346 121 -133 310 -160 411 -59
47 47 63 106 48 171 -27 111 -108 202 -210 238 -62 21 -176 19 -226 -4z"/>
<path d="M10608 591 c-224 -88 -278 -326 -94 -416 50 -24 64 -27 138 -23 134
6 243 68 294 169 56 111 15 213 -106 268 -59 27 -166 27 -232 2z"/>
<path d="M3145 426 c-60 -28 -87 -56 -114 -116 -95 -209 183 -409 356 -257 49
43 73 99 73 172 0 73 -24 129 -73 172 -65 57 -159 68 -242 29z"/>
<path d="M4595 431 c-81 -38 -125 -111 -125 -208 0 -71 25 -127 73 -170 81
-71 213 -71 294 0 95 84 99 253 7 339 -62 58 -171 75 -249 39z"/>
<path d="M6056 435 c-84 -30 -136 -110 -136 -210 0 -75 25 -131 76 -173 113
-93 287 -56 345 73 25 53 24 147 0 200 -48 104 -169 151 -285 110z"/>
<path d="M7506 435 c-145 -52 -184 -257 -70 -372 107 -106 294 -74 355 62 25
55 25 154 0 203 -53 103 -171 148 -285 107z"/>
<path d="M8955 435 c-49 -17 -111 -84 -125 -134 -43 -156 58 -301 211 -301
175 0 279 187 192 342 -53 94 -167 132 -278 93z"/>
</g>
</svg>
