<?xml version="1.0" standalone="no"?>
<!DOCTYPE svg PUBLIC "-//W3C//DTD SVG 20010904//EN"
 "http://www.w3.org/TR/2001/REC-SVG-20010904/DTD/svg10.dtd">
<svg version="1.0" xmlns="http://www.w3.org/2000/svg"
 width="1280.000000pt" height="1280.000000pt" viewBox="0 0 1280.000000 1280.000000"
 preserveAspectRatio="xMidYMid meet">
<metadata>
Created by potrace 1.15, written by Peter Selinger 2001-2017
</metadata>
<g transform="translate(0.000000,1280.000000) scale(0.100000,-0.100000)"
fill="#000000" stroke="none">
<path d="M0 6400 l0 -6400 6400 0 6400 0 0 6400 0 6400 -6400 0 -6400 0 0
-6400z m12772 1317 c2 -2778 2 -5645 0 -6369 l-2 -1318 -5053 -2 c-2778 -2
-5645 -2 -6369 0 l-1318 2 -2 5053 c-2 2778 -2 5645 0 6369 l2 1318 5048 2
c2776 2 5642 2 6369 0 l1323 -2 2 -5053z"/>
<path d="M50 6400 l0 -6350 6350 0 6350 0 0 6350 0 6350 -6350 0 -6350 0 0
-6350z m11760 0 l0 -5410 -5410 0 -5410 0 0 5410 0 5410 5410 0 5410 0 0
-5410z"/>
<path d="M1000 6400 l0 -5400 5400 0 5400 0 0 5400 0 5400 -5400 0 -5400 0 0
-5400z m10767 5367 c4 -5 4 -10729 0 -10734 -5 -4 -10729 -4 -10734 0 -2 3 -3
2080 -3 9919 l0 818 818 2 c1122 4 9915 -1 9919 -5z"/>
</g>
</svg>
