<?xml version="1.0" standalone="no"?>
<!DOCTYPE svg PUBLIC "-//W3C//DTD SVG 20010904//EN"
 "http://www.w3.org/TR/2001/REC-SVG-20010904/DTD/svg10.dtd">
<svg version="1.0" xmlns="http://www.w3.org/2000/svg"
 width="1280.000000pt" height="1280.000000pt" viewBox="0 0 1280.000000 1280.000000"
 preserveAspectRatio="xMidYMid meet">
<metadata>
Created by potrace 1.15, written by Peter Selinger 2001-2017
</metadata>
<g transform="translate(0.000000,1280.000000) scale(0.100000,-0.100000)"
fill="#000000" stroke="none">
<path d="M6045 11397 c-83 -33 -127 -72 -166 -147 -19 -37 -23 -61 -24 -131 0
-79 3 -91 39 -164 45 -91 124 -175 284 -304 114 -92 167 -141 200 -186 20 -28
23 -29 33 -12 25 42 79 93 193 184 238 190 328 307 342 449 18 170 -98 310
-267 322 -117 8 -209 -43 -254 -141 l-23 -48 -22 45 c-27 56 -96 119 -148 134
-49 15 -148 14 -187 -1z"/>
<path d="M2460 10976 c-186 -42 -355 -146 -473 -291 -55 -68 -128 -211 -154
-300 -17 -56 -18 -169 -21 -1652 l-2 -1593 70 0 70 0 0 1563 c0 1362 2 1570
15 1627 52 221 227 410 455 492 l65 23 1610 5 1610 5 3 68 3 67 -1598 -1
c-1219 -1 -1611 -4 -1653 -13z"/>
<path d="M7092 10923 l3 -68 1610 -5 1610 -5 65 -23 c175 -63 322 -190 397
-342 78 -157 73 -33 73 -1777 l0 -1563 70 0 70 0 -2 1593 c-3 1792 4 1626 -82
1802 -81 164 -206 289 -371 370 -176 87 -6 80 -1828 83 l-1618 2 3 -67z"/>
<path d="M1540 6881 c-123 -40 -198 -132 -208 -256 -12 -157 67 -284 287 -463
125 -101 217 -186 240 -224 l17 -27 34 47 c19 25 100 99 180 164 180 145 250
219 298 317 34 68 37 82 37 155 -1 98 -23 155 -85 215 -112 109 -302 106 -400
-5 -18 -21 -39 -53 -47 -72 l-15 -35 -19 44 c-42 94 -114 140 -224 145 -38 2
-81 0 -95 -5z"/>
<path d="M10569 6876 c-96 -34 -158 -99 -185 -195 -45 -153 37 -321 237 -486
205 -169 239 -199 265 -236 15 -21 29 -39 33 -39 3 0 17 16 31 36 13 20 94 94
180 164 225 184 289 260 325 384 24 82 16 168 -21 236 -106 195 -392 200 -488
9 l-25 -51 -14 34 c-22 53 -77 109 -132 134 -57 27 -147 31 -206 10z"/>
<path d="M1812 4113 c3 -1844 -4 -1672 83 -1848 81 -165 207 -291 370 -370
179 -87 6 -80 1828 -83 l1618 -2 -3 67 -3 68 -1610 5 -1610 5 -65 23 c-110 39
-190 91 -270 171 -84 85 -129 155 -168 263 l-27 73 -3 1633 -2 1632 -70 0 -70
0 2 -1637z"/>
<path d="M10848 4118 l-3 -1633 -27 -73 c-39 -109 -84 -178 -168 -262 -86 -85
-151 -127 -260 -167 l-75 -28 -1610 -5 -1610 -5 -3 -68 -3 -67 1618 2 c1822 3
1649 -4 1828 83 163 79 290 206 370 370 87 178 80 3 83 1848 l2 1637 -70 0
-70 0 -2 -1632z"/>
<path d="M6035 2350 c-149 -59 -219 -220 -166 -378 40 -118 101 -192 271 -330
125 -102 216 -187 240 -225 l17 -27 29 41 c16 23 99 99 184 169 224 184 278
247 321 372 65 192 -53 377 -251 395 -109 10 -219 -51 -256 -142 -11 -25 -21
-45 -24 -45 -4 0 -12 16 -19 36 -17 48 -65 101 -115 126 -59 31 -166 34 -231
8z"/>
</g>
</svg>
