<?xml version="1.0" standalone="no"?>
<!DOCTYPE svg PUBLIC "-//W3C//DTD SVG 20010904//EN"
 "http://www.w3.org/TR/2001/REC-SVG-20010904/DTD/svg10.dtd">
<svg version="1.0" xmlns="http://www.w3.org/2000/svg"
 width="1257.000000pt" height="1280.000000pt" viewBox="0 0 1257.000000 1280.000000"
 preserveAspectRatio="xMidYMid meet">
<metadata>
Created by potrace 1.15, written by Peter Selinger 2001-2017
</metadata>
<g transform="translate(0.000000,1280.000000) scale(0.100000,-0.100000)"
fill="#000000" stroke="none">
<path d="M10 11245 c0 -850 4 -1545 8 -1545 4 0 34 27 67 60 35 35 68 60 80
60 17 -1 16 -3 -7 -16 -34 -18 -48 -43 -48 -87 0 -38 32 -87 58 -87 12 -1 8
-6 -10 -16 -34 -18 -48 -43 -48 -87 0 -38 32 -87 58 -87 12 -1 8 -6 -10 -16
-35 -18 -48 -43 -48 -89 0 -37 35 -85 62 -85 7 -1 1 -7 -14 -16 -35 -18 -48
-43 -48 -89 0 -37 35 -85 62 -85 7 -1 1 -7 -14 -16 -35 -18 -48 -43 -48 -89 0
-37 35 -85 62 -85 7 -1 1 -7 -14 -16 -35 -18 -48 -43 -48 -89 0 -37 35 -85 62
-85 7 -1 1 -7 -14 -16 -35 -18 -48 -43 -48 -89 0 -37 35 -85 62 -85 7 -1 1 -7
-14 -16 -34 -18 -48 -43 -48 -84 0 -41 14 -66 48 -84 18 -10 22 -15 10 -16
-26 0 -58 -49 -58 -87 0 -44 14 -69 48 -87 18 -10 22 -15 10 -16 -27 0 -58
-49 -58 -89 0 -40 11 -59 50 -85 18 -12 20 -16 8 -16 -27 0 -58 -49 -58 -91 0
-28 7 -44 28 -64 l29 -27 -29 -28 c-46 -46 -33 -133 23 -152 7 -2 -1 -16 -20
-35 -24 -24 -31 -40 -31 -70 0 -38 23 -76 51 -85 7 -2 -1 -16 -20 -35 -44 -44
-44 -100 0 -137 l31 -26 -31 -26 c-26 -21 -31 -33 -31 -69 0 -36 5 -48 31 -69
l31 -26 -31 -26 c-26 -21 -31 -33 -31 -69 0 -36 5 -48 31 -69 l31 -26 -31 -26
c-26 -21 -31 -33 -31 -69 0 -36 5 -48 31 -69 l31 -26 -31 -26 c-44 -37 -44
-93 0 -137 19 -19 27 -33 20 -35 -56 -19 -69 -106 -23 -152 l29 -28 -29 -27
c-21 -20 -28 -36 -28 -64 0 -42 31 -91 58 -91 12 -1 8 -6 -10 -16 -34 -18 -48
-43 -48 -87 0 -38 32 -87 58 -87 12 -1 8 -6 -10 -16 -34 -18 -48 -43 -48 -87
0 -38 32 -87 58 -87 12 -1 8 -6 -10 -16 -34 -18 -48 -43 -48 -87 0 -38 32 -87
58 -87 12 -1 8 -6 -10 -16 -35 -18 -48 -43 -48 -89 0 -37 35 -85 62 -85 7 -1
1 -7 -14 -16 -35 -18 -48 -43 -48 -89 0 -37 35 -85 62 -85 7 -1 1 -7 -14 -16
-35 -18 -48 -43 -48 -89 0 -37 35 -85 62 -85 7 -1 1 -7 -14 -16 -35 -18 -48
-43 -48 -89 0 -37 35 -85 62 -85 7 -1 1 -7 -14 -16 -34 -18 -48 -43 -48 -84 0
-41 14 -66 48 -84 18 -10 22 -15 10 -16 -26 0 -58 -49 -58 -87 0 -44 14 -69
48 -87 18 -10 22 -15 10 -16 -27 0 -58 -49 -58 -89 0 -40 11 -59 50 -85 18
-12 20 -16 8 -16 -27 0 -58 -49 -58 -91 0 -28 7 -44 28 -64 l29 -27 -29 -28
c-46 -47 -33 -133 24 -152 8 -3 2 -14 -20 -32 -27 -23 -32 -35 -32 -71 0 -36
5 -48 31 -69 l31 -26 -31 -26 c-26 -21 -31 -33 -31 -69 0 -36 5 -48 31 -69
l31 -26 -31 -26 c-26 -21 -31 -33 -31 -69 0 -36 5 -48 31 -69 l31 -26 -31 -26
c-26 -21 -31 -33 -31 -69 0 -36 5 -48 30 -68 32 -28 37 -37 18 -37 -7 0 -43
30 -80 67 l-68 67 0 -1552 0 -1552 1545 0 c850 0 1545 3 1545 7 0 4 -27 35
-61 69 -60 61 -61 61 -35 68 15 4 35 21 46 39 13 20 20 26 20 15 0 -27 48 -58
92 -58 31 0 45 6 65 29 l26 29 24 -29 c20 -24 33 -29 68 -29 35 0 49 6 71 29
l27 29 24 -29 c20 -24 33 -29 67 -29 42 0 78 21 88 52 3 8 14 2 32 -20 23 -27
35 -32 71 -32 36 0 48 5 69 31 l26 31 26 -31 c21 -26 33 -31 69 -31 36 0 48 5
69 31 l26 31 26 -31 c21 -26 33 -31 69 -31 36 0 48 5 71 33 18 21 29 27 32 19
10 -31 46 -52 88 -52 35 0 47 5 70 33 18 21 29 27 32 19 10 -31 46 -52 88 -52
35 0 47 5 70 33 18 21 29 27 32 19 19 -57 105 -70 152 -24 l28 29 27 -29 c37
-39 95 -39 134 0 l28 27 25 -27 c20 -22 35 -28 65 -28 44 0 93 30 93 58 1 12
6 8 16 -10 18 -34 43 -48 87 -48 38 0 87 32 87 58 1 12 6 8 16 -10 18 -35 43
-48 89 -48 37 0 85 35 85 62 1 7 7 1 16 -14 18 -35 43 -48 89 -48 37 0 85 35
85 62 1 7 7 1 16 -14 18 -35 43 -48 89 -48 37 0 85 35 85 62 1 7 7 1 16 -14
18 -34 43 -48 84 -48 41 0 66 14 84 48 10 18 15 22 16 10 0 -26 49 -58 87 -58
44 0 69 14 87 48 10 18 15 22 16 10 0 -26 49 -58 87 -58 44 0 69 14 87 48 10
18 15 22 16 10 0 -28 49 -58 92 -58 31 0 45 6 65 28 l25 29 28 -29 c40 -39 98
-39 135 0 l27 29 28 -29 c47 -46 133 -33 152 24 3 8 14 2 32 -19 23 -28 35
-33 71 -33 36 0 48 5 69 31 l26 31 26 -31 c21 -26 33 -31 69 -31 36 0 48 5 69
31 l26 31 26 -31 c21 -26 33 -31 69 -31 36 0 48 5 69 31 l26 31 26 -31 c21
-26 33 -31 69 -31 36 0 48 5 69 31 l26 31 26 -31 c21 -26 33 -31 69 -31 36 0
48 5 71 33 18 21 29 27 32 19 10 -31 46 -52 88 -52 34 0 47 5 67 29 l24 29 26
-29 c21 -24 33 -29 70 -29 38 0 49 5 69 28 l23 28 27 -28 c20 -22 35 -28 66
-28 43 0 92 30 92 58 1 12 6 8 16 -10 18 -34 43 -48 87 -48 38 0 87 32 87 58
1 12 6 8 16 -10 18 -35 43 -48 89 -48 37 0 85 35 85 62 1 7 7 1 16 -14 18 -35
43 -48 89 -48 37 0 85 35 85 62 1 7 7 1 16 -14 18 -35 43 -48 89 -48 37 0 85
35 85 62 1 7 7 1 16 -14 18 -35 43 -48 89 -48 37 0 85 35 85 62 0 7 9 -2 20
-19 11 -18 31 -35 46 -39 25 -7 25 -8 -42 -75 l-68 -69 1552 0 1552 0 0 1552
0 1552 -68 -67 c-37 -37 -73 -67 -80 -67 -18 0 -15 5 18 38 41 42 41 92 1 133
l-29 29 29 29 c40 41 40 91 0 132 l-29 29 29 29 c21 21 29 39 29 64 0 37 -32
87 -56 87 -10 0 -2 13 20 34 28 26 36 41 36 68 0 38 -32 88 -56 88 -10 0 -2
13 20 34 28 26 36 41 36 68 0 38 -32 88 -56 88 -10 0 -2 13 20 34 45 42 50 93
11 131 -13 14 -29 25 -35 25 -6 0 5 15 24 34 45 42 50 93 11 131 -13 14 -29
25 -35 25 -6 0 5 15 24 34 45 42 49 89 11 130 -13 14 -28 26 -34 26 -5 0 6 15
25 34 51 51 43 120 -19 153 -16 8 -16 10 7 22 26 14 46 50 46 82 0 31 -28 77
-51 84 -22 7 -22 8 4 23 62 38 62 126 0 164 -26 15 -26 16 -4 23 23 7 51 53
51 84 0 32 -19 66 -47 83 -26 15 -26 16 -4 23 23 7 51 53 51 84 0 32 -20 68
-46 82 -23 12 -23 14 -7 22 62 33 70 102 19 153 -19 19 -30 34 -25 34 6 0 21
11 34 25 38 37 34 88 -9 131 -19 19 -30 34 -25 34 6 0 21 11 34 25 39 38 34
89 -11 131 -19 19 -30 34 -24 34 6 0 22 11 35 25 39 38 34 89 -11 131 -19 19
-30 34 -24 34 6 0 22 11 35 25 39 38 34 89 -11 131 -22 21 -30 34 -20 34 24 0
56 50 56 88 0 27 -8 42 -36 68 -22 21 -30 34 -20 34 24 0 56 50 56 87 0 25 -8
43 -29 64 l-29 29 29 29 c40 41 40 91 0 132 l-29 29 29 29 c21 22 29 39 29 66
0 27 -8 44 -29 66 l-29 29 29 29 c21 21 29 39 29 64 0 37 -32 87 -56 87 -10 0
-2 13 20 34 28 26 36 41 36 68 0 38 -32 88 -56 88 -10 0 -2 13 20 34 28 26 36
41 36 68 0 38 -32 88 -56 88 -10 0 -2 13 20 34 45 42 50 93 11 131 -13 14 -29
25 -35 25 -6 0 5 15 24 34 45 42 50 93 11 131 -13 14 -29 25 -35 25 -6 0 5 15
24 34 45 42 49 89 11 130 -13 14 -28 26 -34 26 -5 0 6 15 25 34 43 43 46 90 9
130 -13 14 -28 26 -34 26 -5 0 6 15 25 34 22 22 34 44 34 60 0 36 -25 83 -49
91 -17 5 -15 9 15 39 22 22 34 44 34 60 0 38 -26 83 -51 91 -22 7 -22 8 4 23
61 37 61 130 1 163 -23 12 -23 14 -7 22 62 33 70 102 19 153 -19 19 -30 34
-25 34 6 0 21 12 34 26 37 40 34 87 -9 130 -19 19 -30 34 -25 34 6 0 21 12 34
26 37 40 34 87 -9 130 -19 19 -30 34 -25 34 6 0 21 11 34 25 38 37 34 89 -10
130 -24 23 -30 35 -21 38 7 3 41 -23 77 -59 35 -35 67 -64 71 -64 4 0 8 695 8
1545 l0 1545 -1552 0 -1552 0 62 -63 c64 -65 72 -77 48 -77 -8 0 -25 -13 -38
-29 l-23 -28 -26 31 c-22 25 -34 31 -69 31 -34 0 -47 -6 -69 -30 l-26 -30 -26
30 c-22 24 -35 30 -69 30 -34 0 -47 -6 -69 -30 l-26 -30 -26 30 c-22 24 -35
30 -70 30 -35 0 -46 -6 -67 -31 l-25 -31 -27 31 c-23 25 -36 31 -71 31 -35 0
-46 -6 -67 -31 l-25 -31 -27 31 c-23 25 -36 31 -71 31 -35 0 -46 -6 -67 -31
l-25 -31 -27 31 c-23 25 -36 31 -70 31 -35 0 -47 -6 -69 -32 l-26 -31 -18 25
c-40 52 -100 53 -148 2 -25 -27 -28 -28 -33 -11 -4 11 -21 27 -40 37 -42 23
-79 14 -117 -26 -26 -28 -28 -29 -34 -9 -9 29 -66 55 -100 46 -16 -4 -41 -21
-56 -37 -26 -28 -28 -29 -34 -9 -9 28 -66 55 -99 46 -27 -7 -59 -33 -70 -57
-5 -12 -7 -12 -12 0 -11 24 -43 50 -70 57 -33 8 -90 -18 -99 -45 -8 -27 -22
-27 -30 -1 -7 21 -53 50 -80 50 -27 0 -73 -29 -80 -50 -6 -19 -8 -19 -34 9
-15 16 -40 33 -56 37 -34 9 -91 -17 -100 -46 -6 -20 -8 -19 -34 9 -15 16 -40
33 -55 37 -35 8 -84 -13 -100 -44 l-13 -26 -12 22 c-13 25 -61 52 -92 52 -11
0 -36 -15 -54 -33 l-33 -33 -24 30 c-21 25 -32 31 -67 31 -35 0 -48 -6 -71
-31 l-27 -31 -25 31 c-21 25 -32 31 -67 31 -35 0 -48 -6 -71 -31 l-27 -31 -25
31 c-21 25 -32 31 -67 31 -35 0 -48 -6 -71 -31 l-27 -31 -25 31 c-21 25 -32
31 -67 31 -35 0 -48 -6 -71 -31 l-27 -31 -25 31 c-21 25 -32 31 -67 31 -35 0
-48 -6 -70 -30 l-26 -30 -26 30 c-22 24 -35 30 -69 30 -34 0 -47 -6 -69 -30
l-26 -30 -26 30 c-22 24 -35 30 -70 30 -35 0 -46 -6 -67 -31 l-25 -31 -27 31
c-23 25 -36 31 -71 31 -35 0 -46 -6 -67 -31 l-25 -31 -27 31 c-23 25 -36 31
-70 31 -35 0 -47 -6 -69 -31 l-26 -31 -23 28 c-12 15 -35 30 -51 34 -35 7 -85
-15 -101 -45 -11 -20 -12 -19 -36 9 -13 16 -38 32 -54 36 -34 8 -84 -15 -101
-47 l-12 -22 -13 26 c-16 31 -65 52 -100 44 -15 -4 -40 -21 -55 -37 -26 -28
-28 -28 -34 -9 -7 22 -53 50 -82 50 -27 0 -83 -37 -83 -55 0 -22 -18 -18 -25
6 -9 27 -66 53 -99 45 -27 -7 -59 -33 -70 -57 -5 -12 -7 -12 -12 0 -11 24 -43
50 -70 57 -33 8 -90 -18 -99 -45 -8 -27 -22 -27 -30 -1 -7 21 -53 50 -80 50
-27 0 -73 -29 -80 -50 -6 -19 -8 -19 -34 9 -38 40 -75 49 -117 26 -19 -10 -36
-27 -40 -38 -6 -19 -7 -18 -28 6 -47 56 -94 61 -141 14 l-33 -33 -24 30 c-21
25 -32 31 -67 31 -36 0 -48 -6 -71 -32 l-29 -32 -16 25 c-9 14 -27 29 -40 34
-24 9 -23 10 35 66 33 31 60 61 60 66 0 4 -695 8 -1545 8 l-1545 0 0 -1545z
m2910 1235 c25 -14 81 -12 100 3 9 7 24 23 33 37 12 18 17 20 17 8 0 -27 49
-58 89 -58 39 1 58 12 84 50 12 18 17 20 17 8 0 -27 49 -58 90 -58 30 0 44 6
63 30 l26 30 30 -30 c41 -41 91 -41 132 -1 l29 29 29 -29 c22 -21 39 -29 66
-29 27 0 44 8 66 29 l29 29 29 -29 c41 -40 91 -40 132 0 l29 29 29 -29 c22
-21 39 -29 66 -29 27 0 44 8 66 29 l29 29 29 -29 c22 -21 39 -29 66 -29 27 0
44 8 66 29 l29 29 29 -29 c22 -21 39 -29 66 -29 27 0 44 8 66 29 l29 29 29
-29 c21 -21 39 -29 64 -29 38 0 87 32 87 58 0 12 5 10 17 -8 26 -38 45 -49 84
-50 40 0 89 31 89 58 0 12 5 10 17 -8 27 -39 45 -49 86 -50 39 0 87 34 87 62
0 7 8 1 17 -12 26 -38 45 -49 81 -50 43 0 68 14 86 48 9 15 15 21 16 14 0 -26
52 -62 87 -62 44 0 69 14 87 48 9 15 15 21 16 14 0 -27 48 -62 85 -62 46 0 71
13 89 48 9 15 15 21 16 14 0 -27 48 -62 85 -62 46 0 71 13 89 48 9 15 15 21
16 14 0 -28 48 -62 88 -62 40 0 92 35 92 62 1 7 7 1 16 -14 18 -34 43 -48 86
-48 36 1 55 12 81 50 9 13 17 19 17 12 0 -28 48 -62 87 -62 41 1 59 11 86 50
12 18 17 20 17 8 0 -27 49 -58 90 -58 31 0 44 7 69 35 18 21 31 29 31 21 0
-25 50 -56 91 -56 31 0 43 6 68 37 21 25 31 32 31 21 0 -26 49 -58 87 -58 25
0 43 8 64 29 l29 29 29 -29 c22 -21 39 -29 66 -29 27 0 44 8 66 29 l29 29 29
-29 c22 -21 39 -29 66 -29 27 0 44 8 66 29 l29 29 29 -29 c22 -21 39 -29 66
-29 27 0 44 8 66 29 l29 29 29 -29 c41 -40 91 -40 132 1 l30 30 26 -30 c19
-24 33 -30 63 -30 41 0 90 31 90 58 0 11 10 4 31 -21 25 -31 37 -37 68 -37 42
0 91 31 91 58 0 11 10 4 31 -21 25 -31 37 -37 68 -37 42 0 91 31 91 58 0 12 5
10 17 -8 26 -38 45 -49 84 -50 40 0 89 31 89 58 0 12 5 10 17 -8 27 -39 45
-49 86 -50 39 0 87 34 87 62 0 7 8 1 17 -12 26 -38 45 -49 81 -50 43 0 68 14
86 48 9 15 15 21 16 14 0 -27 48 -62 85 -62 46 0 71 13 89 48 9 15 15 21 16
14 0 -27 48 -62 85 -62 46 0 71 13 89 48 9 15 15 21 16 14 0 -28 48 -62 88
-62 40 0 92 35 92 62 1 7 7 1 16 -14 18 -34 43 -48 87 -48 35 0 87 37 87 62 0
7 9 -2 20 -19 11 -18 30 -35 43 -38 13 -4 54 -37 91 -74 62 -63 66 -69 56 -93
l-12 -24 -33 33 c-42 42 -89 45 -129 8 -14 -13 -26 -28 -26 -34 0 -5 -15 6
-34 25 -51 51 -120 43 -153 -19 -8 -16 -10 -16 -22 7 -34 63 -133 59 -168 -7
-8 -16 -10 -16 -22 7 -15 28 -51 46 -89 46 -30 -1 -50 -14 -75 -50 -9 -13 -17
-19 -17 -12 0 23 -52 62 -81 62 -40 0 -75 -18 -90 -46 -12 -23 -14 -23 -22 -7
-35 66 -134 70 -168 6 l-13 -24 -13 25 c-30 57 -98 63 -149 12 -19 -19 -34
-30 -34 -25 0 6 -11 21 -25 34 -38 39 -89 34 -131 -11 -19 -19 -34 -30 -34
-24 0 6 -11 22 -25 35 -38 39 -89 34 -131 -11 -19 -19 -34 -30 -34 -24 0 6
-11 22 -25 35 -38 39 -89 34 -131 -11 -21 -22 -34 -30 -34 -20 0 24 -50 56
-88 56 -27 0 -42 -8 -68 -36 -21 -22 -34 -30 -34 -20 0 24 -50 56 -87 56 -25
0 -43 -8 -64 -29 l-29 -29 -29 29 c-22 21 -39 29 -66 29 -27 0 -44 -8 -66 -29
l-29 -29 -29 29 c-21 21 -39 29 -64 29 -37 0 -87 -32 -87 -56 0 -10 -13 -2
-34 20 -26 28 -41 36 -68 36 -38 0 -88 -32 -88 -56 0 -10 -13 -2 -34 20 -26
28 -41 36 -68 36 -38 0 -88 -32 -88 -56 0 -10 -13 -2 -34 20 -26 28 -41 36
-68 36 -38 0 -88 -32 -88 -56 0 -10 -13 -2 -34 20 -42 45 -93 50 -131 11 -14
-13 -25 -28 -25 -34 0 -5 -15 6 -34 25 -43 43 -94 47 -131 9 -14 -13 -25 -28
-25 -34 0 -5 -15 6 -34 25 -51 51 -120 43 -153 -19 -8 -16 -10 -16 -22 7 -14
26 -50 46 -82 46 -31 0 -77 -28 -84 -51 -7 -22 -8 -22 -23 4 -17 27 -51 47
-82 47 -31 0 -65 -20 -82 -47 -15 -26 -16 -26 -23 -4 -7 23 -53 51 -84 51 -32
0 -66 -19 -83 -47 -15 -26 -16 -26 -23 -4 -8 25 -53 51 -91 51 -16 0 -38 -12
-60 -34 -19 -19 -34 -30 -34 -25 0 6 -11 21 -25 34 -37 38 -88 34 -131 -9 -19
-19 -34 -30 -34 -25 0 6 -11 21 -25 34 -38 39 -89 34 -131 -11 -19 -19 -34
-30 -34 -24 0 6 -11 22 -25 35 -38 39 -89 34 -131 -11 -21 -22 -34 -30 -34
-20 0 24 -50 56 -88 56 -27 0 -42 -8 -68 -36 -21 -22 -34 -30 -34 -20 0 24
-50 56 -88 56 -27 0 -42 -8 -68 -36 -21 -22 -34 -30 -34 -20 0 24 -50 56 -87
56 -25 0 -43 -8 -64 -29 l-29 -29 -29 29 c-22 21 -39 29 -66 29 -27 0 -44 -8
-66 -29 l-29 -29 -29 29 c-41 40 -91 40 -132 0 l-29 -29 -29 29 c-21 21 -39
29 -64 29 -37 0 -87 -32 -87 -56 0 -10 -13 -2 -34 20 -26 28 -41 36 -68 36
-38 0 -88 -32 -88 -56 0 -10 -13 -2 -34 20 -42 45 -93 50 -131 11 -14 -13 -25
-29 -25 -35 0 -6 -15 5 -34 24 -42 45 -93 50 -131 11 -14 -13 -25 -28 -25 -34
0 -5 -15 6 -34 25 -43 43 -90 46 -130 9 -14 -13 -26 -28 -26 -34 0 -5 -15 6
-34 25 -43 43 -90 46 -130 9 -14 -13 -26 -29 -26 -36 0 -6 -9 -1 -19 12 l-20
24 67 68 c37 37 81 75 98 83 17 8 37 26 45 40 l13 25 13 -25 c7 -14 22 -30 33
-36z m-140 -320 c24 0 41 9 66 35 30 32 33 33 39 15 8 -24 54 -50 91 -50 18 0
38 12 60 35 30 32 33 33 39 15 8 -24 54 -50 91 -50 18 0 38 12 60 35 30 32 33
33 39 15 8 -24 54 -50 91 -50 18 0 38 12 60 35 30 32 33 33 39 15 4 -11 20
-27 37 -36 43 -22 91 -11 121 28 24 30 25 30 32 9 3 -12 20 -28 37 -37 43 -22
91 -11 121 28 24 30 25 30 32 9 9 -30 61 -54 98 -47 35 7 67 32 67 53 0 7 5
13 10 13 6 0 10 -6 10 -13 0 -22 35 -47 71 -53 40 -6 99 26 99 53 0 13 7 10
26 -14 31 -40 79 -51 122 -29 17 9 34 25 37 37 7 21 8 21 32 -9 30 -39 78 -50
121 -28 17 9 34 25 37 37 7 21 8 21 32 -9 30 -39 78 -50 121 -28 17 9 33 25
37 36 6 18 9 17 39 -15 22 -23 42 -35 60 -35 37 0 83 26 91 50 6 18 9 17 39
-15 22 -23 42 -35 60 -35 37 0 83 26 91 50 6 18 9 17 39 -15 47 -49 117 -44
146 9 l12 22 33 -33 c45 -45 85 -45 128 0 l32 32 32 -32 c22 -24 40 -33 63
-33 23 0 41 9 63 33 l32 32 32 -32 c22 -24 40 -33 63 -33 23 0 41 9 63 33 l32
32 32 -32 c22 -24 40 -33 63 -33 23 0 41 9 63 33 l32 32 32 -32 c22 -24 40
-33 63 -33 24 0 41 9 63 33 l30 32 33 -32 c45 -46 85 -45 130 2 30 32 33 33
39 15 8 -24 54 -50 91 -50 18 0 38 12 60 35 30 32 33 33 39 15 4 -11 20 -27
37 -36 43 -22 91 -11 121 28 24 30 25 30 32 9 3 -12 20 -28 37 -37 43 -22 91
-11 121 28 24 30 25 30 32 9 18 -57 117 -64 157 -11 l21 30 18 -29 c32 -53
111 -52 154 2 16 21 25 27 25 16 0 -24 33 -49 71 -55 40 -6 99 26 99 53 0 13
7 10 26 -14 31 -40 79 -51 122 -29 17 9 34 25 37 37 7 21 8 21 32 -9 30 -39
78 -50 121 -28 17 9 33 25 37 36 6 18 9 17 39 -15 22 -23 42 -35 60 -35 37 0
83 26 91 50 6 18 9 17 39 -15 22 -23 42 -35 60 -35 37 0 83 26 91 50 6 18 9
17 39 -15 22 -23 42 -35 60 -35 37 0 83 26 91 50 6 18 9 17 39 -15 45 -47 85
-48 129 -2 l32 32 31 -32 c23 -24 41 -33 64 -33 23 0 41 9 63 33 l32 32 31
-32 c23 -24 41 -33 64 -33 23 0 41 9 63 33 l32 32 31 -32 c23 -24 41 -33 64
-33 23 0 41 9 63 33 l32 32 31 -32 c23 -24 41 -33 64 -33 23 0 41 9 63 33 l32
32 31 -32 c44 -45 84 -45 130 1 30 30 34 32 39 15 8 -24 55 -49 91 -49 18 0
38 12 60 35 30 32 33 33 39 15 7 -24 54 -50 87 -50 13 0 34 7 47 16 23 16 25
15 101 -61 l78 -78 -20 -28 -21 -27 -23 28 c-13 15 -36 30 -51 33 -35 7 -88
-15 -102 -42 -11 -20 -12 -20 -39 9 -41 44 -101 45 -139 1 l-25 -29 -27 30
c-20 23 -35 30 -63 30 -35 0 -78 -16 -78 -30 0 -4 -4 -13 -9 -21 -7 -11 -15
-7 -38 19 -40 45 -95 45 -135 1 l-28 -31 -28 31 c-22 25 -36 31 -67 31 -31 0
-45 -6 -67 -31 l-28 -31 -28 31 c-40 44 -95 44 -135 -1 -23 -26 -31 -30 -38
-19 -5 8 -9 17 -9 20 0 14 -67 37 -93 32 -15 -3 -39 -19 -53 -36 -21 -24 -27
-28 -35 -16 -5 8 -9 17 -9 20 0 14 -67 37 -93 32 -15 -3 -38 -18 -52 -34 l-24
-30 -16 25 c-34 51 -108 54 -150 5 -24 -29 -24 -29 -35 -8 -15 27 -67 49 -103
42 -15 -3 -38 -18 -52 -34 -24 -29 -24 -29 -35 -8 -15 27 -67 49 -103 42 -15
-3 -38 -18 -52 -34 -24 -29 -24 -29 -35 -8 -7 11 -27 27 -47 35 -31 14 -38 13
-71 -3 -20 -10 -42 -28 -48 -40 l-11 -23 -11 26 c-7 14 -28 32 -47 40 -30 12
-40 12 -69 0 -18 -8 -40 -24 -49 -36 l-15 -22 -12 22 c-30 57 -124 56 -159 -1
l-18 -29 -11 26 c-28 60 -125 62 -161 3 l-18 -29 -11 26 c-7 14 -28 32 -47 40
-30 12 -39 12 -69 0 -19 -8 -40 -24 -46 -36 l-12 -22 -15 22 c-9 12 -31 28
-49 36 -29 12 -39 12 -68 0 -19 -8 -39 -24 -46 -35 -11 -21 -11 -21 -35 8 -14
16 -37 31 -52 34 -36 7 -88 -15 -103 -42 -11 -21 -11 -21 -35 8 -14 16 -37 31
-52 34 -35 7 -88 -15 -102 -42 -11 -20 -12 -20 -39 9 -41 44 -101 45 -139 1
l-25 -29 -27 30 c-20 23 -35 30 -63 30 -35 0 -78 -16 -78 -30 0 -4 -4 -13 -9
-21 -7 -11 -15 -7 -37 17 -28 30 -44 36 -90 33 -21 -1 -59 -31 -66 -53 -3 -8
-15 -1 -34 19 -28 31 -44 37 -90 34 -21 -1 -59 -31 -66 -53 -3 -8 -15 0 -34
21 -24 27 -37 33 -69 33 -32 0 -45 -6 -69 -33 -19 -21 -31 -29 -34 -21 -7 22
-45 52 -66 53 -46 3 -62 -3 -90 -34 -19 -20 -31 -27 -34 -19 -7 22 -45 52 -66
53 -46 3 -62 -3 -88 -31 l-28 -30 -15 24 c-34 51 -108 54 -150 5 -24 -29 -24
-29 -35 -8 -15 27 -67 49 -103 42 -15 -3 -38 -18 -52 -34 -24 -29 -24 -29 -35
-8 -15 27 -67 49 -103 42 -15 -3 -38 -18 -52 -34 -24 -29 -24 -29 -35 -8 -15
26 -70 50 -101 42 -31 -7 -69 -42 -69 -62 0 -9 -8 -3 -19 15 -37 60 -123 62
-164 4 l-15 -22 -12 22 c-30 57 -124 56 -159 -1 l-18 -29 -11 26 c-7 14 -28
32 -47 40 -31 12 -39 12 -70 0 -19 -8 -40 -26 -47 -40 l-11 -26 -18 29 c-36
59 -133 57 -161 -3 l-11 -26 -18 29 c-35 57 -129 58 -159 1 l-12 -22 -15 22
c-9 12 -31 28 -49 36 -29 12 -39 12 -68 0 -19 -8 -39 -24 -46 -35 -11 -21 -11
-21 -35 8 -14 16 -37 31 -52 34 -36 7 -88 -15 -103 -42 -11 -21 -11 -21 -35 8
-42 49 -116 46 -150 -5 l-16 -25 -24 30 c-14 16 -37 31 -52 34 -29 5 -93 -15
-93 -30 0 -4 -4 -14 -9 -22 -7 -11 -15 -7 -38 19 -22 25 -37 32 -65 32 -35 0
-78 -16 -78 -30 0 -4 -4 -13 -9 -21 -7 -11 -15 -7 -38 19 -22 25 -37 32 -65
32 -44 0 -75 -16 -83 -42 -8 -26 -16 -25 -39 6 l-19 26 81 80 c78 79 80 80
103 64 38 -26 78 -20 112 17 l30 32 33 -32 c23 -24 41 -33 64 -33z m1012 -298
c44 -12 86 4 107 39 l18 29 11 -26 c28 -60 125 -62 161 -3 l18 29 11 -26 c7
-14 28 -32 47 -40 31 -12 39 -12 70 0 19 8 40 26 47 40 l11 26 11 -23 c6 -12
28 -30 48 -40 33 -16 40 -17 71 -3 20 8 41 24 47 36 l12 22 15 -22 c9 -12 31
-28 49 -36 29 -12 39 -12 68 0 19 8 39 24 46 35 11 21 11 21 35 -8 14 -16 37
-31 52 -34 36 -7 88 15 103 42 11 21 11 21 35 -8 42 -49 116 -46 150 5 l16 25
24 -30 c42 -49 116 -46 150 5 l16 25 24 -30 c14 -16 37 -31 52 -34 29 -5 93
15 93 30 0 4 4 14 9 22 7 11 15 7 37 -17 28 -30 44 -36 90 -33 21 1 59 31 66
53 3 8 15 0 34 -21 24 -27 37 -33 69 -33 31 0 45 6 67 31 l28 31 28 -31 c22
-25 36 -31 67 -31 32 0 45 6 69 33 19 21 31 29 34 21 7 -22 45 -52 66 -53 46
-3 62 3 90 33 22 24 30 28 37 17 5 -8 9 -17 9 -21 0 -14 43 -30 78 -30 28 0
43 7 63 30 l27 30 25 -29 c38 -44 98 -43 139 1 26 28 28 29 38 10 14 -27 46
-42 88 -42 28 0 43 7 64 31 26 29 28 30 38 11 25 -46 106 -57 146 -19 13 12
24 30 24 38 0 9 8 3 19 -15 27 -45 74 -59 120 -37 20 10 41 28 47 40 l11 23
11 -26 c28 -60 125 -62 161 -3 l18 29 11 -26 c28 -60 125 -62 161 -3 l18 29
11 -26 c7 -14 28 -32 47 -40 31 -12 39 -12 70 0 19 8 40 26 47 40 l11 26 11
-23 c6 -12 28 -30 48 -40 33 -16 40 -17 72 -3 20 8 41 26 48 40 l11 26 11 -23
c6 -12 28 -30 48 -40 33 -16 40 -17 71 -3 20 8 41 24 47 36 l12 22 15 -22 c9
-12 31 -28 49 -36 29 -12 39 -12 68 0 19 8 40 24 46 36 l12 22 15 -22 c9 -12
31 -28 49 -36 29 -12 39 -12 68 0 19 8 39 24 46 35 11 21 11 21 35 -8 42 -49
116 -46 150 5 l16 25 24 -30 c14 -16 37 -31 52 -34 29 -5 93 15 93 30 0 4 4
14 9 22 7 11 15 7 38 -19 41 -46 94 -47 134 -2 l29 32 28 -31 c22 -25 36 -31
67 -31 32 0 45 6 69 33 19 21 31 29 34 21 7 -22 45 -52 66 -53 46 -3 62 3 90
34 19 20 31 27 34 19 7 -22 45 -52 66 -53 46 -3 62 3 90 33 22 24 30 28 37 17
5 -8 9 -17 9 -21 0 -14 43 -30 78 -30 28 0 43 7 63 30 l27 30 25 -29 c38 -44
98 -43 139 1 26 28 28 29 38 10 14 -27 46 -42 88 -42 28 0 43 7 64 31 26 29
28 30 38 11 24 -45 105 -57 144 -21 l22 21 69 -70 69 -70 521 -2 520 -3 3
-520 2 -520 81 -81 c80 -80 81 -82 65 -105 -9 -13 -16 -38 -16 -55 0 -35 33
-84 56 -84 10 0 2 -13 -20 -34 -28 -26 -36 -41 -36 -68 0 -38 32 -88 56 -88
10 0 2 -13 -20 -34 -28 -26 -36 -41 -36 -68 0 -38 32 -88 56 -88 10 0 2 -13
-20 -34 -45 -42 -50 -93 -11 -131 13 -14 29 -25 35 -25 6 0 -5 -15 -24 -34
-45 -42 -50 -93 -11 -131 13 -14 28 -25 34 -25 5 0 -6 -15 -25 -34 -43 -43
-47 -94 -9 -131 13 -14 28 -25 34 -25 5 0 -6 -15 -25 -34 -51 -51 -43 -120 19
-153 16 -8 16 -10 -7 -22 -63 -34 -59 -133 7 -168 16 -8 16 -10 -7 -22 -64
-35 -59 -132 9 -169 11 -6 14 -12 7 -12 -23 0 -62 -52 -62 -81 0 -40 18 -75
46 -90 23 -12 23 -14 7 -22 -66 -35 -70 -134 -7 -168 23 -12 23 -14 7 -22 -66
-35 -70 -134 -7 -168 23 -12 23 -14 7 -22 -31 -17 -53 -51 -53 -86 0 -26 8
-41 36 -67 19 -19 30 -34 24 -34 -6 0 -22 -11 -35 -25 -39 -38 -34 -89 11
-131 19 -19 30 -34 24 -34 -6 0 -22 -11 -35 -25 -39 -38 -34 -89 11 -131 22
-21 30 -34 20 -34 -24 0 -56 -50 -56 -88 0 -27 8 -42 36 -68 22 -21 30 -34 20
-34 -24 0 -56 -50 -56 -88 0 -27 8 -42 36 -68 22 -21 30 -34 20 -34 -24 0 -56
-50 -56 -87 0 -25 8 -43 29 -64 l29 -29 -29 -29 c-21 -22 -29 -39 -29 -66 0
-27 8 -44 29 -66 l29 -29 -29 -29 c-21 -21 -29 -39 -29 -64 0 -37 32 -87 56
-87 10 0 2 -13 -20 -34 -28 -26 -36 -41 -36 -68 0 -38 32 -88 56 -88 10 0 2
-13 -20 -34 -28 -26 -36 -41 -36 -68 0 -38 32 -88 56 -88 10 0 2 -13 -20 -34
-28 -26 -36 -41 -36 -68 0 -38 32 -88 56 -88 10 0 2 -13 -20 -34 -45 -42 -50
-93 -11 -131 13 -14 29 -25 35 -25 6 0 -5 -15 -24 -34 -45 -42 -50 -93 -11
-131 13 -14 28 -25 34 -25 5 0 -6 -15 -25 -34 -43 -43 -47 -94 -9 -131 13 -14
28 -25 34 -25 5 0 -6 -15 -25 -34 -43 -43 -46 -90 -9 -130 13 -14 28 -26 34
-26 5 0 -6 -15 -25 -34 -51 -51 -43 -120 19 -153 16 -8 16 -10 -7 -22 -64 -35
-59 -133 8 -169 19 -9 18 -10 -2 -17 -24 -7 -52 -52 -52 -84 0 -32 20 -68 46
-82 23 -12 23 -14 7 -22 -62 -33 -70 -102 -19 -153 19 -19 30 -34 25 -34 -6 0
-21 -12 -34 -26 -37 -40 -34 -87 9 -130 19 -19 30 -34 25 -34 -6 0 -21 -11
-34 -25 -39 -38 -34 -89 11 -131 19 -19 30 -34 24 -34 -6 0 -22 -11 -35 -25
-39 -38 -34 -89 11 -131 19 -19 30 -34 24 -34 -6 0 -22 -11 -35 -25 -39 -38
-34 -89 11 -131 19 -19 30 -34 24 -34 -6 0 -22 -11 -35 -25 -39 -38 -34 -89
11 -131 22 -21 30 -34 20 -34 -24 0 -56 -50 -56 -88 0 -27 8 -42 36 -68 22
-21 30 -34 20 -34 -24 0 -56 -50 -56 -88 0 -27 8 -42 36 -68 22 -21 30 -34 20
-34 -24 0 -56 -50 -56 -87 0 -25 8 -43 29 -64 l29 -29 -29 -29 c-21 -22 -29
-39 -29 -66 0 -27 8 -44 29 -66 l29 -29 -29 -29 c-21 -21 -29 -39 -29 -64 0
-37 32 -87 56 -87 10 0 2 -13 -20 -34 -28 -26 -36 -41 -36 -68 0 -38 32 -88
56 -88 10 0 2 -13 -20 -34 -28 -26 -36 -41 -36 -68 0 -38 32 -88 56 -88 10 0
2 -13 -20 -34 -41 -38 -48 -84 -20 -125 16 -23 15 -25 -70 -110 l-86 -86 0
-518 0 -517 -518 0 -518 0 -68 -69 -69 -70 -31 26 c-40 34 -90 27 -128 -18
-25 -30 -26 -30 -33 -10 -3 12 -20 28 -37 37 -43 22 -91 11 -121 -28 -24 -30
-25 -30 -32 -9 -3 12 -20 28 -37 37 -43 22 -91 11 -121 -28 -24 -30 -25 -30
-32 -9 -18 57 -117 64 -157 10 l-22 -30 -13 24 c-16 31 -64 51 -99 43 -15 -4
-40 -21 -55 -37 -26 -28 -28 -28 -34 -9 -7 22 -53 50 -82 50 -27 0 -83 -37
-83 -55 0 -8 -4 -15 -10 -15 -5 0 -10 7 -10 15 0 18 -56 55 -83 55 -29 0 -75
-28 -82 -50 -6 -19 -8 -19 -34 9 -15 16 -40 33 -56 37 -34 9 -91 -17 -100 -46
-6 -20 -8 -19 -34 9 -15 16 -40 33 -55 37 -35 8 -83 -12 -99 -43 l-13 -24 -22
30 c-39 54 -139 47 -157 -10 -7 -20 -8 -20 -33 10 -18 21 -39 34 -64 38 -33 5
-41 2 -72 -29 l-34 -34 -24 28 c-15 19 -36 31 -60 35 -33 5 -42 1 -72 -29
l-34 -34 -24 28 c-15 19 -36 31 -60 35 -33 5 -42 1 -72 -29 l-34 -34 -24 28
c-15 19 -36 31 -60 35 -33 5 -42 1 -72 -29 l-34 -34 -24 28 c-15 19 -36 31
-60 35 -33 5 -41 1 -70 -28 l-33 -34 -31 33 c-43 44 -85 44 -128 -1 l-31 -32
-33 34 c-29 30 -37 33 -70 28 -23 -4 -46 -17 -62 -34 l-24 -28 -33 34 c-30 29
-38 33 -71 28 -24 -4 -45 -16 -60 -35 l-24 -28 -34 34 c-30 30 -39 34 -72 29
-24 -4 -45 -16 -60 -35 l-24 -28 -34 34 c-31 31 -39 34 -72 29 -25 -4 -46 -17
-64 -38 -25 -30 -26 -30 -33 -10 -3 12 -20 28 -37 37 -43 22 -91 11 -121 -28
-24 -30 -25 -30 -32 -9 -18 57 -117 64 -157 10 l-22 -30 -13 24 c-16 31 -64
51 -99 43 -15 -4 -40 -21 -55 -37 -26 -28 -28 -28 -34 -9 -7 22 -53 50 -82 50
-27 0 -83 -37 -83 -55 0 -8 -4 -15 -10 -15 -5 0 -10 7 -10 15 0 18 -56 55 -83
55 -29 0 -75 -28 -82 -50 -6 -19 -8 -19 -34 9 -15 16 -40 33 -55 37 -35 8 -83
-12 -99 -43 l-13 -24 -22 30 c-40 54 -139 47 -157 -10 -7 -21 -8 -21 -32 9
-30 39 -78 50 -121 28 -17 -9 -34 -25 -37 -37 -7 -21 -8 -21 -32 9 -30 39 -78
50 -121 28 -17 -9 -34 -25 -37 -37 -7 -20 -8 -20 -33 10 -18 21 -39 34 -64 38
-33 5 -41 2 -72 -29 l-34 -34 -24 28 c-15 19 -36 31 -60 35 -33 5 -42 1 -72
-29 l-34 -34 -24 28 c-15 19 -36 31 -60 35 -33 5 -41 1 -70 -28 l-33 -34 -31
33 c-23 23 -41 32 -64 32 -23 0 -41 -9 -63 -32 l-32 -33 -31 33 c-23 23 -41
32 -64 32 -23 0 -41 -9 -64 -32 l-31 -33 -32 33 c-43 44 -83 44 -126 -1 l-32
-32 -33 34 c-29 30 -37 33 -70 28 -24 -4 -45 -16 -60 -35 l-24 -28 -34 34
c-30 30 -39 34 -72 29 -24 -4 -45 -16 -60 -35 l-24 -28 -34 34 c-31 31 -39 34
-72 29 -25 -4 -46 -17 -64 -38 -25 -30 -26 -30 -33 -10 -3 12 -20 28 -37 37
-43 22 -91 11 -121 -28 -24 -30 -25 -30 -32 -9 -18 57 -117 64 -157 10 l-22
-30 -13 24 c-16 31 -64 51 -99 43 -15 -4 -40 -21 -55 -37 -26 -28 -28 -28 -34
-9 -7 22 -53 50 -82 50 -27 0 -83 -37 -83 -55 0 -22 -18 -18 -25 6 -9 27 -66
53 -99 45 -15 -4 -35 -15 -45 -25 -18 -18 -20 -17 -87 50 l-68 69 -521 2 -520
3 -3 520 -2 520 -87 87 c-48 49 -83 88 -77 88 18 0 36 56 29 89 -4 17 -20 42
-37 55 -30 23 -30 24 -9 31 12 3 28 20 37 37 22 43 11 91 -28 121 -30 24 -30
25 -9 32 12 3 28 20 37 37 22 43 11 91 -28 121 -30 24 -30 25 -9 32 23 7 51
52 51 82 0 27 -37 83 -55 83 -22 0 -18 18 5 25 22 7 50 53 50 82 0 27 -37 83
-55 83 -8 0 -15 5 -15 10 0 6 7 10 15 10 18 0 55 56 55 83 0 29 -28 75 -50 82
-19 6 -19 8 9 34 16 15 33 40 37 55 8 35 -12 83 -43 99 l-24 13 30 22 c54 40
47 139 -10 157 -21 7 -21 8 9 32 39 30 50 78 28 121 -9 17 -25 34 -37 37 -21
7 -21 8 9 32 39 30 50 78 28 121 -9 17 -25 34 -37 37 -21 7 -21 8 9 31 53 42
51 125 -4 154 l-24 13 30 26 c20 17 33 39 37 63 5 33 2 41 -29 72 l-34 34 28
24 c19 15 31 36 35 60 5 33 1 42 -28 71 l-34 34 33 30 c44 41 44 83 -1 126
l-32 32 33 31 c44 43 44 84 -1 127 l-32 32 34 33 c30 29 33 37 28 70 -4 23
-17 46 -34 62 l-28 24 34 33 c30 30 33 38 28 71 -4 23 -17 46 -34 62 l-28 24
34 33 c29 30 33 38 28 71 -4 24 -16 45 -35 60 l-28 24 34 34 c30 30 34 39 29
72 -4 24 -16 45 -35 60 l-28 24 34 34 c31 31 34 39 29 72 -4 25 -17 46 -38 64
-30 25 -30 26 -10 33 12 3 28 20 37 37 22 43 11 91 -28 121 -30 24 -30 25 -9
32 57 18 64 117 10 157 l-30 22 24 13 c31 16 51 64 43 99 -4 15 -21 40 -37 55
-28 26 -28 28 -9 34 22 7 50 53 50 82 0 27 -37 83 -55 83 -22 0 -18 18 5 25
22 7 50 53 50 82 0 27 -37 83 -55 83 -22 0 -18 18 5 25 21 7 50 53 50 80 0 27
-29 73 -50 80 -19 6 -19 8 9 34 16 15 33 40 37 56 9 34 -17 91 -46 100 -20 6
-19 8 9 34 16 15 33 40 37 55 8 35 -12 83 -43 99 l-24 13 30 22 c54 40 47 139
-10 157 -21 7 -21 8 9 32 41 31 51 80 26 122 -10 17 -27 34 -37 37 -17 5 -16
9 12 32 21 18 34 39 38 64 5 33 2 41 -29 72 l-34 34 28 24 c19 15 31 36 35 60
5 33 1 42 -29 72 l-34 34 28 24 c19 15 31 36 35 60 5 33 1 42 -29 72 l-34 34
28 24 c19 15 31 36 35 60 5 33 1 41 -28 71 l-34 33 28 24 c17 16 30 39 34 62
5 33 2 41 -28 70 l-34 33 33 32 c23 22 32 40 32 63 0 23 -9 41 -32 63 l-33 32
33 32 c44 42 44 83 -1 126 l-32 32 34 33 c30 29 33 37 28 70 -4 24 -16 45 -35
60 l-28 24 34 34 c30 30 34 39 29 72 -4 24 -16 45 -35 60 l-28 24 34 34 c30
30 34 39 29 72 -4 24 -16 45 -35 60 l-28 24 34 34 c31 31 34 39 29 72 -4 25
-17 46 -38 64 -30 25 -30 26 -10 33 12 3 28 20 37 37 22 43 11 91 -28 121 -30
24 -30 25 -9 32 12 3 28 20 37 37 22 43 11 91 -28 121 -30 24 -30 25 -9 32 22
7 51 52 51 80 0 9 -7 30 -16 47 l-16 31 81 81 81 81 2 520 3 520 520 3 521 2
69 70 69 70 22 -21 c36 -34 92 -28 128 12 19 21 31 29 34 21 7 -22 45 -52 66
-53 46 -3 62 3 90 34 19 20 31 27 34 19 7 -22 45 -52 66 -53 46 -3 62 3 90 33
22 24 30 28 37 17 5 -8 9 -17 9 -21 0 -14 43 -30 78 -30 28 0 43 7 64 31 26
29 28 30 38 11 14 -27 46 -42 88 -42 28 0 43 7 63 30 l28 31 15 -24 c32 -49
116 -48 155 1 l19 24 16 -25 c32 -49 118 -49 154 0 l17 23 20 -24 c42 -51 135
-44 160 13 9 21 9 21 27 -7 10 -18 31 -33 50 -38z m-3020 -1468 c15 -5 12 -11
-17 -39 -27 -25 -35 -40 -35 -67 0 -38 32 -88 56 -88 10 0 2 -13 -20 -34 -28
-26 -36 -41 -36 -68 0 -38 32 -88 56 -88 10 0 2 -13 -20 -34 -28 -26 -36 -41
-36 -68 0 -38 32 -88 56 -88 10 0 2 -13 -20 -34 -45 -42 -50 -93 -11 -131 13
-14 28 -25 34 -25 5 0 -6 -15 -25 -34 -51 -51 -45 -119 12 -149 l25 -13 -24
-13 c-51 -27 -63 -106 -22 -146 13 -14 30 -25 37 -25 7 0 1 -8 -12 -17 -38
-26 -49 -45 -50 -81 0 -43 14 -68 48 -86 15 -9 21 -15 14 -16 -7 0 -24 -12
-37 -26 -43 -47 -28 -120 30 -152 11 -6 14 -12 7 -12 -27 0 -62 -52 -62 -90 0
-38 35 -90 62 -90 7 -1 1 -7 -14 -16 -34 -18 -48 -43 -48 -86 1 -36 12 -55 50
-81 13 -9 19 -17 12 -17 -28 0 -62 -48 -62 -87 1 -41 11 -59 50 -86 13 -9 19
-17 12 -17 -7 0 -24 -11 -37 -25 -38 -37 -34 -88 9 -131 19 -19 30 -34 25 -34
-6 0 -21 -11 -34 -25 -39 -38 -34 -89 11 -131 22 -21 30 -34 20 -34 -24 0 -56
-50 -56 -88 0 -27 8 -42 36 -68 22 -21 30 -34 20 -34 -24 0 -56 -50 -56 -88 0
-27 8 -42 36 -68 22 -21 30 -34 20 -34 -24 0 -56 -50 -56 -87 0 -25 8 -43 29
-64 l29 -29 -29 -29 c-40 -41 -40 -91 0 -132 l29 -29 -29 -29 c-40 -41 -40
-91 0 -132 l29 -29 -29 -29 c-40 -41 -40 -91 0 -132 l29 -29 -29 -29 c-21 -21
-29 -39 -29 -64 0 -37 32 -87 56 -87 10 0 2 -13 -20 -34 -28 -26 -36 -41 -36
-68 0 -38 32 -88 56 -88 10 0 2 -13 -20 -34 -28 -26 -36 -41 -36 -68 0 -38 32
-88 56 -88 10 0 2 -13 -20 -34 -29 -26 -36 -41 -36 -70 0 -38 35 -86 62 -86 7
0 -4 -14 -25 -31 -31 -26 -37 -36 -37 -70 0 -41 34 -89 62 -89 7 0 1 -8 -12
-17 -39 -27 -49 -45 -50 -86 0 -39 34 -87 62 -87 7 0 1 -8 -12 -17 -39 -27
-49 -45 -50 -86 0 -39 34 -87 62 -87 7 0 1 -8 -12 -17 -38 -26 -49 -45 -50
-81 0 -43 14 -68 48 -86 15 -9 21 -15 14 -16 -7 0 -24 -12 -37 -26 -43 -47
-28 -120 30 -152 11 -6 14 -12 7 -12 -27 0 -62 -52 -62 -90 0 -38 35 -90 62
-90 7 -1 1 -7 -14 -16 -34 -18 -48 -43 -48 -86 1 -36 12 -55 50 -81 13 -9 19
-17 12 -17 -7 0 -24 -11 -37 -25 -41 -40 -29 -119 22 -146 l24 -13 -25 -13
c-57 -30 -63 -98 -12 -149 19 -19 28 -34 21 -34 -23 0 -55 -51 -55 -87 0 -26
8 -43 34 -69 19 -19 28 -34 21 -34 -23 0 -55 -51 -55 -88 0 -27 8 -42 36 -68
22 -21 30 -34 20 -34 -24 0 -56 -50 -56 -88 0 -27 8 -42 36 -68 22 -21 30 -34
20 -34 -24 0 -56 -50 -56 -87 0 -25 8 -43 29 -64 l29 -29 -29 -29 c-21 -22
-29 -39 -29 -66 0 -27 8 -44 29 -66 l29 -29 -29 -29 c-40 -41 -40 -91 0 -132
l29 -29 -29 -29 c-40 -41 -40 -91 0 -132 l29 -29 -29 -29 c-21 -21 -29 -39
-29 -64 0 -37 32 -87 56 -87 10 0 2 -13 -20 -34 -28 -26 -36 -41 -36 -68 0
-38 32 -88 56 -88 10 0 2 -13 -20 -34 -28 -26 -36 -41 -36 -67 0 -39 23 -77
52 -88 19 -7 19 -8 -7 -25 l-28 -18 -81 81 c-63 63 -78 83 -68 93 22 22 15 86
-13 113 -13 14 -30 25 -37 25 -7 0 -1 8 12 17 39 27 49 45 50 86 0 39 -34 87
-62 87 -7 0 -1 8 12 17 38 26 49 45 50 81 0 43 -14 68 -48 86 -15 9 -21 15
-14 16 27 0 62 52 62 90 0 38 -35 90 -62 90 -7 1 -1 7 14 16 34 18 48 43 48
86 -1 36 -12 55 -50 81 -13 9 -19 17 -12 17 28 0 62 48 62 87 -1 41 -11 59
-50 86 -13 9 -19 17 -12 17 28 0 62 48 62 87 -1 41 -11 59 -50 86 -13 9 -19
17 -12 17 7 0 24 11 37 25 38 37 34 88 -9 131 -19 19 -28 34 -21 34 23 0 55
51 55 88 0 27 -8 42 -36 68 -22 21 -30 34 -20 34 24 0 56 50 56 88 0 27 -8 42
-36 68 -22 21 -30 34 -20 34 24 0 56 50 56 88 0 27 -8 42 -36 68 -22 21 -30
34 -20 34 24 0 56 50 56 87 0 25 -8 43 -29 64 l-29 29 29 29 c21 22 29 39 29
66 0 27 -8 44 -29 66 l-29 29 29 29 c40 41 40 91 0 132 l-29 29 29 29 c40 41
40 91 0 132 l-29 29 29 29 c21 21 29 39 29 64 0 37 -32 87 -56 87 -10 0 -2 13
20 34 28 26 36 41 36 68 0 38 -32 88 -56 88 -10 0 -2 13 20 34 28 26 36 41 36
68 0 38 -32 88 -56 88 -10 0 -2 13 20 34 45 42 50 93 11 131 -13 14 -28 25
-34 25 -5 0 6 15 25 34 43 43 47 94 9 131 -13 14 -30 25 -37 25 -7 0 -1 8 12
17 39 27 49 45 50 86 0 39 -34 87 -62 87 -7 0 -1 8 12 17 38 26 49 45 50 81 0
43 -14 68 -48 86 -15 9 -21 15 -14 16 26 0 62 52 62 87 0 44 -14 69 -48 87
-15 9 -21 15 -14 16 27 0 62 52 62 90 0 38 -35 90 -62 90 -7 1 -1 7 14 16 34
18 48 43 48 87 0 35 -36 87 -62 87 -7 1 -1 7 14 16 34 18 48 43 48 86 -1 36
-12 55 -50 81 -13 9 -19 17 -12 17 28 0 62 48 62 87 -1 41 -11 59 -50 86 -13
9 -19 17 -12 17 7 0 24 11 37 25 38 37 34 88 -9 131 -19 19 -30 34 -25 34 6 0
21 11 34 25 39 38 34 89 -11 131 -22 21 -30 34 -20 34 24 0 56 50 56 88 0 27
-8 42 -36 68 -22 21 -30 34 -20 34 24 0 56 50 56 88 0 27 -8 42 -36 68 -22 21
-30 34 -20 34 24 0 56 50 56 87 0 25 -8 43 -29 64 l-29 29 29 29 c40 41 40 91
0 132 l-29 29 29 29 c40 41 40 91 0 132 l-29 29 29 29 c40 41 40 91 0 132
l-29 29 29 29 c21 21 29 39 29 64 0 37 -32 87 -56 87 -10 0 -2 13 20 34 28 26
36 41 36 68 0 38 -32 88 -56 88 -10 0 -2 13 20 34 28 26 36 41 36 68 0 38 -32
88 -56 88 -10 0 -2 13 20 34 45 42 50 93 11 131 -13 14 -29 25 -35 25 -6 0 5
15 24 34 45 42 50 93 11 131 -13 14 -29 25 -35 25 -6 0 5 14 25 31 28 25 35
38 35 68 0 20 -5 43 -10 51 -7 12 8 33 68 93 42 42 81 75 87 72 5 -3 18 -8 27
-11z m11139 -60 l77 -76 -14 -34 c-12 -29 -12 -39 0 -68 8 -19 24 -40 36 -46
l22 -12 -22 -15 c-12 -9 -28 -31 -36 -49 -12 -29 -12 -39 0 -68 8 -19 24 -39
35 -46 21 -11 21 -11 -8 -35 -16 -14 -31 -37 -34 -52 -7 -36 15 -88 42 -103
21 -11 21 -11 -8 -35 -16 -14 -31 -37 -34 -52 -5 -29 15 -93 30 -93 4 0 14 -4
22 -9 12 -8 8 -14 -16 -35 -17 -14 -33 -38 -36 -53 -5 -29 15 -93 30 -93 4 0
14 -4 22 -9 12 -8 8 -14 -16 -35 -17 -14 -33 -38 -36 -53 -5 -26 18 -93 32
-93 3 0 12 -4 20 -9 12 -8 8 -14 -16 -35 -17 -14 -33 -38 -36 -53 -7 -35 18
-90 44 -98 24 -8 24 -22 1 -29 -18 -6 -33 -29 -46 -69 -8 -25 21 -85 45 -92
24 -8 24 -22 1 -29 -25 -8 -45 -48 -45 -88 0 -23 9 -39 33 -61 26 -23 30 -31
19 -38 -8 -5 -17 -9 -21 -9 -14 0 -30 -43 -30 -78 0 -28 7 -43 30 -63 l30 -27
-29 -25 c-43 -38 -43 -98 0 -138 l29 -27 -29 -25 c-44 -38 -43 -98 1 -139 29
-27 29 -28 9 -39 -27 -14 -49 -67 -42 -102 3 -15 18 -38 34 -52 29 -24 29 -24
8 -35 -27 -15 -49 -67 -42 -103 3 -15 18 -38 34 -52 29 -24 29 -24 8 -35 -26
-15 -50 -70 -42 -101 7 -31 42 -69 62 -69 9 0 3 -8 -15 -19 -45 -27 -59 -74
-37 -120 10 -20 28 -41 40 -47 l23 -11 -26 -11 c-60 -28 -62 -125 -3 -161 l29
-18 -26 -11 c-60 -28 -62 -125 -3 -161 l29 -18 -26 -11 c-60 -28 -62 -125 -3
-161 l29 -18 -26 -11 c-14 -7 -32 -28 -40 -47 -12 -30 -12 -39 0 -69 8 -19 24
-39 35 -46 21 -11 21 -11 -8 -35 -16 -14 -31 -37 -34 -52 -7 -36 15 -88 42
-103 21 -11 21 -11 -8 -35 -16 -14 -31 -37 -34 -52 -7 -36 15 -88 42 -103 21
-11 21 -11 -8 -35 -16 -14 -31 -37 -34 -52 -7 -36 15 -88 42 -103 21 -11 21
-11 -8 -35 -49 -42 -46 -116 5 -150 l25 -16 -30 -24 c-16 -14 -31 -37 -34 -52
-5 -29 15 -93 30 -93 4 0 14 -4 22 -9 12 -8 8 -14 -16 -35 -17 -14 -33 -38
-36 -53 -5 -26 18 -93 32 -93 3 0 12 -4 20 -9 12 -8 8 -14 -16 -35 -17 -14
-33 -38 -36 -53 -5 -26 18 -93 32 -93 3 0 12 -4 20 -9 11 -7 7 -15 -19 -38
-25 -22 -32 -37 -33 -67 -1 -32 5 -44 33 -69 22 -19 30 -32 22 -35 -22 -7 -52
-45 -53 -66 -3 -46 3 -62 34 -90 20 -19 27 -31 19 -34 -22 -7 -52 -45 -53 -66
-3 -46 3 -62 33 -90 24 -22 28 -30 17 -37 -8 -5 -18 -9 -22 -9 -15 0 -35 -64
-30 -93 3 -15 18 -38 34 -52 29 -24 29 -24 8 -35 -27 -15 -49 -67 -42 -103 3
-15 18 -38 34 -52 29 -24 29 -24 8 -35 -27 -15 -49 -67 -42 -103 3 -15 18 -38
34 -52 29 -24 29 -24 8 -35 -11 -7 -27 -27 -35 -46 -12 -29 -12 -39 0 -68 8
-18 24 -40 36 -49 l22 -15 -22 -12 c-12 -6 -28 -27 -36 -47 -14 -31 -13 -38 3
-71 10 -20 28 -42 40 -48 l23 -11 -26 -11 c-14 -7 -32 -28 -40 -48 -14 -32
-13 -39 3 -72 10 -20 28 -42 40 -48 l23 -11 -26 -11 c-14 -7 -32 -28 -39 -47
-18 -41 -7 -80 32 -111 l26 -22 -23 -12 c-57 -30 -56 -124 1 -159 l29 -18 -26
-11 c-14 -7 -32 -28 -39 -47 -18 -41 -7 -80 32 -111 l26 -22 -23 -12 c-12 -6
-28 -27 -36 -46 -12 -30 -12 -39 0 -69 8 -19 26 -40 40 -47 l26 -11 -23 -11
c-12 -6 -30 -28 -40 -48 -16 -33 -16 -40 -3 -71 l14 -35 -78 -77 -78 -77 -27
18 -27 17 25 13 c56 30 59 116 5 158 -30 23 -30 24 -9 31 12 3 28 20 37 37 22
43 11 91 -28 121 -30 24 -30 25 -9 32 57 18 64 117 11 157 l-30 21 23 11 c31
16 49 55 43 95 -6 36 -31 71 -53 71 -7 0 -13 5 -13 10 0 6 6 10 13 10 22 0 47
35 53 71 6 40 -26 99 -53 99 -13 0 -10 7 14 26 40 31 51 79 29 122 -9 17 -25
34 -37 37 -21 7 -21 8 9 32 39 30 50 78 28 121 -9 17 -25 33 -36 37 -18 6 -17
9 15 39 23 22 35 42 35 60 0 37 -26 83 -50 91 -18 6 -17 9 15 39 23 22 35 42
35 60 0 37 -26 83 -50 91 -18 6 -17 9 15 39 23 22 35 42 35 60 0 37 -26 83
-50 91 -18 6 -17 9 15 39 23 22 35 42 35 60 0 37 -26 83 -50 91 -18 6 -17 9
15 39 47 45 48 85 3 129 l-33 32 33 31 c23 23 32 41 32 64 0 23 -9 41 -32 63
l-33 32 33 31 c23 23 32 41 32 64 0 23 -9 41 -32 63 l-33 32 33 31 c23 23 32
41 32 64 0 23 -9 41 -32 63 l-33 32 33 32 c23 22 32 40 32 63 0 23 -9 41 -32
63 l-33 32 33 32 c44 43 44 84 -2 128 l-35 32 24 13 c54 29 59 99 10 146 -32
30 -33 33 -15 39 24 8 50 54 50 91 0 18 -12 38 -35 60 -32 30 -33 33 -15 39
24 8 50 54 50 91 0 18 -12 38 -35 60 -32 30 -33 33 -15 39 24 8 50 54 50 91 0
18 -12 38 -35 60 -32 30 -33 33 -15 39 11 4 27 20 36 37 22 43 11 91 -28 121
-30 24 -30 25 -9 32 57 18 64 117 10 157 -28 21 -28 23 -10 30 11 4 27 21 36
39 23 44 13 92 -28 123 -21 17 -26 26 -16 26 24 0 49 33 55 71 6 39 -25 99
-51 99 -8 0 -15 5 -15 10 0 6 6 10 13 10 21 0 46 32 53 67 7 37 -17 89 -47 98
-21 7 -21 8 9 32 39 30 50 78 28 121 -9 17 -25 34 -37 37 -21 7 -21 8 9 32 39
30 50 78 28 121 -9 17 -25 33 -36 37 -18 6 -17 9 15 39 23 22 35 42 35 60 0
37 -26 83 -50 91 -18 6 -17 9 15 39 23 22 35 42 35 60 0 37 -26 83 -50 91 -18
6 -17 9 15 39 23 22 35 42 35 60 0 37 -26 83 -50 91 -18 6 -17 9 15 39 47 45
48 85 3 129 l-33 32 33 31 c23 23 32 41 32 64 0 23 -9 41 -32 63 l-33 32 33
31 c23 23 32 41 32 64 0 23 -9 41 -32 63 l-33 32 33 31 c23 23 32 41 32 64 0
23 -9 41 -32 63 l-33 32 33 31 c23 23 32 41 32 64 0 23 -9 41 -32 63 l-33 32
33 32 c23 22 32 40 32 63 0 24 -9 41 -32 63 l-33 30 33 33 c45 45 44 85 -3
130 -32 30 -33 33 -15 39 24 8 50 54 50 91 0 18 -12 38 -35 60 -32 30 -33 33
-15 39 24 8 50 54 50 91 0 18 -12 38 -35 60 -32 30 -33 33 -15 39 11 4 27 20
36 37 22 43 11 91 -28 121 -30 24 -30 25 -9 32 57 18 64 117 10 157 l-29 22
22 13 c13 7 25 12 28 13 2 0 39 -34 81 -76z m-11468 -269 c-32 -32 -35 -40
-30 -73 4 -25 17 -46 38 -64 30 -25 30 -26 10 -33 -12 -3 -28 -20 -37 -37 -22
-43 -11 -91 28 -121 30 -24 30 -25 9 -32 -12 -3 -28 -20 -37 -37 -22 -43 -11
-91 28 -121 30 -24 30 -25 9 -32 -57 -18 -64 -117 -10 -157 l30 -22 -24 -13
c-31 -16 -51 -64 -43 -99 4 -15 21 -40 37 -55 28 -26 28 -28 9 -34 -22 -7 -50
-53 -50 -82 0 -27 37 -83 55 -83 22 0 18 -18 -5 -25 -21 -7 -50 -53 -50 -80 0
-27 29 -73 50 -80 19 -6 19 -8 -9 -34 -16 -15 -33 -40 -37 -56 -9 -34 17 -91
46 -100 20 -6 19 -8 -9 -34 -16 -15 -33 -40 -37 -55 -8 -35 12 -83 43 -99 l24
-13 -30 -22 c-54 -40 -47 -139 10 -157 21 -7 21 -8 -9 -32 -39 -30 -50 -78
-28 -121 9 -17 25 -34 37 -37 21 -7 21 -8 -9 -32 -39 -30 -50 -78 -28 -121 9
-17 25 -34 37 -37 20 -7 20 -8 -10 -33 -21 -18 -34 -39 -38 -64 -5 -33 -2 -41
29 -72 l34 -34 -28 -24 c-19 -15 -31 -36 -35 -60 -5 -33 -1 -42 29 -72 l34
-34 -28 -24 c-19 -15 -31 -36 -35 -60 -5 -33 -1 -42 29 -72 l34 -34 -28 -24
c-19 -15 -31 -36 -35 -60 -5 -33 -1 -41 28 -71 l34 -33 -28 -24 c-17 -16 -30
-39 -34 -62 -5 -33 -2 -41 28 -70 l34 -33 -34 -33 c-30 -29 -33 -37 -28 -70 4
-23 17 -46 34 -62 l28 -24 -34 -33 c-29 -30 -33 -38 -28 -71 4 -24 16 -45 35
-60 l28 -24 -34 -34 c-30 -30 -34 -39 -29 -72 4 -24 16 -45 35 -60 l28 -24
-34 -34 c-30 -30 -34 -39 -29 -72 4 -24 16 -45 35 -60 l28 -24 -34 -34 c-31
-31 -34 -39 -29 -72 4 -25 17 -46 38 -64 30 -25 30 -26 10 -33 -12 -3 -28 -20
-37 -37 -22 -43 -11 -91 28 -121 30 -24 30 -25 9 -32 -12 -3 -28 -20 -37 -37
-22 -43 -11 -91 28 -121 30 -24 30 -25 9 -32 -30 -9 -54 -61 -47 -98 7 -35 32
-67 53 -67 20 0 15 -18 -7 -25 -22 -7 -50 -53 -50 -82 0 -27 37 -83 55 -83 8
0 15 -4 15 -10 0 -5 -7 -10 -15 -10 -18 0 -55 -56 -55 -83 0 -29 28 -75 50
-82 23 -7 27 -25 5 -25 -18 0 -55 -56 -55 -83 0 -29 28 -75 50 -82 19 -6 19
-8 -9 -34 -16 -15 -33 -40 -37 -55 -8 -35 12 -83 43 -99 l24 -13 -30 -22 c-54
-40 -47 -139 10 -157 21 -7 21 -8 -9 -32 -41 -31 -51 -80 -26 -122 10 -17 27
-34 37 -37 17 -5 16 -9 -12 -32 -21 -18 -34 -39 -38 -64 -5 -33 -2 -41 29 -72
l34 -34 -28 -24 c-19 -15 -31 -36 -35 -60 -5 -33 -1 -42 29 -72 l34 -34 -28
-24 c-19 -15 -31 -36 -35 -60 -5 -33 -1 -42 29 -72 l34 -34 -28 -24 c-19 -15
-31 -36 -35 -60 -5 -33 -1 -42 29 -72 l34 -34 -28 -24 c-19 -15 -31 -36 -35
-60 -5 -33 -1 -41 28 -71 l34 -33 -28 -24 c-17 -16 -30 -39 -34 -62 -5 -33 -2
-41 28 -70 l34 -33 -34 -33 c-30 -29 -33 -37 -28 -70 4 -23 17 -46 34 -62 l28
-24 -34 -33 c-30 -30 -33 -38 -28 -71 4 -24 17 -46 36 -62 28 -24 29 -27 12
-37 -16 -10 -29 0 -99 70 -72 74 -79 84 -71 106 13 34 -7 90 -37 103 -30 14
-31 25 -3 33 11 4 27 23 35 42 19 44 4 99 -32 115 -30 14 -31 25 -3 33 11 4
27 23 35 42 19 44 4 99 -32 115 -30 14 -30 22 0 36 14 6 29 26 36 46 9 29 8
41 -5 70 -9 20 -25 38 -36 41 -25 8 -24 22 2 30 26 9 51 67 43 100 -3 14 -19
36 -35 50 -29 24 -29 24 -8 35 27 15 51 73 43 105 -3 14 -19 36 -35 50 -29 24
-29 24 -8 35 27 15 51 73 43 105 -3 14 -19 36 -35 50 -29 24 -29 24 -8 35 27
15 51 73 43 105 -3 14 -19 36 -35 50 -29 24 -29 24 -8 35 27 15 51 73 43 105
-3 14 -19 36 -35 50 -28 23 -29 24 -9 35 30 16 52 66 45 100 -4 16 -20 41 -36
54 -28 24 -29 25 -9 36 30 16 52 66 45 100 -4 16 -20 41 -36 54 -28 24 -29 25
-9 36 30 16 52 66 45 101 -4 16 -20 40 -37 53 -30 23 -31 24 -10 35 32 17 55
67 47 102 -4 16 -19 39 -35 51 l-28 21 28 24 c16 13 31 37 35 53 7 34 -15 84
-45 100 -20 11 -19 12 9 35 16 14 32 36 35 50 8 32 -16 90 -43 105 -21 11 -21
11 8 35 16 14 32 36 35 50 8 32 -16 90 -43 105 -21 11 -21 11 8 35 16 14 32
36 35 50 8 32 -16 90 -43 105 -21 11 -21 11 8 35 16 14 32 36 35 50 8 32 -16
90 -43 105 -21 11 -21 11 8 35 16 14 32 36 35 50 8 32 -16 90 -44 105 l-21 11
26 21 c54 42 53 116 -3 156 -25 19 -25 20 -5 26 12 4 29 22 38 42 13 29 14 41
5 70 -7 20 -22 40 -36 46 -30 14 -30 22 0 36 36 16 51 71 32 115 -8 19 -24 38
-35 42 -28 8 -27 19 3 33 14 6 29 26 36 46 9 29 8 41 -5 70 -9 20 -25 38 -36
41 -25 8 -24 22 2 30 26 9 51 67 43 100 -3 14 -20 37 -37 51 -24 21 -28 27
-16 35 8 5 18 9 22 9 15 0 37 70 31 95 -3 14 -19 36 -35 49 -34 29 -35 32 -9
39 26 7 52 69 44 102 -3 14 -19 36 -35 50 -29 24 -29 24 -8 35 27 15 51 73 43
105 -3 14 -19 36 -35 50 -29 24 -29 24 -8 35 27 15 51 73 43 105 -3 14 -19 36
-35 50 -28 23 -29 24 -9 35 30 16 52 66 45 100 -4 16 -20 41 -36 54 -28 24
-29 25 -9 36 30 16 52 66 45 100 -4 16 -20 41 -36 54 -28 24 -29 25 -9 36 30
16 52 66 45 100 -4 16 -20 41 -36 54 -28 24 -29 25 -9 36 29 15 53 67 45 98
-3 14 -19 37 -35 52 l-29 27 29 21 c15 12 31 35 35 51 7 35 -15 85 -45 101
-20 11 -19 12 9 36 16 13 32 38 36 54 7 34 -15 84 -45 100 -20 11 -19 12 9 35
16 14 32 36 35 50 8 32 -16 90 -43 105 -21 11 -21 11 8 35 16 14 32 36 35 50
8 32 -16 90 -43 105 -21 11 -21 11 8 35 16 14 32 36 35 50 8 32 -16 90 -43
105 -21 11 -21 11 8 35 33 29 45 63 32 97 -8 20 0 33 72 105 65 66 84 80 98
73 15 -9 13 -14 -18 -45z m11831 -136 c-7 -43 16 -94 46 -104 18 -6 17 -9 -15
-39 -23 -22 -35 -42 -35 -60 0 -37 26 -83 50 -91 18 -6 17 -9 -15 -39 -49 -47
-44 -117 10 -146 l24 -13 -35 -32 c-48 -46 -43 -116 10 -145 l22 -12 -33 -33
c-45 -45 -45 -85 0 -128 l32 -32 -32 -31 c-24 -23 -33 -41 -33 -64 0 -23 9
-41 33 -63 l32 -32 -32 -32 c-24 -22 -33 -40 -33 -63 0 -23 9 -41 33 -63 l32
-32 -32 -31 c-24 -23 -33 -41 -33 -64 0 -23 9 -41 33 -63 l32 -32 -32 -31
c-46 -44 -45 -85 2 -130 32 -30 33 -33 15 -39 -24 -8 -50 -54 -50 -91 0 -18
12 -38 35 -60 32 -30 33 -33 15 -39 -24 -8 -50 -54 -50 -91 0 -18 12 -38 35
-60 32 -30 33 -33 15 -39 -24 -8 -50 -54 -50 -91 0 -18 12 -38 35 -60 32 -30
33 -33 15 -39 -24 -8 -50 -54 -50 -91 0 -18 12 -38 35 -60 32 -30 33 -33 15
-39 -11 -4 -27 -20 -36 -37 -22 -43 -11 -91 28 -121 30 -24 30 -25 9 -32 -57
-18 -64 -117 -11 -157 l30 -21 -23 -11 c-12 -6 -27 -23 -35 -36 -24 -47 6
-130 47 -130 10 0 5 -9 -16 -26 -40 -31 -51 -79 -29 -122 9 -17 25 -34 37 -37
21 -7 21 -8 -9 -32 -39 -30 -50 -78 -28 -121 9 -17 25 -33 36 -37 18 -6 17 -9
-15 -39 -23 -22 -35 -42 -35 -60 0 -37 26 -83 50 -91 18 -6 17 -9 -15 -39 -23
-22 -35 -42 -35 -60 0 -37 26 -83 50 -91 18 -6 17 -9 -15 -39 -23 -22 -35 -42
-35 -60 0 -37 26 -83 50 -91 18 -6 17 -9 -15 -39 -23 -22 -35 -42 -35 -60 0
-37 26 -83 50 -91 18 -6 17 -9 -15 -39 -23 -22 -35 -42 -35 -60 0 -37 26 -83
50 -91 18 -6 17 -9 -15 -39 -47 -45 -48 -85 -2 -129 l32 -32 -32 -32 c-24 -22
-33 -40 -33 -63 0 -23 9 -41 33 -63 l32 -32 -32 -32 c-24 -22 -33 -40 -33 -63
0 -23 9 -41 33 -63 l32 -32 -32 -32 c-24 -22 -33 -40 -33 -63 0 -23 9 -41 33
-63 l32 -32 -32 -32 c-24 -22 -33 -40 -33 -63 0 -23 9 -41 33 -63 l32 -32 -32
-31 c-46 -44 -45 -85 2 -130 32 -30 33 -33 15 -39 -24 -8 -50 -54 -50 -91 0
-18 12 -38 35 -60 32 -30 33 -33 15 -39 -24 -8 -50 -54 -50 -91 0 -18 12 -38
35 -60 32 -30 33 -33 15 -39 -24 -8 -50 -54 -50 -91 0 -18 12 -38 35 -60 32
-30 33 -33 15 -39 -24 -8 -50 -54 -50 -91 0 -18 12 -38 35 -60 32 -30 33 -33
15 -39 -24 -8 -50 -54 -50 -91 0 -18 12 -38 36 -60 23 -23 30 -34 20 -34 -22
0 -56 -58 -56 -94 0 -20 11 -39 36 -62 20 -19 29 -34 21 -34 -27 0 -52 -40
-52 -85 0 -44 25 -85 52 -85 7 0 13 -4 13 -10 0 -5 -6 -10 -13 -10 -8 0 -22
-9 -33 -21 -39 -43 -14 -149 35 -149 9 0 2 -11 -19 -29 -32 -27 -35 -33 -35
-85 l0 -55 -74 -75 c-64 -64 -76 -73 -92 -63 -18 11 -17 13 6 32 53 44 50 120
-6 154 l-29 18 26 11 c60 28 62 125 3 161 l-29 18 26 11 c14 7 32 28 40 47 12
31 12 39 0 70 -8 19 -26 40 -40 47 l-26 11 23 11 c12 6 30 28 40 48 16 33 17
40 3 71 -8 20 -24 41 -36 47 l-22 12 22 15 c12 9 28 31 36 49 12 29 12 39 0
68 -8 19 -24 40 -36 46 l-22 12 22 15 c12 9 28 31 36 49 12 29 12 39 0 68 -8
19 -24 39 -35 46 -21 11 -21 11 8 35 16 14 31 37 34 52 7 35 -15 88 -42 102
-20 11 -20 12 10 39 24 21 31 36 31 64 0 42 -15 74 -42 88 -19 10 -18 12 10
38 44 41 45 101 1 139 l-29 25 29 27 c43 40 43 100 0 138 l-29 25 30 27 c23
20 30 35 30 63 0 35 -16 78 -30 78 -4 0 -13 4 -21 9 -11 7 -7 15 17 37 30 28
36 44 33 90 -1 21 -31 59 -53 66 -8 3 0 15 20 34 24 21 33 38 34 62 1 40 -19
80 -44 88 -23 7 -23 21 0 28 25 8 45 48 44 88 -1 24 -10 41 -34 62 -20 19 -28
31 -20 34 22 7 52 45 53 66 3 46 -3 62 -33 90 -24 22 -28 30 -17 37 8 5 17 9
21 9 14 0 30 43 30 78 0 28 -7 43 -32 65 -26 23 -30 31 -19 38 8 5 17 9 21 9
14 0 30 43 30 78 0 28 -7 43 -31 64 -30 27 -30 28 -10 39 27 14 49 67 42 102
-3 15 -18 38 -34 52 -29 24 -29 24 -8 35 11 7 27 27 35 47 14 31 13 38 -3 71
-10 20 -28 42 -40 48 l-23 11 26 11 c14 7 32 28 40 47 12 30 12 40 0 69 -8 18
-24 40 -36 49 l-22 15 22 12 c57 30 56 124 -1 159 l-29 18 26 11 c60 28 62
125 3 161 l-29 18 26 11 c60 28 62 125 3 161 l-29 18 26 11 c14 7 32 28 40 47
12 31 12 39 0 70 -8 19 -26 40 -40 47 l-26 11 23 11 c12 6 30 28 40 48 16 33
17 40 3 72 -8 20 -26 41 -40 48 l-26 11 23 11 c12 6 30 28 40 48 16 33 17 40
3 71 -8 20 -24 41 -36 47 l-21 11 24 20 c53 41 51 126 -2 157 -29 16 -29 16
-7 27 56 28 64 119 12 159 l-24 18 29 27 c43 40 43 100 0 138 l-29 25 29 27
c27 25 33 42 30 87 -1 21 -31 59 -53 66 -8 3 -1 15 19 34 31 28 37 44 34 90
-1 21 -31 59 -53 66 -8 3 0 15 21 34 27 24 33 37 33 69 0 31 -6 45 -31 67
l-31 28 31 28 c25 22 31 36 31 67 0 31 -6 45 -31 67 l-31 28 31 28 c25 22 31
36 31 67 0 32 -6 45 -33 69 -21 19 -29 31 -21 34 22 7 52 45 53 66 3 46 -3 62
-34 90 -20 19 -27 31 -19 34 22 7 52 45 53 66 3 46 -3 62 -33 90 -24 22 -28
30 -17 37 8 5 17 9 21 9 14 0 30 43 30 78 0 28 -7 43 -31 64 -29 26 -30 28
-11 38 27 14 42 46 42 88 0 28 -7 43 -31 64 -29 26 -30 28 -11 38 27 14 42 46
42 88 0 28 -7 43 -31 64 -27 24 -29 28 -13 37 14 8 31 -4 94 -67 74 -73 77
-78 72 -113z m-9402 -9169 c38 0 88 32 88 56 0 10 13 2 34 -20 42 -45 93 -50
131 -11 14 13 25 28 25 34 0 5 15 -6 34 -25 43 -43 94 -47 131 -9 14 13 25 28
25 34 0 5 15 -6 34 -25 43 -43 94 -47 131 -9 14 13 25 30 25 37 0 7 8 1 17
-12 27 -39 45 -49 86 -50 39 0 87 34 87 62 0 7 8 1 17 -12 26 -38 45 -49 81
-50 43 0 68 14 86 48 9 15 15 21 16 14 0 -27 52 -62 90 -62 38 0 90 35 90 62
1 7 7 1 16 -14 18 -34 43 -48 87 -48 35 0 87 36 87 62 1 7 7 1 16 -14 18 -34
43 -48 86 -48 36 1 55 12 81 50 9 13 17 19 17 12 0 -7 11 -24 25 -37 37 -38
88 -34 131 9 19 19 34 30 34 25 0 -6 11 -21 25 -34 37 -38 88 -34 131 9 19 19
34 28 34 21 0 -23 51 -55 88 -55 27 0 42 8 68 36 21 22 34 30 34 20 0 -24 50
-56 88 -56 27 0 42 8 68 36 21 22 34 30 34 20 0 -24 50 -56 87 -56 25 0 43 8
64 29 l29 29 29 -29 c41 -40 91 -40 132 0 l29 29 29 -29 c41 -40 91 -40 132 0
l29 29 29 -29 c41 -40 91 -40 132 0 l29 29 29 -29 c21 -21 39 -29 64 -29 37 0
87 32 87 56 0 10 13 2 34 -20 26 -28 41 -36 68 -36 38 0 88 32 88 56 0 10 13
2 34 -20 26 -28 41 -36 68 -36 38 0 88 32 88 56 0 10 13 2 34 -20 42 -45 93
-50 131 -11 14 13 25 28 25 34 0 5 15 -6 34 -25 51 -51 119 -45 149 12 l13 25
13 -24 c22 -42 88 -60 131 -37 11 6 26 23 34 38 9 15 15 21 16 14 0 -26 52
-62 87 -62 44 0 69 14 87 48 9 15 15 21 16 14 0 -27 52 -62 90 -62 38 0 90 35
90 62 1 7 7 1 16 -14 18 -34 43 -48 87 -48 35 0 87 36 87 62 1 7 7 1 16 -14
18 -34 43 -48 86 -48 36 1 55 12 81 50 9 13 17 19 17 12 0 -28 48 -62 87 -62
41 1 59 11 86 50 9 13 17 19 17 12 0 -7 11 -24 25 -37 41 -41 115 -30 148 23
12 19 17 22 17 10 0 -26 49 -58 88 -58 27 0 42 8 68 36 21 22 34 30 34 20 0
-24 50 -56 88 -56 27 0 42 8 68 36 21 22 34 30 34 20 0 -24 50 -56 87 -56 25
0 43 8 64 29 l29 29 29 -29 c41 -40 91 -40 132 0 l29 29 29 -29 c22 -21 39
-29 66 -29 27 0 44 8 66 29 l29 29 29 -29 c22 -21 39 -29 66 -29 27 0 44 8 66
29 l29 29 29 -29 c21 -21 39 -29 64 -29 37 0 87 32 87 56 0 10 13 2 34 -20 26
-28 41 -36 68 -36 38 0 88 32 88 56 0 10 13 2 34 -20 26 -28 41 -36 68 -36 39
0 88 32 88 58 0 11 10 4 31 -21 25 -31 37 -37 68 -37 42 0 91 31 91 58 1 14 3
14 15 -3 8 -11 20 -26 26 -34 9 -10 -4 -29 -69 -93 -78 -79 -80 -80 -103 -64
-35 24 -85 20 -114 -9 -14 -13 -25 -28 -25 -34 0 -5 -15 6 -34 25 -43 43 -94
47 -131 9 -14 -13 -25 -30 -25 -37 0 -7 -8 -1 -17 12 -26 38 -45 49 -81 50
-43 0 -68 -14 -86 -48 -9 -15 -15 -21 -16 -14 0 26 -52 62 -87 62 -44 0 -69
-14 -87 -48 -9 -15 -15 -21 -16 -14 0 7 -12 24 -26 37 -47 43 -120 28 -152
-30 -6 -11 -12 -14 -12 -7 0 27 -52 62 -90 62 -38 0 -90 -35 -90 -62 -1 -7 -7
-1 -16 14 -18 34 -43 48 -86 48 -36 -1 -55 -12 -81 -50 -9 -13 -17 -19 -17
-12 0 28 -48 62 -89 62 -32 0 -44 -6 -70 -35 -17 -20 -31 -31 -31 -25 0 6 -11
22 -25 35 -37 38 -88 34 -131 -9 -19 -19 -34 -28 -34 -21 0 23 -51 55 -88 55
-27 0 -42 -8 -68 -36 -21 -22 -34 -30 -34 -20 0 24 -50 56 -88 56 -27 0 -42
-8 -68 -36 -21 -22 -34 -30 -34 -20 0 24 -50 56 -87 56 -25 0 -43 -8 -64 -29
l-29 -29 -29 29 c-41 40 -91 40 -132 0 l-29 -29 -29 29 c-41 40 -91 40 -132 0
l-29 -29 -29 29 c-41 40 -91 40 -132 0 l-29 -29 -29 29 c-21 21 -39 29 -64 29
-37 0 -87 -32 -87 -56 0 -10 -13 -2 -34 20 -26 28 -41 36 -68 36 -38 0 -88
-32 -88 -56 0 -10 -13 -2 -34 20 -26 28 -41 36 -68 36 -38 0 -88 -32 -88 -56
0 -10 -13 -2 -34 20 -42 45 -93 50 -131 11 -14 -13 -25 -28 -25 -34 0 -5 -15
6 -34 25 -51 51 -119 45 -149 -12 l-13 -25 -13 24 c-27 51 -106 63 -146 22
-14 -13 -25 -30 -25 -37 0 -7 -8 -1 -17 12 -26 38 -45 49 -81 50 -43 0 -68
-14 -86 -48 -9 -15 -15 -21 -16 -14 0 26 -52 62 -87 62 -44 0 -69 -14 -87 -48
-9 -15 -15 -21 -16 -14 0 27 -52 62 -90 62 -38 0 -90 -35 -90 -62 -1 -7 -7 -1
-16 14 -18 34 -43 48 -86 48 -36 -1 -55 -12 -81 -50 -9 -13 -17 -19 -17 -12 0
7 -11 24 -25 37 -40 41 -119 29 -146 -22 l-13 -24 -13 25 c-33 63 -126 61
-166 -2 -12 -19 -17 -22 -17 -10 0 26 -49 58 -88 58 -27 0 -42 -8 -68 -36 -21
-22 -34 -30 -34 -20 0 24 -50 56 -88 56 -27 0 -42 -8 -68 -36 -21 -22 -34 -30
-34 -20 0 24 -50 56 -87 56 -25 0 -43 -8 -64 -29 l-29 -29 -29 29 c-22 21 -39
29 -66 29 -27 0 -44 -8 -66 -29 l-29 -29 -29 29 c-41 40 -91 40 -132 0 l-29
-29 -29 29 c-41 40 -91 40 -132 0 l-29 -29 -29 29 c-21 21 -39 29 -64 29 -37
0 -87 -32 -87 -56 0 -10 -13 -2 -34 20 -26 28 -41 36 -68 36 -38 0 -88 -32
-88 -56 0 -10 -13 -2 -34 20 -26 28 -41 36 -68 36 -38 0 -88 -32 -88 -56 0
-10 -13 -2 -34 20 -26 29 -41 36 -70 36 -38 0 -86 -35 -86 -62 0 -7 -8 -1 -17
12 -27 39 -45 49 -86 50 -39 0 -87 -34 -87 -62 0 -7 -8 -1 -17 12 -27 39 -45
49 -86 50 -39 0 -87 -34 -87 -62 0 -7 -8 -1 -17 12 -9 14 -24 30 -33 37 -21
17 -81 16 -106 -1 -19 -14 -26 -10 -99 64 l-79 79 20 23 c10 13 19 24 20 26 1
2 15 -11 32 -28 42 -41 92 -42 133 -1 l29 29 29 -29 c21 -21 39 -29 64 -29 37
0 87 32 87 56 0 10 13 2 34 -20 26 -28 41 -36 68 -36z m-84 -307 c24 4 45 16
60 35 l24 28 34 -34 c31 -31 39 -34 72 -29 24 4 46 17 63 37 l26 30 13 -24
c29 -55 112 -57 154 -4 23 30 24 30 31 9 3 -12 20 -28 37 -37 43 -22 91 -11
121 28 24 30 25 30 32 9 3 -12 20 -28 37 -37 43 -22 91 -11 121 28 24 30 25
30 32 9 9 -30 61 -54 98 -47 35 7 67 32 67 53 0 20 18 15 25 -7 7 -22 53 -50
82 -50 27 0 83 37 83 55 0 8 5 15 10 15 6 0 10 -7 10 -15 0 -18 56 -55 83 -55
29 0 75 28 82 50 6 19 8 19 34 -9 15 -16 40 -33 56 -37 34 -9 91 17 100 46 6
20 8 19 34 -9 15 -16 40 -33 55 -37 35 -8 83 12 99 43 l13 24 22 -30 c39 -54
139 -47 157 10 7 20 8 20 33 -10 18 -21 39 -34 64 -38 33 -5 41 -2 72 29 l34
34 24 -28 c15 -19 36 -31 60 -35 33 -5 42 -1 72 29 l34 34 24 -28 c15 -19 36
-31 60 -35 33 -5 42 -1 72 29 l34 34 24 -28 c15 -19 36 -31 60 -35 33 -5 41
-1 71 28 l33 34 24 -28 c16 -17 39 -30 62 -34 33 -5 41 -2 70 28 l33 34 32
-32 c42 -45 83 -45 126 0 l32 32 33 -34 c29 -30 37 -33 70 -28 23 4 46 17 62
34 l24 28 33 -34 c30 -29 38 -33 71 -28 24 4 45 16 60 35 l24 28 34 -34 c31
-31 39 -34 72 -29 25 4 46 17 64 38 25 30 26 30 33 10 3 -12 20 -28 37 -37 43
-22 91 -11 121 28 24 30 25 30 32 9 3 -12 20 -28 37 -37 43 -22 91 -11 121 28
24 30 25 30 32 9 18 -57 117 -64 157 -10 l22 30 13 -24 c16 -31 64 -51 99 -43
15 4 40 21 55 37 26 28 28 28 34 9 7 -22 53 -50 82 -50 27 0 83 37 83 55 0 22
18 18 25 -5 7 -21 53 -50 80 -50 27 0 73 29 80 50 6 19 8 19 34 -9 15 -16 40
-33 55 -37 35 -8 83 12 99 43 l13 24 22 -30 c40 -54 139 -47 157 10 7 21 8 21
32 -9 30 -39 78 -50 121 -28 17 9 34 25 37 37 7 21 8 21 32 -9 30 -39 78 -50
121 -28 17 9 34 25 37 37 7 20 8 20 33 -10 18 -21 39 -34 64 -38 33 -5 41 -2
72 29 l34 34 24 -28 c15 -19 36 -31 60 -35 33 -5 42 -1 72 29 l34 34 24 -28
c15 -19 36 -31 60 -35 33 -5 41 -1 71 28 l33 34 24 -28 c16 -17 39 -30 62 -34
33 -5 41 -2 70 28 l33 34 31 -33 c43 -44 84 -44 127 0 l32 33 33 -34 c29 -30
37 -33 70 -28 23 4 46 17 62 34 l24 28 33 -34 c30 -29 38 -33 71 -28 24 4 45
16 60 35 l24 28 34 -34 c31 -31 39 -34 72 -29 24 4 46 17 62 36 l25 29 17 -23
c17 -22 16 -24 -56 -94 -41 -39 -81 -71 -89 -71 -8 0 -27 -14 -41 -30 -25 -30
-25 -30 -36 -9 -15 27 -73 51 -105 43 -14 -3 -36 -19 -49 -35 l-24 -28 -16 23
c-8 14 -31 29 -51 36 -30 10 -40 9 -68 -7 -17 -11 -38 -30 -44 -44 -8 -15 -13
-18 -13 -8 0 21 -39 56 -71 64 -32 8 -83 -16 -99 -45 -11 -20 -12 -19 -35 9
-14 16 -36 32 -50 35 -32 8 -90 -16 -105 -43 -11 -21 -11 -21 -35 8 -14 16
-36 32 -50 35 -32 8 -90 -16 -105 -43 -11 -21 -11 -21 -35 8 -14 16 -36 32
-50 35 -32 8 -90 -16 -105 -43 -11 -21 -11 -21 -35 8 -14 16 -36 32 -50 35
-32 8 -90 -16 -105 -43 -11 -21 -11 -21 -35 8 -14 16 -36 32 -50 35 -32 8 -90
-16 -105 -43 -11 -21 -11 -21 -35 8 -14 16 -36 32 -50 35 -32 8 -90 -16 -105
-43 -11 -21 -11 -21 -35 8 -14 16 -36 32 -50 35 -33 8 -91 -17 -100 -43 -8
-26 -22 -27 -30 -2 -3 11 -21 27 -41 36 -29 13 -41 14 -70 5 -20 -7 -40 -22
-46 -36 -13 -29 -25 -31 -33 -5 -3 11 -21 27 -41 36 -29 13 -41 14 -70 5 -20
-7 -40 -22 -46 -36 -14 -30 -22 -30 -36 0 -6 14 -26 29 -46 36 -29 9 -41 8
-70 -5 -20 -9 -38 -25 -41 -36 -8 -25 -22 -24 -30 2 -9 26 -67 51 -100 43 -14
-3 -36 -19 -49 -35 -29 -34 -32 -35 -39 -9 -7 26 -69 52 -102 44 -14 -3 -36
-19 -50 -35 -24 -29 -24 -29 -35 -8 -15 27 -73 51 -105 43 -14 -3 -36 -19 -50
-35 -24 -29 -24 -29 -35 -8 -15 27 -73 51 -105 43 -14 -3 -36 -19 -50 -35 -24
-29 -24 -29 -35 -8 -15 27 -73 51 -105 43 -14 -3 -36 -19 -50 -35 -24 -29 -24
-29 -35 -8 -15 27 -73 51 -105 43 -14 -3 -36 -19 -50 -35 -23 -28 -24 -29 -35
-9 -16 30 -66 52 -100 45 -16 -4 -41 -20 -54 -36 -24 -28 -25 -29 -36 -9 -16
30 -66 52 -101 45 -16 -4 -39 -19 -51 -35 l-21 -28 -23 28 c-13 15 -35 31 -49
34 -32 8 -90 -16 -105 -43 -11 -21 -11 -21 -35 8 -14 16 -36 32 -50 35 -32 8
-90 -16 -105 -43 -11 -21 -11 -21 -35 8 -14 16 -36 32 -50 35 -32 8 -90 -16
-105 -43 -11 -21 -11 -21 -35 8 -14 16 -36 32 -50 35 -32 8 -90 -16 -105 -43
-11 -21 -11 -21 -35 8 -14 16 -36 32 -50 35 -32 8 -90 -16 -105 -43 -11 -21
-11 -21 -35 8 -14 16 -36 32 -50 35 -32 8 -90 -16 -105 -43 -11 -21 -11 -21
-35 8 -14 16 -36 32 -50 35 -25 6 -95 -16 -95 -31 0 -4 -4 -14 -9 -22 -8 -12
-14 -8 -35 16 -14 17 -37 34 -51 37 -33 8 -91 -17 -100 -43 -6 -21 -25 -29
-25 -11 0 15 -40 48 -66 54 -31 8 -91 -19 -99 -45 -8 -25 -22 -24 -30 2 -9 26
-67 51 -100 43 -14 -3 -37 -20 -51 -37 -21 -24 -27 -28 -35 -16 -5 8 -9 18 -9
22 0 15 -70 37 -95 31 -14 -3 -37 -20 -51 -37 -21 -24 -27 -28 -35 -16 -5 8
-9 18 -9 22 0 15 -70 37 -95 31 -14 -3 -36 -19 -50 -35 -24 -29 -24 -29 -35
-8 -15 27 -73 51 -105 43 -14 -3 -36 -19 -50 -35 -24 -29 -24 -29 -35 -8 -15
27 -73 51 -105 43 -14 -3 -36 -19 -50 -35 -24 -29 -24 -29 -35 -8 -15 27 -73
51 -105 43 -14 -3 -36 -19 -49 -35 l-24 -28 -16 24 c-8 13 -26 27 -38 30 -13
4 -55 39 -95 78 -69 67 -71 71 -56 91 16 21 16 21 50 -13 29 -29 38 -33 71
-28z"/>
</g>
</svg>
