<?xml version="1.0" standalone="no"?>
<!DOCTYPE svg PUBLIC "-//W3C//DTD SVG 20010904//EN"
 "http://www.w3.org/TR/2001/REC-SVG-20010904/DTD/svg10.dtd">
<svg version="1.0" xmlns="http://www.w3.org/2000/svg"
 width="1080.000000pt" height="1079.000000pt" viewBox="0 0 1080.000000 1079.000000"
 preserveAspectRatio="xMidYMid meet">

<g transform="translate(0.000000,1079.000000) scale(0.100000,-0.100000)"
fill="#000000" stroke="none">
<path d="M5405 10383 c-115 -2 -392 -7 -615 -11 -354 -8 -410 -11 -442 -26
-21 -10 -40 -27 -44 -38 -9 -30 31 -66 80 -72 22 -3 421 -10 886 -16 465 -5
1014 -12 1220 -15 206 -3 677 -7 1045 -10 369 -3 810 -7 980 -10 171 -3 611
-8 978 -11 367 -4 669 -10 671 -13 3 -6 -6 -910 -18 -1786 -3 -247 -11 -929
-16 -1515 -6 -586 -15 -1452 -20 -1925 -13 -1169 -15 -1068 14 -1101 l23 -28
16 25 c17 27 28 170 52 664 8 171 19 380 25 465 5 85 17 324 25 530 8 206 19
456 25 555 5 99 12 259 15 355 3 96 12 366 20 600 20 567 33 991 40 1360 4
168 11 458 16 645 6 187 13 575 16 863 l5 522 -2393 -2 c-1317 -2 -2488 -4
-2604 -5z"/>
<path d="M427 10354 c-2 -5 -5 -740 -4 -1634 0 -894 -6 -2286 -12 -3095 -7
-808 -11 -2305 -9 -3325 l3 -1855 310 0 c335 0 404 6 453 35 42 26 33 46 -32
67 -41 13 -105 17 -330 21 l-279 4 7 836 c3 461 11 1237 17 1727 14 1202 14
4178 0 4850 -11 530 -41 2160 -41 2241 l0 41 116 7 c63 4 126 11 140 16 32 13
31 38 -3 52 -34 13 -328 24 -336 12z"/>
<path d="M891 9890 c-4 -3 -13 -671 -20 -1485 -6 -814 -16 -1952 -21 -2530
-27 -3098 -33 -4402 -20 -4454 14 -61 51 -97 81 -80 22 11 44 51 52 94 21 107
68 3857 82 6485 4 796 12 1715 15 1802 0 3 726 7 1613 7 1654 1 3396 8 4469
20 596 6 607 6 635 27 15 12 29 28 31 37 4 22 -41 43 -108 50 -30 4 -892 7
-1915 9 -1023 1 -2281 5 -2795 9 -1442 12 -2091 14 -2099 9z"/>
<path d="M9691 8971 c-11 -11 -24 -43 -30 -73 -6 -29 -22 -334 -36 -678 -13
-344 -27 -674 -30 -735 -9 -207 -40 -1278 -50 -1735 -3 -151 -8 -347 -10 -435
-10 -344 -13 -2140 -5 -2675 11 -695 43 -1731 56 -1772 3 -10 12 -18 20 -18
35 0 36 16 59 1020 8 355 19 778 25 940 5 162 14 543 20 845 6 303 15 748 20
990 38 1724 56 4212 31 4288 -17 49 -44 64 -70 38z"/>
<path d="M6555 1119 c-275 -4 -630 -12 -790 -18 -159 -6 -423 -16 -585 -21
-244 -9 -301 -13 -330 -28 -44 -22 -47 -56 -7 -86 28 -21 34 -21 730 -24 386
-1 1064 2 1507 7 702 8 812 12 860 26 73 22 98 46 82 79 -20 45 -88 57 -352
62 -485 9 -628 9 -1115 3z"/>
<path d="M7915 584 c-462 -5 -1635 -25 -1735 -29 -52 -2 -405 -9 -785 -16
-379 -6 -774 -14 -877 -18 -178 -6 -189 -8 -210 -29 l-23 -23 23 -19 c12 -10
48 -22 80 -26 31 -4 1112 -8 2402 -8 2361 -1 3025 6 3110 35 95 32 92 91 -5
118 -40 12 -1371 22 -1980 15z"/>
</g>
</svg>
