<svg xmlns="http://www.w3.org/2000/svg" viewBox="0 0 12.33 15.48"><g id="Слой_2" data-name="Слой 2"><g id="Слой_1-2" data-name="Слой 1"><path d="M3.26,2.93a6,6,0,0,1,.91,2.28,10.83,10.83,0,0,1,.16,1.56A33.93,33.93,0,0,0,0,7.17a33.14,33.14,0,0,0,4.31.58l0,.51a14.31,14.31,0,0,1-1.56,5.4,6.59,6.59,0,0,1-1,1.4,3.78,3.78,0,0,1-.5.42,2.46,2.46,0,0,0,.6-.29A5.42,5.42,0,0,0,3.16,14a10.54,10.54,0,0,0,2.2-5.61,4.93,4.93,0,0,0,0-.55c.25,0,.5,0,.76,0H7.32a6.43,6.43,0,0,0,.35,1.57,13.23,13.23,0,0,0,1.14,2.35,11.21,11.21,0,0,0,1,1.42,3.67,3.67,0,0,0,.45.45,5.15,5.15,0,0,1-.31-.55,16.26,16.26,0,0,1-.67-1.56,21.63,21.63,0,0,1-.75-2.37,7.09,7.09,0,0,1-.19-1.34,33.43,33.43,0,0,0,4-.39,33,33,0,0,0-3.94-.55c0-.2,0-.4,0-.6a9.91,9.91,0,0,1,.8-2.81,8.07,8.07,0,0,1,1.31-2A6.54,6.54,0,0,1,11.79.32c.34-.22.54-.32.54-.32a3.38,3.38,0,0,0-.61.17A5.72,5.72,0,0,0,10.17,1,7.36,7.36,0,0,0,8.42,3a8.43,8.43,0,0,0-1.07,3.1c0,.22,0,.44,0,.66l-1.13,0h-.8A8.19,8.19,0,0,0,5.06,5,5.62,5.62,0,0,0,3.67,2.58a4.35,4.35,0,0,0-1.55-1,3.15,3.15,0,0,0-.64-.18A4.29,4.29,0,0,1,2,1.72,4.74,4.74,0,0,1,3.26,2.93Z"/></g></g></svg>