<svg xmlns="http://www.w3.org/2000/svg" viewBox="0 0 18.15 12.74"><g id="Слой_2" data-name="Слой 2"><g id="Слой_1-2" data-name="Слой 1"><path d="M16.28,8.5A6.23,6.23,0,0,1,16,9.59a4.51,4.51,0,0,1-.63,1.29,2.47,2.47,0,0,1-1.24,1,1.83,1.83,0,0,1-1.62-.33,2.31,2.31,0,0,1-.39-.31,3.85,3.85,0,0,1-.35-.35,2.49,2.49,0,0,1-.43-.88,7.23,7.23,0,0,1-.19-2.28c.05-1.31.22-2.62.22-3.88A10,10,0,0,0,11.27,2c0-.15-.06-.3-.1-.44a1.66,1.66,0,0,0-.06-.21l0-.11L11,1.08A3.9,3.9,0,0,0,10.75.5L10.61.24,10.53.11s0-.1-.07-.11c-.24.23-.46.44-.66.65L9.65.81,9.52.94l-.17.21A10.19,10.19,0,0,0,8.74,2,7.36,7.36,0,0,0,8,3.43l-.09.26a8.18,8.18,0,0,0-.44-1.32c-.11-.23-.22-.45-.34-.66L7,1.55l-.13-.21c-.12-.18-.23-.34-.35-.5L6.07,1a3.56,3.56,0,0,0-.38.12,4.44,4.44,0,0,0-.49.24,3.59,3.59,0,0,0-.8.61,3.15,3.15,0,0,0-.59.84A3,3,0,0,0,2.69,1.59L2.5,1.5l-.14-.05-.09,0a2.38,2.38,0,0,0-.37-.06,2.16,2.16,0,0,0-.76,0,1.44,1.44,0,0,0-.66.37,1.54,1.54,0,0,0-.35.56,2.31,2.31,0,0,0-.12,1,3.11,3.11,0,0,0,.13.72,2.2,2.2,0,0,0,.23.56A2.36,2.36,0,0,1,.31,4a3.36,3.36,0,0,1,0-.68,2.14,2.14,0,0,1,.27-.78.82.82,0,0,1,.66-.43,1.64,1.64,0,0,1,.48,0L2,2.27l.07,0h0l.1.07a2.38,2.38,0,0,1,.69.91,7.67,7.67,0,0,1,.47,1.33c.25,1,.42,1.92.58,2.8l.4,2.36c.12.68.23,1.23.33,1.61s.17.58.17.58,0-.22,0-.6l0-1.63c0-.69,0-1.51,0-2.42a15.44,15.44,0,0,0-.44-3,6.7,6.7,0,0,0-.38-1.06,2.89,2.89,0,0,1,.78-.83,3.07,3.07,0,0,1,.72-.38A3.45,3.45,0,0,1,6,1.92c.1,0,.09,0,.11,0h0a.09.09,0,0,1,0,.05h0l0,.06.07.14c.09.19.17.39.25.6a10,10,0,0,1,.39,1.31A28.18,28.18,0,0,1,7.31,6.9c.1.9.18,1.71.28,2.4a14.08,14.08,0,0,0,.46,2.2s0-.86.09-2.23c0-.68.08-1.5.08-2.42A13.39,13.39,0,0,0,8,4a4.14,4.14,0,0,1,.24-.46,7.55,7.55,0,0,1,.91-1.28,6.82,6.82,0,0,1,1.12-1.07s0,0,0,0v0a.14.14,0,0,1,0,.06.35.35,0,0,1,0,.13v0s0,.06,0,.09l0,.19c0,.12,0,.25.06.38a11.72,11.72,0,0,1,0,1.68c-.07,1.19-.28,2.47-.34,3.87a7.69,7.69,0,0,0,.29,2.64,3.27,3.27,0,0,0,.68,1.2,4.73,4.73,0,0,0,.47.44,6,6,0,0,0,.52.36,3.09,3.09,0,0,0,1.17.41,2.41,2.41,0,0,0,1.2-.16,2.78,2.78,0,0,0,.89-.62,4,4,0,0,0,.56-.78,4.93,4.93,0,0,0,.5-1.49,6.26,6.26,0,0,0,.07-1.16,5.81,5.81,0,0,0-.14-1A7.69,7.69,0,0,1,16.28,8.5Z"/><path d="M17.94,8.08a12.1,12.1,0,0,0-.43-1.14l-.26-.63L17.14,6c-.05-.12-.09-.24-.13-.37l-.25-.82-.6.51c-.21.18-.42.38-.62.58L15.46,6l-.07.08-.14.16c-.18.22-.34.43-.49.64-.29.42-.52.81-.71,1.15-.37.67-.58,1.1-.58,1.1a7.54,7.54,0,0,0,1-.76c.29-.25.63-.55,1-.89L16,7l.28-.27h0s0,0,0,0a5.13,5.13,0,0,0,.41.62c.27.37.52.68.73,1a10.93,10.93,0,0,1,.65.88A4.11,4.11,0,0,0,17.94,8.08Z"/></g></g></svg>