<svg xmlns="http://www.w3.org/2000/svg" viewBox="0 0 16.76 8.75"><g id="Слой_2" data-name="Слой 2"><g id="Слой_1-2" data-name="Слой 1"><path d="M1.35,5.48c.44,0,1,0,1.57,0,.3,0,.63,0,1,.07l.61.07c.29,0,.61.08.94.13l0-.08s0,0,0,0V5.31c0-.1,0-.14,0-.23l0-.13,0-.14c0-.1-.1-.21-.13-.31l0-.07,0,0a.31.31,0,0,0,0-.08A1.65,1.65,0,0,1,5.12,4,2,2,0,0,1,5.4,2.7,3.77,3.77,0,0,1,8,1.14a4,4,0,0,1,1.77.09,2.72,2.72,0,0,1,1.33.87,3.2,3.2,0,0,1,.65,1.41,5,5,0,0,1,.11.76v.5l0,.62.81-.06.51,0,.86,0c.55,0,1-.08,1.41-.13a5,5,0,0,0,1.18-.3,6,6,0,0,1-1.19.08c-.39,0-.85,0-1.39-.08l-.86-.07-.24,0h-.19l-.19,0,0-.15v-.3a5.28,5.28,0,0,0,0-.88,3.92,3.92,0,0,0-.7-1.85A3.52,3.52,0,0,0,10.1.23,4.67,4.67,0,0,0,7.84.07,5.17,5.17,0,0,0,5.92.78,4,4,0,0,0,4.54,2.22a2.9,2.9,0,0,0-.28,1.9c0,.15.08.3.13.44l0,.1s0,0,0,0v0l0,0a.86.86,0,0,1,.07.1v.06s0,0,0,0H3.91c-.35,0-.68,0-1,0a13.2,13.2,0,0,0-1.59.21A6.22,6.22,0,0,0,0,5.61,7.62,7.62,0,0,1,1.35,5.48Z"/><path d="M.14,8.53a64.47,64.47,0,0,0,8.33.16,64.59,64.59,0,0,0,8.29-.94A65.89,65.89,0,0,0,8.42,7.6,65.44,65.44,0,0,0,.14,8.53Z"/></g></g></svg>