<svg xmlns="http://www.w3.org/2000/svg" viewBox="0 0 14.58 14.13"><g id="Слой_2" data-name="Слой 2"><g id="Слой_1-2" data-name="Слой 1"><path d="M14.58,8.53a2.86,2.86,0,0,0-.32-1.29,2.07,2.07,0,0,0-1-.91A2.75,2.75,0,0,0,12,6.14a5.33,5.33,0,0,0-1.11.21l-.25.08-.28.11a2.51,2.51,0,0,0-.51.29,4.5,4.5,0,0,0-.78.72,8.82,8.82,0,0,0-.83,1.07h0c0-.33-.07-.67-.08-1,0-.69,0-1.38,0-2.06s0-1.34,0-2a7.8,7.8,0,0,0-.33-1.92A2.92,2.92,0,0,0,7.3.72a1.84,1.84,0,0,0-.83-.6A2.08,2.08,0,0,0,5.53,0a2.34,2.34,0,0,0-.86.23A3.36,3.36,0,0,0,3.52,1.29a6.3,6.3,0,0,0-.68,1.15c-.09.2-.18.4-.25.59,0-.33-.07-.66-.13-1a5.48,5.48,0,0,0-.3-1A2.48,2.48,0,0,0,1.89.57.92.92,0,0,0,1.67.35.75.75,0,0,0,1.4.22.74.74,0,0,0,.87.3,1.39,1.39,0,0,0,.56.54,2.67,2.67,0,0,0,.22,1,3,3,0,0,0,0,1.41a4.22,4.22,0,0,1,.35-.3A3.31,3.31,0,0,1,.77.81,1.39,1.39,0,0,1,1,.71a.28.28,0,0,1,.2,0A.23.23,0,0,1,1.3.82s0,.05.05.1a2.47,2.47,0,0,1,.1.35,7.26,7.26,0,0,1,.1.9c0,.66,0,1.41,0,2.2,0,1.57,0,3,.08,4.08a14.64,14.64,0,0,0,.15,1.71s.17-.63.39-1.67a22.24,22.24,0,0,0,.47-4.12c0-.24,0-.48,0-.71A9.36,9.36,0,0,1,3.15,2.6a6.62,6.62,0,0,1,.71-1A2.91,2.91,0,0,1,4.91.74,1.72,1.72,0,0,1,5.56.6a1.68,1.68,0,0,1,.68.12A1.55,1.55,0,0,1,7,1.84a7.28,7.28,0,0,1,.21,1.74c0,.62,0,1.27,0,1.94s-.06,1.37-.06,2.1a10.86,10.86,0,0,0,.07,1.12,5,5,0,0,0,.23,1.08c-.47.74-.9,1.44-1.36,2a5.36,5.36,0,0,1-1.93,1.76,2.53,2.53,0,0,1-1,.24,2.78,2.78,0,0,1-.9-.15,5.13,5.13,0,0,1-.69-.29,1.15,1.15,0,0,1-.39-.36c-.08-.13-.12-.23-.16-.3a.51.51,0,0,0-.07-.1l.06.11c0,.06.06.18.13.31a1.06,1.06,0,0,0,.38.42,3.58,3.58,0,0,0,.68.37,3.22,3.22,0,0,0,.95.24A2.8,2.8,0,0,0,4.29,14a5.79,5.79,0,0,0,2.23-1.74c.44-.52.86-1.1,1.29-1.7l0,0a5.63,5.63,0,0,0,.38.45,6.09,6.09,0,0,0,.91.84,3.81,3.81,0,0,0,1.17.6,2.92,2.92,0,0,0,1.41.09A3.1,3.1,0,0,0,13,11.93a3.92,3.92,0,0,0,.89-1A4.44,4.44,0,0,0,14.58,8.53ZM13,10.36a2.4,2.4,0,0,1-1.47,1.09A2.27,2.27,0,0,1,9.76,11,6.06,6.06,0,0,1,9,10.28c-.12-.13-.23-.26-.34-.4s-.05-.05-.06-.08a.22.22,0,0,1,0-.08s-.05-.09-.08-.14l.06-.07A12.57,12.57,0,0,1,9.67,8.12a4,4,0,0,1,.67-.57,2.47,2.47,0,0,1,.36-.19l.19-.06.23-.07a2.8,2.8,0,0,1,1.72,0,1.12,1.12,0,0,1,.53.5,1.9,1.9,0,0,1,.17.82A3.41,3.41,0,0,1,13,10.36Z"/></g></g></svg>