<svg xmlns="http://www.w3.org/2000/svg" viewBox="0 0 15.3 13.8"><g id="Слой_2" data-name="Слой 2"><g id="Слой_1-2" data-name="Слой 1"><path d="M14.76,8.82a5,5,0,0,0,.54-2.37,4.09,4.09,0,0,0-.2-1.16,3.39,3.39,0,0,0-.2-.53c-.08-.16-.16-.33-.25-.48a3.33,3.33,0,0,0-1.52-1.43,2.38,2.38,0,0,0-1-.18,2.14,2.14,0,0,0-.86.22,2.36,2.36,0,0,0-.72.53c-.05-.24-.09-.49-.15-.73a11.63,11.63,0,0,0-.3-1.23l-.05-.17c0-.09-.05-.17-.08-.25A3.62,3.62,0,0,0,9.8.6C9.73.47,9.65.37,9.58.26S9.41,0,9.34,0L8.81.63,8.57.92,8.47,1l-.07.09c-.18.23-.36.45-.51.67A6.9,6.9,0,0,0,7.19,3s0,0,0,0,0-.18,0-.27a9.59,9.59,0,0,0-.37-1.22c-.08-.2-.17-.39-.26-.57L6.41.81,6.28.57,6,.12,5.53.25,5.3.33,5.08.42a2.67,2.67,0,0,0-.51.31,3.25,3.25,0,0,0-.74.8,3.67,3.67,0,0,0-.31.63,2.06,2.06,0,0,0-.39-.39A1.67,1.67,0,0,0,3,1.65l-.08,0h0l0,0-.29-.17a1.92,1.92,0,0,0-1.33-.16A1.52,1.52,0,0,0,.31,2,2.3,2.3,0,0,0,0,2.76a2.68,2.68,0,0,0,0,.62,4,4,0,0,0,.07.5s0-.18.1-.49a2.37,2.37,0,0,1,.18-.53,1.8,1.8,0,0,1,.39-.58A1,1,0,0,1,1.37,2a1.31,1.31,0,0,1,.74.25l.19.14,0,0h0l0,0,0,0,.07.07a1.47,1.47,0,0,1,.27.36,4.36,4.36,0,0,1,.36,1,18.34,18.34,0,0,1,.34,2.34l.18,2c.06.58.12,1.05.17,1.37s.09.5.09.5L4,9.62c.05-.32.13-.78.21-1.36a20.16,20.16,0,0,0,.19-2,10.12,10.12,0,0,0-.2-2.56,5.49,5.49,0,0,0-.32-.94A3.78,3.78,0,0,1,4.39,2,3.07,3.07,0,0,1,5,1.43a2,2,0,0,1,.4-.17s0,0,0,0h0s0,0,0,0h0s0,0,0,0l0,.06c.07.17.13.34.19.51.12.35.22.72.31,1.1.21,1,.31,1.89.42,2.76s.21,1.68.34,2.35a10.21,10.21,0,0,0,.59,2.11,20.17,20.17,0,0,1,0-2.16c0-.67,0-1.46,0-2.35a16.29,16.29,0,0,0-.17-2.33l.18-.26a8.8,8.8,0,0,1,.87-1l.59-.57L9,1.48l.05,0,.07-.06.11-.07s0,0,0,.06a.25.25,0,0,1,0,.08.25.25,0,0,1,0,.08v0a.12.12,0,0,1,0,.05l0,.07c.07.36.13.76.19,1.18.11.8.21,1.67.35,2.56a1.43,1.43,0,0,0,0,.31.69.69,0,0,1,0-.13,24.72,24.72,0,0,0,.77,3.5,9.6,9.6,0,0,0,.63,1.53,3.82,3.82,0,0,0,.29.48l-.32.26a11.52,11.52,0,0,1-2.9,1.69,7.09,7.09,0,0,1-2.22.53,4.79,4.79,0,0,1-.85,0,4.49,4.49,0,0,0,.85.2,6.84,6.84,0,0,0,2.39-.18,10.49,10.49,0,0,0,3.27-1.46l.43-.31h0a1.42,1.42,0,0,0,.66.28,1.22,1.22,0,0,0,.61-.05,2.32,2.32,0,0,0,.79-.46,4.89,4.89,0,0,0,.51-.54,5.61,5.61,0,0,1-.61.4,2,2,0,0,1-.76.26.94.94,0,0,1-.77-.23,10.67,10.67,0,0,0,.79-.73A7.54,7.54,0,0,0,14.76,8.82ZM12,10.64c0-.1-.09-.21-.13-.32a12.19,12.19,0,0,1-.41-1.46c-.23-1.06-.41-2.26-.6-3.53-.08-.48-.16-1-.23-1.41a2.16,2.16,0,0,1,.83-.53,1.68,1.68,0,0,1,1.31.13,2.7,2.7,0,0,1,1,1.19,3.92,3.92,0,0,1,.42,1.75,4.52,4.52,0,0,1-.48,1.89A7.25,7.25,0,0,1,12.63,10,6.82,6.82,0,0,1,12,10.64Z"/></g></g></svg>