<svg xmlns="http://www.w3.org/2000/svg" viewBox="0 0 17.97 13.76"><g id="Слой_2" data-name="Слой 2"><g id="Слой_1-2" data-name="Слой 1"><path d="M17.61,1.59A2.77,2.77,0,0,0,16.55.53,4.24,4.24,0,0,0,15.13.06a5.85,5.85,0,0,0-1.51,0,4.44,4.44,0,0,0-1.51.48,4.61,4.61,0,0,0-1.25,1A6.45,6.45,0,0,0,10,2.72a10,10,0,0,0-.86,2.57c-.06.31-.11.62-.16.93-.05-.29-.12-.57-.19-.86a9.78,9.78,0,0,0-1-2.49,5.57,5.57,0,0,0-.93-1.16A4.33,4.33,0,0,0,5.51.84,4.23,4.23,0,0,0,4,.51,5.29,5.29,0,0,0,2.47.69a4.16,4.16,0,0,0-1.35.63A2.72,2.72,0,0,0,.2,2.5,3.16,3.16,0,0,0,0,3.87a4.21,4.21,0,0,0,.3,1.21A4.83,4.83,0,0,0,1.54,6.84a2.52,2.52,0,0,0,1.65.71,1.38,1.38,0,0,0,.72-.25,1.54,1.54,0,0,0,.41-.45,2.79,2.79,0,0,0,.32-.75c.05-.18.07-.27.07-.27a2.15,2.15,0,0,1-.11.25,3.17,3.17,0,0,1-.41.67,1.15,1.15,0,0,1-1,.45,2.12,2.12,0,0,1-1.27-.75A4.52,4.52,0,0,1,1,4.82a2.76,2.76,0,0,1,0-2,1.86,1.86,0,0,1,.66-.74,3.18,3.18,0,0,1,1-.42,3.88,3.88,0,0,1,2.36.14A4.1,4.1,0,0,1,6.88,3.43a9.6,9.6,0,0,1,1,2.2,22.39,22.39,0,0,1,.9,4.05v.05c0,1.25.13,2.26.21,3s.14,1.07.14,1.07.05-.38.12-1.07a26.6,26.6,0,0,0,.09-2.95v-.1A24.3,24.3,0,0,1,10,5.5a9.8,9.8,0,0,1,.89-2.28,4.23,4.23,0,0,1,1.69-1.74A4.11,4.11,0,0,1,15,1.09a3.37,3.37,0,0,1,1.09.31,1.83,1.83,0,0,1,.74.66A2.68,2.68,0,0,1,17.08,4a4.35,4.35,0,0,1-.75,1.72,2.07,2.07,0,0,1-1.19.89,1.16,1.16,0,0,1-1-.35,2.89,2.89,0,0,1-.48-.62l-.14-.25s0,.1.1.27a2.73,2.73,0,0,0,.39.71,1.42,1.42,0,0,0,.46.41,1.32,1.32,0,0,0,.75.17,2.43,2.43,0,0,0,1.57-.88,4.72,4.72,0,0,0,1.05-1.9A4.09,4.09,0,0,0,18,2.94,3,3,0,0,0,17.61,1.59Z"/></g></g></svg>