<svg xmlns="http://www.w3.org/2000/svg" viewBox="0 0 14.99 13.92"><g id="Слой_2" data-name="Слой 2"><g id="Слой_1-2" data-name="Слой 1"><path d="M14.84.43a1.39,1.39,0,0,0-.5-.18,1.83,1.83,0,0,0-.87.09,5,5,0,0,0-1,.51c-.7.44-1.44,1.07-2.29,1.63a4.37,4.37,0,0,1-2.86.91,3.46,3.46,0,0,1-.76-.17,2.67,2.67,0,0,1-.36-.14L6,3,6,3s-.08,0-.08,0l-.07,0a2.28,2.28,0,0,1-.59-.4C5,2.35,4.83,2.17,4.64,2A8.9,8.9,0,0,0,2.37.18,1.73,1.73,0,0,0,1.16.06,1.85,1.85,0,0,0,.42.53,3.77,3.77,0,0,0,0,1.1,4.07,4.07,0,0,1,.53.66,1.58,1.58,0,0,1,1.23.4a1.33,1.33,0,0,1,.88.26,4.86,4.86,0,0,1,.9.83c.31.34.61.73,1,1.14a8.09,8.09,0,0,0,.58.62,3.47,3.47,0,0,0,.78.59l.12.06h0l0,0L5.64,4A5.16,5.16,0,0,0,5,4.41,5.38,5.38,0,0,0,3,6.94a5.27,5.27,0,0,0-.21,2.84,5.15,5.15,0,0,0,2.54,3.5,5,5,0,0,0,1.38.52,4.73,4.73,0,0,0,.92.1H8A5,5,0,0,1,5.54,13a4.77,4.77,0,0,1-1.25-1.31,4.67,4.67,0,0,1-.4-4.4,4.58,4.58,0,0,1,6.94-1.89,4.62,4.62,0,0,1,1.78,4.49,4.78,4.78,0,0,1-.83,2,5,5,0,0,1-1.32,1.25,5.25,5.25,0,0,1-1.28.59,5.25,5.25,0,0,1-1.2.2l.32,0a5.83,5.83,0,0,0,.92-.06,4.82,4.82,0,0,0,1.41-.45A5.14,5.14,0,0,0,13.33,10a5.3,5.3,0,0,0-.07-2.84,5.41,5.41,0,0,0-1.8-2.62A5.18,5.18,0,0,0,10,3.74a8.54,8.54,0,0,0,.73-.52c.86-.7,1.49-1.42,2.07-1.94a4.53,4.53,0,0,1,.82-.62,1.65,1.65,0,0,1,.72-.24,1.33,1.33,0,0,1,.49,0L15,.53A.72.72,0,0,0,14.84.43Z"/></g></g></svg>