<svg xmlns="http://www.w3.org/2000/svg" viewBox="0 0 13.56 12.05"><g id="Слой_2" data-name="Слой 2"><g id="Слой_1-2" data-name="Слой 1"><path d="M12.39,2.83l.07-.16a2.55,2.55,0,0,1,.13-.29c.09-.2.19-.39.3-.6L13.56.52l-.41.16L12.27,1a3.36,3.36,0,0,1-.71.2l-.42.05-.29,0a7.46,7.46,0,0,1-1.16,0,8.71,8.71,0,0,1-2-.35A3.67,3.67,0,0,1,6.51.36,1.62,1.62,0,0,1,6.15,0a1.58,1.58,0,0,0,.23.48,3.52,3.52,0,0,0,1.13.94,7.2,7.2,0,0,0,2.05.76,6.6,6.6,0,0,0,1.3.16h.19A60.8,60.8,0,0,0,5.64,6.47,12.38,12.38,0,0,0,4.11,4.53a11.1,11.1,0,0,0-.86-.8,11.41,11.41,0,0,0,.41,1.1A18,18,0,0,0,4.82,7.19,58.14,58.14,0,0,0,0,12.05a56.68,56.68,0,0,0,5.4-4,8.12,8.12,0,0,0,1.25,1.4,6.71,6.71,0,0,0,.95.71l-.52-1c-.25-.47-.52-1.08-.88-1.74l.13-.11a59.31,59.31,0,0,0,5.1-5s0,0,0,0h0s0,0,0,.05l0,.08a6.44,6.44,0,0,0-.29,1.25,4.93,4.93,0,0,0,.19,2.16A3.52,3.52,0,0,0,12,7.13a2.76,2.76,0,0,0,.37.35s-.1-.15-.23-.44a4.05,4.05,0,0,1-.33-1.27A5.58,5.58,0,0,1,12,3.89,9.47,9.47,0,0,1,12.39,2.83Z"/></g></g></svg>