<svg xmlns="http://www.w3.org/2000/svg" viewBox="0 0 11.16 13.19"><g id="Слой_2" data-name="Слой 2"><g id="Слой_1-2" data-name="Слой 1"><path d="M10.73,8.28a4.66,4.66,0,0,0-.81-1,.61.61,0,0,0-.24-.24l-.23-.12-.19-.08.18.1.21.14a.55.55,0,0,1,.21.24h0a4,4,0,0,1,.69,1A2.82,2.82,0,0,1,10.81,10a3,3,0,0,1-1,1.78,3.07,3.07,0,0,1-1,.6,2.13,2.13,0,0,1-1.17.09,1.59,1.59,0,0,1-1-.66,2.2,2.2,0,0,1-.31-.59,2.55,2.55,0,0,1-.11-.33l0-.17,0-.09v-.07a1.49,1.49,0,0,1,0-.3c0-.12,0-.24,0-.37s.1-.51.16-.78c.11-.53.25-1.08.38-1.64A24.15,24.15,0,0,0,7.39,3.9a6.68,6.68,0,0,0-.12-2A2.78,2.78,0,0,0,6.77.82a2,2,0,0,0-1-.71A3.11,3.11,0,0,0,4.34.05a6.4,6.4,0,0,0-1.2.32A3.17,3.17,0,0,0,2,1a2.43,2.43,0,0,0-.69,1.21,3.59,3.59,0,0,0,0,1.26,7.35,7.35,0,0,0,.26,1.12c.22.7.49,1.34.75,2S2.81,7.8,3,8.38a6.56,6.56,0,0,1,.42,1.68A1.69,1.69,0,0,1,3,11.4a2.12,2.12,0,0,1-.57.41,2.88,2.88,0,0,1-.66.23,1.07,1.07,0,0,1-1.08-.32,1.85,1.85,0,0,1-.39-1.07A2,2,0,0,1,1,8.91a1,1,0,0,1,.67-.19,1.52,1.52,0,0,1,.53.13,3.76,3.76,0,0,1,.4.2S2.49,9,2.22,8.8a1.49,1.49,0,0,0-.53-.18,1.17,1.17,0,0,0-.77.14,1.73,1.73,0,0,0-.65.75A2.7,2.7,0,0,0,0,10.65,2.22,2.22,0,0,0,.38,12a1.44,1.44,0,0,0,.66.5,1.89,1.89,0,0,0,.85.09,3.41,3.41,0,0,0,.83-.23,2.93,2.93,0,0,0,.77-.49A2.06,2.06,0,0,0,4,11a2.8,2.8,0,0,0,.15-1,6.54,6.54,0,0,0-.37-1.91c-.19-.63-.43-1.25-.67-1.87S2.67,5,2.49,4.35a3.78,3.78,0,0,1-.16-1.86,1.24,1.24,0,0,1,.39-.67,2.27,2.27,0,0,1,.78-.44,5.26,5.26,0,0,1,1-.26,2.11,2.11,0,0,1,.91,0,1,1,0,0,1,.51.34,1.63,1.63,0,0,1,.3.65,5.87,5.87,0,0,1,.11,1.69,26.46,26.46,0,0,1-.51,3.46C5.71,7.85,5.59,8.4,5.49,9c0,.28-.1.56-.13.84s0,.29,0,.44a2.91,2.91,0,0,0,0,.49v.07l0,.05,0,.11c0,.06,0,.13.07.2a2.74,2.74,0,0,0,.15.4,3.71,3.71,0,0,0,.44.74,2.37,2.37,0,0,0,1.45.87A2.75,2.75,0,0,0,9,13a3.51,3.51,0,0,0,1.13-.78,3.31,3.31,0,0,0,1-2.11A3,3,0,0,0,10.73,8.28Z"/></g></g></svg>