<svg xmlns="http://www.w3.org/2000/svg" viewBox="0 0 12.53 12.05"><g id="Слой_2" data-name="Слой 2"><g id="Слой_1-2" data-name="Слой 1"><path d="M12.35,2.89a3,3,0,0,0-.86-1.35A6.25,6.25,0,0,0,9,.23,7.2,7.2,0,0,0,6.39,0a8,8,0,0,0-4,1.6A5.61,5.61,0,0,0,.66,3.88a4.37,4.37,0,0,0-.28,1A5.06,5.06,0,0,1,.81,4,5.69,5.69,0,0,1,2.73,2.09,7.78,7.78,0,0,1,6.46,1a6.65,6.65,0,0,1,2.24.27,5.65,5.65,0,0,1,2.08,1.13,2.41,2.41,0,0,1,.69,1.93,2,2,0,0,1-.89,1.64,1.9,1.9,0,0,1-.88.24,2.58,2.58,0,0,1-.48,0,2.63,2.63,0,0,1-.44-.09A1.57,1.57,0,0,1,7.71,4.94a2.14,2.14,0,0,1,.07-1.4,1.25,1.25,0,0,1,.75-.75,1.17,1.17,0,0,1,.71,0,1.1,1.1,0,0,1,.25.1,1.23,1.23,0,0,0-.23-.14,1.22,1.22,0,0,0-.77-.15,1.46,1.46,0,0,0-1,.76,2.49,2.49,0,0,0-.3,1.68,2.11,2.11,0,0,0,.41,1,2.2,2.2,0,0,0,.92.72,3.33,3.33,0,0,0,.57.17A2.49,2.49,0,0,0,9.69,7a2.48,2.48,0,0,0,2.37-1.24,3.4,3.4,0,0,0,.45-1.39A3.59,3.59,0,0,0,12.35,2.89Z"/><path d="M9.82,9.9a8,8,0,0,1-3.71,1.18,7,7,0,0,1-2.25-.24A5.57,5.57,0,0,1,1.77,9.73a2.39,2.39,0,0,1-.72-1.91,2,2,0,0,1,.87-1.66,1.77,1.77,0,0,1,.88-.25,2.5,2.5,0,0,1,.47,0A2.75,2.75,0,0,1,3.72,6,1.54,1.54,0,0,1,4.8,7.11a2.11,2.11,0,0,1,0,1.41A1.26,1.26,0,0,1,4,9.28a1.18,1.18,0,0,1-.71,0,1.68,1.68,0,0,1-.25-.09,1.23,1.23,0,0,0,.23.14,1.31,1.31,0,0,0,.77.13,1.49,1.49,0,0,0,1-.77A2.5,2.5,0,0,0,5.33,7a2.15,2.15,0,0,0-.42-1A2.25,2.25,0,0,0,4,5.32a3.18,3.18,0,0,0-.58-.17,2.92,2.92,0,0,0-.61-.07,2.6,2.6,0,0,0-1.31.27,2.7,2.7,0,0,0-1,1A3.47,3.47,0,0,0,0,7.74,3.64,3.64,0,0,0,.19,9.23a2.91,2.91,0,0,0,.88,1.33,6.22,6.22,0,0,0,2.52,1.28,7.22,7.22,0,0,0,2.6.15,7.91,7.91,0,0,0,4-1.65,5.78,5.78,0,0,0,1.73-2.26,4.27,4.27,0,0,0,.26-1,4.82,4.82,0,0,1-.42.92A5.7,5.7,0,0,1,9.82,9.9Z"/></g></g></svg>