<svg xmlns="http://www.w3.org/2000/svg" viewBox="0 0 14.49 10.4"><g id="Слой_2" data-name="Слой 2"><g id="Слой_1-2" data-name="Слой 1"><path d="M1.21,2.34a3.12,3.12,0,0,1,.92-.6,1.87,1.87,0,0,1,.58-.12.73.73,0,0,1,.49.15,1.66,1.66,0,0,1,.42.5c.15.21.29.47.46.74a2.68,2.68,0,0,0,.74.82,1.51,1.51,0,0,0,.58.25A1.63,1.63,0,0,0,6,4.1l.15,0,.17,0,.31-.14a2.84,2.84,0,0,0,.49-.4c.27-.28.47-.57.67-.8a1.76,1.76,0,0,1,.58-.48,1,1,0,0,1,.55-.07,1.5,1.5,0,0,1,.51.43,8.12,8.12,0,0,0,.65.72,2,2,0,0,0,.46.33l.14.06.09,0h.06l.23,0a2.52,2.52,0,0,0,.91,0,2.69,2.69,0,0,0,1.35-.87,4.12,4.12,0,0,0,.7-1.1,6.63,6.63,0,0,0,.31-.92c.12-.52.13-.81.14-.81s-.09.28-.3.74a5.7,5.7,0,0,1-.45.8,3.72,3.72,0,0,1-.76.85,2.1,2.1,0,0,1-1.12.51,1.81,1.81,0,0,1-.65,0l-.17,0,0,0h0l-.05,0a1.39,1.39,0,0,1-.22-.21c-.16-.17-.32-.42-.53-.69a4,4,0,0,0-.35-.41,1.71,1.71,0,0,0-.55-.37A1.06,1.06,0,0,0,8.94,1L8.77,1H8.61A1.93,1.93,0,0,0,8,1.12a2.61,2.61,0,0,0-1,.76c-.25.29-.45.57-.63.77A.93.93,0,0,1,5.87,3a.79.79,0,0,1-.55-.07,2,2,0,0,1-.51-.5c-.17-.22-.34-.47-.53-.71a2.51,2.51,0,0,0-.73-.64A1.44,1.44,0,0,0,2.63.92a2.57,2.57,0,0,0-.72.28A3.22,3.22,0,0,0,1,2.08a8.39,8.39,0,0,0-.53.78c-.27.43-.44.66-.44.66S.21,3.34.57,3C.74,2.8,1,2.57,1.21,2.34Z"/><path d="M13.74,7.81a3.76,3.76,0,0,1-.76.86,2.18,2.18,0,0,1-1.12.51,2.06,2.06,0,0,1-.65,0L11,9.08h0l-.05,0a1,1,0,0,1-.22-.2c-.16-.18-.32-.42-.53-.69a3.24,3.24,0,0,0-.35-.42,1.89,1.89,0,0,0-.55-.37,2,2,0,0,0-.35-.09H8.61A2,2,0,0,0,8,7.4a2.49,2.49,0,0,0-1,.75c-.25.29-.45.57-.63.77a.9.9,0,0,1-.52.34.74.74,0,0,1-.55-.08,1.83,1.83,0,0,1-.51-.5c-.17-.22-.34-.46-.53-.7a2.55,2.55,0,0,0-.73-.65,1.37,1.37,0,0,0-.92-.13,2.08,2.08,0,0,0-.72.28A3.19,3.19,0,0,0,1,8.35c-.23.3-.39.57-.53.78-.27.44-.44.66-.44.66a7.41,7.41,0,0,0,.57-.54c.17-.18.38-.4.64-.63A3.14,3.14,0,0,1,2.13,8a2.21,2.21,0,0,1,.58-.11A.78.78,0,0,1,3.2,8a1.66,1.66,0,0,1,.42.5c.15.22.29.48.46.75a2.93,2.93,0,0,0,.74.82,1.89,1.89,0,0,0,.58.25,1.85,1.85,0,0,0,.62,0l.15,0,.17,0a1.77,1.77,0,0,0,.31-.15,2.14,2.14,0,0,0,.49-.4c.27-.28.47-.57.67-.8a1.6,1.6,0,0,1,.58-.47.81.81,0,0,1,.55-.07,1.39,1.39,0,0,1,.51.43c.19.22.39.47.65.72a2,2,0,0,0,.46.32l.14.06.09,0h.06l.23,0A2.76,2.76,0,0,0,12,10a2.68,2.68,0,0,0,1.35-.86A4.45,4.45,0,0,0,14,8a7.11,7.11,0,0,0,.31-.92c.12-.52.13-.82.14-.82s-.09.28-.3.75A5.65,5.65,0,0,1,13.74,7.81Z"/></g></g></svg>