<svg xmlns="http://www.w3.org/2000/svg" viewBox="0 0 11.04 16.17"><g id="Слой_2" data-name="Слой 2"><g id="Слой_1-2" data-name="Слой 1"><path d="M1.59,14A15.1,15.1,0,0,1,4,13.42c.09.65.16,1,.16,1s.06-.39.14-1.07c.39,0,.79-.1,1.2-.12a12.08,12.08,0,0,1,1.35,0c.17,1.76.38,2.91.38,2.91s.19-1.12.33-2.83h.08a6.4,6.4,0,0,1,1.68.52,5.62,5.62,0,0,1,1,.65l.36.3a2.65,2.65,0,0,0-.23-.41,4.17,4.17,0,0,0-.87-1,5.32,5.32,0,0,0-1.76-1l-.23-.06c.06-.93.1-2,.09-3.1,0-.3,0-.6,0-.89V8h0V7.86l0-.26,0-.52c0-.34-.06-.67-.09-1,0-.61-.12-1.16-.18-1.61a1.37,1.37,0,0,1,0-.19A5.5,5.5,0,0,0,8.69,4a3.87,3.87,0,0,0,1.73-1.32A3.26,3.26,0,0,0,11,1.32,3,3,0,0,0,11,.82s-.07.17-.22.44a3.62,3.62,0,0,1-.8,1,4,4,0,0,1-1.62.81,6.75,6.75,0,0,1-1.24.17c0-.14,0-.22,0-.22l0,.23c-.31,0-.63,0-1,0a13.08,13.08,0,0,1-1.72-.2C4.24,1.21,4,0,4,0s-.18,1.15-.32,2.91A12.77,12.77,0,0,1,2,2.39,7.38,7.38,0,0,1,.33,1.56,4.87,4.87,0,0,0,1.71,2.87a8.59,8.59,0,0,0,1.85.95l.08,0c-.06,1-.1,2.16-.09,3.37a51.07,51.07,0,0,0,.32,5.19c-.27.07-.54.16-.79.25a8,8,0,0,0-1.74.88A5.88,5.88,0,0,0,0,14.7,11.74,11.74,0,0,1,1.59,14Zm3.05-6.8c0-1.12-.06-2.17-.13-3.11a7.8,7.8,0,0,0,1.58.24,8,8,0,0,0,.85,0s0,.1,0,.15c-.06.45-.11,1-.16,1.62,0,.31,0,.63-.06,1l0,.52V8h0s0,0,0,0V9.31c0,1,.06,2,.13,2.91a6.43,6.43,0,0,0-1.32-.05,8.53,8.53,0,0,0-1,.12A50,50,0,0,0,4.64,7.22Z"/></g></g></svg>